<svg width="1100" height="1990" viewBox="0 0 1100 1990" fill="none" xmlns="http://www.w3.org/2000/svg">
<path d="M765.572 1453.92L93.5404 1368.94C93.5404 1368.94 102.744 742.025 50.4761 632.853C469.46 522.484 1048.66 660.135 1048.66 660.135L765.572 1453.92Z" fill="#8E0084"/>
<path d="M293.356 1443.99C381.714 1443.33 450.929 1119.58 447.952 720.889C444.976 322.193 370.934 -0.475814 282.576 0.1873C194.218 0.850413 125.003 324.595 127.98 723.29C130.956 1121.99 204.998 1444.65 293.356 1443.99Z" fill="#F2D359"/>
<path d="M291.159 241.282C334.647 219.425 364.157 190.274 357.071 176.169C349.985 162.065 308.987 168.349 265.498 190.206C222.01 212.062 192.5 241.214 199.586 255.318C206.672 269.422 247.67 263.138 291.159 241.282Z" fill="#7D6917"/>
<path d="M298.046 433.784C356.109 412.579 397.605 380.119 390.729 361.283C383.853 342.448 331.209 344.369 273.145 365.574C215.082 386.779 173.586 419.239 180.462 438.074C187.338 456.91 239.982 454.989 298.046 433.784Z" fill="#7D6917"/>
<path d="M307.986 622.679C366.049 601.474 407.545 569.014 400.668 550.178C393.792 531.343 341.148 533.264 283.085 554.469C225.021 575.674 183.526 608.134 190.402 626.969C197.278 645.805 249.922 643.884 307.986 622.679Z" fill="#7D6917"/>
<path d="M585.265 1037.32C585.265 1037.32 670.647 755.914 642.672 529.607C669.479 503.09 680.003 519.275 680.003 519.275C680.003 519.275 697.382 751.656 682.168 907.591C718.158 739.451 768.732 454.111 739.248 290.704C772.14 271.555 795.02 274.142 795.02 274.142C795.02 274.142 769.967 645.868 748.574 835.067C727.181 1024.27 844.736 241.998 887.962 181.398C922.564 175.611 927.315 197.974 927.315 197.974C927.315 197.974 872.404 383.374 864.822 450.432C932.652 343.851 999.699 351.432 999.699 351.432C999.699 351.432 1017.75 363.428 1015.31 384.979C979.896 397.955 877.033 471.211 864.208 498.869C851.382 526.526 780.669 884.776 780.669 884.776L585.282 1037.32L585.265 1037.32Z" fill="#18A352"/>
<path d="M619.701 377.51C647.977 380.707 673.491 360.373 676.689 332.093C679.887 303.812 659.557 278.295 631.281 275.098C603.006 271.901 577.491 292.234 574.294 320.515C571.096 348.795 591.426 374.312 619.701 377.51Z" fill="#005423"/>
<path d="M589.817 584.37C618.092 587.568 643.606 567.234 646.804 538.953C650.002 510.673 629.672 485.156 601.396 481.959C573.121 478.761 547.607 499.095 544.409 527.376C541.211 555.656 561.541 581.173 589.817 584.37Z" fill="#005423"/>
<path d="M646.21 544.208C674.486 547.405 700 527.072 703.197 498.791C706.395 470.511 686.065 444.994 657.79 441.797C629.514 438.599 604 458.933 600.802 487.213C597.605 515.494 617.934 541.011 646.21 544.208Z" fill="#005423"/>
<path d="M691.378 557.435C719.653 560.632 745.168 540.299 748.365 512.018C751.563 483.738 731.233 458.221 702.958 455.023C674.682 451.826 649.168 472.16 645.97 500.44C642.772 528.721 663.102 554.238 691.378 557.435Z" fill="#005423"/>
<path d="M688.194 505.206C716.47 508.403 741.984 488.069 745.182 459.789C748.38 431.509 728.05 405.991 699.774 402.794C671.498 399.597 645.984 419.931 642.787 448.211C639.589 476.491 659.919 502.009 688.194 505.206Z" fill="#005423"/>
<path d="M611.704 504.35C639.98 507.547 665.494 487.214 668.692 458.933C671.889 430.653 651.56 405.136 623.284 401.939C595.008 398.741 569.494 419.075 566.296 447.355C563.099 475.636 583.428 501.153 611.704 504.35Z" fill="#005423"/>
<path d="M617.642 451.837C645.918 455.034 671.432 434.701 674.629 406.42C677.827 378.14 657.497 352.623 629.222 349.425C600.946 346.228 575.432 366.562 572.234 394.842C569.036 423.123 589.366 448.64 617.642 451.837Z" fill="#005423"/>
<path d="M670.467 443.23C698.743 446.427 724.257 426.093 727.455 397.813C730.652 369.533 710.323 344.015 682.047 340.818C653.771 337.621 628.257 357.955 625.06 386.235C621.862 414.515 642.192 440.033 670.467 443.23Z" fill="#005423"/>
<path d="M728.361 389.796C756.637 392.993 782.151 372.659 785.349 344.379C788.546 316.099 768.217 290.581 739.941 287.384C711.665 284.187 686.151 304.521 682.954 332.801C679.756 361.081 700.086 386.599 728.361 389.796Z" fill="#005423"/>
<path d="M720.577 345.166C748.853 348.363 774.367 328.029 777.564 299.749C780.762 271.469 760.432 245.951 732.157 242.754C703.881 239.557 678.367 259.891 675.169 288.171C671.972 316.451 692.301 341.969 720.577 345.166Z" fill="#005423"/>
<path d="M744.994 301.388C773.269 304.585 798.783 284.252 801.981 255.971C805.179 227.691 784.849 202.174 756.573 198.977C728.298 195.779 702.784 216.113 699.586 244.393C696.388 272.674 716.718 298.191 744.994 301.388Z" fill="#005423"/>
<path d="M796.191 307.177C824.467 310.374 849.981 290.041 853.179 261.76C856.376 233.48 836.047 207.963 807.771 204.766C779.495 201.568 753.981 221.902 750.783 250.182C747.586 278.463 767.916 303.98 796.191 307.177Z" fill="#005423"/>
<path d="M787.144 387.193C815.419 390.39 840.934 370.056 844.131 341.776C847.329 313.496 826.999 287.978 798.724 284.781C770.448 281.584 744.934 301.918 741.736 330.198C738.538 358.478 758.868 383.996 787.144 387.193Z" fill="#005423"/>
<path d="M808.28 360.405C836.556 363.602 862.07 343.268 865.268 314.988C868.466 286.708 848.136 261.19 819.86 257.993C791.584 254.796 766.07 275.13 762.873 303.41C759.675 331.69 780.005 357.208 808.28 360.405Z" fill="#005423"/>
<path d="M861.057 249.527C889.332 252.724 914.847 232.391 918.044 204.11C921.242 175.83 900.912 150.313 872.636 147.115C844.361 143.918 818.847 164.252 815.649 192.532C812.451 220.813 832.781 246.33 861.057 249.527Z" fill="#005423"/>
<path d="M946.823 207.364C975.099 210.562 1000.61 190.228 1003.81 161.948C1007.01 133.667 986.679 108.15 958.403 104.953C930.127 101.755 904.613 122.089 901.416 150.37C898.218 178.65 918.548 204.167 946.823 207.364Z" fill="#005423"/>
<path d="M920.394 286.033C948.67 289.23 974.184 268.896 977.382 240.616C980.579 212.335 960.249 186.818 931.974 183.621C903.698 180.424 878.184 200.757 874.986 229.038C871.789 257.318 892.118 282.835 920.394 286.033Z" fill="#005423"/>
<path d="M960.273 290.542C988.549 293.739 1014.06 273.405 1017.26 245.125C1020.46 216.845 1000.13 191.327 971.853 188.13C943.578 184.933 918.063 205.267 914.866 233.547C911.668 261.827 931.998 287.345 960.273 290.542Z" fill="#005423"/>
<path d="M899.349 370.702C927.624 373.899 953.138 353.565 956.336 325.285C959.534 297.005 939.204 271.487 910.928 268.29C882.653 265.093 857.139 285.427 853.941 313.707C850.743 341.987 871.073 367.505 899.349 370.702Z" fill="#005423"/>
<path d="M896.53 318.523C924.806 321.72 950.32 301.386 953.518 273.106C956.715 244.826 936.386 219.308 908.11 216.111C879.834 212.914 854.32 233.248 851.122 261.528C847.925 289.808 868.254 315.326 896.53 318.523Z" fill="#005423"/>
<path d="M953.562 406.01C981.838 409.207 1007.35 388.873 1010.55 360.593C1013.75 332.313 993.418 306.796 965.142 303.598C936.866 300.401 911.352 320.735 908.154 349.015C904.957 377.296 925.286 402.813 953.562 406.01Z" fill="#005423"/>
<path d="M1015.43 383.828C1043.71 387.025 1069.22 366.691 1072.42 338.411C1075.62 310.131 1055.29 284.613 1027.01 281.416C998.736 278.219 973.222 298.553 970.024 326.833C966.827 355.113 987.156 380.631 1015.43 383.828Z" fill="#005423"/>
<path d="M1042.05 447.524C1070.33 450.721 1095.84 430.387 1099.04 402.107C1102.24 373.827 1081.91 348.31 1053.63 345.112C1025.36 341.915 999.844 362.249 996.646 390.529C993.448 418.81 1013.78 444.327 1042.05 447.524Z" fill="#005423"/>
<path d="M997.03 480.155C1025.31 483.352 1050.82 463.018 1054.02 434.738C1057.22 406.458 1036.89 380.94 1008.61 377.743C980.335 374.546 954.821 394.88 951.623 423.16C948.425 451.44 968.755 476.958 997.03 480.155Z" fill="#005423"/>
<path d="M974.934 523.86C1003.21 527.057 1028.72 506.723 1031.92 478.443C1035.12 450.163 1014.79 424.645 986.514 421.448C958.238 418.251 932.724 438.585 929.526 466.865C926.329 495.145 946.658 520.662 974.934 523.86Z" fill="#005423"/>
<path d="M950.886 474.937C979.162 478.135 1004.68 457.801 1007.87 429.52C1011.07 401.24 990.742 375.723 962.466 372.526C934.191 369.328 908.677 389.662 905.479 417.943C902.281 446.223 922.611 471.74 950.886 474.937Z" fill="#005423"/>
<path d="M1048.66 660.135C908.741 1148.45 799.193 1901.58 799.193 1901.58C787.958 1957.47 735.831 1995.48 679.188 1989.08L97.482 1923.31C40.1678 1916.82 -2.36457 1867.1 0.102035 1809.46C0.102035 1809.46 56.002 1091.49 50.4761 632.853C198.645 692.88 1048.66 660.135 1048.66 660.135Z" fill="#FF86F7"/>
<path d="M550.789 1182.27C565.123 1036.46 793.743 1062.31 775.14 1207.64C760.807 1353.44 532.187 1327.59 550.789 1182.27Z" fill="white"/>
<path d="M676.151 1078.39C705.959 1081.76 734.98 1094.73 755.406 1116.81C775.961 1139.03 787.413 1170.06 782.528 1208.47C778.714 1247 760.616 1274.7 735.613 1291.76C710.771 1308.72 679.586 1314.88 649.778 1311.51C619.971 1308.14 590.95 1295.17 570.524 1273.09C549.967 1250.87 538.514 1219.84 543.401 1181.43C547.217 1142.9 565.316 1115.21 590.316 1098.14C615.159 1081.18 646.344 1075.02 676.151 1078.39ZM674.48 1093.17C647.666 1090.13 620.171 1095.77 598.698 1110.42C577.406 1124.96 561.562 1148.67 558.188 1182.99C558.181 1183.07 558.173 1183.14 558.164 1183.21C553.785 1217.42 563.931 1244.07 581.437 1262.99C599.093 1282.07 624.636 1293.7 651.45 1296.73C678.264 1299.77 705.758 1294.14 727.232 1279.48C748.524 1264.94 764.367 1241.23 767.74 1206.92C767.747 1206.84 767.756 1206.77 767.765 1206.7C772.144 1172.49 761.998 1145.84 744.492 1126.91C726.836 1107.83 701.294 1096.2 674.48 1093.17Z" fill="#231F20"/>
<path d="M538.639 1394.66C541.205 1391.45 545.884 1390.94 549.089 1393.5C552.295 1396.07 552.814 1400.75 550.249 1403.95C531.355 1427.57 497.886 1441.13 464.884 1441.5C431.704 1441.88 397.393 1428.91 377.735 1397.39C375.562 1393.91 376.623 1389.32 380.107 1387.15C383.59 1384.97 388.176 1386.04 390.35 1389.52C406.565 1415.51 435.261 1426.96 464.717 1426.63C494.351 1426.3 523.146 1414.03 538.639 1394.66Z" fill="#231F20"/>
<path d="M223.935 1151.44C238.269 1005.64 466.889 1031.49 448.285 1176.82C433.953 1322.62 205.333 1296.77 223.935 1151.44Z" fill="white"/>
<path d="M349.297 1047.56C379.105 1050.94 408.126 1063.91 428.552 1085.99C449.107 1108.21 460.559 1139.24 455.674 1177.64C451.86 1216.18 433.762 1243.87 408.759 1260.94C383.917 1277.9 352.732 1284.06 322.924 1280.69C293.117 1277.32 264.096 1264.35 243.67 1242.27C223.113 1220.05 211.66 1189.01 216.547 1150.61C220.363 1112.08 238.462 1084.38 263.462 1067.32C288.305 1050.36 319.49 1044.19 349.297 1047.56ZM347.626 1062.34C320.812 1059.31 293.317 1064.94 271.844 1079.6C250.552 1094.14 234.708 1117.85 231.334 1152.17C231.327 1152.24 231.319 1152.31 231.31 1152.39C226.931 1186.59 237.077 1213.24 254.583 1232.17C272.239 1251.25 297.782 1262.88 324.596 1265.91C351.41 1268.94 378.904 1263.31 400.378 1248.66C421.669 1234.12 437.513 1210.41 440.886 1176.09C440.893 1176.02 440.901 1175.95 440.911 1175.87C445.29 1141.67 435.144 1115.01 417.638 1096.09C399.982 1077 374.44 1065.38 347.626 1062.34Z" fill="#231F20"/>
<path d="M304.891 1187.57C330.077 1190.42 353.647 1164.84 357.536 1130.45C361.425 1096.06 344.16 1065.87 318.974 1063.02C293.787 1060.17 270.217 1085.75 266.329 1120.14C262.44 1154.53 279.705 1184.72 304.891 1187.57Z" fill="#231F20"/>
<path d="M350.149 1129.62C351.934 1113.82 348.819 1099.29 342.704 1088.6C336.587 1077.9 327.809 1071.5 318.138 1070.41C308.468 1069.32 298.483 1073.59 290.131 1082.66C281.783 1091.71 275.502 1105.18 273.716 1120.97C271.93 1136.77 275.046 1151.3 281.16 1161.99C287.278 1172.69 296.056 1179.08 305.727 1180.18C315.397 1181.27 325.382 1176.99 333.734 1167.93C342.082 1158.88 348.363 1145.41 350.149 1129.62ZM364.924 1131.29C362.821 1149.89 355.372 1166.4 344.666 1178.02C333.964 1189.63 319.571 1196.71 304.056 1194.96C288.54 1193.2 276.092 1183.08 268.253 1169.37C260.411 1155.66 256.838 1137.9 258.941 1119.3C261.044 1100.7 268.492 1084.19 279.198 1072.57C289.9 1060.96 304.294 1053.88 319.809 1055.63C335.325 1057.39 347.773 1067.51 355.612 1081.21C363.454 1094.93 367.027 1112.69 364.924 1131.29Z" fill="#231F20"/>
<path d="M633.936 1224.77C659.122 1227.62 682.693 1202.05 686.581 1167.66C690.47 1133.26 673.205 1103.07 648.019 1100.23C622.832 1097.38 599.262 1122.95 595.374 1157.34C591.485 1191.74 608.75 1221.93 633.936 1224.77Z" fill="#231F20"/>
<path d="M679.194 1166.82C680.979 1151.03 677.864 1136.5 671.749 1125.81C665.632 1115.11 656.854 1108.71 647.183 1107.62C637.513 1106.52 627.528 1110.8 619.176 1119.86C610.828 1128.92 604.547 1142.39 602.761 1158.18C600.976 1173.97 604.091 1188.5 610.205 1199.19C616.323 1209.89 625.101 1216.29 634.772 1217.38C644.442 1218.48 654.427 1214.2 662.779 1205.14C671.127 1196.08 677.408 1182.61 679.194 1166.82ZM693.969 1168.49C691.866 1187.09 684.417 1203.61 673.711 1215.22C663.009 1226.83 648.616 1233.92 633.101 1232.16C617.585 1230.41 605.137 1220.29 597.298 1206.58C589.456 1192.87 585.883 1175.11 587.986 1156.51C590.089 1137.91 597.538 1121.39 608.244 1109.78C618.946 1098.17 633.339 1091.08 648.854 1092.84C664.37 1094.59 676.818 1104.71 684.657 1118.42C692.499 1132.13 696.072 1149.89 693.969 1168.49Z" fill="#231F20"/>
</svg>
