<svg width="76" height="75" viewBox="0 0 76 75" fill="none" xmlns="http://www.w3.org/2000/svg">
<path fill-rule="evenodd" clip-rule="evenodd" d="M51.8495 27.7771C47.1788 29.4979 41.0387 30.4688 34.4848 30.4688C27.931 30.4688 21.7908 29.4979 17.1202 27.7771C14.8033 26.9235 12.6002 25.7953 10.8901 24.3058C9.19095 22.8257 7.53171 20.566 7.53171 17.5781C7.53171 14.5902 9.19095 12.3306 10.8901 10.8505C12.6002 9.36094 14.8033 8.23275 17.1202 7.37916C21.7908 5.65838 27.931 4.6875 34.4848 4.6875C41.0387 4.6875 47.1788 5.65838 51.8495 7.37916C54.1664 8.23275 56.3695 9.36094 58.0795 10.8505C59.7787 12.3306 61.438 14.5902 61.438 17.5781C61.438 20.566 59.7787 22.8257 58.0795 24.3058C56.3695 25.7953 54.1664 26.9235 51.8495 27.7771ZM34.4848 25.7812C46.7818 25.7812 56.7505 22.1086 56.7505 17.5781C56.7505 13.0477 46.7818 9.375 34.4848 9.375C22.1879 9.375 12.2192 13.0477 12.2192 17.5781C12.2192 22.1086 22.1879 25.7812 34.4848 25.7812Z" fill="#007430"/>
<path d="M59.0942 51.5625C59.0942 50.2681 58.0449 49.2188 56.7505 49.2188C55.456 49.2188 54.4067 50.2681 54.4067 51.5625V55.0781C54.4067 57.667 56.5054 59.7656 59.0942 59.7656H60.2661C61.5605 59.7656 62.6098 58.7163 62.6098 57.4219C62.6098 56.1275 61.5605 55.0781 60.2661 55.0781H59.0942V51.5625Z" fill="#007430"/>
<path fill-rule="evenodd" clip-rule="evenodd" d="M70.813 56.25C70.813 64.0165 64.517 70.3125 56.7505 70.3125C48.984 70.3125 42.688 64.0165 42.688 56.25C42.688 48.4835 48.984 42.1875 56.7505 42.1875C64.517 42.1875 70.813 48.4835 70.813 56.25ZM66.1255 56.25C66.1255 61.4277 61.9281 65.625 56.7505 65.625C51.5728 65.625 47.3755 61.4277 47.3755 56.25C47.3755 51.0723 51.5728 46.875 56.7505 46.875C61.9281 46.875 66.1255 51.0723 66.1255 56.25Z" fill="#007430"/>
<path d="M10.9784 40.1195C9.83627 39.5103 8.41659 39.9424 7.80745 41.0846C7.19831 42.2267 7.63039 43.6464 8.77252 44.2555C12.3999 46.1901 21.1149 49.2188 35.6567 49.2188C36.9511 49.2188 38.0005 48.1694 38.0005 46.875C38.0005 45.5806 36.9511 44.5312 35.6567 44.5312C21.7214 44.5312 13.7964 41.6224 10.9784 40.1195Z" fill="#007430"/>
<path d="M61.2059 31.2749C61.7675 32.4412 61.2772 33.8418 60.111 34.4034C59.8462 34.5309 59.5599 34.6736 59.2499 34.828C57.6123 35.6442 55.3153 36.7889 52.0618 37.7519C48.179 38.9012 42.9715 39.7917 35.6567 39.7917C21.0274 39.7917 12.3292 36.2566 8.77252 34.3597C7.63039 33.7505 7.19831 32.3309 7.80745 31.1887C8.41659 30.0466 9.83627 29.6145 10.9784 30.2237C13.867 31.7642 21.8089 35.1042 35.6567 35.1042C42.5805 35.1042 47.334 34.2628 50.7313 33.2572C53.5621 32.4193 55.4785 31.4668 57.1072 30.6573C57.4406 30.4916 57.7628 30.3314 58.0774 30.1799C59.2437 29.6184 60.6444 30.1086 61.2059 31.2749Z" fill="#007430"/>
<path d="M10.9784 50.6664C9.83627 50.0572 8.41659 50.4893 7.80745 51.6314C7.19831 52.7736 7.63039 54.1933 8.77252 54.8024C12.3999 56.737 21.1149 59.7656 35.6567 59.7656C36.9511 59.7656 38.0005 58.7163 38.0005 57.4219C38.0005 56.1275 36.9511 55.0781 35.6567 55.0781C21.7214 55.0781 13.7964 52.1693 10.9784 50.6664Z" fill="#007430"/>
</svg>
