<svg width="76" height="75" viewBox="0 0 76 75" fill="none" xmlns="http://www.w3.org/2000/svg">
<path d="M19.2489 4.6875C17.9545 4.6875 16.9052 5.73683 16.9052 7.03125C16.9052 8.32567 17.9545 9.375 19.2489 9.375H35.6552V65.625H26.2802C24.9858 65.625 23.9364 66.6743 23.9364 67.9688C23.9364 69.2632 24.9858 70.3125 26.2802 70.3125H49.7177C51.0121 70.3125 52.0614 69.2632 52.0614 67.9688C52.0614 66.6743 51.0121 65.625 49.7177 65.625H40.3427V9.375H56.7489C58.0433 9.375 59.0927 8.32567 59.0927 7.03125C59.0927 5.73683 58.0433 4.6875 56.7489 4.6875H19.2489Z" fill="#007430"/>
<path fill-rule="evenodd" clip-rule="evenodd" d="M22.774 19.1332L26.5385 24.8385C29.6231 29.5133 26.2704 35.7422 20.6697 35.7422H13.1406C7.53991 35.7422 4.18728 29.5133 7.27183 24.8385L11.0364 19.1332C13.8154 14.9214 19.9949 14.9214 22.774 19.1332ZM18.8614 21.7148C17.9351 20.3109 15.8753 20.3109 14.9489 21.7148L11.1844 27.4201C10.1562 28.9784 11.2737 31.0547 13.1406 31.0547H20.6697C22.5366 31.0547 23.6542 28.9784 22.626 27.4201L18.8614 21.7148Z" fill="#007430"/>
<path fill-rule="evenodd" clip-rule="evenodd" d="M68.726 24.8385L64.9615 19.1332C62.1824 14.9214 56.0029 14.9214 53.2239 19.1332L49.4593 24.8385C46.3748 29.5133 49.7274 35.7422 55.3281 35.7422H62.8572C68.4579 35.7422 71.8106 29.5133 68.726 24.8385ZM57.1364 21.7148C58.0628 20.3109 60.1226 20.3109 61.0489 21.7148L64.8135 27.4201C65.8417 28.9784 64.7241 31.0547 62.8572 31.0547H55.3281C53.4612 31.0547 52.3437 28.9784 53.3719 27.4201L57.1364 21.7148Z" fill="#007430"/>
</svg>
