<svg width="1490" height="1776" viewBox="0 0 1490 1776" fill="none" xmlns="http://www.w3.org/2000/svg">
<path d="M57.4745 920.811L39.5619 1546.44C37.4005 1621.93 96.8439 1684.88 172.332 1687.04L1269.63 1718.46C1345.12 1720.62 1408.07 1661.18 1410.23 1585.69L1410.23 953.5C1412.39 878.012 1410.23 882.5 1387.11 831.5L198.072 788.04C122.583 785.879 59.6358 845.322 57.4745 920.811Z" fill="#18A352"/>
<path d="M432.447 1063.89C564.137 1063.89 670.893 957.137 670.893 825.447C670.893 693.756 564.137 587 432.447 587C300.756 587 194 693.756 194 825.447C194 957.137 300.756 1063.89 432.447 1063.89Z" fill="#F2D359"/>
<path d="M534.934 924.006C531.934 927.077 528.664 927.116 525.593 924.116L510.234 909.117C479.97 937.269 444.777 943.524 415.626 927.52C410.691 925.009 409.938 920.58 412.685 915.877L426.651 892.122C429.404 887.885 433.366 887.138 438.525 888.945C451.9 894.159 467.055 891.877 480.697 880.271L442.182 842.657L431.033 847.927C407.126 860.589 369.175 870.614 344.133 846.62C316.723 819.851 320.693 780.333 346.72 749.428L330.416 733.505C327.344 730.506 327.305 727.236 330.305 724.164L334.228 720.147C337.228 717.076 340.497 717.037 343.569 720.037L360.109 736.19C384.159 715.819 411.676 712.224 437.733 723.36C443.129 725.398 444.113 729.59 441.602 734.525L428.812 758.967C426.296 763.434 422.807 764.643 417.647 762.836C408.026 758.979 398.926 759.788 390.119 765.497L425.799 800.343L437.409 794.6C478.266 773.563 506.339 777.435 526.886 796.577C555.477 824.499 549.397 863.342 523.151 895.417L538.746 910.648C541.818 913.648 541.857 916.917 538.857 919.989L534.934 924.006ZM407.683 808.965L376.492 778.504C370.07 788.39 368.801 799.616 377.308 807.923C382.27 812.769 389.556 816.654 405.59 809.691L407.683 808.965ZM493.378 866.341C501.174 854.104 501.272 842.658 492.766 834.35C485.677 827.428 475.633 827.313 462.391 833.309L460.297 834.034L493.378 866.341Z" fill="#7D6917"/>
<path d="M1370.13 825.344L84.939 874.042C38.0285 875.82 1.44097 915.289 3.21849 962.2L30.8354 1691.04C32.6129 1737.95 72.0824 1774.54 118.993 1772.76L1404.18 1724.06C1451.09 1722.28 1487.68 1682.81 1485.9 1635.9L1458.28 907.065C1456.51 860.154 1417.04 823.567 1370.13 825.344Z" fill="#50DB8A"/>
<path d="M513.349 1126.49C540.023 1030.81 608.422 960.725 666.118 969.949C723.813 979.161 748.973 1064.2 722.299 1159.88C695.625 1255.56 627.226 1325.64 569.53 1316.42C511.835 1307.21 486.675 1222.17 513.349 1126.49Z" fill="white"/>
<path d="M571.852 1002.78C600.413 973.517 634.618 956.074 667.493 961.328L667.494 961.327C700.895 966.661 723.51 993.816 734.217 1030.01C744.949 1066.29 744.38 1113.18 730.708 1162.22C717.026 1211.3 692.586 1254.08 663.796 1283.59C635.234 1312.85 601.029 1330.3 568.153 1325.04C534.752 1319.71 512.136 1292.55 501.429 1256.36C490.697 1220.08 491.267 1173.19 504.939 1124.15C518.621 1075.07 543.062 1032.28 571.852 1002.78ZM664.739 978.569C639.919 974.601 611.078 987.587 584.347 1014.98C557.845 1042.13 534.75 1082.23 521.758 1128.84C508.757 1175.47 508.569 1218.94 518.173 1251.41C527.801 1283.95 546.612 1303.92 570.906 1307.8L570.908 1307.8C595.727 1311.77 624.569 1298.78 651.299 1271.39C677.801 1244.23 700.898 1204.14 713.889 1157.53C726.891 1110.89 727.078 1067.43 717.475 1034.96C707.847 1002.42 689.035 982.449 664.741 978.57L664.739 978.569Z" fill="#231F20"/>
<path d="M545.758 1089.45C569.392 1026.89 615.305 979.161 648.323 982.832C681.341 986.503 688.948 1040.2 665.314 1102.74C641.681 1165.3 595.767 1213.03 562.749 1209.36C529.731 1205.69 522.125 1152 545.758 1089.45Z" fill="#231F20"/>
<path d="M587.23 1005.25C606.234 985.496 628.539 971.848 649.287 974.155C671.709 976.648 683.407 996.195 686.706 1019.48C689.996 1042.7 685.772 1072.7 674.044 1104.32L673.48 1105.83C661.294 1138.09 643.311 1166.7 623.841 1186.94C604.837 1206.69 582.532 1220.34 561.784 1218.03C539.362 1215.54 527.665 1196 524.366 1172.71C521.024 1149.12 525.436 1118.53 537.591 1086.36L538.166 1084.85C550.339 1053.21 568.064 1025.17 587.23 1005.25ZM647.358 991.509C635.089 990.145 617.927 998.525 599.812 1017.36C582.438 1035.42 565.897 1061.4 554.465 1091.11L553.924 1092.53C542.446 1122.91 538.845 1150.44 541.653 1170.26C544.502 1190.37 553.117 1199.5 563.713 1200.68C575.982 1202.05 593.144 1193.67 611.259 1174.84C628.909 1156.49 645.699 1129.96 657.147 1099.66L657.679 1098.24C668.736 1068.42 672.182 1041.44 669.418 1021.93C666.569 1001.82 657.954 992.687 647.358 991.509Z" fill="#231F20"/>
<path d="M740.654 1112.99C767.327 1017.31 835.727 947.221 893.422 956.445C951.118 965.658 976.277 1050.69 949.604 1146.37C922.93 1242.05 854.53 1312.14 796.835 1302.92C739.139 1293.7 713.98 1208.67 740.654 1112.99Z" fill="white"/>
<path d="M799.157 989.28C827.718 960.014 861.922 942.571 894.798 947.825L894.799 947.824C928.199 953.157 950.815 980.313 961.522 1016.51C972.254 1052.79 971.684 1099.67 958.012 1148.72C944.331 1197.8 919.89 1240.58 891.1 1270.08C862.539 1299.35 828.333 1316.79 795.458 1311.54C762.057 1306.2 739.441 1279.05 728.734 1242.86C718.002 1206.58 718.572 1159.69 732.244 1110.64C745.926 1061.57 770.367 1018.78 799.157 989.28ZM892.044 965.065C867.224 961.098 838.382 974.084 811.652 1001.47C785.15 1028.63 762.055 1068.73 749.063 1115.33C736.062 1161.97 735.874 1205.44 745.477 1237.9C755.105 1270.45 773.916 1290.42 798.211 1294.3L798.213 1294.3C823.032 1298.26 851.874 1285.28 878.604 1257.89C905.106 1230.73 928.202 1190.63 941.194 1144.03C954.196 1097.39 954.383 1053.92 944.78 1021.46C935.152 988.913 916.34 968.946 892.046 965.066L892.044 965.065Z" fill="#231F20"/>
<path d="M773.063 1075.94C796.697 1013.38 842.61 965.658 875.628 969.329C908.646 973 916.252 1026.69 892.619 1089.24C868.985 1151.8 823.072 1199.53 790.054 1195.85C757.036 1192.18 749.43 1138.49 773.063 1075.94Z" fill="#231F20"/>
<path d="M814.535 991.747C833.538 971.993 855.843 958.345 876.592 960.652C899.014 963.145 910.711 982.691 914.011 1005.98C917.301 1029.2 913.076 1059.2 901.349 1090.82L900.785 1092.33C888.599 1124.58 870.616 1153.2 851.146 1173.44C832.142 1193.19 809.837 1206.84 789.088 1204.53C766.667 1202.04 754.97 1182.49 751.67 1159.2C748.328 1135.62 752.74 1105.03 764.896 1072.86L765.471 1071.35C777.644 1039.71 795.369 1011.67 814.535 991.747ZM874.662 978.006C862.393 976.641 845.232 985.021 827.117 1003.85C809.743 1021.91 793.202 1047.9 781.77 1077.61L781.229 1079.03C769.751 1109.41 766.15 1136.94 768.957 1156.75C771.807 1176.86 780.422 1186 791.018 1187.18C803.287 1188.54 820.448 1180.16 838.564 1161.33C856.213 1142.99 873.004 1116.46 884.451 1086.15L884.984 1084.73C896.041 1054.92 899.486 1027.93 896.723 1008.43C893.874 988.319 885.259 979.184 874.662 978.006Z" fill="#231F20"/>
<path d="M511.329 1496.02C525.578 1443.35 616.498 1456.96 749.729 1422.23C882.96 1387.5 962.695 1322.43 993.82 1370.27C1022.35 1414.14 980.695 1560.18 798.086 1607.77C627.145 1652.31 497.666 1546.54 511.329 1496.01V1496.02Z" fill="#231F20"/>
<path d="M961.338 1344.6C977.498 1344.69 991.093 1350.55 1000.68 1364.83L1001.14 1365.51L1001.14 1365.51C1009.86 1378.92 1012.49 1398.68 1009.61 1420.35C1006.68 1442.29 997.973 1467.31 982.554 1492.22C951.636 1542.17 893.644 1591.89 800.288 1616.21C712.606 1639.06 635.281 1623.42 581.437 1595.28C554.564 1581.23 533.277 1563.94 519.48 1546.46C505.982 1529.36 498.401 1510.38 502.902 1493.73C502.919 1493.67 502.938 1493.61 502.956 1493.55C507.309 1477.68 517.558 1466.96 531.771 1459.44C545.646 1452.1 563.648 1447.59 584.342 1443.81C626.478 1436.11 681.264 1431.06 747.527 1413.78C813.671 1396.54 865.648 1372.06 907.097 1357.08C927.381 1349.75 945.714 1344.5 961.338 1344.6ZM961.232 1362.05C948.989 1361.98 933.225 1366.2 913.031 1373.5C873.524 1387.78 819.018 1413.19 751.932 1430.68C684.964 1448.13 627.674 1453.64 587.48 1460.99C567.009 1464.73 551.282 1468.87 539.938 1474.87C528.991 1480.67 522.559 1487.95 519.757 1498.3C519.749 1498.33 519.739 1498.36 519.73 1498.39C517.453 1507.01 520.954 1520.15 533.184 1535.64C545.164 1550.82 564.369 1566.66 589.524 1579.8C639.74 1606.05 712.626 1621.02 795.885 1599.32C885.137 1576.06 939.278 1528.96 967.708 1483.03C981.962 1460 989.732 1437.31 992.3 1418.04C994.904 1398.51 992.047 1383.56 986.502 1375.03L985.938 1374.19C980.057 1365.66 972.326 1362.12 961.232 1362.05Z" fill="#231F20"/>
<path d="M695.109 1617.72C726.877 1619.94 761.535 1617.3 798.087 1607.78C894.296 1582.7 951.372 1530.3 979.675 1479.9C926.006 1462.4 852.696 1462.13 785.479 1506.54C737.087 1538.52 709.152 1578.42 695.098 1617.72H695.109Z" fill="#FF86F7"/>
<path d="M782.303 1498.19C851.667 1453.14 927.077 1453.56 982.382 1471.6C984.867 1472.42 986.858 1474.3 987.807 1476.73C988.757 1479.17 988.566 1481.9 987.286 1484.18C957.759 1536.76 898.667 1590.58 800.289 1616.23H800.288C762.838 1625.98 727.261 1628.71 694.591 1626.44C694.561 1626.44 694.531 1626.44 694.502 1626.43L694.503 1626.43C691.889 1626.25 689.481 1624.91 687.961 1622.75C686.325 1620.43 685.921 1617.46 686.877 1614.79C701.563 1573.71 730.69 1532.28 780.666 1499.26L782.303 1498.19ZM966.416 1485.07C916.434 1471.65 851.705 1473.93 791.806 1512.83L790.291 1513.83C748.075 1541.72 722.179 1575.67 707.659 1609.6C735.189 1610.4 764.81 1607.43 795.885 1599.33L798.082 1598.75C884.702 1575.64 937.891 1529.99 966.416 1485.07Z" fill="#231F20"/>
<path d="M585.813 495.329C718.517 487.174 819.484 372.986 811.329 240.282C803.174 107.578 688.986 6.61081 556.282 14.7656C423.578 22.9204 322.611 137.109 330.766 269.813C338.92 402.517 453.109 503.484 585.813 495.329Z" fill="#F2D359"/>
<path d="M545.437 397.365C541.17 396.603 539.282 393.895 540.044 389.628L543.854 368.291C503.173 358.995 477.978 333.157 474.8 299.733C474.097 294.188 477.368 291.046 482.854 290.671L510.615 288.853C515.715 288.747 518.587 291.631 520.006 296.965C523.242 311.092 533.747 322.452 551.18 327.258L560.733 273.752L550.006 267.433C525.867 254.655 495.96 228.653 501.785 194.127C508.584 156.049 543.836 136.939 584.411 141.135L588.455 118.485C589.217 114.218 591.925 112.33 596.193 113.092L601.773 114.088C606.041 114.85 607.928 117.558 607.166 121.826L603.063 144.804C633.721 153.326 652.338 174.264 657.825 202.342C659.185 208.004 656.243 211.205 650.698 211.908L623.03 215.098C617.872 215.532 614.882 213.304 613.464 207.97C611.224 197.747 605.386 190.608 595.62 186.493L586.77 236.06L598.154 242.496C638.905 264.676 651.602 290.315 647.277 318.334C640.185 358.054 604.3 375.019 562.623 371.303L558.755 392.968C557.993 397.236 555.285 399.123 551.017 398.361L545.437 397.365ZM569.29 225.826L577.026 182.496C565.127 182.742 555.033 188.053 552.923 199.871C551.693 206.764 552.584 215.053 567.496 224.49L569.29 225.826ZM570.008 329.942C584.65 329.508 594.263 323.095 596.373 311.278C598.132 301.43 592.528 292.978 580.007 285.323L578.213 283.986L570.008 329.942Z" fill="#7D6917"/>
<path d="M1002.39 824.78C1124.66 824.78 1223.78 725.66 1223.78 603.39C1223.78 481.12 1124.66 382 1002.39 382C880.12 382 781 481.12 781 603.39C781 725.66 880.12 824.78 1002.39 824.78Z" fill="#F2D359"/>
<path d="M1047.38 727.78C1043.63 729.126 1040.89 727.831 1039.54 724.079L1032.81 705.319C996.106 716.537 964.18 707.471 946.337 682.271C943.237 678.171 944.406 674.168 948.61 671.355L969.916 657.191C973.935 654.771 977.546 655.756 981.121 659.36C990.171 669.144 1003.75 673.392 1019.86 669.24L1002.97 622.195L991.519 622.068C966.417 622.934 930.657 615.895 919.49 585.693C907.473 552.213 926.833 520.827 961.113 505.59L953.965 485.675C952.618 481.923 953.913 479.177 957.665 477.83L962.572 476.069C966.324 474.722 969.069 476.018 970.416 479.77L977.668 499.973C1006.02 492.729 1030.46 500.9 1047.69 520.778C1051.37 524.671 1050.49 528.571 1046.39 531.672L1025.79 546.887C1021.87 549.595 1018.47 549.188 1014.89 545.584C1008.42 538.457 1000.5 535.438 990.826 536.629L1006.47 580.211L1018.5 580.13C1061.15 579.154 1083.02 593.786 1092.4 618.111C1104.94 653.035 1084.09 683 1049.15 699.125L1055.99 718.174C1057.34 721.926 1056.04 724.672 1052.29 726.018L1047.38 727.78ZM987.842 580.055L974.167 541.957C964.79 547.603 959.173 556.462 962.903 566.852C965.078 572.913 969.585 579.115 985.8 579.811L987.842 580.055ZM1036.1 662.758C1047.58 655.705 1052.31 646.188 1048.58 635.798C1045.47 627.139 1037.13 622.965 1023.64 622.595L1021.6 622.35L1036.1 662.758Z" fill="#7D6917"/>
</svg>
