<svg width="76" height="75" viewBox="0 0 76 75" fill="none" xmlns="http://www.w3.org/2000/svg">
<path fill-rule="evenodd" clip-rule="evenodd" d="M7.53125 4.6875C8.82567 4.6875 9.875 5.73683 9.875 7.03125V56.7188C9.875 58.7264 9.87682 60.0911 9.96301 61.146C10.0004 61.6041 10.0514 61.9624 10.113 62.2514C10.1707 62.1337 10.2391 62.0193 10.3184 61.9095L25.2148 41.2734C26.8624 38.991 30.1359 38.6652 32.201 40.5781L37.6657 45.64L61.8486 10.3928C62.5809 9.32544 64.0399 9.05383 65.1072 9.78614C66.1746 10.5184 66.4462 11.9774 65.7139 13.0447L41.5309 48.2919C39.9129 50.6502 36.5784 51.0224 34.4802 49.0789L29.0156 44.0169L14.1191 64.653C13.8853 64.9769 13.5843 65.2233 13.2488 65.387C13.5377 65.4486 13.896 65.4996 14.354 65.537C15.4089 65.6232 16.7736 65.625 18.7813 65.625H68.4688C69.7632 65.625 70.8125 66.6743 70.8125 67.9688C70.8125 69.2632 69.7632 70.3125 68.4688 70.3125H18.6844C16.7978 70.3125 15.2407 70.3126 13.9723 70.2089C12.6549 70.1013 11.4438 69.8703 10.3063 69.2907C8.54232 68.3919 7.10813 66.9577 6.20932 65.1937C5.62973 64.0562 5.39872 62.8451 5.29108 61.5277C5.18745 60.2593 5.18747 58.7022 5.1875 56.8155L5.1875 7.03125C5.1875 5.73683 6.23683 4.6875 7.53125 4.6875Z" fill="#007430"/>
</svg>
