<svg width="1322" height="1768" viewBox="0 0 1322 1768" fill="none" xmlns="http://www.w3.org/2000/svg">
<path d="M762.339 924.37C882.911 1107.6 1111.85 798.193 1321.72 626.82C1047.9 572.236 574.688 639.222 762.339 924.37Z" fill="#007430"/>
<path d="M383.679 794.955C191.319 915.649 149.016 541.732 0 421.827C217.531 392.709 601.755 658.12 383.679 794.955Z" fill="#007430"/>
<path d="M652.371 1405.02C652.371 1405.02 714.096 800.812 1059.09 722.134C695.937 767.531 617.252 1085.29 617.252 1085.29L652.363 443.718H574.884V1121.6C574.884 1121.6 406.188 629.015 191.32 547.309C534.655 1017.78 514.365 1405.02 514.365 1405.02H652.371Z" fill="#50DB8A"/>
<path d="M885.812 1305.59H330.926V1405.02H885.812V1305.59Z" fill="#7D6917"/>
<path d="M493.284 1768H704.966L826.219 1405.02H382.309L493.284 1768Z" fill="#F2D359"/>
<path d="M760.951 524.664C897.185 453.937 950.289 286.163 879.562 149.93C808.836 13.6961 641.062 -39.4079 504.828 31.3185C368.595 102.045 315.491 269.819 386.217 406.053C456.943 542.286 624.718 595.39 760.951 524.664Z" fill="#F2D359"/>
<path d="M672.484 440.177C667.623 441.37 664.364 439.396 663.17 434.535L657.203 410.234C609.918 419.467 571.234 403.992 552.234 370.206C548.896 364.683 550.877 359.836 556.492 356.871L584.939 341.957C590.271 339.459 594.653 341.158 598.647 346.123C608.675 359.517 625.079 366.589 645.727 363.5L630.762 302.56L616.483 300.913C585.026 298.727 541.291 285.285 531.278 246.121C520.628 202.752 548.886 166.082 593.672 151.517L587.337 125.72C586.144 120.859 588.118 117.6 592.978 116.406L599.334 114.845C604.194 113.652 607.454 115.626 608.648 120.487L615.074 146.657C651.418 141.3 680.867 154.682 699.802 181.746C703.888 187.085 702.281 191.84 696.758 195.179L669.052 211.496C663.811 214.369 659.613 213.417 655.619 208.452C648.47 198.711 638.966 193.91 626.734 194.139L640.597 250.593L655.623 252.056C709.014 256.388 734.416 277.503 742.967 309.098C754.076 354.336 724.145 389.038 678.421 404.627L684.481 429.302C685.674 434.163 683.7 437.422 678.84 438.616L672.484 440.177ZM617.358 247.975L605.24 198.624C592.797 204.454 584.63 214.784 587.935 228.244C589.863 236.095 594.684 244.425 614.84 247.404L617.358 247.975ZM666.854 357.52C682.104 350.207 689.247 338.939 685.942 325.48C683.188 314.264 673.317 307.966 656.519 305.749L654.001 305.178L666.854 357.52Z" fill="#7D6917"/>
</svg>
