<svg width="1855" height="1611" viewBox="0 0 1855 1611" fill="none" xmlns="http://www.w3.org/2000/svg">
<g clip-path="url(#clip0_412_2228)">
<path d="M686.226 946.246L622.844 1610.62H647.18L784.571 946.246H686.226Z" fill="black"/>
<path d="M0 1610.62L133.314 1239.09H198.875L19.0427 1610.62H0Z" fill="black"/>
<path d="M43.8477 1252.13L870.309 491.572C870.309 491.572 979.823 510.456 1052.39 605.7C1131.7 709.792 1121.35 819.314 1121.35 819.314L101.354 1348.99L43.8477 1252.13Z" fill="#F2D359"/>
<path d="M229.904 1246.7L336.552 1610.62H313.486L164.109 1283.38L229.904 1246.7Z" fill="black"/>
<path d="M850.419 915.836L1033.71 1610.62H1007.65L757.398 969.909L850.419 915.836Z" fill="black"/>
<path d="M84 1200L66 1176L168.5 1085L190.5 1108.5L84 1200Z" fill="#F2D359"/>
</g>
<path d="M1604.64 630.707C1742.91 558.922 1796.81 388.637 1725.02 250.365C1653.24 112.092 1482.95 58.1934 1344.68 129.978C1206.41 201.763 1152.51 372.048 1224.29 510.321C1296.08 648.593 1466.36 702.492 1604.64 630.707Z" fill="#F2D359"/>
<path d="M1514.85 544.956C1509.91 546.167 1506.61 544.163 1505.39 539.23L1499.34 514.565C1451.35 523.936 1412.08 508.229 1392.8 473.937C1389.41 468.332 1391.42 463.412 1397.12 460.403L1425.99 445.266C1431.4 442.73 1435.85 444.455 1439.91 449.494C1450.08 463.089 1466.73 470.266 1487.69 467.132L1472.5 405.279L1458.01 403.607C1426.08 401.389 1381.69 387.746 1371.53 347.995C1360.72 303.977 1389.4 266.759 1434.86 251.975L1428.43 225.792C1427.22 220.859 1429.22 217.551 1434.15 216.339L1440.6 214.755C1445.54 213.544 1448.84 215.548 1450.06 220.481L1456.58 247.043C1493.47 241.606 1523.36 255.188 1542.57 282.657C1546.72 288.076 1545.09 292.902 1539.48 296.291L1511.36 312.852C1506.04 315.768 1501.78 314.802 1497.73 309.763C1490.47 299.876 1480.83 295.003 1468.41 295.235L1482.48 352.534L1497.73 354.02C1551.92 358.416 1577.71 379.847 1586.39 411.915C1597.66 457.83 1567.28 493.052 1520.87 508.874L1527.02 533.919C1528.24 538.852 1526.23 542.16 1521.3 543.371L1514.85 544.956ZM1458.9 349.877L1446.6 299.788C1433.97 305.705 1425.68 316.19 1429.03 329.851C1430.99 337.819 1435.88 346.274 1456.34 349.298L1458.9 349.877ZM1509.13 461.061C1524.61 453.639 1531.86 442.203 1528.51 428.542C1525.71 417.158 1515.69 410.767 1498.64 408.516L1496.09 407.936L1509.13 461.061Z" fill="#7D6917"/>
<defs>
<clipPath id="clip0_412_2228">
<rect width="1121.79" height="1119.04" fill="white" transform="translate(0 491.572)"/>
</clipPath>
</defs>
</svg>
