<svg width="1358" height="1715" viewBox="0 0 1358 1715" fill="none" xmlns="http://www.w3.org/2000/svg">
<path d="M1340.31 259.597L1250.22 1173.38C1248.35 1192.38 1239.57 1210.03 1225.56 1223.01L735.184 1676.91C705.304 1704.56 659.194 1704.62 629.236 1677.06L132.035 1219.51C117.926 1206.53 109.088 1188.8 107.21 1169.72L17.691 262.315C14.4623 229.552 32.1203 198.27 61.8705 184.139C222.445 107.892 441.205 17.3071 682.279 17.3071C923.353 17.3071 1135.76 106.577 1295.67 181.214C1325.68 195.224 1343.56 226.653 1340.31 259.597H1340.31Z" fill="#FF86F7"/>
<path d="M682.281 6.15625C922.168 6.15627 1133.58 93.5861 1292.84 167.596L1300.39 171.11L1300.39 171.11C1330.95 185.376 1350.5 215.439 1351.77 248.446H1352.62L1261.32 1174.47L1261.32 1174.47C1259.18 1196.19 1249.15 1216.36 1233.14 1231.19L1233.13 1231.19L742.763 1685.09C708.615 1716.7 655.92 1716.76 621.685 1685.27L621.683 1685.27L124.484 1227.71L123.732 1227.01C108.045 1212.24 98.2246 1192.28 96.1111 1170.82L6.5926 263.409V263.408C2.90355 225.972 23.0795 190.22 57.0852 174.067L57.0868 174.066C217.935 97.6903 438.589 6.15625 682.281 6.15625ZM682.281 28.4579C443.824 28.4579 226.959 118.094 66.6576 194.211C41.1642 206.321 26.0253 233.132 28.7928 261.22L118.312 1168.63V1168.63C119.897 1184.73 127.262 1199.7 139.026 1210.78L139.589 1211.3L139.59 1211.3L636.791 1668.86L637.395 1669.41C663.088 1692.48 702.195 1692.25 727.607 1668.72L1217.98 1214.83C1229.99 1203.7 1237.51 1188.57 1239.12 1172.28L1239.12 1172.28L1328.01 270.748H1328L1329.21 258.501C1332 230.261 1316.67 203.324 1290.95 191.317C1131.23 116.77 920.735 28.458 682.281 28.4579Z" fill="#8E0084"/>
<path d="M679.001 659.879C911.88 659.879 1125.87 684.53 1295.03 725.838C1297.65 726.476 1299.25 729.109 1298.61 731.721C1297.97 734.332 1295.33 735.932 1292.72 735.294C1124.45 694.203 911.252 669.615 679.001 669.615C446.749 669.615 233.354 694.221 65.0451 735.346C62.4332 735.984 59.7983 734.385 59.1599 731.773C58.5214 729.162 60.1217 726.528 62.7337 725.889C231.934 684.546 446.121 659.879 679.001 659.879Z" fill="#8E0084"/>
<path d="M674.133 1404.96V226.809C674.133 224.121 676.313 221.941 679.002 221.941C681.691 221.941 683.871 224.121 683.871 226.809V1404.96C683.871 1407.65 681.691 1409.83 679.002 1409.83C676.313 1409.83 674.133 1407.65 674.133 1404.96Z" fill="#8E0084"/>
<path d="M520.769 831.569C564.343 831.569 599.667 756.644 599.667 664.218C599.667 571.793 564.343 496.868 520.769 496.868C477.195 496.868 441.871 571.793 441.871 664.218C441.871 756.644 477.195 831.569 520.769 831.569Z" fill="white"/>
<path d="M594.796 664.218C594.796 618.559 586.061 577.46 572.152 547.958C558.065 518.078 539.565 501.735 520.767 501.735C501.97 501.735 483.47 518.078 469.382 547.958C455.473 577.46 446.738 618.559 446.738 664.218C446.738 709.878 455.473 750.976 469.382 780.478C483.47 810.359 501.97 826.702 520.767 826.702C539.565 826.702 558.065 810.359 572.152 780.478C586.061 750.976 594.796 709.878 594.796 664.218ZM604.534 664.218C604.534 710.984 595.607 753.561 580.961 784.628C566.493 815.316 545.544 836.436 520.767 836.436C495.991 836.436 475.042 815.316 460.574 784.628C445.927 753.561 437 710.984 437 664.218C437 617.452 445.927 574.876 460.574 543.808C475.042 513.12 495.991 492 520.767 492C545.544 492 566.493 513.12 580.961 543.808C595.607 574.876 604.534 617.453 604.534 664.218Z" fill="#231F20"/>
<path d="M545.806 626.282C545.806 687.817 525.447 737.696 500.336 737.696C475.226 737.696 454.867 687.817 454.867 626.282C454.867 564.747 475.226 514.868 500.336 514.868C525.447 514.868 545.806 564.747 545.806 626.282Z" fill="#231F20"/>
<path d="M540.939 626.282C540.939 595.985 535.918 568.784 527.982 549.338C524.008 539.602 519.4 532.047 514.532 527.002C509.678 521.971 504.882 519.735 500.338 519.735C495.795 519.735 490.999 521.971 486.144 527.002C481.277 532.047 476.668 539.603 472.695 549.338C464.759 568.784 459.738 595.985 459.738 626.282C459.738 656.579 464.759 683.78 472.695 703.226C476.668 712.961 481.277 720.517 486.144 725.562C490.999 730.593 495.795 732.829 500.338 732.829C504.882 732.828 509.678 730.593 514.532 725.562C519.4 720.517 524.008 712.961 527.982 703.226C535.918 683.78 540.939 656.579 540.939 626.282ZM550.676 626.282C550.676 657.52 545.518 686.026 536.997 706.903C532.742 717.33 527.552 726.09 521.54 732.32C515.515 738.564 508.35 742.563 500.338 742.563C492.327 742.563 485.161 738.564 479.136 732.32C473.124 726.09 467.934 717.33 463.679 706.903C455.159 686.026 450 657.52 450 626.282C450 595.043 455.159 566.537 463.679 545.66C467.934 535.234 473.124 526.474 479.136 520.243C485.161 513.999 492.327 510 500.338 510C508.35 510 515.515 513.999 521.54 520.243C527.552 526.474 532.742 535.234 536.997 545.66C545.518 566.537 550.676 595.043 550.676 626.282Z" fill="#231F20"/>
<path d="M836.449 831.907C880.023 831.907 915.347 756.982 915.347 664.557C915.347 572.131 880.023 497.206 836.449 497.206C792.875 497.206 757.551 572.131 757.551 664.557C757.551 756.982 792.875 831.907 836.449 831.907Z" fill="white"/>
<path d="M910.48 664.557C910.48 618.898 901.745 577.799 887.836 548.297C873.749 518.416 855.248 502.074 836.451 502.074C817.653 502.074 799.153 518.416 785.066 548.297C771.157 577.799 762.422 618.898 762.422 664.557C762.422 710.216 771.157 751.315 785.066 780.816C799.153 810.697 817.653 827.04 836.451 827.04C855.248 827.04 873.749 810.697 887.836 780.816C901.745 751.315 910.48 710.216 910.48 664.557ZM920.218 664.557C920.217 711.323 911.291 753.899 896.644 784.966C882.176 815.654 861.227 836.775 836.451 836.775C811.674 836.775 790.725 815.654 776.257 784.966C761.611 753.899 752.684 711.323 752.684 664.557C752.684 617.791 761.611 575.214 776.257 544.147C790.725 513.459 811.674 492.338 836.451 492.338C861.228 492.338 882.176 513.459 896.644 544.147C911.291 575.214 920.218 617.791 920.218 664.557Z" fill="#231F20"/>
<path d="M861.489 626.62C861.489 688.156 841.131 738.034 816.02 738.034C790.909 738.034 770.551 688.156 770.551 626.62C770.551 565.085 790.909 515.206 816.02 515.206C841.131 515.206 861.489 565.085 861.489 626.62Z" fill="#231F20"/>
<path d="M856.619 626.62C856.619 596.324 851.598 569.122 843.661 549.676C839.688 539.941 835.079 532.385 830.212 527.34C825.357 522.309 820.562 520.074 816.018 520.074C811.474 520.074 806.678 522.309 801.824 527.34C796.956 532.385 792.348 539.941 788.375 549.676C780.438 569.122 775.418 596.324 775.418 626.62C775.418 656.917 780.438 684.118 788.375 703.564C792.348 713.3 796.956 720.856 801.824 725.9C806.678 730.931 811.474 733.167 816.018 733.167C820.562 733.167 825.357 730.931 830.212 725.9C835.079 720.856 839.688 713.3 843.661 703.564C851.598 684.118 856.619 656.917 856.619 626.62ZM866.356 626.62C866.356 657.859 861.197 686.365 852.677 707.242C848.422 717.668 843.232 726.428 837.22 732.658C831.195 738.903 824.03 742.901 816.018 742.902C808.007 742.902 800.841 738.903 794.816 732.658C788.804 726.428 783.614 717.668 779.359 707.242C770.838 686.365 765.68 657.859 765.68 626.62C765.68 595.382 770.838 566.876 779.359 545.999C783.614 535.572 788.804 526.812 794.816 520.582C800.841 514.337 808.007 510.338 816.018 510.338C824.029 510.338 831.195 514.337 837.22 520.582C843.232 526.812 848.422 535.572 852.677 545.999C861.197 566.876 866.356 595.382 866.356 626.62Z" fill="#231F20"/>
<path d="M392.858 1051.07C418.203 993.477 483.306 1062.59 680.979 1041.82C845.069 1024.59 937.504 931.078 964.73 990.994C989.689 1045.93 916.962 1205.21 700.529 1227.96C497.916 1249.24 368.549 1106.29 392.844 1051.07L392.858 1051.07Z" fill="#231F20"/>
<path d="M871.513 980.526C894.779 971.599 915.183 964.465 931.684 963.797C940.151 963.454 948.148 964.771 955.172 968.82C962.252 972.901 967.613 979.335 971.511 987.915L971.511 987.916C978.778 1003.91 978.512 1026.18 971.566 1050.07C964.554 1074.19 950.496 1100.88 928.827 1126.37C885.405 1177.43 811.324 1223.8 701.31 1235.36L701.309 1235.36C598.063 1246.2 513.24 1215.22 457.2 1174.21C429.218 1153.73 408.208 1130.6 395.711 1108.68C383.418 1087.12 378.53 1065.12 386.031 1048.07C386.09 1047.94 386.154 1047.8 386.22 1047.68C389.705 1039.88 394.088 1033.69 399.765 1029.17C405.576 1024.53 412.263 1022.01 419.651 1020.89C433.851 1018.72 451.88 1021.62 473.542 1025.3C517.555 1032.76 582.421 1044.69 680.203 1034.42C761.076 1025.92 824.225 998.669 871.513 980.526ZM932.287 978.672C918.671 979.224 900.606 985.309 876.849 994.424C830.456 1012.22 765.992 1040.04 683.705 1049.01L681.758 1049.22C581.868 1059.72 515.346 1047.48 471.052 1039.97C448.562 1036.16 433.207 1033.88 421.895 1035.6C416.527 1036.42 412.426 1038.11 409.053 1040.8C405.641 1043.53 402.498 1047.65 399.675 1054.06C399.632 1054.16 399.584 1054.26 399.537 1054.35C395.056 1064.93 397.292 1081.39 408.649 1101.31C419.907 1121.06 439.347 1142.69 465.996 1162.19C519.219 1201.14 600.385 1230.99 699.753 1220.55C806.171 1209.37 876.67 1164.72 917.48 1116.72C937.926 1092.68 950.897 1067.83 957.266 1045.92C963.7 1023.79 963.165 1005.55 957.953 994.073C955.045 987.674 951.562 983.923 947.734 981.717C943.852 979.479 938.879 978.405 932.287 978.672Z" fill="#231F20"/>
<path d="M400.96 1038.22C406.326 1080.42 439.474 1111.27 475.85 1107.46C507.047 1104.18 530.637 1076.46 534.495 1041.9C458.862 1033.52 421.127 1016.48 400.948 1038.23L400.96 1038.22Z" fill="white"/>
<path d="M395.61 1033.05C408.417 1019.35 426.398 1018.79 447.824 1021.38C458.753 1022.7 471.456 1024.98 485.797 1027.39C500.237 1029.82 516.617 1032.43 535.319 1034.5C537.283 1034.72 539.08 1035.71 540.314 1037.25C541.548 1038.79 542.118 1040.76 541.899 1042.73C537.749 1079.89 512.111 1111.13 476.632 1114.86L476.629 1114.86C435.352 1119.19 399.577 1084.52 393.643 1039.65C393.222 1037.47 393.776 1035.13 395.349 1033.33L395.362 1033.32L395.493 1033.17L395.492 1033.17C395.497 1033.17 395.501 1033.16 395.506 1033.16C395.54 1033.12 395.575 1033.08 395.61 1033.05ZM446.036 1036.16C426.982 1033.85 416.226 1035.03 408.898 1040.96C415.266 1078.23 444.74 1103.23 475.075 1100.06C499.893 1097.45 520.142 1076.67 525.944 1048.4C510.021 1046.45 495.869 1044.18 483.326 1042.07C468.69 1039.61 456.517 1037.42 446.036 1036.16Z" fill="#231F20"/>
<path d="M542.176 1042.69C548.893 1083.07 581.191 1112.12 616.552 1108.4C647.881 1105.11 671.523 1077.17 675.248 1042.4C621.574 1047.64 577.86 1046.23 542.176 1042.69Z" fill="white"/>
<path d="M536.742 1037.6C538.326 1035.91 540.607 1035.05 542.913 1035.28C578.168 1038.78 621.39 1040.18 674.525 1034.99C676.754 1034.77 678.963 1035.57 680.539 1037.16C682.114 1038.75 682.891 1040.97 682.652 1043.19C678.648 1080.57 652.964 1112.06 617.331 1115.8C577.067 1120.03 542.019 1087.11 534.832 1043.91C534.452 1041.63 535.158 1039.3 536.742 1037.6ZM551.683 1051.03C560.949 1083.21 587.983 1103.92 615.775 1101L615.775 1101C640.194 1098.43 660.181 1078.28 666.352 1050.69C621.411 1054.5 583.577 1053.7 551.683 1051.03Z" fill="#231F20"/>
<path d="M684.508 1041.43C695.381 1074.66 724.306 1097.07 755.635 1093.78C792.103 1089.95 818.163 1052.7 814.474 1010.17C777.755 1023.2 734.495 1035.81 684.508 1041.43Z" fill="white"/>
<path d="M812.399 1003.03C814.461 1002.43 816.69 1002.74 818.508 1003.91C820.446 1005.16 821.698 1007.23 821.897 1009.53C825.809 1054.63 798.387 1096.17 757.389 1101.08L756.418 1101.19C720.785 1104.93 689.124 1079.46 677.437 1043.74C676.74 1041.61 677.039 1039.28 678.251 1037.4C679.462 1035.52 681.456 1034.28 683.682 1034.03C732.909 1028.5 775.584 1016.07 811.989 1003.16L812.399 1003.03ZM807.354 1020.53C774.839 1031.62 737.381 1042.05 694.925 1047.65C706.691 1073.37 730.436 1088.94 754.863 1086.38L755.598 1086.3C784.04 1082.88 806.426 1055.34 807.354 1020.53Z" fill="#231F20"/>
<path d="M951.764 978.3C951.655 977.273 951.521 976.248 951.373 975.223C927.653 961.667 884.507 984.774 820.89 1007.86C830.838 1042.96 860.682 1067.02 893.052 1063.63C930.021 1059.75 956.296 1021.54 951.75 978.301L951.764 978.3Z" fill="white"/>
<path d="M929.373 963.934C938.368 963.267 946.882 964.326 954.348 968.361L955.068 968.761L955.434 968.984C957.225 970.149 958.435 972.033 958.741 974.161C958.898 975.246 959.046 976.371 959.168 977.522C959.184 977.675 959.193 977.829 959.2 977.982C963.823 1024 935.798 1066.63 893.828 1071.03L893.828 1071.03C857.001 1074.9 824.405 1047.57 813.724 1009.89C812.66 1006.14 814.678 1002.2 818.348 1000.87C849.419 989.59 877.069 977.697 898.816 970.714C909.878 967.163 920.133 964.619 929.373 963.934ZM930.473 978.781C922.964 979.337 914.01 981.471 903.369 984.888C883.233 991.353 859.579 1001.49 830.204 1012.37C841 1041.09 866.281 1058.95 892.274 1056.22L892.275 1056.22C923.805 1052.92 948.121 1019.99 944.454 980.206C940.735 978.868 936.172 978.358 930.473 978.781Z" fill="#231F20"/>
</svg>
