<svg width="32" height="32" viewBox="0 0 32 32" fill="none" xmlns="http://www.w3.org/2000/svg">
<path fill-rule="evenodd" clip-rule="evenodd" d="M11.068 13.6797L8.88824 16.0996C7.40976 17.7411 7.53333 20.2797 9.16424 21.7698L11.482 23.8875C13.1129 25.3776 15.6336 25.2549 17.1121 23.6134L19.5 20.9623L19.0923 23.7024L15.6779 27.4931C15.3083 27.9035 15.3392 28.5382 15.7469 28.9107C16.1546 29.2832 16.7848 29.2525 17.1544 28.8422L20.6701 24.939C20.8682 24.7191 20.9972 24.445 21.0409 24.1513L21.9037 18.353C21.907 18.3303 21.9096 18.3076 21.9115 18.2851L26.2035 13.5199C26.714 12.9532 27.0528 12.2511 27.1801 11.4966L27.9683 6.82221C28.3428 4.60155 26.2514 2.7669 24.1189 3.44535L19.7735 4.82781C19.101 5.04173 18.4972 5.43155 18.0235 5.95747L13.4822 10.9993L8.12839 12.3534C7.84239 12.4257 7.58409 12.5817 7.38601 12.8016L3.87034 16.7048C3.50072 17.1152 3.53161 17.7498 3.93934 18.1223C4.34707 18.4949 4.97724 18.4642 5.34686 18.0538L8.76127 14.2631L11.068 13.6797ZM26.0035 6.48484C26.1284 5.74462 25.4312 5.13307 24.7204 5.35922L21.0295 6.53345L25.3324 10.4648L26.0035 6.48484ZM19.2339 7.6019L24.5047 12.4176L15.6356 22.2644C14.8963 23.0851 13.636 23.1465 12.8205 22.4014L10.5028 20.2838C9.6873 19.5387 9.62552 18.2694 10.3648 17.4487L19.2339 7.6019Z" fill="currentColor"/>
<path d="M6.68722 21.5311C7.05684 21.1207 7.02595 20.486 6.61822 20.1135C6.21049 19.741 5.58033 19.7717 5.21071 20.182L3.68047 21.8809C3.31084 22.2913 3.34174 22.926 3.74947 23.2985C4.15719 23.671 4.78736 23.6403 5.15698 23.23L6.68722 21.5311Z" fill="currentColor"/>
<path d="M13.3658 26.2784C13.7735 26.6509 13.8044 27.2856 13.4348 27.6959L11.9045 29.3948C11.5349 29.8052 10.9048 29.8359 10.497 29.4633C10.0893 29.0908 10.0584 28.4562 10.428 28.0458L11.9583 26.3469C12.3279 25.9365 12.9581 25.9058 13.3658 26.2784Z" fill="currentColor"/>
<path d="M10.0276 24.6486C10.4167 24.2567 10.4167 23.6212 10.0276 23.2293C9.63844 22.8374 9.00754 22.8374 8.61841 23.2293L3.23521 28.6511C2.84608 29.043 2.84608 29.6784 3.23521 30.0703C3.62433 30.4622 4.25524 30.4622 4.64437 30.0703L10.0276 24.6486Z" fill="currentColor"/>
</svg>
