<svg width="1620" height="1689" viewBox="0 0 1620 1689" fill="none" xmlns="http://www.w3.org/2000/svg">
<path d="M1554.68 1219.44H1479.05V905.276H1554.68C1590.34 905.276 1619.25 934.232 1619.25 969.956V1154.76C1619.25 1190.48 1590.34 1219.44 1554.68 1219.44Z" fill="#EA9C9F"/>
<path d="M667.296 1323.04H534.191C502.538 1323.04 476.879 1348.69 476.879 1380.34V1631.7C476.879 1663.35 502.538 1689 534.191 1689H667.296C698.948 1689 724.608 1663.35 724.608 1631.7V1380.34C724.608 1348.69 698.948 1323.04 667.296 1323.04Z" fill="#EA9C9F"/>
<path d="M1194.28 1323.04H1061.18C1029.53 1323.04 1003.87 1348.69 1003.87 1380.34V1631.7C1003.87 1663.35 1029.53 1689 1061.18 1689H1194.28C1225.94 1689 1251.6 1663.35 1251.6 1631.7V1380.34C1251.6 1348.69 1225.94 1323.04 1194.28 1323.04Z" fill="#EA9C9F"/>
<path d="M1250.27 726.099L1144.29 649.866C1129.32 639.093 1128.9 616.943 1143.47 605.616C1157.23 582.903 1182.18 548.031 1223.41 516.493C1262.66 486.469 1300.81 471.6 1325.71 464.032C1335.36 456.543 1348.88 456.286 1358.79 463.419C1367.97 470.017 1373.28 481.977 1368.73 494.976L1292.48 712.794C1286.37 730.215 1265.25 736.863 1250.27 726.09V726.099Z" fill="#DA7C83"/>
<path d="M1199.03 674.855L1093.05 598.622C1078.08 587.848 1077.67 565.699 1092.23 554.372C1105.99 531.658 1130.94 496.786 1172.17 465.248C1211.43 435.224 1249.57 420.355 1274.48 412.797C1284.12 405.308 1297.65 405.051 1307.56 412.184C1316.74 418.782 1322.05 430.743 1317.5 443.742L1241.24 661.559C1235.15 678.98 1214.02 685.628 1199.03 674.855Z" fill="#EA9C9F"/>
<path d="M17.2772 1087.13C10.413 1087.13 3.91474 1083.01 1.22445 1076.25C-2.29668 1067.4 2.03549 1057.38 10.8976 1053.86C41.4107 1041.75 68.3532 1024.67 89.8459 1004.1C85.1775 1001.45 80.598 998.529 76.1472 995.28C44.6252 972.27 27.3856 937.084 31.1342 903.448C33.3992 883.134 44.9121 863.374 61.9045 850.615C77.1561 839.159 95.0584 834.488 112.338 837.461C142.297 842.606 167.034 870.682 171.158 904.218C174.284 929.618 167.103 956.697 149.824 984.713C148.864 986.264 147.885 987.804 146.886 989.335C155.699 991.517 164.284 993.097 172.127 994.361C206.636 999.931 241.828 1001.69 276.713 999.576C286.237 999.023 294.417 1006.24 294.991 1015.74C295.565 1025.24 288.315 1033.42 278.8 1033.99C241.373 1036.26 203.63 1034.38 166.608 1028.4C153.632 1026.31 138.884 1023.43 123.86 1018.67C97.6399 1046.96 63.1705 1070.21 23.637 1085.91C21.5401 1086.74 19.3839 1087.13 17.2673 1087.13H17.2772ZM102.19 871.086C95.6518 871.086 88.8569 873.536 82.6652 878.187C73.269 885.238 66.6718 896.387 65.4552 907.28C63.1012 928.344 75.2966 951.956 96.5222 967.451C101.784 971.292 107.382 974.591 113.178 977.435C115.74 973.9 118.143 970.295 120.408 966.631C129.389 952.065 139.537 930.151 136.867 908.425C134.592 889.929 121.526 874.039 106.472 871.452C105.058 871.205 103.624 871.086 102.18 871.086H102.19Z" fill="#E17C83"/>
<path d="M876.624 1563.45C1242.3 1563.45 1538.74 1323.47 1538.74 1027.45C1538.74 731.429 1242.3 491.456 876.624 491.456C510.949 491.456 214.512 731.429 214.512 1027.45C214.512 1323.47 510.949 1563.45 876.624 1563.45Z" fill="#EA9C9F"/>
<path d="M1047.24 616.446C986.297 594.307 922.56 583.079 857.785 583.079C856.984 583.079 856.192 583.079 855.391 583.079C791.407 583.356 728.452 594.584 668.275 616.446L652.539 573.205C717.71 549.524 785.898 537.367 855.193 537.071C926.22 536.656 996.158 548.921 1062.98 573.205L1047.24 616.446Z" fill="#8D3C46"/>
<path d="M343.87 912.012L310.789 902.284C324.663 855.112 346.754 811.565 376.457 772.868C413.903 724.067 463.307 683.997 519.338 656.984L534.308 688.056C483.116 712.738 437.988 749.332 403.801 793.876C376.694 829.195 356.53 868.949 343.86 912.032L343.87 912.012Z" fill="#FEFEFE"/>
<path d="M1586.56 1016.19H1580.43C1572.33 1016.19 1565.76 1022.69 1565.76 1030.7V1094.01C1565.76 1102.03 1572.33 1108.53 1580.43 1108.53H1586.56C1594.66 1108.53 1601.23 1102.03 1601.23 1094.01V1030.7C1601.23 1022.69 1594.66 1016.19 1586.56 1016.19Z" fill="#CC727D"/>
<path d="M1238.1 856.297C1236.15 722.668 1446.1 722.668 1444.13 856.297C1446.09 989.915 1236.13 989.915 1238.1 856.297Z" fill="white"/>
<path d="M1341.12 748.956C1368.56 748.956 1396.29 757.759 1417.14 775.738C1438.14 793.837 1451.74 820.89 1451.25 856.297C1451.74 891.702 1438.13 918.753 1417.14 936.85C1396.28 954.827 1368.55 963.63 1341.11 963.63C1313.67 963.63 1285.94 954.827 1265.08 936.849C1244.09 918.752 1230.48 891.699 1230.97 856.293C1230.49 820.887 1244.1 793.836 1265.09 775.738C1285.95 757.76 1313.68 748.956 1341.12 748.956ZM1341.12 763.194C1316.56 763.194 1292.29 771.095 1274.39 786.523C1256.65 801.815 1244.76 824.837 1245.21 856.193C1245.21 856.262 1245.21 856.332 1245.21 856.401C1244.75 887.754 1256.64 910.775 1274.38 926.065C1292.28 941.492 1316.55 949.391 1341.11 949.391C1365.67 949.391 1389.94 941.492 1407.84 926.065C1425.58 910.775 1437.47 887.754 1437.01 856.401C1437.01 856.331 1437.01 856.261 1437.01 856.192C1437.47 824.836 1425.58 801.814 1407.85 786.523C1389.95 771.095 1365.68 763.194 1341.12 763.194Z" fill="#231F20"/>
<path d="M1392.07 893.452C1415.23 893.452 1434.01 867.867 1434.01 836.306C1434.01 804.744 1415.23 779.159 1392.07 779.159C1368.9 779.159 1350.12 804.744 1350.12 836.306C1350.12 867.867 1368.9 893.452 1392.07 893.452Z" fill="#231F20"/>
<path d="M1426.89 836.306C1426.89 821.881 1422.59 809.107 1415.99 800.11C1409.38 791.108 1400.84 786.278 1392.07 786.278C1383.3 786.278 1374.75 791.108 1368.15 800.11C1361.54 809.107 1357.24 821.881 1357.24 836.306C1357.24 850.73 1361.54 863.504 1368.15 872.502C1374.75 881.503 1383.3 886.333 1392.07 886.333C1400.84 886.333 1409.38 881.503 1415.99 872.502C1422.59 863.504 1426.89 850.73 1426.89 836.306ZM1441.13 836.306C1441.13 853.442 1436.04 869.242 1427.47 880.927C1418.89 892.609 1406.46 900.571 1392.07 900.571C1377.68 900.571 1365.24 892.609 1356.67 880.927C1348.09 869.242 1343 853.442 1343 836.306C1343 819.169 1348.09 803.37 1356.67 791.684C1365.24 780.003 1377.68 772.04 1392.07 772.04C1406.46 772.04 1418.89 780.003 1427.47 791.684C1436.04 803.37 1441.13 819.169 1441.13 836.306Z" fill="#231F20"/>
<path d="M1554.68 1219.44H1479.05V905.276H1554.68C1590.34 905.276 1619.25 934.232 1619.25 969.956V1154.76C1619.25 1190.48 1590.34 1219.44 1554.68 1219.44Z" fill="#FF86F7"/>
<path d="M667.296 1323.04H534.191C502.538 1323.04 476.879 1348.69 476.879 1380.34V1631.7C476.879 1663.35 502.538 1689 534.191 1689H667.296C698.948 1689 724.608 1663.35 724.608 1631.7V1380.34C724.608 1348.69 698.948 1323.04 667.296 1323.04Z" fill="#FF86F7"/>
<path d="M1194.28 1323.04H1061.18C1029.53 1323.04 1003.87 1348.69 1003.87 1380.34V1631.7C1003.87 1663.35 1029.53 1689 1061.18 1689H1194.28C1225.94 1689 1251.6 1663.35 1251.6 1631.7V1380.34C1251.6 1348.69 1225.94 1323.04 1194.28 1323.04Z" fill="#FF86F7"/>
<path d="M1250.27 726.099L1144.29 649.866C1129.32 639.093 1128.9 616.943 1143.47 605.616C1157.23 582.903 1182.18 548.031 1223.41 516.493C1262.66 486.469 1300.81 471.6 1325.71 464.032C1335.36 456.543 1348.88 456.286 1358.79 463.419C1367.97 470.017 1373.28 481.977 1368.73 494.976L1292.48 712.794C1286.37 730.215 1265.25 736.863 1250.27 726.09V726.099Z" fill="#8E0084"/>
<path d="M1199.03 674.855L1093.05 598.622C1078.08 587.848 1077.67 565.699 1092.23 554.372C1105.99 531.658 1130.94 496.786 1172.17 465.248C1211.43 435.224 1249.57 420.355 1274.48 412.797C1284.12 405.308 1297.65 405.051 1307.56 412.184C1316.74 418.782 1322.05 430.743 1317.5 443.742L1241.24 661.559C1235.15 678.98 1214.02 685.628 1199.03 674.855Z" fill="#FF86F7"/>
<path d="M17.2772 1087.13C10.413 1087.13 3.91474 1083.01 1.22445 1076.25C-2.29668 1067.4 2.03549 1057.38 10.8976 1053.86C41.4107 1041.75 68.3532 1024.67 89.8459 1004.1C85.1775 1001.45 80.598 998.529 76.1472 995.28C44.6252 972.27 27.3856 937.084 31.1342 903.448C33.3992 883.134 44.9121 863.374 61.9045 850.615C77.1561 839.159 95.0584 834.488 112.338 837.461C142.297 842.606 167.034 870.682 171.158 904.218C174.284 929.618 167.103 956.697 149.824 984.713C148.864 986.264 147.885 987.804 146.886 989.335C155.699 991.517 164.284 993.097 172.127 994.361C206.636 999.931 241.828 1001.69 276.713 999.576C286.237 999.023 294.417 1006.24 294.991 1015.74C295.565 1025.24 288.315 1033.42 278.8 1033.99C241.373 1036.26 203.63 1034.38 166.608 1028.4C153.632 1026.31 138.884 1023.43 123.86 1018.67C97.6399 1046.96 63.1705 1070.21 23.637 1085.91C21.5401 1086.74 19.3839 1087.13 17.2673 1087.13H17.2772ZM102.19 871.086C95.6518 871.086 88.8569 873.536 82.6652 878.187C73.269 885.238 66.6718 896.387 65.4552 907.28C63.1012 928.344 75.2966 951.956 96.5222 967.451C101.784 971.292 107.382 974.591 113.178 977.435C115.74 973.9 118.143 970.295 120.408 966.631C129.389 952.065 139.537 930.151 136.867 908.425C134.592 889.929 121.526 874.039 106.472 871.452C105.058 871.205 103.624 871.086 102.18 871.086H102.19Z" fill="#8E0084"/>
<path d="M876.624 1563.45C1242.3 1563.45 1538.74 1323.47 1538.74 1027.45C1538.74 731.429 1242.3 491.456 876.624 491.456C510.949 491.456 214.512 731.429 214.512 1027.45C214.512 1323.47 510.949 1563.45 876.624 1563.45Z" fill="#FF86F7"/>
<path d="M1047.24 616.446C986.297 594.307 922.56 583.079 857.785 583.079C856.984 583.079 856.192 583.079 855.391 583.079C791.407 583.356 728.452 594.584 668.275 616.446L652.539 573.205C717.71 549.524 785.898 537.367 855.193 537.071C926.22 536.656 996.158 548.921 1062.98 573.205L1047.24 616.446Z" fill="#8E0084"/>
<path d="M1586.56 1016.19H1580.43C1572.33 1016.19 1565.76 1022.69 1565.76 1030.7V1094.01C1565.76 1102.03 1572.33 1108.53 1580.43 1108.53H1586.56C1594.66 1108.53 1601.23 1102.03 1601.23 1094.01V1030.7C1601.23 1022.69 1594.66 1016.19 1586.56 1016.19Z" fill="#8E0084"/>
<path d="M1427.99 1215.64C1430.09 1212.32 1434.48 1211.32 1437.81 1213.42C1441.14 1215.52 1442.13 1219.91 1440.03 1223.24C1425.23 1246.72 1396.1 1262.51 1366.08 1266.24C1335.88 1269.99 1303.25 1261.72 1282.05 1235.02C1279.61 1231.94 1280.12 1227.46 1283.2 1225.02C1286.28 1222.58 1290.76 1223.09 1293.2 1226.17C1310.53 1247.99 1337.66 1255.42 1364.32 1252.11C1391.15 1248.77 1415.96 1234.72 1427.99 1215.64Z" fill="#231F20"/>
<path d="M1385.56 815.573C1383.62 681.93 1593.54 681.93 1591.57 815.573C1593.53 949.206 1383.6 949.206 1385.56 815.573Z" fill="white"/>
<path d="M1488.57 708.221C1516.01 708.221 1543.73 717.026 1564.58 735.007C1585.57 753.108 1599.18 780.163 1598.69 815.573C1599.18 850.981 1585.57 878.035 1564.58 896.134C1543.72 914.113 1516 922.918 1488.56 922.918C1461.12 922.917 1433.4 914.113 1412.55 896.134C1391.55 878.034 1377.95 850.979 1378.44 815.569C1377.96 780.161 1391.56 753.106 1412.56 735.007C1433.41 717.026 1461.13 708.221 1488.57 708.221ZM1488.57 722.46C1464.02 722.46 1439.75 730.36 1421.85 745.79C1404.12 761.083 1392.22 784.109 1392.68 815.469C1392.68 815.539 1392.68 815.608 1392.68 815.678C1392.22 847.035 1404.11 870.058 1421.84 885.35C1439.74 900.778 1464.01 908.679 1488.56 908.679C1513.11 908.679 1537.38 900.778 1555.28 885.35C1573.01 870.058 1584.91 847.034 1584.45 815.677C1584.45 815.607 1584.45 815.538 1584.45 815.468C1584.91 784.108 1573.02 761.083 1555.29 745.79C1537.39 730.361 1513.12 722.46 1488.57 722.46Z" fill="#231F20"/>
<path d="M1541.79 858.671C1564.92 858.671 1583.66 833.075 1583.66 801.5C1583.66 769.925 1564.92 744.329 1541.79 744.329C1518.67 744.329 1499.92 769.925 1499.92 801.5C1499.92 833.075 1518.67 858.671 1541.79 858.671Z" fill="#231F20"/>
<path d="M1576.54 801.5C1576.54 787.065 1572.25 774.283 1565.65 765.28C1559.06 756.274 1550.53 751.448 1541.79 751.448C1533.04 751.448 1524.52 756.274 1517.92 765.28C1511.33 774.283 1507.04 787.065 1507.04 801.5C1507.04 815.935 1511.33 828.717 1517.92 837.719C1524.52 846.726 1533.04 851.552 1541.79 851.552C1550.53 851.552 1559.06 846.726 1565.65 837.719C1572.25 828.717 1576.54 815.935 1576.54 801.5ZM1590.78 801.5C1590.78 818.64 1585.7 834.443 1577.14 846.133C1568.58 857.818 1556.17 865.791 1541.79 865.791C1527.41 865.791 1514.99 857.818 1506.44 846.133C1497.87 834.443 1492.8 818.64 1492.8 801.5C1492.8 784.36 1497.87 768.557 1506.44 756.867C1514.99 745.182 1527.41 737.21 1541.79 737.21C1556.17 737.21 1568.58 745.182 1577.14 756.867C1585.7 768.557 1590.78 784.36 1590.78 801.5Z" fill="#231F20"/>
<path d="M1385.56 815.573C1383.62 681.93 1593.54 681.93 1591.57 815.573C1593.53 949.206 1383.6 949.206 1385.56 815.573Z" fill="white"/>
<path d="M1488.57 708.221C1516.01 708.221 1543.73 717.026 1564.58 735.007C1585.57 753.108 1599.18 780.163 1598.69 815.573C1599.18 850.981 1585.57 878.035 1564.58 896.134C1543.72 914.113 1516 922.918 1488.56 922.918C1461.12 922.917 1433.4 914.113 1412.55 896.134C1391.55 878.034 1377.95 850.979 1378.44 815.569C1377.96 780.161 1391.56 753.106 1412.56 735.007C1433.41 717.026 1461.13 708.221 1488.57 708.221ZM1488.57 722.46C1464.02 722.46 1439.75 730.36 1421.85 745.79C1404.12 761.083 1392.22 784.109 1392.68 815.469C1392.68 815.539 1392.68 815.608 1392.68 815.678C1392.22 847.035 1404.11 870.058 1421.84 885.35C1439.74 900.778 1464.01 908.679 1488.56 908.679C1513.11 908.679 1537.38 900.778 1555.28 885.35C1573.01 870.058 1584.91 847.034 1584.45 815.677C1584.45 815.607 1584.45 815.538 1584.45 815.468C1584.91 784.108 1573.02 761.083 1555.29 745.79C1537.39 730.361 1513.12 722.46 1488.57 722.46Z" fill="#231F20"/>
<path d="M1466.86 841.462C1489.99 841.462 1508.73 815.865 1508.73 784.29C1508.73 752.716 1489.99 727.119 1466.86 727.119C1443.74 727.119 1424.99 752.716 1424.99 784.29C1424.99 815.865 1443.74 841.462 1466.86 841.462Z" fill="#231F20"/>
<path d="M1501.61 784.29C1501.61 769.856 1497.32 757.073 1490.72 748.071C1484.13 739.064 1475.61 734.238 1466.86 734.238C1458.11 734.238 1449.59 739.064 1442.99 748.071C1436.4 757.073 1432.11 769.856 1432.11 784.29C1432.11 798.725 1436.4 811.507 1442.99 820.51C1449.59 829.516 1458.11 834.342 1466.86 834.342C1475.61 834.342 1484.13 829.516 1490.72 820.51C1497.32 811.507 1501.61 798.725 1501.61 784.29ZM1515.85 784.29C1515.85 801.43 1510.77 817.233 1502.21 828.923C1493.65 840.608 1481.24 848.581 1466.86 848.581C1452.48 848.581 1440.06 840.608 1431.51 828.923C1422.95 817.233 1417.87 801.43 1417.87 784.29C1417.87 767.15 1422.95 751.347 1431.51 739.657C1440.06 727.972 1452.48 720 1466.86 720C1481.24 720 1493.65 727.972 1502.21 739.657C1510.77 751.347 1515.85 767.15 1515.85 784.29Z" fill="#231F20"/>
<path d="M1238.35 856.208C1236.4 722.565 1446.32 722.565 1444.35 856.208C1446.31 989.841 1236.38 989.841 1238.35 856.208Z" fill="white"/>
<path d="M1341.36 748.857C1368.8 748.857 1396.52 757.661 1417.37 775.642C1438.36 793.743 1451.96 820.798 1451.47 856.208C1451.96 891.616 1438.35 918.67 1417.36 936.769C1396.51 954.749 1368.78 963.553 1341.35 963.553C1313.91 963.553 1286.19 954.749 1265.33 936.769C1244.34 918.669 1230.73 891.614 1231.23 856.204C1230.74 820.796 1244.35 793.742 1265.34 775.642C1286.2 757.661 1313.92 748.857 1341.36 748.857ZM1341.36 763.095C1316.8 763.095 1292.54 770.996 1274.64 786.426C1256.9 801.718 1245.01 824.744 1245.47 856.104C1245.47 856.174 1245.47 856.243 1245.47 856.313C1245 887.67 1256.9 910.693 1274.63 925.985C1292.52 941.413 1316.79 949.314 1341.35 949.314C1365.9 949.314 1390.17 941.414 1408.06 925.985C1425.8 910.693 1437.69 887.67 1437.23 856.312C1437.23 856.243 1437.23 856.173 1437.23 856.103C1437.69 824.743 1425.8 801.718 1408.07 786.426C1390.18 770.996 1365.91 763.095 1341.36 763.095Z" fill="#231F20"/>
<path d="M1316.99 876.523C1340.12 876.523 1358.86 850.926 1358.86 819.352C1358.86 787.777 1340.12 762.18 1316.99 762.18C1293.86 762.18 1275.12 787.777 1275.12 819.352C1275.12 850.926 1293.86 876.523 1316.99 876.523Z" fill="#231F20"/>
<path d="M1351.75 819.352C1351.75 804.917 1347.45 792.134 1340.86 783.132C1334.26 774.125 1325.74 769.3 1316.99 769.3C1308.25 769.3 1299.72 774.125 1293.13 783.132C1286.53 792.134 1282.24 804.917 1282.24 819.352C1282.24 833.786 1286.53 846.569 1293.13 855.571C1299.72 864.578 1308.25 869.403 1316.99 869.403C1325.74 869.403 1334.26 864.578 1340.86 855.571C1347.45 846.569 1351.75 833.786 1351.75 819.352ZM1365.98 819.352C1365.98 836.492 1360.91 852.295 1352.34 863.984C1343.79 875.669 1331.37 883.642 1316.99 883.642C1302.61 883.642 1290.2 875.669 1281.64 863.984C1273.08 852.295 1268 836.492 1268 819.352C1268 802.212 1273.08 786.408 1281.64 774.719C1290.2 763.034 1302.61 755.061 1316.99 755.061C1331.37 755.061 1343.79 763.034 1352.34 774.719C1360.91 786.408 1365.98 802.212 1365.98 819.352Z" fill="#231F20"/>
<path d="M762.624 569.177C834.74 564.745 889.608 502.692 885.177 430.577C880.745 358.461 818.692 303.593 746.576 308.024C674.461 312.456 619.592 374.509 624.024 446.625C628.456 518.74 690.509 573.608 762.624 569.177Z" fill="#F2D359"/>
<path d="M740.683 515.94C738.364 515.526 737.339 514.055 737.753 511.736L739.823 500.141C717.716 495.089 704.024 481.048 702.297 462.884C701.915 459.871 703.692 458.164 706.674 457.96L721.76 456.972C724.532 456.914 726.092 458.482 726.863 461.38C728.622 469.057 734.33 475.23 743.804 477.842L748.996 448.765L743.166 445.332C730.048 438.388 713.796 424.257 716.962 405.495C720.656 384.802 739.813 374.417 761.863 376.697L764.061 364.389C764.475 362.07 765.947 361.044 768.266 361.458L771.298 361.999C773.617 362.413 774.643 363.885 774.229 366.204L771.999 378.691C788.659 383.322 798.777 394.701 801.759 409.959C802.498 413.036 800.899 414.775 797.885 415.158L782.85 416.891C780.047 417.127 778.422 415.916 777.651 413.017C776.434 407.462 773.261 403.582 767.954 401.346L763.145 428.282L769.331 431.78C791.477 443.833 798.377 457.766 796.026 472.993C792.172 494.577 772.671 503.797 750.023 501.778L747.921 513.551C747.507 515.87 746.035 516.896 743.716 516.482L740.683 515.94ZM753.646 422.721L757.85 399.174C751.384 399.308 745.898 402.194 744.752 408.616C744.083 412.362 744.567 416.866 752.671 421.995L753.646 422.721ZM754.036 479.301C761.993 479.065 767.217 475.58 768.364 469.158C769.319 463.807 766.274 459.213 759.47 455.053L758.495 454.327L754.036 479.301Z" fill="#7D6917"/>
<path d="M1067.66 292.495C1131.79 259.204 1156.79 180.233 1123.49 116.108C1090.2 51.9833 1011.23 26.9874 947.108 60.2782C882.983 93.5689 857.987 172.54 891.278 236.665C924.569 300.789 1003.54 325.785 1067.66 292.495Z" fill="#F2D359"/>
<path d="M1026.02 252.727C1023.74 253.288 1022.2 252.359 1021.64 250.071L1018.83 238.633C996.575 242.978 978.366 235.695 969.423 219.791C967.851 217.192 968.784 214.91 971.427 213.515L984.817 206.495C987.327 205.319 989.389 206.119 991.269 208.456C995.989 214.76 1003.71 218.089 1013.43 216.635L1006.39 187.951L999.665 187.175C984.858 186.147 964.272 179.82 959.559 161.385C954.546 140.971 967.847 123.711 988.927 116.855L985.946 104.712C985.384 102.425 986.313 100.89 988.601 100.329L991.593 99.5939C993.88 99.0321 995.415 99.9615 995.977 102.249L999.001 114.568C1016.11 112.046 1029.97 118.345 1038.88 131.084C1040.81 133.597 1040.05 135.835 1037.45 137.407L1024.41 145.087C1021.94 146.439 1019.97 145.992 1018.09 143.654C1014.72 139.07 1010.25 136.809 1004.49 136.917L1011.01 163.49L1018.09 164.179C1043.22 166.218 1055.18 176.156 1059.2 191.028C1064.43 212.322 1050.34 228.656 1028.82 235.993L1031.67 247.608C1032.23 249.896 1031.3 251.43 1029.02 251.992L1026.02 252.727ZM1000.08 162.258L994.372 139.028C988.516 141.773 984.672 146.635 986.227 152.97C987.135 156.666 989.404 160.587 998.891 161.989L1000.08 162.258ZM1023.37 213.82C1030.55 210.378 1033.91 205.074 1032.36 198.739C1031.06 193.46 1026.42 190.496 1018.51 189.452L1017.32 189.183L1023.37 213.82Z" fill="#7D6917"/>
</svg>
