<svg width="1156" height="1722" viewBox="0 0 1156 1722" fill="none" xmlns="http://www.w3.org/2000/svg">
<path d="M890.316 574.408L766.383 584.89L745.672 340.034C740.379 277.457 711.035 220.691 663.039 180.188C615.042 139.685 554.145 120.297 491.556 125.591C428.967 130.885 372.191 160.226 331.679 208.215C291.168 256.204 271.775 317.092 277.068 379.67L297.778 624.526L173.845 635.008L153.135 390.153C149.048 341.831 154.558 294.114 169.515 248.331C183.953 204.145 206.534 163.666 236.635 128.009C266.736 92.3522 302.854 63.297 343.995 41.6452C386.623 19.2137 432.736 5.76871 481.075 1.68006C529.415 -2.4086 577.131 3.10011 622.921 18.053C667.113 32.4871 707.599 55.0631 743.261 85.1577C778.924 115.252 807.983 151.364 829.637 192.496C852.071 235.116 865.517 281.221 869.605 329.552L890.316 574.408Z" fill="#7D6917"/>
<path d="M969.02 567.751L95.1315 641.666C38.176 646.484 -4.09102 696.552 0.725563 753.498L74.628 1627.23C79.4446 1684.18 129.521 1726.44 186.476 1721.62L1060.37 1647.7C1117.32 1642.89 1159.59 1592.82 1154.77 1535.87L1080.87 662.137C1076.05 605.192 1025.98 562.933 969.02 567.751Z" fill="#F2D359"/>
<path d="M682.476 1177.6C732.496 1169.36 758.398 1073.86 740.329 964.304C722.26 854.749 667.063 772.625 617.043 780.873C567.023 789.121 541.121 884.619 559.19 994.174C577.259 1103.73 632.456 1185.85 682.476 1177.6Z" fill="white"/>
<path d="M734.894 965.2C725.958 911.019 707.873 863.886 686.096 831.485C664.019 798.638 639.52 782.749 617.939 786.308C596.358 789.867 578.259 812.78 567.899 850.975C557.68 888.653 555.689 939.096 564.625 993.278C573.561 1047.46 591.646 1094.59 613.423 1126.99C635.5 1159.84 659.999 1175.73 681.579 1172.17C703.16 1168.61 721.259 1145.7 731.619 1107.5C741.838 1069.82 743.83 1019.38 734.894 965.2ZM745.764 963.407C754.897 1018.78 752.972 1070.86 742.252 1110.39C731.673 1149.39 711.811 1178.35 683.372 1183.04C654.933 1187.73 626.823 1166.68 604.28 1133.14C581.436 1099.15 562.887 1050.44 553.755 995.07C544.622 939.697 546.547 887.614 557.267 848.092C567.846 809.088 587.707 780.128 616.146 775.438C644.586 770.748 672.696 791.798 695.24 825.34C718.083 859.327 736.631 908.034 745.764 963.407Z" fill="#231F20"/>
<path d="M689.434 1009.17C716.577 1003.34 729.538 956.523 718.384 904.606C707.229 852.69 676.183 815.331 649.04 821.161C621.897 826.992 608.936 873.805 620.09 925.721C631.245 977.637 662.291 1015 689.434 1009.17Z" fill="#231F20"/>
<path d="M712.998 905.763C707.569 880.494 697.344 859.037 685.471 844.749C673.407 830.232 660.755 824.279 650.196 826.547C639.638 828.815 630.548 839.438 625.511 857.629C620.554 875.532 620.046 899.295 625.475 924.564C630.905 949.833 641.128 971.29 653.002 985.578C665.066 1000.1 677.718 1006.05 688.276 1003.78C698.835 1001.51 707.925 990.889 712.961 972.698C717.918 954.795 718.427 931.032 712.998 905.763ZM723.769 903.45C729.494 930.097 729.099 955.699 723.578 975.638C718.137 995.291 707.175 1010.99 690.59 1014.55C674.006 1018.11 657.563 1008.3 644.529 992.619C631.306 976.706 620.429 953.525 614.704 926.878C608.979 900.231 609.374 874.629 614.894 854.689C620.336 835.037 631.298 819.338 647.882 815.776C664.467 812.213 680.91 822.025 693.943 837.709C707.167 853.622 718.044 876.803 723.769 903.45Z" fill="#231F20"/>
<path d="M491.863 1211.32C541.883 1203.07 567.785 1107.57 549.716 998.019C531.647 888.465 476.45 806.34 426.43 814.589C376.41 822.837 350.508 918.335 368.577 1027.89C386.646 1137.44 441.843 1219.57 491.863 1211.32Z" fill="white"/>
<path d="M544.281 998.915C535.345 944.734 517.26 897.602 495.483 865.2C473.406 832.353 448.907 816.465 427.326 820.023C405.745 823.582 387.646 846.495 377.286 884.691C367.067 922.369 365.076 972.812 374.012 1026.99C382.948 1081.17 401.033 1128.31 422.81 1160.71C444.887 1193.56 469.385 1209.44 490.966 1205.89C512.547 1202.33 530.646 1179.41 541.006 1141.22C551.225 1103.54 553.217 1053.1 544.281 998.915ZM555.151 997.123C564.284 1052.5 562.359 1104.58 551.639 1144.1C541.06 1183.1 521.198 1212.07 492.759 1216.75C464.32 1221.44 436.21 1200.39 413.667 1166.85C390.823 1132.87 372.274 1084.16 363.142 1028.79C354.009 973.412 355.934 921.329 366.654 881.807C377.233 842.804 397.094 813.843 425.533 809.154C453.973 804.464 482.083 825.514 504.627 859.055C527.47 893.043 546.018 941.75 555.151 997.123Z" fill="#231F20"/>
<path d="M498.812 1042.86C525.955 1037.03 538.916 990.22 527.762 938.304C516.608 886.387 485.561 849.028 458.418 854.858C431.275 860.689 418.314 907.502 429.469 959.418C440.623 1011.33 471.669 1048.69 498.812 1042.86Z" fill="#231F20"/>
<path d="M522.375 939.461C516.946 914.192 506.722 892.734 494.849 878.446C482.785 863.929 470.133 857.976 459.575 860.244C449.016 862.512 439.926 873.135 434.89 891.326C429.933 909.23 429.424 932.992 434.854 958.261C440.283 983.53 450.507 1004.99 462.38 1019.28C474.444 1033.79 487.096 1039.75 497.654 1037.48C508.213 1035.21 517.303 1024.59 522.339 1006.4C527.296 988.492 527.805 964.73 522.375 939.461ZM533.147 937.147C538.872 963.794 538.477 989.396 532.957 1009.34C527.515 1028.99 516.553 1044.69 499.969 1048.25C483.384 1051.81 466.941 1042 453.907 1026.32C440.684 1010.4 429.807 987.222 424.082 960.575C418.357 933.928 418.752 908.326 424.273 888.387C429.714 868.734 440.676 853.035 457.26 849.473C473.845 845.91 490.288 855.722 503.322 871.406C516.545 887.319 527.422 910.5 533.147 937.147Z" fill="#231F20"/>
<path d="M318.239 1352.68C340.465 1288.67 416.331 1357.24 626.735 1317.86C801.39 1285.18 892.537 1176.8 926.944 1238.77C958.49 1295.59 894.2 1472.88 663.821 1515.99C448.159 1556.34 296.927 1414.07 318.239 1352.68Z" fill="#231F20"/>
<path d="M889.417 1214.92C898.162 1213.86 906.349 1214.58 913.688 1218.06C921.069 1221.56 927.029 1227.58 931.76 1236.1C940.539 1251.91 942.259 1275.15 936.932 1301.1C931.57 1327.22 918.946 1356.77 898.074 1385.74C856.275 1443.76 781.338 1499.6 664.834 1521.4C555.586 1541.85 462.481 1516.05 399.279 1477.18C367.707 1457.76 343.438 1434.98 328.367 1412.87C313.466 1391.02 306.847 1368.7 313.036 1350.88C316.022 1342.28 320.05 1335.5 325.477 1330.41C330.93 1325.29 337.468 1322.18 344.966 1320.41C359.543 1316.98 378.689 1318.46 402.402 1320.55C450.342 1324.75 521.29 1331.99 625.722 1312.45L627.745 1312.07C713.219 1295.72 778.327 1261.2 827.053 1237.86C851.337 1226.22 872.245 1217.01 889.417 1214.92ZM908.97 1228.02C904.057 1225.69 898.113 1224.96 890.746 1225.86C875.693 1227.69 856.448 1235.99 831.812 1247.79C783.082 1271.13 715.933 1306.78 627.748 1323.28C521.776 1343.11 449.589 1335.75 401.439 1331.52C377.106 1329.38 359.968 1328.19 347.494 1331.13C341.467 1332.55 336.788 1334.9 333.016 1338.44C329.218 1342 326.013 1347.09 323.443 1354.49C318.976 1367.36 323.269 1385.84 337.469 1406.67C351.499 1427.24 374.521 1449.02 405.051 1467.8C466.052 1505.32 556.394 1530.49 662.807 1510.58C776.682 1489.27 849.08 1434.91 889.135 1379.3C909.19 1351.46 921.121 1323.34 926.141 1298.89C931.195 1274.27 929.122 1254.04 922.128 1241.45C918.258 1234.47 913.842 1230.32 908.97 1228.02Z" fill="#231F20"/>
<path d="M325.824 1338.18C335.238 1383.02 373.486 1413.29 412.203 1406.04C445.403 1399.83 468.327 1368.03 469.493 1330.59C387.582 1328.12 345.592 1313.1 325.815 1338.19L325.824 1338.18Z" fill="white"/>
<path d="M321.489 1334.78C333.212 1319.91 351.305 1317.62 374.574 1318.55C386.345 1319.02 400.089 1320.36 415.743 1321.72C431.471 1323.08 449.335 1324.47 469.659 1325.08C471.12 1325.13 472.504 1325.75 473.506 1326.82C474.507 1327.88 475.044 1329.3 474.999 1330.76C473.773 1370.14 449.548 1404.66 413.216 1411.46C370.909 1419.37 330.495 1386.44 320.508 1339.66C320.057 1338.03 320.362 1336.21 321.489 1334.78ZM374.134 1329.56C352.517 1328.69 339.933 1331.04 331.804 1339.67C341.667 1380.88 376.89 1407.05 411.189 1400.63C439.695 1395.29 460.61 1368.88 463.65 1335.9C445.357 1335.21 429.128 1333.93 414.794 1332.69C398.919 1331.32 385.571 1330.02 374.134 1329.56Z" fill="#231F20"/>
<path d="M477.803 1330.79C488.505 1373.55 525.694 1401.94 563.329 1394.9C596.671 1388.65 619.639 1356.61 620.625 1318.97C563.46 1329.23 516.412 1331.51 477.803 1330.79Z" fill="white"/>
<path d="M473.492 1327.36C474.56 1326.02 476.192 1325.25 477.906 1325.28C516.195 1325.99 562.88 1323.73 619.652 1313.55C621.282 1313.26 622.957 1313.71 624.214 1314.79C625.47 1315.87 626.174 1317.46 626.131 1319.11C625.095 1358.7 600.831 1393.48 564.343 1400.31C523.125 1408.02 483.676 1376.95 472.459 1332.12C472.043 1330.46 472.425 1328.7 473.492 1327.36ZM485.169 1336.39C497.392 1373.04 530.242 1395.48 562.315 1389.48C590.579 1384.19 611.373 1358.18 614.686 1325.6C563.811 1334.29 521.039 1336.68 485.169 1336.39Z" fill="#231F20"/>
<path d="M630.479 1317.14C645.017 1351.88 678.014 1373.44 711.357 1367.2C750.181 1359.94 774.919 1317.69 767.287 1272.35C729 1289.5 683.648 1306.78 630.478 1317.13L630.479 1317.14Z" fill="white"/>
<path d="M765.33 1267.2C766.815 1266.63 768.477 1266.73 769.887 1267.49C771.39 1268.29 772.436 1269.75 772.719 1271.43C780.711 1318.92 754.901 1364.66 712.37 1372.61C675.88 1379.45 640.685 1355.8 625.398 1319.26C625.176 1318.73 625.038 1318.17 624.99 1317.6L624.989 1317.59C624.752 1314.79 626.665 1312.26 629.426 1311.72C682.039 1301.48 726.972 1284.37 765.036 1267.32L765.33 1267.2ZM762.78 1280.37C727.392 1295.88 686.1 1311.22 638.402 1321.15C653.276 1350.35 682.073 1367.08 710.343 1361.79L710.344 1361.79C743.524 1355.58 766.48 1320.64 762.78 1280.37Z" fill="#231F20"/>
<path d="M911.916 1226.27C911.714 1225.17 911.469 1224.09 911.231 1223C884.605 1210.49 840.277 1239.03 773.989 1269.32C787.703 1306.14 821.816 1329.4 856.285 1322.94C895.628 1315.58 920.533 1272.3 911.916 1226.27Z" fill="white"/>
<path d="M887.03 1215.26C896.483 1213.79 905.319 1214.25 913.199 1217.84L913.573 1218.01L913.859 1218.16C915.262 1218.92 916.271 1220.26 916.613 1221.83C916.834 1222.84 917.108 1224.04 917.331 1225.25L917.536 1226.38C925.945 1274.17 900.061 1320.35 857.297 1328.35C819.57 1335.42 783.235 1309.92 768.827 1271.24C767.819 1268.53 769.073 1265.51 771.7 1264.31C804.317 1249.4 832.655 1234.39 855.383 1225.02C866.883 1220.28 877.46 1216.75 887.03 1215.26ZM906.448 1227C901.58 1225.34 895.772 1225.05 888.722 1226.14C880.42 1227.44 870.779 1230.59 859.582 1235.2C838.002 1244.1 812.518 1257.57 781.064 1272.12C795.101 1304.23 825.495 1323.1 855.27 1317.53L855.272 1317.53C890.857 1310.87 914.714 1271.15 906.502 1227.28C906.501 1227.27 906.5 1227.27 906.498 1227.26C906.482 1227.17 906.465 1227.09 906.448 1227Z" fill="#231F20"/>
</svg>
