<svg width="1056" height="1613" viewBox="0 0 1056 1613" fill="none" xmlns="http://www.w3.org/2000/svg">
<g clip-path="url(#clip0_412_2230)">
<path d="M26.2152 26.5472C26.2152 26.5472 238.483 -0.704011 413.459 0.0144489C588.435 0.732909 803.576 26.5544 803.576 26.5544C803.576 26.5544 737.6 198.683 728.994 462.609C720.388 726.536 889.631 973.255 949.868 1133.91C1010.1 1294.56 1056 1598.65 1056 1598.65C1056 1598.65 754.813 1569.96 591.309 1575.7C427.805 1581.45 227.01 1613 227.01 1613C227.01 1613 257.8 1348.05 206.931 1142.52C174.446 1011.28 20.2096 648.734 6.12927 468.35C-15.2641 194.164 26.2152 26.5472 26.2152 26.5472Z" fill="#F2D359"/>
<path d="M331.649 138.772C352.128 132.152 372.957 143.843 383.079 163.349C393.355 183.153 393 211.175 372.449 239.063C362.628 252.392 348.53 264.373 331.326 267.36C314.138 270.345 293.775 262.165 287.118 244.629C287.092 244.559 287.067 244.489 287.044 244.418C284.511 237.611 283.715 228.486 284.315 218.744C284.928 208.808 287.019 197.81 290.593 187.2C297.636 166.289 310.974 145.455 331.649 138.772ZM374.341 167.883C365.826 151.473 349.429 143.37 334.678 148.138H334.677C318.5 153.367 306.63 170.428 299.922 190.342C296.62 200.144 294.699 210.291 294.141 219.35C293.576 228.506 294.428 236.141 296.322 241.128C296.33 241.151 296.338 241.175 296.346 241.199C300.954 253.224 315.907 260.047 329.642 257.662C343.386 255.275 355.509 245.458 364.524 233.224V233.223C383.103 208.011 382.701 183.994 374.341 167.883Z" fill="#231F20"/>
<path d="M291.72 242.883C297.338 257.683 315.01 265.198 330.484 262.511C345.958 259.824 359.069 248.925 368.487 236.143C407.617 183.042 368.393 132.067 333.164 143.455C296.311 155.367 282.748 219.245 291.72 242.875V242.883Z" fill="white"/>
<path d="M331.649 138.772C352.128 132.152 372.957 143.843 383.079 163.349C393.355 183.153 393 211.175 372.449 239.063C362.628 252.392 348.53 264.373 331.326 267.36C314.138 270.345 293.775 262.165 287.118 244.629C287.092 244.559 287.067 244.489 287.044 244.418C284.511 237.611 283.715 228.486 284.315 218.744C284.928 208.808 287.019 197.81 290.593 187.2C297.636 166.289 310.974 145.455 331.649 138.772ZM374.341 167.883C365.826 151.473 349.429 143.37 334.678 148.138H334.677C318.5 153.367 306.63 170.428 299.922 190.342C296.62 200.144 294.699 210.291 294.141 219.35C293.576 228.506 294.428 236.141 296.322 241.128C296.33 241.151 296.338 241.175 296.346 241.199C300.954 253.224 315.907 260.047 329.642 257.662C343.386 255.275 355.509 245.458 364.524 233.224V233.223C383.103 208.011 382.701 183.994 374.341 167.883Z" fill="#231F20"/>
<path d="M355.629 244.204C364.86 232.314 363.711 215.811 353.065 207.347C342.418 198.884 326.298 201.657 317.066 213.548C314.782 216.493 313.13 219.719 312.102 223.039C311.542 228.319 311.391 233.363 311.65 237.932C312.9 242.789 315.572 247.179 319.631 250.405C330.277 258.868 346.398 256.095 355.629 244.204Z" fill="#231F20"/>
<path d="M313.179 210.53C323.791 196.86 342.973 193.037 356.128 203.495C369.237 213.916 370.112 233.576 359.517 247.223C348.905 260.892 329.724 264.715 316.569 254.258L316.108 253.884C311.407 249.98 308.332 244.789 306.883 239.159C306.803 238.849 306.754 238.531 306.736 238.211C306.46 233.339 306.624 228.026 307.208 222.519C307.242 222.202 307.307 221.889 307.401 221.584C308.603 217.7 310.53 213.945 313.177 210.531L313.179 210.53ZM350.002 211.2C341.864 204.731 328.805 206.455 320.955 216.566C319.137 218.91 317.807 221.451 316.947 224.051C316.473 228.728 316.342 233.157 316.539 237.157C317.553 240.751 319.527 243.928 322.401 246.314L322.694 246.552V246.552C330.832 253.022 343.891 251.298 351.741 241.186C359.609 231.052 358.186 217.706 350.002 211.2Z" fill="#231F20"/>
<path d="M426.95 130.488C447.428 123.869 468.258 135.559 478.379 155.065C488.656 174.869 488.301 202.89 467.75 230.779C457.929 244.108 443.831 256.089 426.627 259.076C409.438 262.061 389.075 253.881 382.419 236.345C382.393 236.276 382.368 236.205 382.344 236.134C379.812 229.328 379.016 220.202 379.616 210.461C380.229 200.525 382.32 189.526 385.893 178.916C392.937 158.005 406.274 137.171 426.95 130.488ZM469.642 159.599C461.127 143.19 444.73 135.086 429.978 139.854H429.978C413.801 145.083 401.93 162.144 395.223 182.058C391.921 191.86 390 202.007 389.441 211.066C388.877 220.222 389.729 227.857 391.622 232.844C391.631 232.867 391.639 232.891 391.647 232.915C396.254 244.94 411.207 251.763 424.943 249.378C438.687 246.991 450.81 237.174 459.825 224.94V224.94C478.404 199.727 478.002 175.71 469.642 159.599Z" fill="#231F20"/>
<path d="M387.021 234.599C392.639 249.399 410.311 256.914 425.785 254.227C441.259 251.54 454.369 240.641 463.787 227.86C502.918 174.758 463.694 123.784 428.465 135.171C391.612 147.083 378.048 210.961 387.021 234.592V234.599Z" fill="white"/>
<path d="M426.95 130.488C447.428 123.869 468.258 135.559 478.379 155.065C488.656 174.869 488.301 202.89 467.75 230.779C457.929 244.108 443.831 256.089 426.627 259.076C409.438 262.061 389.075 253.881 382.419 236.345C382.393 236.276 382.368 236.205 382.344 236.134C379.812 229.328 379.016 220.202 379.616 210.461C380.229 200.525 382.32 189.526 385.893 178.916C392.937 158.005 406.274 137.171 426.95 130.488ZM469.642 159.599C461.127 143.19 444.73 135.086 429.978 139.854H429.978C413.801 145.083 401.93 162.144 395.223 182.058C391.921 191.86 390 202.007 389.441 211.066C388.877 220.222 389.729 227.857 391.622 232.844C391.631 232.867 391.639 232.891 391.647 232.915C396.254 244.94 411.207 251.763 424.943 249.378C438.687 246.991 450.81 237.174 459.825 224.94V224.94C478.404 199.727 478.002 175.71 469.642 159.599Z" fill="#231F20"/>
<path d="M414.93 242.121C425.577 250.584 441.697 247.811 450.928 235.921C460.16 224.03 459.01 207.527 448.364 199.064C437.717 190.6 421.597 193.373 412.366 205.264C403.134 217.154 404.284 233.657 414.93 242.121Z" fill="#231F20"/>
<path d="M408.477 202.246C419.089 188.576 438.271 184.753 451.426 195.211C464.535 205.632 465.41 225.292 454.815 238.939C444.203 252.609 425.021 256.431 411.866 245.974C398.758 235.553 397.882 215.893 408.477 202.246ZM445.3 202.917C437.162 196.447 424.103 198.171 416.253 208.283C408.385 218.417 409.808 231.763 417.992 238.268C426.13 244.738 439.19 243.014 447.039 232.903C454.907 222.768 453.484 209.423 445.3 202.917Z" fill="#231F20"/>
<path d="M258.356 240.539C261.07 240.68 263.157 242.995 263.016 245.71C262.214 261.187 262.977 276.636 265.737 291.782C271.26 322.076 285.174 351.083 307.374 371.844C329.58 392.609 360.458 404.447 390.242 400.913H390.242C423.378 396.982 452.727 374.741 472.37 346.666C492.031 318.565 503.089 285.232 512.665 251.427C513.406 248.812 516.127 247.292 518.742 248.033C521.358 248.774 522.877 251.495 522.136 254.11C512.532 288.013 501.119 322.747 480.436 352.309C459.734 381.898 428.15 406.329 391.402 410.688C358.341 414.611 324.665 401.49 300.651 379.034C276.631 356.572 261.881 325.515 256.053 293.547C253.138 277.555 252.35 261.334 253.186 245.2C253.326 242.485 255.641 240.399 258.356 240.539Z" fill="#231F20"/>
<path d="M611.571 540.398C616.236 540.178 620.197 543.782 620.417 548.447C620.637 553.113 617.033 557.073 612.368 557.293L101.957 581.369C97.292 581.589 93.3313 577.985 93.1111 573.32C92.8911 568.655 96.4947 564.694 101.16 564.474L611.571 540.398Z" fill="#231F20"/>
<path d="M653.572 640.329C658.233 640.037 662.249 643.579 662.541 648.241C662.833 652.902 659.291 656.918 654.629 657.21L116.525 690.92C111.864 691.212 107.848 687.67 107.556 683.008C107.264 678.347 110.806 674.331 115.468 674.039L653.572 640.329Z" fill="#231F20"/>
<path d="M585.99 754.067C590.645 753.68 594.732 757.14 595.118 761.795C595.504 766.449 592.044 770.536 587.389 770.922L173.278 805.286C168.623 805.672 164.537 802.212 164.151 797.558C163.764 792.903 167.224 788.816 171.879 788.43L585.99 754.067Z" fill="#231F20"/>
<path d="M744.781 873.915C749.43 873.47 753.56 876.878 754.006 881.527C754.451 886.176 751.043 890.306 746.394 890.752L231.17 940.117C226.521 940.563 222.391 937.155 221.945 932.506C221.5 927.856 224.908 923.726 229.557 923.281L744.781 873.915Z" fill="#231F20"/>
<path d="M585.796 985.889C590.441 985.396 594.605 988.762 595.098 993.406C595.591 998.051 592.225 1002.21 587.58 1002.71L269.775 1036.42C265.131 1036.91 260.966 1033.54 260.474 1028.9C259.981 1024.26 263.347 1020.09 267.991 1019.6L585.796 985.889Z" fill="#231F20"/>
<path d="M830.125 1066.56C834.767 1066.04 838.949 1069.39 839.466 1074.03C839.983 1078.67 836.639 1082.85 831.997 1083.37L302.32 1142.36C297.678 1142.88 293.496 1139.54 292.978 1134.9C292.461 1130.25 295.806 1126.07 300.448 1125.55L830.125 1066.56Z" fill="#231F20"/>
<path d="M487.794 1493.62C484.811 1494.94 482.495 1494.04 481.175 1491.06L474.574 1476.15C445.288 1487.46 418.702 1481.95 402.657 1462.44C399.885 1459.27 400.603 1455.94 403.868 1453.39L420.419 1440.58C423.556 1438.37 426.561 1438.96 429.69 1441.69C437.652 1449.14 448.984 1451.81 461.88 1447.47L445.327 1410.08L435.977 1410.65C415.544 1412.83 385.949 1409.2 375.057 1385.21C363.277 1358.6 377.226 1331.85 404.3 1317.39L397.293 1301.56C395.973 1298.58 396.868 1296.26 399.85 1294.94L403.75 1293.22C406.733 1291.9 409.049 1292.79 410.369 1295.77L417.478 1311.83C440.186 1304.25 460.608 1309.48 475.844 1324.68C479.075 1327.64 478.586 1330.88 475.423 1333.65L459.507 1347.28C456.472 1349.72 453.67 1349.59 450.541 1346.86C444.843 1341.42 438.198 1339.43 430.375 1340.97L445.709 1375.61L455.518 1374.84C490.269 1371.52 508.976 1382.17 518.066 1401.47C530.354 1429.23 515.108 1454.91 487.549 1470.13L494.251 1485.27C495.571 1488.25 494.676 1490.57 491.694 1491.89L487.794 1493.62ZM430.5 1376.58L417.095 1346.3C409.777 1351.46 405.715 1359.02 409.371 1367.28C411.504 1372.09 415.547 1376.89 428.819 1376.5L430.5 1376.58ZM474.753 1441.22C483.704 1434.79 487.002 1426.75 483.346 1418.49C480.3 1411.61 473.248 1408.69 462.217 1409.18L460.536 1409.1L474.753 1441.22Z" fill="#7D6917"/>
<path d="M675.704 1493.62C672.722 1494.94 670.405 1494.04 669.085 1491.06L662.484 1476.15C633.198 1487.46 606.612 1481.95 590.567 1462.44C587.795 1459.27 588.514 1455.94 591.778 1453.39L608.329 1440.58C611.466 1438.37 614.471 1438.96 617.6 1441.69C625.562 1449.14 636.894 1451.81 649.79 1447.47L633.237 1410.08L623.887 1410.65C603.454 1412.83 573.86 1409.2 562.967 1385.21C551.187 1358.6 565.136 1331.85 592.21 1317.39L585.203 1301.56C583.883 1298.58 584.778 1296.26 587.76 1294.94L591.66 1293.22C594.643 1291.9 596.959 1292.79 598.28 1295.77L605.388 1311.83C628.096 1304.25 648.518 1309.48 663.754 1324.68C666.985 1327.64 666.496 1330.88 663.333 1333.65L647.418 1347.28C644.383 1349.72 641.581 1349.59 638.451 1346.86C632.754 1341.42 626.108 1339.43 618.285 1340.97L633.62 1375.61L643.428 1374.84C678.179 1371.52 696.886 1382.17 705.977 1401.47C718.264 1429.23 703.018 1454.91 675.459 1470.13L682.161 1485.27C683.481 1488.25 682.586 1490.57 679.604 1491.89L675.704 1493.62ZM618.41 1376.58L605.006 1346.3C597.687 1351.46 593.625 1359.02 597.281 1367.28C599.414 1372.09 603.457 1376.89 616.729 1376.5L618.41 1376.58ZM662.663 1441.22C671.614 1434.79 674.912 1426.75 671.256 1418.49C668.21 1411.61 661.158 1408.69 650.127 1409.18L648.446 1409.1L662.663 1441.22Z" fill="#7D6917"/>
<path d="M859.571 1493.62C856.589 1494.94 854.272 1494.04 852.952 1491.06L846.351 1476.15C817.065 1487.46 790.479 1481.95 774.434 1462.44C771.663 1459.27 772.381 1455.94 775.645 1453.39L792.197 1440.58C795.333 1438.37 798.338 1438.96 801.467 1441.69C809.429 1449.14 820.761 1451.81 833.657 1447.47L817.104 1410.08L807.755 1410.65C787.322 1412.83 757.727 1409.2 746.834 1385.21C735.054 1358.6 749.003 1331.85 776.077 1317.39L769.07 1301.56C767.75 1298.58 768.645 1296.26 771.627 1294.94L775.528 1293.22C778.51 1291.9 780.827 1292.79 782.147 1295.77L789.255 1311.83C811.964 1304.25 832.386 1309.48 847.621 1324.68C850.852 1327.64 850.363 1330.88 847.2 1333.65L831.285 1347.28C828.25 1349.72 825.448 1349.59 822.319 1346.86C816.621 1341.42 809.975 1339.43 802.152 1340.97L817.487 1375.61L827.295 1374.84C862.046 1371.52 880.753 1382.17 889.844 1401.47C902.132 1429.23 886.886 1454.91 859.326 1470.13L866.028 1485.27C867.349 1488.25 866.454 1490.57 863.471 1491.89L859.571 1493.62ZM802.278 1376.58L788.873 1346.3C781.554 1351.46 777.493 1359.02 781.149 1367.28C783.281 1372.09 787.324 1376.89 800.597 1376.5L802.278 1376.58ZM846.531 1441.22C855.481 1434.79 858.779 1426.75 855.124 1418.49C852.077 1411.61 845.025 1408.69 833.994 1409.18L832.313 1409.1L846.531 1441.22Z" fill="#7D6917"/>
</g>
<defs>
<clipPath id="clip0_412_2230">
<rect width="1056" height="1613" fill="white"/>
</clipPath>
</defs>
</svg>
