<svg width="350" height="351" viewBox="0 0 350 351" fill="none" xmlns="http://www.w3.org/2000/svg">
<path d="M330 326.766C330 340.021 261.5 350.766 177 350.766C92.5004 350.766 24 340.021 24 326.766C24 313.511 92.5004 302.766 177 302.766C261.5 302.766 330 313.511 330 326.766Z" fill="#0B9444" fill-opacity="0.2"/>
<path d="M257.871 326.532C257.743 326.532 257.623 326.532 257.519 326.527C236.82 325.83 215.348 324.278 191.873 321.784C190.832 321.673 189.993 320.882 189.825 319.85C183.751 282.784 179.222 251.486 180.738 214.447C180.791 213.164 181.876 212.169 183.157 212.219C184.441 212.272 185.437 213.353 185.387 214.636C183.913 250.655 188.242 281.307 194.13 317.348C216.803 319.719 237.609 321.204 257.676 321.88C258.23 321.899 258.699 321.84 259.038 321.763C258.942 321.681 258.824 321.582 258.681 321.47C254.44 318.165 249.724 315.563 244.668 313.729C244.082 313.516 243.605 313.077 243.344 312.51C239.78 304.705 235.515 282.992 232.979 259.709C231.172 243.148 228.764 211.94 232.917 189.003C233.146 187.739 234.356 186.9 235.621 187.129C236.884 187.358 237.726 188.566 237.497 189.83C235.76 199.429 233.461 221.206 237.606 259.206C240.265 283.601 244.362 302.658 247.21 309.716C252.364 311.69 257.183 314.41 261.542 317.806C262.248 318.357 264.126 319.82 264.051 322.136C263.995 323.844 262.943 325.236 261.163 325.957C259.975 326.439 258.694 326.532 257.871 326.532Z" fill="#231F20"/>
<path d="M110.155 326.532C109.332 326.532 108.051 326.436 106.863 325.957C105.086 325.239 104.034 323.844 103.975 322.136C103.898 319.818 105.776 318.357 106.484 317.806C110.765 314.471 115.489 311.789 120.542 309.822C124.669 289.206 132.722 228.916 133.279 200.052C133.303 198.785 134.339 197.774 135.604 197.774C135.62 197.774 135.634 197.774 135.65 197.774C136.934 197.798 137.954 198.86 137.93 200.143C137.357 229.85 128.912 292.559 124.842 312.02C124.677 312.808 124.115 313.455 123.358 313.729C118.302 315.563 113.589 318.165 109.346 321.47C109.202 321.582 109.084 321.681 108.989 321.763C109.327 321.84 109.796 321.899 110.35 321.88C130.415 321.204 151.221 319.719 173.894 317.348C179.611 281.738 181.76 245.431 180.287 209.401C180.234 208.118 181.233 207.038 182.517 206.985C183.801 206.934 184.883 207.929 184.936 209.212C186.446 246.147 184.179 283.37 178.201 319.85C178.031 320.882 177.194 321.675 176.153 321.784C152.68 324.278 131.206 325.827 110.507 326.527C110.403 326.529 110.286 326.532 110.155 326.532Z" fill="#231F20"/>
<path d="M175.761 248.388C244.037 248.388 299.386 193.097 299.386 124.891C299.386 56.6858 244.037 1.39449 175.761 1.39449C107.485 1.39449 52.1367 56.6858 52.1367 124.891C52.1367 193.097 107.485 248.388 175.761 248.388Z" fill="#50DB8A"/>
<path d="M175.761 249.785C158.884 249.785 142.512 246.482 127.095 239.97C112.206 233.679 98.8383 224.674 87.3566 213.207C75.8749 201.737 66.86 188.38 60.565 173.509C54.0462 158.111 50.7402 141.755 50.7402 124.894C50.7402 108.032 54.0462 91.6791 60.565 76.2786C66.8626 61.4051 75.8775 48.051 87.3566 36.5812C98.8357 25.1113 112.209 16.1057 127.095 9.81725C142.512 3.30258 158.884 0 175.761 0C192.637 0 209.01 3.30258 224.426 9.81459C239.315 16.1057 252.683 25.1113 264.165 36.5785C275.646 48.0457 284.661 61.4051 290.956 76.276C297.475 91.6738 300.781 108.03 300.781 124.891C300.781 141.753 297.475 158.106 290.956 173.506C284.659 188.38 275.644 201.734 264.165 213.204C252.683 224.674 239.312 233.679 224.426 239.968C209.012 246.48 192.64 249.782 175.761 249.782V249.785ZM175.761 2.79428C159.26 2.79428 143.252 6.02235 128.185 12.388C113.631 18.5381 100.559 27.3414 89.3333 38.5558C78.1073 49.7702 69.2948 62.8288 63.1384 77.3671C56.7661 92.419 53.5347 108.41 53.5347 124.894C53.5347 141.377 56.7661 157.369 63.1384 172.421C69.2948 186.959 78.1073 200.018 89.3333 211.232C100.559 222.446 113.631 231.25 128.185 237.4C143.252 243.765 159.26 246.993 175.761 246.993C192.261 246.993 208.269 243.765 223.337 237.4C237.89 231.25 250.962 222.446 262.188 211.232C273.414 200.018 282.226 186.959 288.383 172.421C294.755 157.369 297.987 141.377 297.987 124.894C297.987 108.41 294.755 92.419 288.383 77.3671C282.226 62.8288 273.414 49.7702 262.188 38.5558C250.962 27.3414 237.89 18.5381 223.337 12.388C208.269 6.02235 192.261 2.79428 175.761 2.79428Z" fill="#50DB8A"/>
<path d="M140.707 118.69C158.166 115.759 171.124 106.277 169.649 97.5104C168.174 88.7443 152.825 84.0141 135.366 86.9452C117.907 89.8764 104.949 99.3589 106.424 108.125C107.899 116.891 123.248 121.621 140.707 118.69Z" fill="white"/>
<path d="M130.515 121.895C125.563 121.895 120.909 121.267 116.878 120.024C109.52 117.756 104.989 113.669 104.123 108.519C103.257 103.37 106.201 98.0288 112.413 93.4835C118.167 89.2734 126.178 86.1412 134.974 84.6668C143.768 83.1899 152.365 83.5358 159.182 85.6355C166.54 87.9029 171.071 91.9905 171.937 97.14C173.65 107.324 160.098 117.802 141.086 120.993C137.495 121.597 133.936 121.895 130.518 121.895H130.515ZM145.561 88.4085C142.402 88.4085 139.096 88.6879 135.744 89.2495C127.651 90.6067 120.341 93.4436 115.163 97.2331C112.794 98.9656 110.961 100.863 109.864 102.721C108.83 104.469 108.441 106.162 108.71 107.75C108.977 109.339 109.898 110.811 111.446 112.125C113.09 113.522 115.442 114.717 118.247 115.582C124.383 117.474 132.217 117.767 140.31 116.41C148.404 115.053 155.714 112.216 160.892 108.426C163.261 106.694 165.093 104.796 166.191 102.939C167.225 101.19 167.614 99.4978 167.344 97.9091C167.075 96.3203 166.156 94.8487 164.609 93.534C162.965 92.1369 160.613 90.942 157.807 90.0771C154.211 88.97 150.031 88.4085 145.558 88.4085H145.561Z" fill="#231F20"/>
<path d="M138.074 116.213C146.698 116.213 153.688 110.345 153.688 103.106C153.688 95.8679 146.698 89.9999 138.074 89.9999C129.451 89.9999 122.461 95.8679 122.461 103.106C122.461 110.345 129.451 116.213 138.074 116.213Z" fill="#231F20"/>
<path d="M138.074 118.536C128.183 118.536 120.135 111.614 120.135 103.104C120.135 94.5932 128.183 87.6714 138.074 87.6714C147.965 87.6714 156.013 94.5932 156.013 103.104C156.013 111.614 147.965 118.536 138.074 118.536ZM138.074 92.3232C130.748 92.3232 124.786 97.1613 124.786 103.106C124.786 109.052 130.745 113.89 138.074 113.89C145.403 113.89 151.362 109.052 151.362 103.106C151.362 97.1613 145.403 92.3232 138.074 92.3232Z" fill="#231F20"/>
<path d="M257.396 101.344C257.86 92.4666 243.904 84.5225 226.224 83.6C208.544 82.6775 193.836 89.1259 193.372 98.0028C192.908 106.88 206.864 114.824 224.543 115.746C242.223 116.669 256.931 110.22 257.396 101.344Z" fill="white"/>
<path d="M227.914 118.161C226.76 118.161 225.599 118.132 224.429 118.071C215.524 117.605 207.207 115.407 201.01 111.881C194.319 108.072 190.783 103.101 191.058 97.8851C191.596 87.5729 207.103 80.2785 226.356 81.2844C235.261 81.7501 243.578 83.9483 249.775 87.4744C256.466 91.2826 260.002 96.2538 259.727 101.47C259.455 106.686 255.419 111.26 248.368 114.353C242.696 116.838 235.536 118.164 227.917 118.164L227.914 118.161ZM195.701 98.1273C195.616 99.7347 196.197 101.371 197.422 102.992C198.725 104.714 200.76 106.39 203.312 107.841C208.89 111.016 216.477 113.001 224.672 113.429C232.869 113.858 240.618 112.674 246.498 110.097C249.186 108.919 251.386 107.463 252.862 105.887C254.25 104.405 254.996 102.838 255.081 101.228C255.166 99.6202 254.586 97.9836 253.36 96.3629C252.058 94.6411 250.022 92.9645 247.47 91.5142C241.892 88.3393 234.305 86.354 226.11 85.9256C217.916 85.4971 210.164 86.6814 204.284 89.2574C201.597 90.4364 199.396 91.8921 197.92 93.4675C196.532 94.9498 195.786 96.5173 195.701 98.1273Z" fill="#231F20"/>
<path d="M240.574 103.372C242.146 96.3055 236.596 89.0623 228.179 87.1934C219.761 85.3246 211.663 89.5378 210.091 96.6039C208.519 103.67 214.068 110.913 222.486 112.782C230.904 114.651 239.002 110.438 240.574 103.372Z" fill="#231F20"/>
<path d="M226.453 115.54C224.985 115.54 223.483 115.38 221.975 115.045C217.371 114.023 213.362 111.537 210.688 108.048C207.922 104.437 206.902 100.192 207.813 96.0941C208.724 91.9958 211.449 88.5815 215.485 86.4818C219.385 84.4513 224.071 83.8977 228.675 84.9197C238.332 87.0619 244.683 95.5645 242.836 103.87C241.278 110.877 234.373 115.542 226.453 115.542V115.54ZM224.151 89.0632C221.828 89.0632 219.591 89.5821 217.633 90.6014C214.835 92.0571 212.96 94.3643 212.353 97.1027C211.745 99.8411 212.464 102.723 214.38 105.225C216.388 107.846 219.444 109.722 222.982 110.507C230.135 112.093 237.002 108.663 238.294 102.859C239.586 97.0548 234.818 91.0405 227.665 89.4517C226.488 89.1909 225.31 89.0605 224.151 89.0605V89.0632Z" fill="#231F20"/>
<path d="M183.479 150.7C183.084 150.7 182.687 150.692 182.293 150.678C176.675 150.466 171.152 148.744 166.32 145.694C161.45 142.62 157.734 138.487 155.573 133.737C155.043 132.569 155.56 131.19 156.73 130.661C157.899 130.131 159.279 130.647 159.809 131.816C163.451 139.821 172.767 145.667 182.469 146.035C192.184 146.399 202.031 141.266 206.418 133.546C207.052 132.43 208.472 132.039 209.588 132.673C210.704 133.306 211.096 134.724 210.462 135.84C207.873 140.398 203.791 144.23 198.661 146.921C193.924 149.404 188.7 150.702 183.476 150.702L183.479 150.7Z" fill="#231F20"/>
<path d="M297.076 197.258C296.757 197.258 296.432 197.191 296.123 197.053C294.951 196.526 294.431 195.15 294.959 193.979C302.359 177.583 301.901 165.062 293.597 156.765C292.689 155.857 292.689 154.386 293.597 153.478C294.506 152.571 295.979 152.571 296.887 153.478C302.977 159.562 305.588 167.543 304.642 177.198C303.811 185.674 300.343 193.362 299.202 195.887C298.813 196.747 297.966 197.255 297.082 197.255L297.076 197.258Z" fill="#231F20"/>
<path d="M292.368 248.055C290.632 248.055 288.905 247.297 287.459 245.841C283.412 241.767 281.134 231.62 288.034 216.44C288.564 215.272 289.944 214.755 291.114 215.285C292.283 215.815 292.8 217.193 292.27 218.361C285.924 232.322 288.508 240.301 290.759 242.568C291.29 243.1 292.099 243.656 292.96 243.273C294.643 242.525 294.992 242.371 295.557 240.487C296.407 237.65 297.025 231.774 297.808 222.587C297.918 221.31 299.042 220.36 300.323 220.469C301.602 220.578 302.553 221.701 302.444 222.981C300.728 243.127 300.091 245.192 294.851 247.52C294.041 247.88 293.205 248.055 292.368 248.055Z" fill="#231F20"/>
<path d="M320.384 255.076C319.078 255.076 317.802 254.714 316.603 253.995C312.661 251.629 310.697 246.07 310.175 241.655C310.023 240.38 310.937 239.225 312.213 239.074C313.489 238.922 314.645 239.835 314.797 241.11C315.282 245.216 316.974 248.792 319.001 250.011C319.8 250.49 320.597 250.549 321.508 250.195C323.674 249.354 323.85 247.323 323.362 240.274C323.136 237.017 322.88 233.323 323.144 229.161C323.887 217.334 329.151 208.015 334.242 199.004C338.97 190.634 343.438 182.728 344.783 172.759C346.999 156.344 342.636 139.275 332.811 125.932C322.358 111.734 306.888 101.691 291.432 99.0641C290.166 98.8485 289.314 97.6483 289.529 96.3842C289.745 95.1201 290.947 94.2685 292.212 94.4841C308.833 97.3077 325.411 108.035 336.559 123.18C347.093 137.484 351.771 155.783 349.394 173.381C347.929 184.237 343.03 192.907 338.294 201.29C333.237 210.239 328.464 218.691 327.787 229.453C327.544 233.309 327.787 236.838 328.005 239.955C328.232 243.228 328.426 246.054 327.997 248.42C327.446 251.451 325.832 253.505 323.199 254.527C322.259 254.892 321.316 255.076 320.389 255.076H320.384Z" fill="#231F20"/>
<path d="M308.255 258.498C306.526 258.498 304.874 257.904 303.385 256.731C298.739 253.077 296.169 243.739 296.832 232.94C296.912 231.66 298.012 230.683 299.296 230.763C300.577 230.843 301.555 231.944 301.475 233.224C300.828 243.768 303.502 250.908 306.265 253.08C307.221 253.833 308.183 254.022 309.297 253.681C311.814 252.909 310.607 244.537 309.805 238.999C309.448 236.516 309.075 233.951 308.886 231.604C308.782 230.324 309.736 229.203 311.018 229.099C312.296 228.993 313.42 229.948 313.524 231.228C313.703 233.429 314.062 235.923 314.411 238.334C314.989 242.334 315.586 246.469 315.456 249.83C315.277 254.41 313.666 257.199 310.663 258.12C309.853 258.37 309.049 258.493 308.26 258.493L308.255 258.498Z" fill="#231F20"/>
<path d="M279.353 225.081C277.936 225.081 276.625 224.879 275.506 224.514C272.722 223.607 270.906 221.688 270.522 219.245C269.699 213.984 274.092 211.45 278.746 208.77C283.868 205.819 290.241 202.147 295.062 193.777C295.702 192.665 297.124 192.281 298.238 192.923C299.351 193.561 299.735 194.983 299.093 196.095C293.648 205.548 286.378 209.736 281.069 212.797C276.415 215.479 274.814 216.589 275.117 218.529C275.256 219.421 276.324 219.894 276.947 220.096C280.733 221.329 285.52 219.253 288.101 216.671C289.01 215.764 290.483 215.764 291.391 216.671C292.3 217.579 292.3 219.051 291.391 219.958C287.715 223.631 283.149 225.081 279.353 225.081Z" fill="#231F20"/>
<path d="M45.8584 197.447C44.6916 197.447 43.6846 196.571 43.5514 195.387C43.2371 192.633 42.278 184.255 44.0762 175.928C46.1222 166.446 51.0452 159.639 58.7015 155.7C59.8443 155.112 61.2456 155.562 61.8343 156.703C62.423 157.845 61.9728 159.245 60.83 159.833C50.3872 165.203 46.1302 176.987 48.1734 194.86C48.3199 196.135 47.4035 197.287 46.1275 197.434C46.0369 197.444 45.949 197.449 45.8611 197.449L45.8584 197.447Z" fill="#231F20"/>
<path d="M36.003 247.433C34.5005 247.433 33.0859 246.908 31.9271 245.878C27.6488 242.065 27.6701 239.904 32.1855 220.195C32.4732 218.944 33.72 218.162 34.972 218.449C36.2241 218.737 37.0073 219.982 36.7196 221.233C34.6604 230.222 33.4562 236.005 33.4003 238.967C33.363 240.931 33.648 241.187 35.0227 242.411C35.7259 243.036 36.669 242.757 37.335 242.411C40.1721 240.937 45.0685 234.126 43.2863 218.896C43.1371 217.622 44.0509 216.467 45.3269 216.318C46.603 216.169 47.7591 217.081 47.9083 218.356C49.845 234.917 44.581 243.885 39.4822 246.533C38.3207 247.135 37.1379 247.433 36.003 247.433Z" fill="#231F20"/>
<path d="M7.46003 245.631C5.78438 245.631 4.19932 245.053 2.79807 243.92C0.602949 242.145 -0.308131 239.694 0.0914657 236.641C0.403151 234.26 1.45276 231.625 2.66753 228.578C3.8237 225.677 5.13437 222.39 6.08009 218.643C8.74939 208.07 7.18031 198.152 5.51799 187.651C3.99153 178.004 2.41179 168.027 4.3112 157.361C5.52598 150.524 8.92255 137.183 18.004 124.62C27.9247 110.896 41.788 101.765 59.2078 97.486C60.4545 97.1799 61.7146 97.941 62.0209 99.1865C62.3273 100.432 61.5654 101.691 60.3186 101.997C43.9991 106.007 31.0309 114.534 21.7762 127.34C13.2382 139.153 10.0388 151.727 8.89324 158.172C7.13236 168.07 8.64816 177.655 10.116 186.924C11.7783 197.426 13.4966 208.283 10.5929 219.78C9.57256 223.822 8.20061 227.263 6.99117 230.297C4.37514 236.865 3.92226 238.85 5.72578 240.311C6.48501 240.926 7.26289 241.112 8.16864 240.899C10.473 240.359 13.1716 237.466 14.8899 233.703C15.4227 232.535 16.8026 232.021 17.9721 232.554C19.1416 233.086 19.6557 234.464 19.1229 235.633C17.2768 239.678 13.7124 244.372 9.23423 245.426C8.63484 245.567 8.04077 245.636 7.45736 245.636L7.46003 245.631Z" fill="#231F20"/>
<path d="M18.0691 252.606C16.5134 252.606 15.0162 252.124 13.6389 251.166C11.0602 249.375 10.3782 246.227 11.6063 241.812C12.5094 238.571 14.3396 234.813 16.1111 231.18C17.1794 228.99 18.2822 226.723 19.1241 224.682C19.6142 223.495 20.9729 222.928 22.161 223.418C23.3491 223.907 23.9166 225.265 23.4264 226.451C22.5286 228.628 21.3938 230.96 20.2935 233.214C17.84 238.246 14.1344 245.849 16.2976 247.35C17.2513 248.013 18.229 248.125 19.3665 247.699C22.6592 246.472 27.3877 240.487 29.9878 230.246C30.3048 229.004 31.5702 228.25 32.8142 228.567C34.0583 228.884 34.8122 230.148 34.4952 231.391C31.8312 241.879 26.5299 249.987 20.9915 252.052C20.0058 252.42 19.0255 252.603 18.0691 252.603V252.606Z" fill="#231F20"/>
<path d="M57.3251 229.863C53.0015 229.863 46.893 226.997 43.6376 220.685C43.0489 219.543 43.4991 218.143 44.6419 217.555C45.7848 216.967 47.186 217.417 47.7748 218.558C49.4424 221.792 53.3478 225.217 57.3171 225.217H57.3544C58.0098 225.214 59.1686 225.086 59.5762 224.28C60.458 222.526 59.2725 220.98 55.6575 217.007C51.5363 212.475 45.8913 206.271 43.5897 195.611C43.3179 194.357 44.1171 193.12 45.3745 192.851C46.6293 192.579 47.868 193.378 48.1371 194.634C50.1723 204.073 55.122 209.513 59.0993 213.885C62.7117 217.856 66.1242 221.605 63.732 226.366C62.6238 228.575 60.3061 229.85 57.3784 229.866C57.3624 229.866 57.3438 229.866 57.3278 229.866L57.3251 229.863Z" fill="#231F20"/>
<path d="M161.611 131.318H111.148C101.064 131.318 92.8594 123.121 92.8594 113.049V93.1641C92.8594 83.0913 101.064 74.8948 111.148 74.8948H161.611C171.694 74.8948 179.899 83.0913 179.899 93.1641V113.049C179.899 123.121 171.694 131.318 161.611 131.318ZM111.15 79.5413C103.63 79.5413 97.5133 85.6514 97.5133 93.1641V113.049C97.5133 120.561 103.63 126.672 111.15 126.672H161.614C169.134 126.672 175.251 120.561 175.251 113.049V93.1641C175.251 85.6514 169.134 79.5413 161.614 79.5413H111.15Z" fill="#231F20"/>
<path d="M252.635 131.318H202.171C192.088 131.318 183.883 123.121 183.883 113.049V93.1641C183.883 83.0913 192.088 74.8948 202.171 74.8948H252.635C262.718 74.8948 270.923 83.0913 270.923 93.1641V113.049C270.923 123.121 262.718 131.318 252.635 131.318ZM202.174 79.5413C194.653 79.5413 188.537 85.6514 188.537 93.1641V113.049C188.537 120.561 194.653 126.672 202.174 126.672H252.637C260.158 126.672 266.274 120.561 266.274 113.049V93.1641C266.274 85.6514 260.158 79.5413 252.637 79.5413H202.174Z" fill="#231F20"/>
<path d="M177.514 103.237C176.297 103.237 175.274 102.289 175.194 101.06C175.114 99.7799 176.086 98.6755 177.371 98.5957L185.49 98.0847C186.774 98.0022 187.877 98.9762 187.957 100.259C188.037 101.542 187.065 102.643 185.781 102.723L177.661 103.234C177.61 103.237 177.562 103.239 177.512 103.239L177.514 103.237Z" fill="#231F20"/>
<path d="M95.2391 107.58C94.8475 107.58 94.4506 107.482 94.0856 107.271L56.084 85.5318C54.9704 84.8931 54.5842 83.4746 55.2208 82.3596C55.8602 81.2472 57.2801 80.8586 58.3963 81.4973L96.3979 103.237C97.5115 103.876 97.8977 105.294 97.261 106.409C96.8321 107.16 96.0463 107.577 95.2418 107.577L95.2391 107.58Z" fill="#231F20"/>
<path d="M269.173 99.0986C268.464 99.0986 267.766 98.7766 267.308 98.1672C266.538 97.14 266.748 95.6843 267.774 94.9152L291.649 77.0557C292.677 76.2866 294.134 76.4969 294.904 77.5215C295.674 78.5487 295.463 80.0044 294.438 80.7735L270.563 98.6329C270.145 98.947 269.655 99.096 269.17 99.096L269.173 99.0986Z" fill="#231F20"/>
</svg>
