<svg width="400" height="400" viewBox="0 0 400 400" fill="none" xmlns="http://www.w3.org/2000/svg">
<path d="M375.167 231.118C373.046 231.118 371.349 230.175 370.216 228.353C369.187 226.695 368.728 224.555 368.243 222.289C367.722 219.859 367.184 217.347 365.947 215.731C365.339 214.936 365.491 213.798 366.286 213.19C367.08 212.582 368.218 212.734 368.826 213.529C370.556 215.791 371.21 218.84 371.785 221.529C372.97 227.064 373.715 227.764 375.831 227.438C376.253 227.374 376.616 226.873 376.794 226.583C377.454 225.506 377.877 223.551 377.637 221.55C377.46 220.925 377.315 220.278 377.203 219.61C377.045 218.676 377.635 217.777 378.556 217.549C379.475 217.322 380.415 217.841 380.712 218.742C380.92 219.371 381.073 220.031 381.173 220.703C381.943 223.27 383.474 225.69 385.624 226.265C386.195 226.417 386.989 226.462 387.527 225.811C388.172 225.026 388.442 223.206 387.554 220.375C387.193 219.558 386.873 218.748 386.583 218.014C386.483 217.76 386.386 217.513 386.29 217.273C385.927 216.368 386.346 215.338 387.236 214.942C388.127 214.546 389.17 214.925 389.6 215.801C390.189 217.005 390.635 218.107 390.965 219.116C392.018 221.463 393.117 223.161 394.41 222.878C395.464 222.648 395.834 222.154 396.018 221.803C396.83 220.267 396.149 217.308 395.24 215.048C395.008 214.473 394.742 213.784 394.435 212.993C392.161 207.136 387.927 196.237 380.083 184.008C370.463 169.014 358.498 156.919 344.519 148.065C340.601 145.583 329.296 139.853 308.97 140.214C307.968 140.23 307.144 139.436 307.127 138.435C307.111 137.435 307.905 136.609 308.906 136.59C313.465 136.509 320.485 136.721 328.043 138.192C335.387 139.622 341.581 141.914 346.458 145.004C360.886 154.144 373.225 166.609 383.132 182.053C391.173 194.587 395.491 205.709 397.811 211.684C398.112 212.458 398.374 213.132 398.602 213.697C399.538 216.025 400.864 220.394 399.22 223.499C398.421 225.008 397.025 226.018 395.182 226.421C393.734 226.736 392.518 226.454 391.484 225.8C391.202 226.851 390.745 227.602 390.326 228.112C388.994 229.733 386.886 230.352 384.692 229.766C383.204 229.37 381.762 228.432 380.559 227.097C380.368 227.591 380.143 228.056 379.884 228.478C378.996 229.926 377.784 230.806 376.381 231.02C375.962 231.084 375.555 231.115 375.165 231.115L375.167 231.118Z" fill="#231F20"/>
<path d="M177.444 326.394C177.139 326.394 176.828 326.317 176.543 326.153C175.676 325.655 175.375 324.547 175.873 323.679C179.739 316.941 183.979 301.234 187.216 281.665C190.349 262.719 191.781 244.636 190.955 234.473C190.875 233.475 191.617 232.601 192.613 232.52C193.612 232.439 194.485 233.182 194.566 234.179C195.415 244.616 193.969 263.037 190.789 282.255C187.486 302.226 183.084 318.385 179.015 325.481C178.681 326.064 178.069 326.392 177.442 326.392L177.444 326.394Z" fill="#231F20"/>
<path d="M183.829 349.209C182.75 349.209 181.625 349.109 180.461 348.912C172.009 347.476 163.569 341.061 161.604 338.168C160.454 336.478 159.747 334.434 159.61 332.413C159.456 330.14 160.054 328.05 161.295 326.529C163.667 323.623 167.354 322.162 171.411 322.515C176.431 322.955 181.121 326.041 183.65 330.568C184.138 331.441 183.827 332.545 182.953 333.033C182.079 333.521 180.975 333.209 180.488 332.336C178.535 328.841 174.935 326.462 171.093 326.124C168.209 325.871 165.727 326.828 164.1 328.82C162.901 330.289 162.76 333.423 164.598 336.13C166.028 338.232 173.569 344.064 181.067 345.338C184.736 345.963 187.811 345.379 190.204 343.607C196.211 339.162 203.337 320.361 208.799 294.543C213.968 270.112 216.433 244.836 214.933 231.647C214.819 230.653 215.535 229.754 216.529 229.642C217.523 229.528 218.421 230.244 218.534 231.238C220.098 244.987 217.668 270.13 212.343 295.294C209.722 307.676 206.643 318.802 203.435 327.467C199.762 337.389 196.035 343.8 192.36 346.521C189.944 348.31 187.085 349.209 183.829 349.209Z" fill="#231F20"/>
<path d="M266.033 315.853C260.708 315.853 255.658 313.674 251.98 309.658C246.759 303.959 242.167 292.194 239.044 276.533C236.099 261.759 234.856 245.384 235.632 231.607C235.688 230.609 236.545 229.841 237.544 229.899C238.542 229.955 239.307 230.81 239.251 231.811C237.622 260.692 244.962 296.629 254.653 307.209C258.417 311.321 263.973 313.056 269.509 311.85C273.649 310.949 277.691 308.45 281.201 304.619C285.33 300.114 288.7 293.89 291.215 286.123C291.524 285.171 292.545 284.65 293.498 284.957C294.45 285.266 294.971 286.287 294.664 287.24C291.987 295.504 288.358 302.177 283.873 307.068C279.856 311.451 275.156 314.33 270.281 315.39C268.862 315.7 267.438 315.851 266.035 315.851L266.033 315.853Z" fill="#231F20"/>
<path d="M298.321 307.568C298.221 307.568 298.12 307.566 298.018 307.562C295.43 307.444 293.343 306.437 291.815 304.57C290.462 302.915 289.616 300.639 289.302 297.804C289.074 295.737 289.143 293.344 289.495 291.063C289.649 290.073 290.575 289.396 291.562 289.55C292.55 289.704 293.229 290.629 293.075 291.617C292.523 295.183 292.639 299.856 294.619 302.274C295.478 303.324 296.644 303.87 298.182 303.941C298.224 303.941 298.265 303.943 298.307 303.943C300.867 303.943 302.61 300.3 303.395 296.849C304.339 292.69 304.223 287.761 303.086 283.662C302.2 280.472 300.309 276.315 296.329 274.63C289.093 271.567 278.9 278.019 270.36 291.067C269.813 291.903 268.69 292.14 267.852 291.59C267.013 291.042 266.779 289.919 267.329 289.081C277.022 274.269 288.676 267.453 297.742 271.291C301.946 273.072 305.001 277.013 306.578 282.691C307.888 287.41 308.016 292.862 306.931 297.65C305.516 303.887 302.309 307.564 298.319 307.564L298.321 307.568Z" fill="#231F20"/>
<path d="M272.183 298.472C271.6 298.472 271.027 298.192 270.679 297.671C265.733 290.311 262.866 277.089 261.332 267.293C259.556 255.947 258.63 242.976 258.917 233.446C258.946 232.446 259.782 231.655 260.782 231.69C261.782 231.721 262.569 232.556 262.538 233.556C262.256 242.881 263.167 255.592 264.912 266.733C267.001 280.069 270.116 290.338 273.688 295.649C274.246 296.479 274.026 297.606 273.194 298.165C272.882 298.372 272.532 298.474 272.185 298.474L272.183 298.472Z" fill="#231F20"/>
<path d="M228.585 259.971C281.769 259.971 324.884 216.852 324.884 163.661C324.884 110.471 281.769 67.3511 228.585 67.3511C175.4 67.3511 132.285 110.471 132.285 163.661C132.285 216.852 175.4 259.971 228.585 259.971Z" fill="#50DB8A"/>
<path d="M228.578 261.059C215.432 261.059 202.678 258.483 190.669 253.405C179.073 248.498 168.658 241.475 159.714 232.533C150.77 223.59 143.748 213.171 138.845 201.574C133.767 189.566 131.191 176.811 131.191 163.661C131.191 150.512 133.767 137.758 138.845 125.748C143.75 114.149 150.773 103.735 159.714 94.7897C168.658 85.8448 179.073 78.8217 190.669 73.9176C202.676 68.8391 215.43 66.2636 228.578 66.2636C241.726 66.2636 254.478 68.8391 266.487 73.9176C278.083 78.8238 288.498 85.8469 297.442 94.7897C306.386 103.735 313.408 114.151 318.312 125.748C323.39 137.756 325.965 150.512 325.965 163.661C325.965 176.811 323.39 189.564 318.312 201.574C313.406 213.173 306.384 223.588 297.442 232.533C288.498 241.477 278.083 248.501 266.487 253.405C254.48 258.483 241.726 261.059 228.578 261.059ZM228.578 68.4407C215.725 68.4407 203.255 70.9581 191.518 75.9224C180.182 80.7186 169.999 87.5839 161.254 96.3296C152.509 105.075 145.645 115.259 140.849 126.597C135.885 138.335 133.368 150.806 133.368 163.661C133.368 176.516 135.885 188.987 140.849 200.725C145.645 212.063 152.509 222.247 161.254 230.993C169.999 239.738 180.182 246.604 191.518 251.4C203.255 256.364 215.725 258.882 228.578 258.882C241.432 258.882 253.901 256.364 265.638 251.4C276.975 246.604 287.158 239.738 295.902 230.993C304.647 222.247 311.512 212.063 316.307 200.725C321.271 188.987 323.788 176.516 323.788 163.661C323.788 150.806 321.271 138.335 316.307 126.597C311.512 115.259 304.647 105.075 295.902 96.3296C287.158 87.5839 276.975 80.7186 265.638 75.9224C253.901 70.9581 241.432 68.4407 228.578 68.4407Z" fill="#50DB8A"/>
<path d="M149.734 237.119C149.431 237.119 149.132 237.119 148.84 237.115C142.409 237.044 134.779 236.231 127.358 234.822C119.427 233.315 111.989 231.202 105.849 228.71C98.7644 225.833 93.6159 222.567 90.5468 218.997C84.0391 211.428 80.0361 203.39 78.6479 195.103C77.3675 187.464 78.3241 179.839 81.4929 172.44C85.6224 162.792 93.5516 153.888 103.817 147.365C114.025 140.882 126.19 136.972 138.074 136.36C139.076 136.308 139.925 137.076 139.977 138.076C140.029 139.076 139.261 139.927 138.261 139.979C126.991 140.56 115.449 144.271 105.76 150.424C96.104 156.559 88.6688 164.884 84.8235 173.866C81.9349 180.615 81.0592 187.559 82.2213 194.503C83.4975 202.128 87.2245 209.575 93.2922 216.633C98.4593 222.641 111.446 228.11 128.032 231.262C142.957 234.097 157.203 234.251 162.675 231.638C164.719 230.661 164.561 229.799 164.495 229.432C164.119 227.382 159.222 226.657 156.591 226.269C156.012 226.184 155.466 226.103 154.993 226.018C154.1 225.858 153.465 225.061 153.503 224.156C153.542 223.252 154.244 222.513 155.146 222.43C155.98 222.353 156.921 222.421 157.917 222.492C160.747 222.697 163.955 222.93 166.084 220.126C166.887 219.068 166.993 217.673 166.342 216.733C164.781 214.481 158.772 214.902 156.752 215.442C155.833 215.687 154.883 215.182 154.571 214.282C154.262 213.383 154.698 212.397 155.574 212.024C156.236 211.741 157.066 211.449 157.948 211.138C159.245 210.679 160.716 210.16 161.901 209.587C163.391 208.865 163.679 208.417 163.715 208.348C164.069 206.877 162.745 204.972 160.753 204.09C158.78 203.216 156.24 203.075 153.202 203.674C151.612 203.988 147.319 205.125 143.532 206.13C140.712 206.877 138.049 207.582 136.821 207.865C132.513 208.848 126.26 208.446 120.892 206.844C115.992 205.38 109.659 202.305 107.31 195.962C105.77 191.805 105.405 187.81 106.22 184.091C106.928 180.868 108.528 177.836 110.975 175.08C114.212 171.433 118.854 168.3 124.772 165.766C127.057 164.788 129.076 164.105 130.369 163.703C132.944 162.904 133.148 162.951 133.55 163.049L133.127 164.811L133.509 166.581C133.343 166.619 116.837 170.609 111.236 180.941C109.018 185.031 108.841 189.664 110.707 194.705C112.633 199.906 118.563 202.367 121.927 203.371C127.401 205.007 132.946 205.032 136.013 204.332C137.182 204.067 139.815 203.367 142.602 202.628C146.63 201.56 150.795 200.456 152.5 200.119C156.281 199.374 159.552 199.596 162.218 200.777C165.881 202.398 168.031 206.045 167.22 209.257C166.95 210.328 166.167 211.191 165.105 211.92C166.798 212.397 168.33 213.244 169.317 214.67C170.876 216.917 170.735 219.991 168.967 222.318C167.942 223.667 166.775 224.565 165.557 225.159C166.823 226.008 167.761 227.166 168.056 228.778C168.326 230.256 168.191 233.016 164.233 234.907C160.457 236.71 154.428 237.121 149.728 237.121L149.734 237.119Z" fill="#231F20"/>
<path d="M214.499 175.811C212.571 175.811 210.633 175.377 208.884 174.534C206.304 173.293 204.374 171.263 203.445 168.816C201.587 163.925 202.679 155.042 205.985 148.158C208.591 142.727 212.245 139.12 216.553 137.729C221.621 136.09 227.151 138.161 230.638 143.003C232.829 146.045 233.96 149.92 233.819 153.911C233.661 158.404 231.916 163.034 228.772 167.301C225.381 171.903 221.075 174.86 216.645 175.628C215.937 175.75 215.219 175.811 214.499 175.811ZM220.031 140.803C219.237 140.803 218.444 140.925 217.668 141.175C213.449 142.538 210.764 146.577 209.251 149.725C206.086 156.319 205.53 164.099 206.831 167.528C207.769 169.999 210.745 172.195 214.414 172.195C214.939 172.195 215.476 172.15 216.024 172.056C219.529 171.448 223.02 168.995 225.852 165.149C231.918 156.918 230.781 149.405 227.693 145.12C225.701 142.353 222.862 140.803 220.027 140.803H220.031Z" fill="#231F20"/>
<path d="M205.145 168.171C206.768 172.446 211.873 174.617 216.343 173.841C220.813 173.065 224.6 169.917 227.32 166.224C238.624 150.885 227.293 136.161 217.117 139.45C206.471 142.891 202.553 161.343 205.145 168.169V168.171Z" fill="white"/>
<path d="M214.499 175.811C212.571 175.811 210.633 175.377 208.884 174.534C206.304 173.293 204.374 171.263 203.445 168.816C201.587 163.925 202.679 155.042 205.985 148.158C208.591 142.727 212.245 139.12 216.553 137.729C221.621 136.09 227.151 138.161 230.638 143.003C232.829 146.045 233.96 149.92 233.819 153.911C233.661 158.404 231.916 163.034 228.772 167.301C225.381 171.903 221.075 174.86 216.645 175.628C215.937 175.75 215.219 175.811 214.499 175.811ZM220.031 140.803C219.237 140.803 218.444 140.925 217.668 141.175C213.449 142.538 210.764 146.577 209.251 149.725C206.086 156.319 205.53 164.099 206.831 167.528C207.769 169.999 210.745 172.195 214.414 172.195C214.939 172.195 215.476 172.15 216.024 172.056C219.529 171.448 223.02 168.995 225.852 165.149C231.918 156.918 230.781 149.405 227.693 145.12C225.701 142.353 222.862 140.803 220.027 140.803H220.031Z" fill="#231F20"/>
<path d="M228.847 157.025C231.513 153.59 231.181 148.823 228.106 146.378C225.031 143.933 220.374 144.734 217.707 148.169C217.048 149.02 216.57 149.952 216.274 150.911C216.112 152.436 216.068 153.893 216.143 155.213C216.504 156.616 217.276 157.884 218.448 158.816C221.524 161.26 226.18 160.459 228.847 157.025Z" fill="#231F20"/>
<path d="M222.552 162.043C220.626 162.043 218.796 161.416 217.308 160.233C215.864 159.086 214.849 157.504 214.376 155.663C214.347 155.549 214.328 155.433 214.322 155.315C214.241 153.887 214.287 152.341 214.461 150.718C214.473 150.601 214.496 150.487 214.532 150.375C214.903 149.178 215.484 148.061 216.264 147.057C217.922 144.921 220.34 143.52 222.901 143.213C225.212 142.937 227.458 143.555 229.222 144.958C233.067 148.015 233.534 153.926 230.265 158.135C228.607 160.271 226.19 161.671 223.629 161.979C223.268 162.022 222.909 162.043 222.552 162.043ZM217.929 154.922C218.219 155.923 218.781 156.776 219.562 157.396C220.562 158.191 221.853 158.54 223.197 158.38C224.801 158.187 226.335 157.288 227.402 155.912C229.458 153.264 229.263 149.622 226.964 147.796C225.964 147.001 224.671 146.65 223.328 146.812C221.724 147.005 220.19 147.903 219.124 149.279C218.649 149.892 218.285 150.566 218.043 151.286C217.914 152.575 217.875 153.797 217.929 154.924V154.922Z" fill="#231F20"/>
<path d="M242.024 173.418C240.097 173.418 238.158 172.984 236.409 172.141C233.83 170.9 231.898 168.87 230.97 166.423C229.113 161.532 230.204 152.649 233.51 145.765C236.119 140.334 239.771 136.727 244.079 135.336C249.146 133.699 254.677 135.768 258.163 140.61C260.354 143.652 261.485 147.527 261.344 151.518C261.186 156.011 259.441 160.641 256.297 164.908C252.907 169.51 248.601 172.467 244.17 173.235C243.463 173.357 242.745 173.418 242.024 173.418ZM234.359 165.135C235.432 167.959 239.163 170.423 243.552 169.663C247.057 169.055 250.547 166.602 253.38 162.756C259.445 154.525 258.308 147.012 255.222 142.727C252.672 139.186 248.735 137.638 245.193 138.784C240.974 140.147 238.289 144.186 236.776 147.334C233.612 153.928 233.058 161.708 234.359 165.137V165.135Z" fill="#231F20"/>
<path d="M232.657 165.778C234.28 170.054 239.385 172.224 243.855 171.448C248.324 170.672 252.112 167.524 254.832 163.832C266.135 148.492 254.805 133.768 244.629 137.057C233.983 140.498 230.065 158.95 232.657 165.776V165.778Z" fill="white"/>
<path d="M242.024 173.418C240.097 173.418 238.158 172.984 236.409 172.141C233.83 170.9 231.898 168.87 230.97 166.423C229.113 161.532 230.204 152.649 233.51 145.765C236.119 140.334 239.771 136.727 244.079 135.336C249.146 133.699 254.677 135.768 258.163 140.61C260.354 143.652 261.485 147.527 261.344 151.518C261.186 156.011 259.441 160.641 256.297 164.908C252.907 169.51 248.601 172.467 244.17 173.235C243.463 173.357 242.745 173.418 242.024 173.418ZM234.359 165.135C235.432 167.959 239.163 170.423 243.552 169.663C247.057 169.055 250.547 166.602 253.38 162.756C259.445 154.525 258.308 147.012 255.222 142.727C252.672 139.186 248.735 137.638 245.193 138.784C240.974 140.147 238.289 144.186 236.776 147.334C233.612 153.928 233.058 161.708 234.359 165.137V165.135Z" fill="#231F20"/>
<path d="M244.378 156.811C247.454 159.256 252.11 158.455 254.777 155.02C257.443 151.585 257.111 146.818 254.036 144.373C250.961 141.928 246.304 142.729 243.638 146.164C240.971 149.599 241.303 154.366 244.378 156.811Z" fill="#231F20"/>
<path d="M248.487 160.038C246.561 160.038 244.731 159.411 243.243 158.228C239.398 155.171 238.931 149.261 242.199 145.052C243.857 142.916 246.275 141.515 248.836 141.208C251.147 140.93 253.393 141.551 255.156 142.954C259.002 146.011 259.471 151.921 256.202 156.13C254.544 158.266 252.127 159.667 249.566 159.974C249.205 160.017 248.846 160.038 248.489 160.038H248.487ZM245.499 155.391C246.499 156.186 247.79 156.535 249.134 156.375C250.738 156.182 252.272 155.283 253.339 153.907C255.395 151.259 255.2 147.617 252.901 145.791C251.901 144.996 250.608 144.645 249.265 144.807C247.661 145 246.127 145.898 245.061 147.274C243.004 149.923 243.199 153.565 245.499 155.391Z" fill="#231F20"/>
<path d="M226.332 218.351C225.556 218.351 224.782 218.333 224.01 218.293C216.261 217.905 209.185 215.593 203.547 211.607C197.375 207.242 193.119 200.943 191.241 193.395C191.001 192.424 191.59 191.44 192.561 191.199C193.532 190.957 194.516 191.55 194.757 192.519C196.446 199.31 200.108 204.735 205.639 208.647C210.715 212.237 217.129 214.321 224.191 214.674C232.798 215.106 241.647 212.922 249.101 208.531C257.233 203.739 263.15 196.685 266.212 188.132C266.549 187.19 267.586 186.7 268.528 187.036C269.47 187.374 269.96 188.41 269.624 189.352C266.273 198.712 259.811 206.424 250.939 211.652C243.552 216.004 234.896 218.349 226.332 218.349V218.351Z" fill="#231F20"/>
<path d="M360.568 222.185C359.356 222.185 358.238 221.774 357.327 220.975C353.66 217.766 355.577 213.314 357.266 209.388C358.572 206.358 359.918 203.222 358.92 200.783C354.23 189.335 345.905 179.99 334.174 173.006C324.535 167.268 316.021 167.359 311.804 167.924C310.81 168.057 309.901 167.359 309.768 166.369C309.635 165.377 310.333 164.466 311.325 164.333C316.008 163.707 325.446 163.595 336.029 169.893C348.451 177.288 357.281 187.219 362.276 199.409C363.853 203.257 362.122 207.275 360.597 210.82C358.287 216.189 358.574 217.247 359.715 218.248C359.956 218.459 360.329 218.677 361.087 218.492C362.766 218.082 364.922 215.969 365.702 213.968C366.065 213.036 367.117 212.576 368.049 212.939C368.981 213.302 369.441 214.354 369.078 215.286C368.036 217.957 365.183 221.222 361.948 222.012C361.481 222.126 361.018 222.182 360.57 222.182L360.568 222.185Z" fill="#231F20"/>
<path d="M70.0521 105.202C57.9332 105.202 45.501 101.86 34.4384 95.4516C27.1774 91.2448 20.4913 85.7617 14.5667 79.1599C8.91401 72.859 4.07683 65.6844 0.187998 57.8312C-0.158553 57.1297 -0.0174423 56.285 0.540774 55.7351C1.09899 55.1851 1.94565 55.0564 2.64083 55.4155C3.09529 55.65 3.55182 55.8866 4.01043 56.1232C12.2778 60.4005 20.8275 64.8232 27.9182 61.4341C30.6118 60.1473 32.7388 57.8727 34.9924 55.4632C37.4681 52.8171 40.0268 50.0797 43.5213 48.5377C50.2178 45.5802 58.3566 47.6266 67.7155 54.6185C68.3982 55.1291 69.083 55.65 69.772 56.173C75.4372 60.4794 81.2953 64.9311 87.942 64.9726C87.9731 64.9726 88.0043 64.9726 88.0354 64.9726C95.1905 64.9726 101.424 59.8381 106.062 55.3594C106.832 54.6164 107.614 53.8402 108.374 53.091C113.062 48.4526 117.909 43.6564 124.286 41.307C128.935 39.5928 134.508 39.8231 138.831 41.9047C142.17 43.5132 144.492 46.0513 145.548 49.2433C145.864 50.1938 145.347 51.219 144.397 51.5324C143.446 51.8458 142.421 51.3311 142.108 50.3806C141.172 47.5539 138.953 45.9849 137.258 45.1693C133.79 43.4986 129.3 43.3201 125.54 44.7065C119.901 46.786 115.336 51.3 110.922 55.6666C110.157 56.4241 109.366 57.2065 108.581 57.964C103.454 62.918 96.4896 68.5941 88.0396 68.5962C88.0001 68.5962 87.9607 68.5962 87.9213 68.5962C80.0668 68.5464 73.7189 63.7232 67.5806 59.0578C66.9 58.541 66.2214 58.0242 65.547 57.522C57.3148 51.3705 50.3963 49.4633 44.9864 51.852C42.1683 53.0952 39.9687 55.4487 37.6403 57.9391C35.256 60.4877 32.7907 63.1234 29.4829 64.7049C27.1961 65.7986 24.8346 66.2552 22.4398 66.2552C17.0196 66.2552 11.427 63.9079 6.12916 61.2743C9.33527 66.8778 13.0685 72.0621 17.2686 76.7421C22.94 83.0616 29.3294 88.3019 36.2604 92.3178C50.996 100.858 68.2675 103.666 83.6465 100.024C88.9547 98.766 94.1924 96.7218 99.2599 94.7439C104.888 92.5482 110.706 90.2777 116.778 88.9972C128.557 86.5171 143.351 88.8851 149.846 99.7684C150.358 100.628 150.078 101.74 149.219 102.253C148.36 102.765 147.248 102.485 146.735 101.626C144.22 97.4129 139.912 94.3724 134.278 92.8366C129.184 91.4461 123.234 91.3424 117.525 92.5461C111.746 93.7643 106.068 95.9788 100.578 98.1226C95.3939 100.146 90.0358 102.236 84.4827 103.552C79.8012 104.66 74.9536 105.206 70.0584 105.206L70.0521 105.202Z" fill="#231F20"/>
<path d="M149.09 200.732L139.314 33.2197L146.179 32.8129L155.88 199.082C153.61 199.597 151.373 200.273 149.088 200.732H149.09Z" fill="#231F20"/>
<path d="M149.083 202.545C148.686 202.545 148.296 202.415 147.977 202.168C147.562 201.848 147.304 201.362 147.275 200.839L137.497 33.3253C137.439 32.327 138.201 31.4699 139.199 31.4118L146.063 31.0029C146.541 30.9759 147.016 31.1378 147.375 31.4574C147.734 31.777 147.952 32.2253 147.981 32.7068L157.682 198.976C157.734 199.86 157.139 200.653 156.275 200.848C155.337 201.061 154.374 201.311 153.443 201.551C152.144 201.887 150.801 202.234 149.44 202.508C149.321 202.533 149.201 202.543 149.083 202.543V202.545ZM141.22 34.9212L150.766 198.492C151.347 198.349 151.932 198.197 152.534 198.042C153.007 197.919 153.488 197.795 153.974 197.672L144.468 34.7282L141.22 34.9212Z" fill="#231F20"/>
<path d="M156.691 237.269C157.226 237.354 157.766 237.437 158.308 237.509L161.184 285.986L154.319 286.393L151.35 236.345C153.132 236.681 154.917 236.986 156.691 237.269Z" fill="#231F20"/>
<path d="M154.329 288.205C153.377 288.205 152.58 287.462 152.522 286.501L149.552 236.453C149.519 235.897 149.745 235.355 150.162 234.986C150.581 234.616 151.146 234.461 151.694 234.564C153.385 234.882 155.165 235.189 156.985 235.48C157.45 235.554 158 235.639 158.56 235.714C159.419 235.83 160.075 236.538 160.127 237.404L163.003 285.88C163.032 286.36 162.868 286.831 162.549 287.19C162.229 287.549 161.781 287.767 161.302 287.796L154.437 288.203C154.4 288.205 154.364 288.207 154.329 288.207V288.205ZM153.306 238.539L156.031 284.475L159.278 284.282L156.597 239.085C156.537 239.074 156.477 239.066 156.419 239.056C155.365 238.887 154.325 238.715 153.306 238.537V238.539Z" fill="#231F20"/>
<path d="M380 344.249C380 357.504 311.5 368.249 227 368.249C142.5 368.249 74 357.504 74 344.249C74 330.994 142.5 320.249 227 320.249C311.5 320.249 380 330.994 380 344.249Z" fill="#0B9444" fill-opacity="0.2"/>
</svg>
