<svg width="400" height="400" viewBox="0 0 400 400" fill="none" xmlns="http://www.w3.org/2000/svg">
<path d="M89.806 357.963C86.1228 356.618 83.3329 354.933 81.5928 352.501C79.4841 349.554 79.6498 347.029 80.1596 345.432C82.0504 339.5 91.4811 336.238 100.602 333.084C103.451 332.099 106.142 331.168 108.231 330.26C110.738 329.171 111.394 328.527 111.538 328.351C111.877 327.124 113.922 320.626 117.971 307.768C127.461 277.633 145.123 221.541 146.094 215.522C146.307 214.209 147.507 213.291 148.827 213.434C159.818 214.621 175.222 216.651 185.49 218.792C186.812 219.066 187.675 220.345 187.437 221.676C184.892 235.929 164.786 298.695 152.774 336.197C148.641 349.102 145.654 358.428 145.169 360.228C143.992 364.6 139.834 366.723 132.814 366.536C127.399 366.391 120.836 364.987 115.043 363.747C112.021 363.099 109.186 362.537 106.445 361.995C99.8141 360.68 94.18 359.563 89.8054 357.965L89.806 357.963ZM85.6538 349.59C88.3086 353.302 96.742 354.975 107.419 357.09C110.179 357.637 113.032 358.202 116.091 358.858C121.672 360.052 127.996 361.407 132.95 361.54C139.598 361.717 140.162 359.619 140.348 358.93C140.865 357.015 143.711 348.128 148.02 334.673C158.661 301.448 178.025 241.002 182.03 223.195C172.756 221.411 160.268 219.741 150.5 218.645C147.669 229.87 134.797 270.947 122.73 309.266C119.275 320.234 116.548 328.899 116.346 329.683C115.509 333.067 110.928 334.796 102.226 337.806C95.7819 340.034 86.0434 343.403 84.9131 346.947C84.8163 347.252 84.5582 348.062 85.6513 349.591L85.6538 349.59Z" fill="#231F20"/>
<path d="M221.16 381.394C218.322 380.358 216.559 378.506 215.899 375.853C214.94 372.003 210.7 337.123 206.212 300.198C202.373 268.616 198.402 235.957 196.964 226.905C196.752 225.569 197.64 224.307 198.967 224.056C204.974 222.915 212.627 225.891 220.027 228.77C226.384 231.243 232.959 233.8 237.61 233.38C238.933 233.262 240.118 234.199 240.303 235.516C240.948 240.072 243.423 268.668 245.818 296.324C247.76 318.751 249.767 341.924 250.152 344.597C250.323 344.8 251.006 345.451 253.403 346.544C255.475 347.487 258.149 348.466 260.979 349.501C270.037 352.816 279.403 356.244 281.179 362.208C281.657 363.815 281.774 366.342 279.609 369.252C275.702 374.501 266.842 376.097 254.579 378.302C251.827 378.797 248.983 379.308 245.95 379.902C240.136 381.039 233.545 382.329 228.128 382.378C225.346 382.403 223.021 382.074 221.158 381.393L221.16 381.394ZM202.298 228.808C203.995 240.582 207.636 270.542 211.169 299.592C215.243 333.105 219.859 371.09 220.745 374.642C220.917 375.334 221.441 377.441 228.091 377.381C233.047 377.336 239.397 376.096 244.999 374.999C248.07 374.398 250.934 373.883 253.704 373.386C264.421 371.458 272.884 369.936 275.611 366.271C276.734 364.762 276.491 363.948 276.399 363.641C275.339 360.08 265.665 356.539 259.266 354.198C250.622 351.035 246.077 349.226 245.303 345.822C245 344.484 243.713 329.846 240.848 296.76C238.808 273.196 236.523 246.815 235.62 238.398C230.31 238.133 224.176 235.748 218.218 233.429C212.564 231.23 206.746 228.969 202.302 228.81L202.298 228.808Z" fill="#231F20"/>
<path d="M193.202 267.121C266.46 267.121 325.847 207.66 325.847 134.311C325.847 60.9625 266.46 1.50165 193.202 1.50165C119.944 1.50165 60.5566 60.9625 60.5566 134.311C60.5566 207.66 119.944 267.121 193.202 267.121Z" fill="#50DB8A"/>
<path d="M193.202 268.622C175.092 268.622 157.525 265.072 140.986 258.067C125.011 251.302 110.667 241.619 98.3468 229.284C86.027 216.948 76.3554 202.586 69.5985 186.592C62.6028 170.032 59.0566 152.443 59.0566 134.311C59.0566 116.179 62.6028 98.5901 69.5985 82.0306C76.3554 66.0363 86.027 51.674 98.3468 39.3388C110.667 27.0037 125.011 17.3201 140.986 10.5549C157.525 3.55057 175.092 0 193.202 0C211.312 0 228.879 3.55057 245.418 10.5549C261.392 17.3201 275.737 27.0037 288.057 39.3388C300.377 51.674 310.048 66.0363 316.805 82.0306C323.801 98.5901 327.347 116.179 327.347 134.311C327.347 152.443 323.801 170.032 316.805 186.592C310.048 202.586 300.377 216.948 288.057 229.284C275.737 241.619 261.392 251.302 245.418 258.067C228.879 265.072 211.312 268.622 193.202 268.622ZM193.202 3.00327C175.497 3.00327 158.322 6.4748 142.154 13.3211C126.537 19.9342 112.512 29.4024 100.468 41.4628C88.4227 53.5233 78.9681 67.5656 72.3612 83.2003C65.5234 99.3883 62.0562 116.584 62.0562 134.311C62.0562 152.038 65.5234 169.234 72.3612 185.422C78.9662 201.059 88.4227 215.101 100.468 227.159C112.514 239.22 126.539 248.688 142.154 255.301C158.322 262.148 175.497 265.619 193.202 265.619C210.907 265.619 228.081 262.148 244.249 255.301C259.867 248.688 273.892 239.22 285.935 227.159C297.979 215.099 307.437 201.057 314.042 185.422C320.88 169.234 324.347 152.038 324.347 134.311C324.347 116.584 320.88 99.3883 314.042 83.2003C307.437 67.5636 297.981 53.5214 285.935 41.4628C273.89 29.4024 259.865 19.9362 244.249 13.3211C228.081 6.4748 210.907 3.00327 193.202 3.00327Z" fill="#50DB8A"/>
<path d="M193.215 153.417C183.833 153.417 174.817 150.78 167.756 145.957C159.713 140.464 154.582 132.507 152.916 122.946C152.68 121.587 153.589 120.293 154.947 120.056C156.305 119.818 157.597 120.727 157.834 122.089C159.263 130.288 163.665 137.115 170.57 141.829C176.96 146.194 185.215 148.535 193.821 148.417C203.24 148.29 212.27 145.255 219.254 139.871C227.084 133.835 232.037 125.084 233.581 114.565C233.782 113.199 235.049 112.255 236.412 112.455C237.776 112.654 238.719 113.925 238.52 115.29C234.711 141.26 213.361 153.151 193.89 153.412C193.665 153.416 193.44 153.416 193.217 153.416L193.215 153.417Z" fill="#231F20"/>
<path d="M321.317 166.31C320.285 166.31 319.32 165.664 318.96 164.632C318.507 163.328 319.193 161.904 320.496 161.451C339.49 154.822 352.889 149.124 360.982 141.221C369.217 133.177 371.676 122.843 368.954 107.713C364.998 85.7037 338.268 66.0007 318.749 51.6127C315.896 49.5084 313.2 47.5227 310.747 45.6536C303.29 39.9731 296.474 35.6322 291.037 33.0991C285.456 30.4989 281.188 29.7343 279.019 30.9455C278.109 31.4533 277.659 31.9492 277.677 32.4194C277.699 32.9924 278.35 36.1755 288.991 42.6918C294.974 46.357 301.026 49.1528 301.085 49.1804C302.167 49.6783 302.747 50.8737 302.469 52.0335C302.191 53.1934 301.135 53.9936 299.943 53.9481C299.915 53.9481 296.049 53.8572 293.93 56.0879C292.789 57.2873 292.326 58.9924 292.509 61.2982C292.744 64.2402 293.514 66.2319 294.731 67.0558C295.749 67.7454 296.993 67.4885 297.289 67.4134C297.36 67.3917 297.415 67.3759 297.454 67.364C298.755 66.9945 300.111 67.7276 300.517 69.0178C300.922 70.308 300.229 71.6871 298.952 72.1297C298.903 72.1475 298.802 72.1791 298.658 72.2206C297.123 72.7007 293.389 74.317 292.195 76.8342C291.655 77.9762 291.694 79.2427 292.318 80.7088C292.953 82.2045 293.898 83.1766 295.205 83.6765C298.137 84.8007 302.348 83.3762 303.724 82.734C304.855 82.2045 306.206 82.5918 306.881 83.6429C307.558 84.694 307.357 86.0811 306.408 86.8932C304.357 88.6595 301.488 92.2101 301.849 94.2176C302.045 95.3043 303.473 96.0452 304.636 96.4759C309.206 98.1673 311.383 95.6362 315.144 90.6334C315.862 89.6791 316.604 88.6912 317.395 87.7329C318.274 86.6679 319.846 86.5177 320.908 87.397C321.97 88.2762 322.122 89.851 321.244 90.914C320.523 91.7873 319.815 92.7298 319.13 93.6386C317.291 96.0828 315.389 98.6118 312.949 100.232C309.968 102.212 306.587 102.526 302.903 101.163C300.515 100.279 297.541 98.5091 296.931 95.0929C296.56 93.0163 297.214 90.9239 298.22 89.0784C296.653 89.1278 295.005 88.946 293.442 88.3513C290.865 87.3713 288.888 85.4054 287.722 82.6649C286.536 79.877 286.526 77.1128 287.694 74.6667C288.501 72.9734 289.768 71.6239 291.126 70.5668C289.064 68.7432 287.856 65.7636 287.53 61.6934C287.228 57.9235 288.176 54.8649 290.342 52.6065C291.124 51.7925 292.002 51.1582 292.902 50.6663C290.942 49.625 288.689 48.3664 286.417 46.9754C282.697 44.6992 279.7 42.5337 277.509 40.5421C274.358 37.6752 272.779 35.0829 272.682 32.6131C272.615 30.8921 273.237 28.446 276.58 26.5789C283.226 22.8643 295.736 27.9422 313.762 41.6742C316.184 43.5197 318.866 45.4955 321.701 47.5859C341.895 62.4719 369.55 82.8565 373.86 106.823C375.399 115.387 375.382 122.581 373.803 128.816C372.254 134.941 369.197 140.168 364.459 144.795C355.705 153.346 341.773 159.313 322.132 166.168C321.859 166.262 321.583 166.308 321.311 166.308L321.317 166.31Z" fill="#231F20"/>
<path d="M321.316 131.349C320.261 131.349 319.28 130.672 318.94 129.611C318.52 128.297 319.244 126.89 320.557 126.469C329.533 123.592 332.182 119.026 332.823 115.703C334.147 108.831 328.551 99.8072 317.066 90.2955C316.004 89.4163 315.854 87.8416 316.732 86.7766C317.61 85.7136 319.183 85.5634 320.247 86.4427C329.413 94.0338 339.886 105.434 337.725 116.649C336.458 123.225 330.901 128.401 322.08 131.229C321.827 131.31 321.571 131.347 321.318 131.347L321.316 131.349Z" fill="#231F20"/>
<path d="M200.413 68.7926C205.012 46.9796 200.678 27.5926 190.732 25.4904C180.786 23.3882 168.994 39.3669 164.396 61.1799C159.797 82.9928 164.131 102.38 174.077 104.482C184.023 106.584 195.814 90.6055 200.413 68.7926Z" fill="white"/>
<path d="M175.872 107.163C175.095 107.163 174.321 107.082 173.556 106.922C167.732 105.691 163.395 99.9534 161.34 90.7638C159.434 82.2441 159.651 71.5508 161.946 60.6581C164.241 49.7653 168.36 39.898 173.542 32.8759C179.131 25.3006 185.416 21.8093 191.237 23.0382C197.061 24.2692 201.398 30.007 203.453 39.1966C205.359 47.7164 205.144 58.4096 202.847 69.3023C200.552 80.1951 196.433 90.0624 191.251 97.0845C186.397 103.664 181.017 107.163 175.872 107.163ZM188.956 27.798C185.463 27.798 181.386 30.6551 177.556 35.8436C172.79 42.3026 168.979 51.4823 166.828 61.6895C164.677 71.8966 164.456 81.8331 166.211 89.6712C167.791 96.7348 170.844 101.24 174.586 102.032C174.992 102.119 175.411 102.16 175.837 102.16C179.33 102.16 183.407 99.3034 187.237 94.1148C192.003 87.6558 195.814 78.4761 197.965 68.269C200.116 58.0618 200.337 48.1234 198.582 40.2872C197.002 33.2236 193.949 28.7188 190.207 27.9264C189.801 27.8395 189.382 27.798 188.956 27.798Z" fill="#231F20"/>
<path d="M198.381 61.0791C201.079 50.7648 198.901 41.2584 193.516 39.8458C188.131 38.4333 181.577 45.6495 178.879 55.9638C176.18 66.2781 178.358 75.7845 183.743 77.1971C189.129 78.6096 195.682 71.3934 198.381 61.0791Z" fill="#231F20"/>
<path d="M185.138 79.8725C184.453 79.8725 183.772 79.7856 183.104 79.6097C179.555 78.6791 176.976 75.4348 175.839 70.4735C174.833 66.0772 175.052 60.699 176.457 55.3267C177.862 49.9545 180.305 45.1591 183.334 41.8219C186.754 38.056 190.593 36.4931 194.139 37.4237C197.687 38.3543 200.266 41.5987 201.403 46.56C202.409 50.9562 202.19 56.3344 200.785 61.7067C199.38 67.079 196.937 71.8743 193.908 75.2115C191.133 78.2681 188.084 79.8725 185.138 79.8725ZM181.286 56.5933C180.08 61.1989 179.875 65.7315 180.706 69.3571C181.397 72.3723 182.733 74.3481 184.368 74.7768C186.004 75.2076 188.138 74.1406 190.216 71.8506C192.714 69.0983 194.754 65.0478 195.958 60.4422C197.164 55.8365 197.369 51.304 196.538 47.6783C195.848 44.6632 194.512 42.6873 192.876 42.2586C191.24 41.8279 189.107 42.8948 187.029 45.1848C184.53 47.9371 182.49 51.9896 181.286 56.5933Z" fill="#231F20"/>
<path d="M240.607 68.7909C245.206 46.978 240.871 27.5909 230.925 25.4887C220.979 23.3866 209.188 39.3653 204.589 61.1782C199.99 82.9912 204.325 102.378 214.271 104.48C224.217 106.583 236.008 90.6039 240.607 68.7909Z" fill="white"/>
<path d="M216.065 107.163C215.287 107.163 214.513 107.082 213.748 106.922C207.924 105.691 203.587 99.9534 201.532 90.7638C199.626 82.244 199.841 71.5508 202.138 60.6581C204.433 49.7653 208.552 39.898 213.734 32.8759C219.323 25.3005 225.608 21.8092 231.429 23.0382C237.253 24.2691 241.59 30.007 243.645 39.1966C245.551 47.7163 245.336 58.4096 243.039 69.3023C240.744 80.1951 236.625 90.0624 231.443 97.0845C226.589 103.664 221.209 107.163 216.065 107.163ZM229.146 27.798C225.653 27.798 221.576 30.655 217.746 35.8436C212.98 42.3026 209.17 51.4823 207.019 61.6894C204.868 71.8966 204.647 81.835 206.401 89.6712C207.982 96.7348 211.034 101.24 214.776 102.032C215.182 102.119 215.601 102.16 216.027 102.16C219.52 102.16 223.597 99.3034 227.427 94.1148C232.193 87.6558 236.004 78.4761 238.155 68.269C240.306 58.0618 240.527 48.1234 238.772 40.2872C237.192 33.2236 234.139 28.7187 230.397 27.9264C229.991 27.8395 229.572 27.798 229.146 27.798Z" fill="#231F20"/>
<path d="M238.574 61.0787C241.273 50.7644 239.095 41.2579 233.709 39.8454C228.324 38.4328 221.771 45.6491 219.072 55.9634C216.373 66.2776 218.551 75.7841 223.937 77.1967C229.322 78.6092 235.875 71.3929 238.574 61.0787Z" fill="#231F20"/>
<path d="M225.333 79.8725C224.649 79.8725 223.968 79.7856 223.299 79.6097C219.751 78.6791 217.171 75.4348 216.035 70.4735C215.028 66.0772 215.247 60.6971 216.652 55.3267C218.057 49.9545 220.501 45.1591 223.53 41.8219C226.95 38.056 230.788 36.4931 234.334 37.4237C237.882 38.3543 240.461 41.5987 241.598 46.56C242.604 50.9562 242.385 56.3344 240.98 61.7067C239.575 67.079 237.132 71.8743 234.101 75.2115C231.327 78.2681 228.278 79.8725 225.331 79.8725H225.333ZM232.325 42.1657C230.813 42.1657 228.998 43.2287 227.222 45.1848C224.724 47.9371 222.683 51.9876 221.479 56.5933C220.274 61.1989 220.068 65.7315 220.899 69.3571C221.59 72.3723 222.926 74.3481 224.562 74.7768C226.198 75.2076 228.331 74.1406 230.409 71.8506C232.907 69.0983 234.948 65.0478 236.152 60.4422C237.355 55.8365 237.562 51.304 236.732 47.6783C236.041 44.6632 234.705 42.6873 233.069 42.2586C232.83 42.1954 232.582 42.1657 232.325 42.1657Z" fill="#231F20"/>
<path d="M61.1478 280.701C60.6189 280.701 60.0723 280.643 59.5079 280.519C57.1043 279.987 55.3046 278.594 54.3041 276.488C53.3647 274.51 53.2523 272.054 53.5621 269.575C49.2522 273.155 43.6853 275.739 37.9802 272.817C35.7503 271.675 34.3235 269.826 33.8519 267.472C32.3777 260.087 40.7311 248.985 49.1003 239.099C49.5206 238.603 49.8896 238.167 50.1955 237.799C51.0776 236.738 52.6524 236.596 53.7101 237.479C54.7678 238.362 54.9119 239.939 54.0298 240.998C53.716 241.376 53.3371 241.822 52.9069 242.33C50.5349 245.132 46.5644 249.822 43.3932 254.653C38.7163 261.776 38.4735 265.127 38.7459 266.492C38.9176 267.354 39.3695 267.915 40.2535 268.369C43.3676 269.964 47.1052 268.788 51.3657 264.87C54.9573 261.567 57.4635 257.566 57.4891 257.524C58.1936 256.39 59.6658 256.011 60.8301 256.665C61.9944 257.319 62.4384 258.773 61.8385 259.966C59.8829 263.87 57.3293 271.228 58.8113 274.344C59.0481 274.844 59.4448 275.388 60.5814 275.639C62.9515 276.162 65.9333 273.046 68.7611 267.093C71.295 261.758 72.7888 256.064 72.8046 256.007C73.144 254.701 74.4563 253.9 75.7706 254.199C77.0849 254.497 77.9256 255.785 77.669 257.109C76.783 261.729 76.337 270.104 78.9103 272.906C79.3661 273.402 80.0943 273.949 81.6947 273.777C85.8211 273.339 87.9622 266.777 88.87 262.904C90.2218 257.147 90.35 251.389 90.352 251.332C90.3717 250.379 90.9282 249.522 91.7886 249.117C92.649 248.714 93.6653 248.834 94.4073 249.429C96.5563 251.146 103.586 255.756 107.558 254.452C108.081 254.28 109.675 253.756 110.565 250.435C112.178 244.43 99.4513 234.832 88.2247 226.363C74.1919 215.779 59.6796 204.833 59.8118 193.586C59.9519 181.51 74.4899 167.517 82.1585 161.807C83.2636 160.983 84.8285 161.212 85.6514 162.321C86.4743 163.427 86.2454 164.994 85.1383 165.818C77.3335 171.631 64.9111 184.325 64.8025 193.645C64.7019 202.363 78.7938 212.993 91.2282 222.372C97.8963 227.402 104.195 232.152 108.766 236.782C112.355 240.415 116.945 245.918 115.384 251.733C114.658 254.44 112.979 257.935 109.105 259.204C105.883 260.259 101.851 259.545 97.1207 257.08C96.3807 256.694 95.6821 256.295 95.0447 255.91C94.8197 258.168 94.429 261.045 93.7462 263.973C92.8602 267.779 91.6564 270.897 90.1704 273.244C88.0727 276.557 85.3968 278.409 82.2216 278.746C79.4036 279.047 76.9843 278.195 75.2319 276.285C73.8821 274.815 73.0552 272.815 72.5737 270.644C71.1272 273.453 69.6077 275.692 68.0448 277.31C66.4779 278.934 64.096 280.699 61.1458 280.699L61.1478 280.701Z" fill="#231F20"/>
<path d="M60.6236 246.416C60.2862 246.416 59.9448 246.347 59.6172 246.203C42.725 238.73 34.2986 225.982 30.2038 216.605C25.3532 205.496 23.8002 192.928 25.9393 182.122C27.7647 172.903 32.3785 163.091 39.2814 153.747C45.6042 145.19 53.5076 137.548 61.5314 132.229C62.6819 131.466 64.229 131.782 64.9908 132.934C65.7525 134.084 65.4367 135.635 64.2863 136.398C56.7341 141.402 49.2786 148.62 43.2933 156.721C36.8246 165.474 32.5167 174.594 30.8334 183.094C28.9172 192.78 30.3893 204.56 34.7762 214.605C38.5158 223.17 46.21 234.812 61.634 241.634C62.895 242.192 63.4653 243.668 62.9088 244.93C62.4964 245.865 61.5827 246.42 60.6236 246.42V246.416Z" fill="#231F20"/>
<path d="M355 375.542C355 388.797 286.5 399.542 202 399.542C117.5 399.542 49 388.797 49 375.542C49 362.287 117.5 351.542 202 351.542C286.5 351.542 355 362.287 355 375.542Z" fill="#0B9444" fill-opacity="0.2"/>
</svg>
