<svg width="32" height="32" viewBox="0 0 32 32" fill="none" xmlns="http://www.w3.org/2000/svg">
<path d="M20.7893 13.6139C21.1284 13.178 21.0498 12.5497 20.6139 12.2106C20.1779 11.8716 19.5497 11.9501 19.2106 12.386L15.2359 17.4964L12.7035 14.9893C12.311 14.6008 11.6779 14.604 11.2893 14.9964C10.9007 15.3889 10.9039 16.0221 11.2964 16.4106L14.6297 19.7106C14.833 19.9118 15.1126 20.0164 15.3979 19.9979C15.6833 19.9794 15.9471 19.8396 16.1226 19.6139L20.7893 13.6139Z" fill="#888888"/>
<path fill-rule="evenodd" clip-rule="evenodd" d="M17.4855 2.51717C16.5318 2.13571 15.468 2.13571 14.5143 2.51718L6.78572 5.60863C5.72622 6.03244 4.98504 7.02752 4.92694 8.19213C4.86703 9.39302 4.80062 11.3155 4.8529 13.3062C4.90459 15.2743 5.07354 17.3974 5.51728 18.9569C6.21927 21.4239 7.95172 23.6306 9.70252 25.3626C11.4685 27.1096 13.3426 28.4604 14.4573 29.204C15.3948 29.8294 16.605 29.8294 17.5425 29.204C18.6572 28.4604 20.5312 27.1096 22.2972 25.3626C24.0481 23.6306 25.7805 21.4239 26.4825 18.9569C26.9262 17.3974 27.0952 15.2743 27.1469 13.3063C27.1992 11.3155 27.1328 9.39305 27.0729 8.19215C27.0148 7.02753 26.2736 6.03243 25.2141 5.60863L17.4855 2.51717ZM15.2571 4.37413C15.7339 4.1834 16.2658 4.1834 16.7427 4.37413L24.4713 7.46558C24.8284 7.60843 25.0574 7.93255 25.0754 8.29179C25.1339 9.4661 25.198 11.3332 25.1476 13.2537C25.0965 15.197 24.9295 17.1068 24.5589 18.4095C23.9958 20.3884 22.5473 22.3019 20.8907 23.9407C19.2493 25.5645 17.4893 26.8353 16.4326 27.5402C16.1671 27.7173 15.8326 27.7173 15.5672 27.5402C14.5105 26.8353 12.7505 25.5645 11.1091 23.9407C9.45243 22.3019 8.00402 20.3884 7.44091 18.4095C7.07024 17.1068 6.90325 15.197 6.85221 13.2537C6.80177 11.3332 6.86587 9.46609 6.92446 8.29179C6.94238 7.93255 7.17139 7.60843 7.52851 7.46558L15.2571 4.37413Z" fill="currentColor"/>
</svg>
