<svg width="32" height="32" viewBox="0 0 32 32" fill="none" xmlns="http://www.w3.org/2000/svg">
<path d="M28.4504 20.1081C27.3739 21.4153 25.6743 22.4837 23.2666 22.4837C20.7514 22.4837 18.8219 20.9867 17.3973 19.3466C16.8112 18.6719 16.282 17.9383 15.8104 17.2246C15.7466 17.1639 15.6899 17.0937 15.6424 17.0145C15.5412 16.8459 15.4396 16.6747 15.3371 16.502C15.2587 16.3699 15.1794 16.2363 15.0996 16.1027C14.9806 15.9082 14.8665 15.7189 14.7574 15.5367C14.2035 14.6353 13.5986 13.7361 12.8697 12.9626C11.7676 11.7928 10.4612 11 8.73325 11C6.98856 11 5.83346 11.7483 5.09328 12.6471C4.31776 13.5888 4.02373 14.6659 4.02373 15.1905V15.2404L4.01877 15.29C3.94864 15.9913 4.05728 17.1336 4.61661 18.1657C5.15036 19.1506 6.11159 20.0748 7.86345 20.4329C8.37214 20.502 9.25814 20.524 10.1943 20.3459C11.1516 20.1637 12.0603 19.7921 12.6976 19.1548C13.0881 18.7643 13.7213 18.7643 14.1118 19.1548C14.5023 19.5454 14.5023 20.1785 14.1118 20.569C13.0881 21.5927 11.7476 22.0862 10.5682 22.3106C9.38428 22.5359 8.26089 22.51 7.55373 22.409L7.52626 22.4051L7.49904 22.3997C5.11618 21.9231 3.66253 20.6027 2.85824 19.1187C2.08871 17.6988 1.9306 16.1677 2.02413 15.1388C2.03993 14.1078 2.52551 12.619 3.54942 11.3756C4.62592 10.0685 6.32558 9.00004 8.73325 9.00004C11.1784 9.00004 12.9768 10.1597 14.3254 11.5911C14.8106 12.1061 15.2478 12.6679 15.6439 13.2347C15.7236 13.3017 15.7941 13.3825 15.8516 13.476C16.007 13.7286 16.1677 13.997 16.3349 14.2762L16.4785 14.516C16.5952 14.7059 16.7075 14.8925 16.816 15.0742C17.4145 16.054 18.0967 17.102 18.9072 18.0351C20.1834 19.5042 21.6087 20.4837 23.2666 20.4837C25.0113 20.4837 26.1664 19.7354 26.9066 18.8367C27.6821 17.895 27.9761 16.8178 27.9761 16.2932V16.2433L27.9811 16.1937C28.0512 15.4924 27.9426 14.3501 27.3832 13.318C26.8495 12.3332 25.8883 11.4089 24.1364 11.0509C23.6277 10.9818 22.7417 10.9597 21.8055 11.1379C20.8483 11.32 19.9395 11.6916 19.3023 12.3289C18.9117 12.7194 18.2786 12.7194 17.8881 12.3289C17.4975 11.9384 17.4975 11.3052 17.8881 10.9147C18.9117 9.89102 20.2522 9.39754 21.4317 9.17311C22.6156 8.94784 23.739 8.97368 24.4461 9.0747L24.4736 9.07863L24.5008 9.08407C26.8837 9.56064 28.3373 10.881 29.1416 12.3651C29.9111 13.785 30.0692 15.316 29.9757 16.3449C29.9599 17.3759 29.4743 18.8648 28.4504 20.1081Z" fill="currentColor"/>
<path d="M7.49992 13.5C6.94764 13.5 6.49992 13.9477 6.49992 14.5C6.49992 15.0523 6.94764 15.5 7.49992 15.5H9.49992C10.0522 15.5 10.4999 15.0523 10.4999 14.5C10.4999 13.9477 10.0522 13.5 9.49992 13.5H7.49992Z" fill="#888888"/>
</svg>
