<svg width="24" height="24" viewBox="0 0 24 24" fill="none" xmlns="http://www.w3.org/2000/svg">
<g clip-path="url(#clip0_238_2024)">
<rect width="24" height="24" rx="12" fill="white"/>
<path d="M3 13.2121C3 10.5509 4.7903 8.48975 7.31112 8.48975C8.47622 8.48975 9.51867 8.94793 10.1612 9.96971V5.84608C10.1612 5.30005 10.4745 5 11.013 5H12.0208C12.5594 5 12.8553 5.30005 12.8553 5.84608V16.8951C12.8553 17.4412 12.5594 17.7412 12.0208 17.7412H11.013C10.4745 17.7412 10.1612 17.4412 10.1612 16.8951V16.4721C9.51867 17.4763 8.47488 17.9345 7.31112 17.9345C4.7903 17.9345 3 15.8909 3 13.2121ZM10.2132 13.2121C10.1959 11.7673 9.29205 10.6739 7.919 10.6739C6.54594 10.6739 5.69412 11.82 5.69412 13.2121C5.69412 14.6042 6.52861 15.749 7.919 15.749C9.30938 15.749 10.1959 14.6569 10.2132 13.2121Z" fill="#007430"/>
<path d="M14.3435 16.1673C14.2662 16.0808 14.1956 15.9889 14.1289 15.8916C14.1942 15.9889 14.2662 16.0808 14.3435 16.1673Z" fill="#007430"/>
<path d="M18.2545 7.08055V7.25626C18.2545 7.336 18.1851 7.39547 18.1078 7.38331C17.8812 7.35222 17.6453 7.336 17.4 7.336C17.1547 7.336 16.9041 7.35492 16.6695 7.39006C16.5908 7.40223 16.5215 7.34276 16.5215 7.26166V7.0792C16.5215 6.59399 16.9094 6.20068 17.388 6.20068C17.8665 6.20068 18.2545 6.59399 18.2545 7.0792V7.08055Z" fill="#007430"/>
<path d="M18.2486 17.9484V18.0876C18.2486 18.5363 17.93 18.9391 17.4901 18.9931C16.9635 19.058 16.5156 18.6431 16.5156 18.1214V17.9538C16.5156 17.8754 16.5823 17.8172 16.6596 17.8254C16.8876 17.8524 17.1235 17.8646 17.3661 17.8646C17.6087 17.8646 17.8674 17.8497 18.1046 17.8213C18.1806 17.8118 18.2486 17.8713 18.2486 17.9497V17.9484Z" fill="#007430"/>
<path d="M14.3435 16.1673C14.2662 16.0808 14.1956 15.9889 14.1289 15.8916C14.1942 15.9889 14.2662 16.0808 14.3435 16.1673Z" fill="#007430"/>
<path d="M20.9631 14.4871C20.9631 14.5574 20.9604 14.6277 20.9551 14.6952C20.9538 14.7317 20.9511 14.7682 20.9471 14.8034C20.9444 14.8331 20.9404 14.8615 20.9364 14.8899C20.9338 14.9088 20.9311 14.9264 20.9284 14.9439C20.9231 14.9777 20.9178 15.0102 20.9111 15.0412C20.9044 15.0845 20.8951 15.125 20.8844 15.1656C20.8764 15.2034 20.8658 15.2399 20.8551 15.2764C20.8338 15.3494 20.8098 15.421 20.7831 15.4886C20.7698 15.5251 20.7551 15.5602 20.7391 15.594C20.7378 15.5981 20.7365 15.6008 20.7351 15.6035C20.7205 15.6373 20.7045 15.6711 20.6858 15.7035C20.6752 15.7278 20.6632 15.7508 20.6498 15.7738C20.6325 15.8076 20.6125 15.84 20.5912 15.8725C20.5685 15.9116 20.5432 15.9508 20.5165 15.9887C20.4899 16.0279 20.4619 16.0657 20.4325 16.1036C20.4312 16.1049 20.4299 16.1063 20.4285 16.1076C20.3979 16.1468 20.3659 16.1833 20.3326 16.2212C20.3006 16.2576 20.2659 16.2941 20.2312 16.3293C20.1966 16.3631 20.1593 16.3982 20.1233 16.4306C20.0859 16.4644 20.0473 16.4969 20.0073 16.528C19.902 16.6131 19.7887 16.6902 19.6687 16.7618C19.6474 16.7753 19.6247 16.7875 19.6034 16.7996C19.5674 16.8199 19.5301 16.8402 19.4927 16.8591C19.4461 16.8821 19.3994 16.905 19.3514 16.928C19.3034 16.9497 19.2541 16.9713 19.2048 16.9915C19.1595 17.0091 19.1128 17.028 19.0662 17.0456C19.0622 17.047 19.0582 17.0483 19.0542 17.0497C19.0035 17.0672 18.9515 17.0848 18.8995 17.101C18.8475 17.1172 18.7942 17.1335 18.7409 17.1483C18.6876 17.1632 18.6342 17.1767 18.5796 17.1889C18.5396 17.1983 18.4996 17.2078 18.4596 17.2159C18.3903 17.2308 18.3196 17.2429 18.2477 17.2551C18.237 17.2551 18.225 17.2592 18.2143 17.2592C18.1543 17.27 18.0944 17.2781 18.033 17.2848C17.9624 17.2943 17.8904 17.3011 17.8184 17.3065H17.8064C17.7504 17.3119 17.6944 17.3146 17.6371 17.3173C17.5478 17.3213 17.4571 17.324 17.3652 17.324C17.2918 17.324 17.2185 17.324 17.1465 17.32C17.0986 17.3186 17.0506 17.3159 17.0026 17.3132C16.9453 17.3092 16.8893 17.3051 16.8333 17.2997C16.8093 17.2997 16.7866 17.2957 16.7626 17.2929C16.7306 17.2902 16.6986 17.2862 16.6666 17.2821C16.616 17.2767 16.5653 17.27 16.5147 17.2619C16.5053 17.2605 16.496 17.2592 16.4867 17.2565C16.428 17.2483 16.372 17.2375 16.3147 17.2267C16.3054 17.2254 16.2961 17.2227 16.2867 17.2213C16.2267 17.2092 16.1681 17.1956 16.1094 17.1808C16.0961 17.1781 16.0841 17.1754 16.0708 17.1713C16.0134 17.1578 15.9575 17.1416 15.9015 17.124C15.8388 17.1064 15.7762 17.0862 15.7162 17.0645C15.6935 17.0578 15.6708 17.0497 15.6482 17.0402C15.6082 17.0253 15.5682 17.0105 15.5295 16.9929C15.5162 16.9888 15.5042 16.9848 15.4922 16.978C15.4749 16.9713 15.4576 16.9632 15.4402 16.9564C15.4002 16.9388 15.3616 16.9213 15.3242 16.9023C15.3056 16.8929 15.2883 16.8848 15.2696 16.8753C15.2683 16.8753 15.2656 16.874 15.2643 16.8726C15.2149 16.8483 15.1669 16.8226 15.119 16.7942C15.1163 16.7929 15.1136 16.7915 15.111 16.7902C15.055 16.7577 14.999 16.7239 14.9457 16.6888C14.9443 16.6888 14.9443 16.6874 14.943 16.6874C14.9003 16.6591 14.8577 16.6293 14.8164 16.5982C14.7964 16.5834 14.775 16.5685 14.755 16.5523C14.7017 16.5117 14.6511 16.4698 14.6004 16.4239C14.5604 16.3901 14.5231 16.355 14.4858 16.3185C14.4404 16.2739 14.3978 16.2293 14.3564 16.182C14.3511 16.1766 14.3471 16.1725 14.3431 16.1671C14.2658 16.0806 14.1951 15.9887 14.1285 15.8914C14.1178 15.8765 14.1072 15.8616 14.0965 15.8454C14.0952 15.8427 14.0925 15.8387 14.0898 15.8346C14.0618 15.7914 14.0338 15.7454 14.0072 15.6995C14.0032 15.6927 13.9992 15.6846 13.9952 15.6778C13.9632 15.6238 13.9339 15.567 13.9059 15.5089C13.6446 14.9804 13.9232 14.5925 14.4618 14.452L15.0003 14.329C15.0883 14.306 15.1656 14.2952 15.2376 14.2952C15.2656 14.2952 15.2936 14.2965 15.3202 14.3006C15.3362 14.3019 15.3522 14.3046 15.3669 14.3087C15.3776 14.31 15.3882 14.3127 15.3976 14.3154C15.4016 14.3154 15.4056 14.3154 15.4082 14.3181C15.4242 14.3222 15.4389 14.3276 15.4549 14.333C15.4722 14.3384 15.4882 14.3452 15.5042 14.3533C15.5282 14.3641 15.5522 14.3763 15.5762 14.3911C15.6002 14.4046 15.6242 14.4209 15.6468 14.4371C15.7722 14.5263 15.8961 14.6533 16.0441 14.8047C16.0641 14.8277 16.0854 14.8507 16.1081 14.8723C16.1268 14.8912 16.1481 14.9101 16.1681 14.9277C16.1921 14.9493 16.2161 14.9683 16.2401 14.9872C16.2574 15.0007 16.2747 15.0142 16.2934 15.0264C16.3027 15.0331 16.312 15.0385 16.3214 15.0453C16.3414 15.0588 16.3627 15.0723 16.384 15.0845C16.4267 15.1102 16.4707 15.1331 16.516 15.1548C16.548 15.171 16.5787 15.1845 16.612 15.1967C16.648 15.2115 16.6853 15.2237 16.7226 15.2359C16.752 15.2453 16.7826 15.2548 16.8146 15.2629C16.8479 15.2724 16.8813 15.2805 16.9159 15.2872C16.9572 15.2953 16.9999 15.3034 17.0439 15.3088C17.0666 15.3129 17.0892 15.3156 17.1132 15.3183C17.1305 15.321 17.1479 15.3224 17.1665 15.3237C17.1799 15.3251 17.1932 15.3264 17.2079 15.3264C17.2305 15.3291 17.2545 15.3305 17.2785 15.3305C17.3132 15.3318 17.3478 15.3332 17.3825 15.3332C17.4678 15.3332 17.5491 15.3278 17.6264 15.3183C17.6544 15.3156 17.6811 15.3116 17.7078 15.3061C17.7358 15.3021 17.7638 15.2953 17.7904 15.2886C17.8197 15.2832 17.8464 15.2764 17.8731 15.2683C17.8744 15.2683 17.8757 15.2683 17.8771 15.2669C17.9117 15.2575 17.9464 15.2467 17.9784 15.2332C17.981 15.2332 17.9824 15.2318 17.9837 15.2318C18.0117 15.221 18.0384 15.2102 18.0637 15.198C18.077 15.1913 18.0904 15.1859 18.1023 15.1777C18.1183 15.171 18.1343 15.1629 18.1503 15.1521C18.161 15.1467 18.1717 15.1399 18.1823 15.1331C18.2037 15.1196 18.2263 15.1034 18.2477 15.0885C18.2477 15.0872 18.249 15.0872 18.249 15.0872C18.2703 15.071 18.2916 15.0521 18.3116 15.0331C18.3303 15.0169 18.3476 14.9993 18.3623 14.9804C18.3996 14.9385 18.4316 14.8926 18.4569 14.8426C18.4663 14.825 18.4743 14.8074 18.4809 14.7898C18.4863 14.779 18.4889 14.7696 18.4929 14.7588C18.5009 14.7371 18.5063 14.7155 18.5116 14.6925C18.5169 14.6696 18.5209 14.6466 18.5236 14.6223C18.5276 14.5952 18.5289 14.5682 18.5289 14.5398C18.5289 14.5114 18.5276 14.4857 18.5249 14.4614C18.5249 14.456 18.5249 14.452 18.5249 14.4465C18.5223 14.4249 18.5183 14.4046 18.5129 14.3844C18.5129 14.3817 18.5129 14.379 18.5116 14.3763C18.5076 14.356 18.5023 14.3371 18.4943 14.3181C18.4929 14.3141 18.4916 14.31 18.4889 14.3046C18.4836 14.2884 18.4769 14.2749 18.4689 14.26C18.4649 14.2506 18.4596 14.2411 18.4543 14.2316C18.4516 14.2249 18.4476 14.2195 18.4436 14.2141C18.4356 14.2006 18.4263 14.187 18.417 14.1749C18.405 14.1573 18.3903 14.1411 18.3756 14.1249C18.3663 14.1141 18.3556 14.1033 18.3436 14.0938C18.3343 14.083 18.3236 14.0735 18.313 14.0654C18.2943 14.0492 18.2743 14.033 18.2517 14.0167C18.2183 13.9924 18.1823 13.9694 18.1423 13.9465C18.1183 13.933 18.093 13.9194 18.0677 13.9059C18.037 13.8897 18.0064 13.8748 17.973 13.86C17.9477 13.8478 17.9224 13.837 17.8957 13.8262C17.8797 13.8194 17.8637 13.8127 17.8464 13.8059C17.7984 13.7856 17.7491 13.7667 17.6958 13.7464L16.6013 13.3585C16.5747 13.3504 16.5467 13.341 16.5187 13.3315C16.3734 13.2828 16.2134 13.2247 16.0481 13.1544C15.9814 13.1274 15.9148 13.0977 15.8468 13.0652C15.8135 13.0504 15.7788 13.0342 15.7455 13.0166C15.7108 13.0004 15.6775 12.9828 15.6428 12.9652C15.5402 12.9125 15.4389 12.8544 15.3389 12.7909C15.3056 12.7706 15.2723 12.749 15.2389 12.726C15.2096 12.7071 15.1816 12.6868 15.1523 12.6665C15.1163 12.6409 15.0803 12.6138 15.0443 12.5868C15.0136 12.5625 14.9817 12.5368 14.951 12.5111C14.9203 12.4854 14.8897 12.4597 14.8603 12.4327C14.8297 12.4057 14.8004 12.3773 14.7724 12.3489C14.743 12.3205 14.715 12.2921 14.687 12.2624C14.6604 12.2327 14.6337 12.2029 14.6071 12.1719C14.5804 12.1408 14.5551 12.1097 14.5311 12.0773C14.5057 12.0448 14.4818 12.011 14.4591 11.9772C14.4324 11.9394 14.4071 11.9002 14.3844 11.861C14.3658 11.8299 14.3484 11.7988 14.3311 11.7664C14.3111 11.7299 14.2938 11.6934 14.2765 11.6569C14.2738 11.6515 14.2725 11.6475 14.2698 11.642C14.2551 11.6083 14.2405 11.5745 14.2271 11.5393C14.2271 11.5366 14.2245 11.5326 14.2231 11.5285C14.2085 11.492 14.1951 11.4542 14.1831 11.415C14.1658 11.3623 14.1512 11.3069 14.1392 11.2514C14.1312 11.2204 14.1245 11.1893 14.1192 11.1582C14.0938 11.0244 14.0805 10.8825 14.0805 10.7338C14.0805 10.6838 14.0818 10.6351 14.0845 10.5865C14.0845 10.5446 14.0885 10.504 14.0938 10.4635C14.0952 10.4364 14.0978 10.4094 14.1018 10.3837C14.1045 10.3554 14.1085 10.3283 14.1125 10.3013C14.1152 10.2837 14.1178 10.2661 14.1205 10.2499C14.1272 10.208 14.1352 10.1661 14.1445 10.1256C14.1552 10.0769 14.1658 10.0296 14.1791 9.98232C14.1938 9.92826 14.2098 9.87555 14.2285 9.82284C14.2418 9.78499 14.2551 9.74715 14.2698 9.7093C14.2711 9.7066 14.2711 9.70525 14.2725 9.7039C14.2898 9.6593 14.3085 9.61605 14.3285 9.57415C14.3484 9.5309 14.3698 9.48765 14.3924 9.44575C14.4058 9.41872 14.4218 9.39169 14.4378 9.36465C14.4471 9.34708 14.4578 9.32951 14.4684 9.31194C14.4738 9.30248 14.4791 9.29302 14.4858 9.28491C14.5031 9.25653 14.5204 9.2295 14.5391 9.20247C14.5657 9.16327 14.5937 9.12408 14.6231 9.08623C14.6511 9.04974 14.679 9.0146 14.7097 8.97946C14.7124 8.9754 14.715 8.9727 14.7177 8.97C14.7457 8.93621 14.7764 8.90377 14.8084 8.87133C14.8084 8.87133 14.8084 8.87088 14.8084 8.86998C14.8417 8.83484 14.875 8.80105 14.9097 8.76861C14.943 8.73618 14.9777 8.70509 15.0136 8.674C15.0576 8.63616 15.1043 8.59967 15.151 8.56453C15.1789 8.5429 15.2083 8.52263 15.2376 8.501C15.2469 8.49424 15.2563 8.48749 15.2669 8.48208C15.2936 8.46181 15.3216 8.44424 15.3496 8.42802C15.5322 8.31043 15.7335 8.21042 15.9495 8.12932C15.9788 8.11716 16.0094 8.10634 16.0401 8.09553C16.0561 8.09013 16.0721 8.08472 16.0881 8.07931C16.1254 8.06715 16.1641 8.05498 16.2027 8.04417C16.3067 8.01309 16.4134 7.98741 16.5227 7.96443C16.5533 7.95767 16.584 7.95227 16.616 7.94686L16.64 7.9428C16.6693 7.9374 16.7 7.93199 16.7306 7.92659C16.7879 7.91848 16.8439 7.91172 16.9026 7.90496C16.9493 7.89955 16.9972 7.8955 17.0439 7.89145C17.0492 7.89145 17.0546 7.89009 17.0612 7.89009C17.1146 7.88604 17.1679 7.88334 17.2212 7.88198C17.2812 7.87928 17.3412 7.87793 17.4012 7.87793C17.4825 7.87793 17.5625 7.87928 17.6424 7.88334C17.7038 7.88604 17.7651 7.89009 17.8264 7.8955C17.8677 7.89955 17.9077 7.90361 17.949 7.90902C17.9824 7.91307 18.0144 7.91713 18.0477 7.92118C18.117 7.93064 18.1877 7.9428 18.2556 7.95632C18.3063 7.96578 18.3556 7.97659 18.405 7.98741C18.4543 7.99957 18.5036 8.01173 18.5516 8.02525C18.5996 8.03877 18.6476 8.05363 18.6942 8.0685H18.6956C18.7382 8.08337 18.7809 8.09824 18.8235 8.1131C18.8862 8.13608 18.9475 8.16176 19.0088 8.18879C19.0861 8.22393 19.1621 8.26177 19.2368 8.30367C19.2821 8.328 19.3261 8.35368 19.3701 8.38206C19.4127 8.4091 19.4541 8.43613 19.4941 8.46451C19.5354 8.49289 19.5754 8.52398 19.6154 8.55507C19.6554 8.58615 19.694 8.61859 19.7327 8.65238C19.7687 8.68482 19.806 8.71725 19.8407 8.75239C19.87 8.78078 19.8993 8.81051 19.9273 8.8416C19.9446 8.85917 19.962 8.87809 19.978 8.89701C20.0113 8.9335 20.0446 8.97135 20.0753 9.0119C20.0993 9.04028 20.1233 9.07001 20.1446 9.1011C20.1819 9.14975 20.2166 9.19976 20.2512 9.25247C20.5992 9.76337 20.3379 10.2215 19.7647 10.3635L19.2781 10.4865C19.1728 10.5148 19.0795 10.5284 18.9928 10.5284C18.7089 10.5284 18.5103 10.381 18.269 10.1513C18.2636 10.1459 18.2597 10.1418 18.2543 10.1378C18.213 10.0959 18.1703 10.0594 18.125 10.0296C18.1117 10.0188 18.0983 10.0094 18.085 10.0026C18.0117 9.95394 17.933 9.91609 17.8517 9.88906C17.8184 9.8769 17.7837 9.86609 17.7491 9.85798C17.7464 9.85798 17.7438 9.85798 17.7424 9.85662C17.7051 9.84716 17.6664 9.84041 17.6291 9.835C17.5918 9.82824 17.5545 9.82419 17.5185 9.82148H17.5158C17.4771 9.81878 17.4398 9.81743 17.4012 9.81743C17.3678 9.81743 17.3358 9.81878 17.3052 9.82148C17.2612 9.82419 17.2199 9.82959 17.1799 9.8377C17.1625 9.84041 17.1452 9.84446 17.1292 9.84852C17.1186 9.84987 17.1079 9.85257 17.0986 9.85662C17.0732 9.86338 17.0492 9.87014 17.0252 9.8796C16.9972 9.88906 16.9706 9.89987 16.9439 9.91204C16.9106 9.92691 16.8799 9.94448 16.8506 9.9634C16.8346 9.97286 16.8186 9.98232 16.8053 9.99313C16.7999 9.99719 16.796 9.99989 16.792 10.0026C16.7746 10.0148 16.7586 10.0283 16.744 10.0431C16.7413 10.0445 16.7386 10.0472 16.736 10.0499C16.7213 10.0621 16.708 10.0756 16.6946 10.0904C16.6653 10.1215 16.64 10.154 16.6173 10.1878C16.588 10.231 16.564 10.277 16.5453 10.327C16.5347 10.3526 16.5267 10.3783 16.52 10.4054C16.5093 10.4446 16.5027 10.4838 16.5 10.5243C16.4973 10.5473 16.496 10.5689 16.496 10.5919C16.496 10.6122 16.4973 10.6338 16.5 10.6527C16.5 10.6608 16.5013 10.6703 16.5027 10.6784C16.504 10.6946 16.508 10.7122 16.512 10.7284C16.5147 10.7378 16.5173 10.746 16.52 10.7554C16.52 10.7554 16.5213 10.7622 16.5227 10.7649C16.5267 10.7797 16.532 10.7946 16.5387 10.8081C16.5387 10.8095 16.54 10.8095 16.54 10.8095C16.5453 10.8257 16.5533 10.8419 16.5627 10.8568C16.6027 10.9311 16.6613 10.9946 16.7333 11.0514C16.7506 11.0649 16.768 11.0784 16.7866 11.0906C16.8466 11.1325 16.9133 11.1703 16.9879 11.2041C17.0119 11.2163 17.0372 11.2285 17.0639 11.2379C17.1092 11.2582 17.1572 11.2771 17.2065 11.2947C17.2412 11.3082 17.2772 11.3204 17.3132 11.3325L18.253 11.6893L18.4263 11.7556C20.2686 12.3719 20.9284 13.3761 20.9644 14.4871H20.9631Z" fill="#007430"/>
</g>
<defs>
<clipPath id="clip0_238_2024">
<rect width="24" height="24" fill="white"/>
</clipPath>
</defs>
</svg>
