<svg width="1176" height="1895" viewBox="0 0 1176 1895" fill="none" xmlns="http://www.w3.org/2000/svg">
<path d="M158.67 0H1017.33C1104.9 0 1176 71.0717 1176 158.614V1855.58C1176 1877.33 1158.33 1895 1136.56 1895H39.436C17.6729 1895 0 1877.33 0 1855.58V158.614C0 71.0717 71.0967 0 158.67 0Z" fill="#50DB8A"/>
<path d="M980.592 114H195.408C162.045 114 135 141.066 135 174.453V866.547C135 899.934 162.045 927 195.408 927H980.592C1013.95 927 1041 899.934 1041 866.547V174.453C1041 141.066 1013.95 114 980.592 114Z" fill="#FFE4FD"/>
<path d="M521.276 959H508.724C498.383 959 490 967.216 490 977.35V989.65C490 999.784 498.383 1008 508.724 1008H521.276C531.617 1008 540 999.784 540 989.65V977.35C540 967.216 531.617 959 521.276 959Z" fill="#005423"/>
<path d="M594.276 959H581.724C571.383 959 563 967.216 563 977.35V989.65C563 999.784 571.383 1008 581.724 1008H594.276C604.617 1008 613 999.784 613 989.65V977.35C613 967.216 604.617 959 594.276 959Z" fill="#005423"/>
<path d="M666.65 959H654.35C644.216 959 636 967.216 636 977.35V989.65C636 999.784 644.216 1008 654.35 1008H666.65C676.784 1008 685 999.784 685 989.65V977.35C685 967.216 676.784 959 666.65 959Z" fill="#005423"/>
<path d="M521.276 1032H508.724C498.383 1032 490 1040.22 490 1050.35V1062.65C490 1072.78 498.383 1081 508.724 1081H521.276C531.617 1081 540 1072.78 540 1062.65V1050.35C540 1040.22 531.617 1032 521.276 1032Z" fill="#005423"/>
<path d="M594.276 1032H581.724C571.383 1032 563 1040.22 563 1050.35V1062.65C563 1072.78 571.383 1081 581.724 1081H594.276C604.617 1081 613 1072.78 613 1062.65V1050.35C613 1040.22 604.617 1032 594.276 1032Z" fill="#005423"/>
<path d="M666.65 1032H654.35C644.216 1032 636 1040.22 636 1050.35V1062.65C636 1072.78 644.216 1081 654.35 1081H666.65C676.784 1081 685 1072.78 685 1062.65V1050.35C685 1040.22 676.784 1032 666.65 1032Z" fill="#005423"/>
<path d="M521.276 1105H508.724C498.383 1105 490 1113.38 490 1123.72V1136.28C490 1146.62 498.383 1155 508.724 1155H521.276C531.617 1155 540 1146.62 540 1136.28V1123.72C540 1113.38 531.617 1105 521.276 1105Z" fill="#005423"/>
<path d="M594.276 1105H581.724C571.383 1105 563 1113.38 563 1123.72V1136.28C563 1146.62 571.383 1155 581.724 1155H594.276C604.617 1155 613 1146.62 613 1136.28V1123.72C613 1113.38 604.617 1105 594.276 1105Z" fill="#005423"/>
<path d="M594.276 1178H581.724C571.383 1178 563 1186.38 563 1196.72V1209.28C563 1219.62 571.383 1228 581.724 1228H594.276C604.617 1228 613 1219.62 613 1209.28V1196.72C613 1186.38 604.617 1178 594.276 1178Z" fill="#005423"/>
<path d="M666.65 1105H654.35C644.216 1105 636 1113.38 636 1123.72V1136.28C636 1146.62 644.216 1155 654.35 1155H666.65C676.784 1155 685 1146.62 685 1136.28V1123.72C685 1113.38 676.784 1105 666.65 1105Z" fill="#005423"/>
<path d="M349.761 352.206C374.203 264.531 436.882 200.297 489.76 208.747C542.638 217.197 565.682 295.119 541.239 382.794C516.797 470.469 454.119 534.703 401.24 526.253C348.362 517.803 325.318 439.881 349.761 352.206Z" fill="white"/>
<path d="M403.356 238.849C429.524 212.031 460.872 196.036 491.011 200.852C521.633 205.746 542.358 230.643 552.167 263.81C561.999 297.055 561.473 340.018 548.947 384.95C536.413 429.914 514.022 469.118 487.644 496.151C461.476 522.969 430.128 538.964 399.989 534.148C369.367 529.254 348.642 504.357 338.833 471.19C329.001 437.945 329.527 394.982 342.053 350.05C354.587 305.086 376.978 265.882 403.356 238.849ZM488.473 216.737C465.755 213.106 439.347 224.995 414.866 250.084C390.596 274.958 369.443 311.687 357.545 354.371C345.637 397.087 345.464 436.899 354.256 466.627C363.071 496.433 380.291 514.71 402.527 518.263C425.245 521.894 451.652 510.005 476.133 484.916C500.404 460.042 521.557 423.313 533.455 380.629C545.363 337.913 545.536 298.101 536.744 268.373C527.929 238.567 510.708 220.29 488.473 216.737Z" fill="#231F20"/>
<path d="M391.517 356.907C413.053 299.569 454.907 255.815 484.99 259.182C515.083 262.549 522.009 311.754 500.483 369.093C478.947 426.431 437.093 470.185 407.01 466.818C376.917 463.451 369.991 414.246 391.517 356.907Z" fill="#231F20"/>
<path d="M429.283 279.738C446.604 261.636 466.946 249.116 485.874 251.233C506.339 253.522 517.006 271.454 520.015 292.799C523.062 314.419 519.04 342.449 507.967 371.931L507.966 371.932C496.86 401.489 480.467 427.713 462.717 446.262C445.666 464.081 425.688 476.492 407.013 474.855L406.126 474.766C385.662 472.477 374.994 454.546 371.985 433.2C368.938 411.581 372.96 383.55 384.033 354.068L384.034 354.067C395.14 324.511 411.533 298.286 429.283 279.738ZM484.105 267.221C472.95 265.973 457.324 273.637 440.814 290.89C424.733 307.695 409.432 331.994 399.002 359.75C388.549 387.582 385.272 412.8 387.829 430.943C390.425 449.359 398.267 457.701 407.895 458.778C419.05 460.026 434.676 452.362 451.186 435.109C467.267 418.304 482.567 394.004 492.997 366.248C503.45 338.417 506.729 313.199 504.172 295.057C501.616 276.929 493.977 268.561 484.555 267.277L484.105 267.221Z" fill="#231F20"/>
<path d="M557.761 339.206C582.203 251.531 644.881 187.297 697.76 195.747C750.638 204.197 773.682 282.119 749.239 369.794C724.797 457.469 662.119 521.703 609.24 513.253C556.362 504.803 533.318 426.881 557.761 339.206Z" fill="white"/>
<path d="M611.356 225.849C637.524 199.031 668.872 183.036 699.011 187.852C729.633 192.746 750.358 217.643 760.167 250.81C769.999 284.055 769.473 327.018 756.947 371.95C744.413 416.914 722.022 456.117 695.644 483.151C669.476 509.969 638.128 525.964 607.989 521.148C577.367 516.254 556.642 491.357 546.833 458.19C537.001 424.945 537.527 381.982 550.053 337.05C562.587 292.086 584.978 252.882 611.356 225.849ZM696.473 203.737C673.755 200.106 647.347 211.995 622.866 237.084C598.596 261.958 577.443 298.687 565.545 341.371C553.637 384.087 553.464 423.899 562.256 453.627C571.071 483.433 588.291 501.71 610.527 505.263C633.245 508.894 659.652 497.005 684.133 471.916C708.404 447.042 729.557 410.313 741.455 367.629C753.363 324.913 753.536 285.101 744.744 255.373C735.929 225.567 718.708 207.29 696.473 203.737Z" fill="#231F20"/>
<path d="M599.611 344.907C621.307 287.569 663.473 243.815 693.781 247.182C724.099 250.549 731.077 299.754 709.389 357.093C687.693 414.431 645.527 458.185 615.219 454.818C584.901 451.451 577.923 402.246 599.611 344.907Z" fill="#231F20"/>
<path d="M637.672 267.738C655.109 249.636 675.586 237.116 694.64 239.233C715.241 241.522 725.979 259.454 729.008 280.799C732.076 302.419 728.027 330.449 716.88 359.931L716.879 359.932C705.699 389.489 689.197 415.713 671.329 434.262C654.164 452.081 634.053 464.492 615.254 462.855L614.36 462.766C593.759 460.477 583.021 442.546 579.992 421.2C576.924 399.581 580.973 371.55 592.12 342.068L592.121 342.067C603.301 312.511 619.804 286.286 637.672 267.738ZM692.859 255.221C681.63 253.973 665.899 261.637 649.28 278.89C633.091 295.695 617.688 319.994 607.189 347.75C596.666 375.582 593.367 400.8 595.942 418.943C598.555 437.359 606.449 445.701 616.141 446.778C627.37 448.026 643.101 440.362 659.72 423.109C675.909 406.304 691.311 382.004 701.81 354.248C712.333 326.417 715.634 301.199 713.059 283.057C710.487 264.929 702.797 256.561 693.312 255.277L692.859 255.221Z" fill="#231F20"/>
<path d="M340.906 675.775C353.95 627.502 437.159 639.975 559.107 608.15C681.055 576.325 754.033 516.688 782.511 560.533C808.629 600.741 770.497 734.582 603.366 778.195C446.909 819.021 328.401 722.08 340.906 675.775Z" fill="#231F20"/>
<path d="M752.761 537.001C767.796 537.093 780.409 542.633 789.213 556.185H789.214C797.204 568.483 799.616 586.599 796.972 606.457C794.295 626.566 786.324 649.491 772.21 672.32C744.131 717.736 691.658 762.936 607.387 785.412L605.39 785.939C525.139 806.875 454.367 792.539 405.084 766.754C380.487 753.885 361.002 738.036 348.371 722.019C336.015 706.35 329.067 688.941 333.192 673.672V673.67C337.152 659.018 346.565 649.141 359.633 642.216C372.337 635.485 388.816 631.358 407.754 627.893C446.317 620.838 496.446 616.21 557.086 600.388C617.616 584.594 665.176 562.165 703.111 548.44C721.673 541.724 738.456 536.914 752.761 537.001ZM752.663 553.086C741.469 553.018 727.051 556.883 708.571 563.569C672.423 576.648 622.537 599.934 561.139 615.954C499.851 631.945 447.418 636.99 410.642 643.718C391.909 647.145 377.524 650.936 367.15 656.433C357.141 661.737 351.263 668.396 348.702 677.872C346.576 685.747 349.751 697.808 360.983 712.052C371.941 725.949 389.51 740.455 412.527 752.497C458.47 776.535 525.158 790.247 601.338 770.373L603.246 769.869C683.775 748.392 732.74 705.595 758.547 663.853C771.588 642.76 778.696 621.975 781.045 604.332C783.427 586.437 780.812 572.755 775.745 564.956C770.313 556.594 763.128 553.15 752.663 553.086Z" fill="#231F20"/>
<path d="M509.01 787.328C538.146 789.353 569.927 786.942 603.456 778.214C691.695 755.244 744.04 707.229 770 661.065C720.783 645.028 653.532 644.787 591.891 685.473C547.51 714.76 521.888 751.319 509 787.328H509.01Z" fill="#FF86F7"/>
<path d="M587.472 678.784C651.482 636.542 721.339 636.804 772.447 653.454C774.738 654.2 776.574 655.933 777.45 658.176C778.326 660.418 778.149 662.935 776.968 665.033C749.891 713.176 695.707 762.481 605.499 785.96V785.961C571.153 794.9 538.536 797.387 508.58 795.314C508.553 795.312 508.527 795.311 508.5 795.309L508.501 795.308C506.091 795.144 503.871 793.907 502.469 791.919C500.961 789.782 500.588 787.045 501.47 784.583C514.726 747.553 540.816 710.205 585.337 680.207L587.472 678.784ZM757.722 665.854C711.534 653.481 651.603 655.731 596.345 692.197V692.198C557.677 717.712 533.947 748.77 520.633 779.809C545.851 780.533 572.976 777.81 601.44 770.403C681.998 749.435 731.346 707.301 757.722 665.854Z" fill="#231F20"/>
</svg>
