<svg width="2442" height="1497" viewBox="0 0 2442 1497" fill="none" xmlns="http://www.w3.org/2000/svg">
<path d="M2200.32 0H241.418C108.087 0 0 108.051 0 241.338V1255.66C0 1388.95 108.087 1497 241.418 1497H2200.32C2333.65 1497 2441.73 1388.95 2441.73 1255.66V241.338C2441.73 108.051 2333.65 0 2200.32 0Z" fill="#FF86F7"/>
<path d="M2441.73 859.727H0V1259.08H2441.73V859.727Z" fill="black"/>
<path d="M1029.79 141.15C1075.04 126.53 1121.02 152.359 1143.35 195.37C1166.03 239.058 1165.22 300.829 1119.93 362.262L1119.93 362.261C1098.29 391.615 1067.21 418.04 1029.23 424.631C991.3 431.215 946.312 413.182 931.594 374.424C931.534 374.266 931.477 374.106 931.424 373.946C925.832 358.913 924.081 338.793 925.404 317.348C926.754 295.464 931.36 271.243 939.234 247.878C954.746 201.849 984.145 155.898 1029.79 141.15ZM1123.54 205.655C1104.86 169.669 1068.93 151.962 1036.65 162.389C1001.21 173.842 975.135 211.241 960.386 255.007C953.13 276.539 948.909 298.827 947.682 318.723C946.441 338.838 948.317 355.577 952.46 366.483C952.481 366.539 952.498 366.596 952.519 366.651C962.592 392.907 995.31 407.865 1025.42 402.639C1055.55 397.409 1082.16 375.888 1101.97 349.016C1142.78 293.652 1141.87 240.965 1123.54 205.655Z" fill="#231F20"/>
<path d="M942.023 370.462C954.385 403.015 993.273 419.545 1027.32 413.635C1061.37 407.724 1090.22 383.752 1110.95 355.639C1197.05 238.841 1110.74 126.722 1033.22 151.769C952.125 177.97 922.279 318.471 942.023 370.446V370.462Z" fill="white"/>
<path d="M1029.79 141.15C1075.04 126.53 1121.02 152.359 1143.35 195.37C1166.03 239.058 1165.22 300.829 1119.93 362.262L1119.93 362.261C1098.29 391.615 1067.21 418.04 1029.23 424.631C991.3 431.215 946.312 413.182 931.594 374.424C931.534 374.266 931.477 374.106 931.424 373.946C925.832 358.913 924.081 338.793 925.404 317.348C926.754 295.464 931.36 271.243 939.234 247.878C954.746 201.849 984.145 155.898 1029.79 141.15ZM1123.54 205.655C1104.86 169.669 1068.93 151.962 1036.65 162.389C1001.21 173.842 975.135 211.241 960.386 255.007C953.13 276.539 948.909 298.827 947.682 318.723C946.441 338.838 948.317 355.577 952.46 366.483C952.481 366.539 952.498 366.596 952.519 366.651C962.592 392.907 995.31 407.865 1025.42 402.639C1055.55 397.409 1082.16 375.888 1101.97 349.016C1142.78 293.652 1141.87 240.965 1123.54 205.655Z" fill="#231F20"/>
<path d="M1112.08 324.35C1132.4 298.196 1129.87 261.898 1106.44 243.282C1083.01 224.667 1047.54 230.766 1027.23 256.92C1022.2 263.399 1018.56 270.494 1016.3 277.795C1015.07 289.41 1014.74 300.503 1015.31 310.554C1018.06 321.237 1023.94 330.892 1032.87 337.987C1056.3 356.603 1091.77 350.503 1112.08 324.35Z" fill="#231F20"/>
<path d="M1018.41 250.073C1041.86 219.886 1084.27 211.41 1113.38 234.543C1142.4 257.597 1144.31 301.058 1120.9 331.195C1097.45 361.381 1055.04 369.858 1025.93 346.725L1024.91 345.899C1014.51 337.263 1007.71 325.783 1004.5 313.336C1004.32 312.631 1004.21 311.911 1004.17 311.185C1003.56 300.449 1003.92 288.744 1005.21 276.616L1005.28 276.078C1005.36 275.542 1005.48 275.012 1005.64 274.493C1008.3 265.913 1012.56 257.618 1018.41 250.078L1018.41 250.073ZM1099.5 252.019C1081.76 237.922 1053.22 241.646 1036.04 263.766C1032.07 268.881 1029.17 274.422 1027.29 280.093C1026.25 290.335 1025.96 300.033 1026.39 308.79C1028.61 316.621 1032.91 323.535 1039.17 328.73L1039.81 329.248L1039.81 329.25C1057.56 343.347 1086.09 339.623 1103.27 317.503C1120.49 295.333 1117.34 266.196 1099.5 252.019Z" fill="#231F20"/>
<path d="M1239.5 122.928C1284.75 108.308 1330.73 134.137 1353.06 177.149C1375.74 220.836 1374.93 282.607 1329.64 344.04C1308 373.394 1276.91 399.819 1238.94 406.409C1201.01 412.994 1156.02 394.96 1141.3 356.203C1141.24 356.044 1141.18 355.885 1141.13 355.724C1135.54 340.691 1133.79 320.571 1135.11 299.127C1136.46 277.242 1141.07 253.021 1148.94 229.656C1164.45 183.627 1193.85 137.676 1239.5 122.928ZM1333.25 187.433C1314.57 151.447 1278.63 133.741 1246.36 144.168C1210.91 155.62 1184.84 193.019 1170.09 236.785C1162.84 258.318 1158.62 280.605 1157.39 300.501C1156.15 320.617 1158.02 337.355 1162.17 348.261C1162.19 348.317 1162.21 348.374 1162.23 348.43C1172.3 374.685 1205.02 389.643 1235.12 384.417C1265.25 379.187 1291.87 357.666 1311.67 330.794C1352.49 275.431 1351.58 222.743 1333.25 187.433Z" fill="#231F20"/>
<path d="M1151.73 352.24C1164.09 384.793 1202.98 401.323 1237.03 395.413C1271.08 389.503 1299.93 365.53 1320.65 337.417C1406.76 220.62 1320.45 108.5 1242.93 133.547C1161.83 159.748 1131.99 300.249 1151.73 352.224V352.24Z" fill="white"/>
<path d="M1239.5 122.928C1284.75 108.308 1330.73 134.137 1353.06 177.149C1375.74 220.836 1374.93 282.607 1329.64 344.04C1308 373.394 1276.91 399.819 1238.94 406.409C1201.01 412.994 1156.02 394.96 1141.3 356.203C1141.24 356.044 1141.18 355.885 1141.13 355.724C1135.54 340.691 1133.79 320.571 1135.11 299.127C1136.46 277.242 1141.07 253.021 1148.94 229.656C1164.45 183.627 1193.85 137.676 1239.5 122.928ZM1333.25 187.433C1314.57 151.447 1278.63 133.741 1246.36 144.168C1210.91 155.62 1184.84 193.019 1170.09 236.785C1162.84 258.318 1158.62 280.605 1157.39 300.501C1156.15 320.617 1158.02 337.355 1162.17 348.261C1162.19 348.317 1162.21 348.374 1162.23 348.43C1172.3 374.685 1205.02 389.643 1235.12 384.417C1265.25 379.187 1291.87 357.666 1311.67 330.794C1352.49 275.431 1351.58 222.743 1333.25 187.433Z" fill="#231F20"/>
<path d="M1242.58 319.767C1266.01 338.382 1301.48 332.282 1321.8 306.129C1342.11 279.976 1339.58 243.677 1316.15 225.061C1292.72 206.446 1257.25 212.546 1236.94 238.699C1216.63 264.852 1219.15 301.151 1242.58 319.767Z" fill="#231F20"/>
<path d="M1228.12 231.853C1251.57 201.666 1293.98 193.19 1323.09 216.324C1352.11 239.378 1354.01 282.838 1330.61 312.975C1307.16 343.162 1264.75 351.638 1235.64 328.504C1206.62 305.45 1204.71 261.99 1228.12 231.853ZM1309.21 233.799C1291.46 219.702 1262.93 223.426 1245.75 245.546C1228.53 267.716 1231.68 296.853 1249.52 311.03C1267.26 325.127 1295.8 321.403 1312.98 299.283C1330.2 277.113 1327.05 247.976 1309.21 233.799Z" fill="#231F20"/>
<path d="M868.618 364.988C874.774 365.307 879.505 370.556 879.186 376.712C877.423 410.733 879.101 444.687 885.17 477.971L885.753 481.09C898.273 546.532 928.662 608.99 976.69 653.883C1025.49 699.5 1093.35 725.496 1158.78 717.735L1160.48 717.525C1232.58 708.338 1296.42 659.773 1339.27 598.556C1382.5 536.797 1406.82 463.528 1427.89 389.177C1429.57 383.248 1435.74 379.803 1441.67 381.483C1447.6 383.164 1451.04 389.334 1449.36 395.264C1428.23 469.837 1403.1 546.283 1357.55 611.356C1311.96 676.488 1242.39 730.296 1161.41 739.9C1088.55 748.542 1014.35 719.64 961.448 670.188C908.531 620.725 876.046 552.347 863.211 481.976V481.975C856.792 446.77 855.055 411.066 856.896 375.556C857.215 369.401 862.463 364.669 868.618 364.988Z" fill="#231F20"/>
</svg>
