<svg width="1235" height="1861" viewBox="0 0 1235 1861" fill="none" xmlns="http://www.w3.org/2000/svg">
<path d="M1135.85 0H99.1468C44.3895 0 0 44.3636 0 99.089V1761.91C0 1816.64 44.3895 1861 99.1468 1861H1135.85C1190.61 1861 1235 1816.64 1235 1761.91V99.089C1235 44.3636 1190.61 0 1135.85 0Z" fill="#F2D359"/>
<path d="M1235 927.173L1235 934L0 933.827V927L1235 927.173Z" fill="black"/>
<path d="M1093 1266V1274H125V1266H1093Z" fill="black"/>
<path d="M1093 1421V1428H125V1421H1093Z" fill="black"/>
<path d="M1093 1575V1583H125V1575H1093Z" fill="black"/>
<path d="M247 1144V1705H239V1144H247Z" fill="black"/>
<path d="M393 1144V1705H386V1144H393Z" fill="black"/>
<path d="M539 1144V1705H532V1144H539Z" fill="black"/>
<path d="M686 1144V1705H678V1144H686Z" fill="black"/>
<path d="M832 1144V1705H824V1144H832Z" fill="black"/>
<path d="M978 1144V1705H970V1144H978Z" fill="black"/>
<path d="M443.605 350.838C465.154 272.508 520.41 215.121 567.013 222.666C613.628 230.212 633.944 299.831 612.395 378.162C590.846 456.492 535.59 513.879 488.987 506.334C442.372 498.788 422.056 429.169 443.605 350.838Z" fill="white"/>
<path d="M487.974 246.931C511.43 222.567 540.303 207.207 568.767 211.816L568.766 211.817C597.883 216.53 616.966 240.436 625.826 270.8C634.729 301.311 634.186 340.42 623.003 381.077C611.808 421.777 591.782 457.392 568.025 482.069C544.935 506.053 516.598 521.311 488.567 517.386L487.233 517.185C458.116 512.471 439.034 488.563 430.174 458.2C421.271 427.689 421.814 388.581 432.997 347.924C444.192 307.224 464.217 271.609 487.974 246.931ZM565.237 233.554C547.111 230.619 525.068 240.176 503.871 262.195C482.975 283.9 464.608 316.137 454.26 353.757C443.9 391.42 443.828 426.278 451.344 452.038C458.904 477.945 473.277 492.615 490.762 495.445C508.888 498.38 530.931 488.824 552.129 466.805C573.025 445.099 591.391 412.864 601.739 375.243C612.098 337.58 612.172 302.723 604.656 276.963C597.096 251.055 582.723 236.385 565.238 233.554H565.237Z" fill="#231F20"/>
<path d="M473.417 415.776C486.037 378.568 516.668 352.541 541.845 357.637C567.021 362.733 577.203 397.016 564.583 434.224C551.963 471.432 521.332 497.459 496.155 492.363C470.979 487.267 460.797 452.984 473.417 415.776Z" fill="#231F20"/>
<path d="M495.822 362.448C509.658 350.702 526.933 343.406 544.015 346.861C561.656 350.428 572.996 364.171 577.927 380.763C582.826 397.249 581.881 417.497 574.994 437.783C568.093 458.113 556.202 475.646 542.178 487.552C528.342 499.298 511.066 506.594 493.985 503.139C476.344 499.572 465.003 485.829 460.072 469.237C455.173 452.751 456.12 432.503 463.006 412.217C469.908 391.887 481.798 374.354 495.822 362.448ZM539.673 368.532C531.58 366.896 520.952 370.055 510.024 379.332C499.285 388.45 489.551 402.507 483.832 419.352C478.099 436.24 477.827 451.706 481.157 462.913C484.456 474.014 490.792 479.944 498.326 481.468C506.42 483.104 517.048 479.944 527.975 470.666C538.715 461.549 548.45 447.493 554.168 430.648C559.901 413.76 560.174 398.294 556.844 387.087C553.545 375.986 547.207 370.056 539.673 368.532Z" fill="#231F20"/>
<path d="M693.605 350.838C715.154 272.508 770.41 215.121 817.013 222.666C863.628 230.212 883.944 299.831 862.395 378.162C840.846 456.492 785.59 513.879 738.987 506.334C692.372 498.788 672.056 429.169 693.605 350.838Z" fill="white"/>
<path d="M737.974 246.931C761.43 222.567 790.303 207.207 818.767 211.816L818.766 211.817C847.883 216.53 866.966 240.436 875.826 270.8C884.729 301.311 884.186 340.42 873.003 381.077C861.808 421.777 841.782 457.392 818.025 482.069C794.935 506.053 766.598 521.311 738.567 517.386L737.233 517.185C708.116 512.471 689.034 488.563 680.174 458.2C671.271 427.689 671.814 388.581 682.997 347.924C694.192 307.224 714.217 271.609 737.974 246.931ZM815.237 233.554C797.111 230.619 775.068 240.176 753.871 262.195C732.975 283.9 714.608 316.137 704.26 353.757C693.9 391.42 693.828 426.278 701.344 452.038C708.904 477.945 723.277 492.615 740.762 495.445L741.615 495.573C759.578 498.078 781.263 488.48 802.129 466.805C823.025 445.099 841.391 412.864 851.739 375.243C862.098 337.58 862.172 302.723 854.656 276.963C847.096 251.055 832.723 236.385 815.238 233.554H815.237Z" fill="#231F20"/>
<path d="M722.417 415.776C735.037 378.568 765.668 352.541 790.845 357.637C816.021 362.733 826.203 397.016 813.583 434.224C800.963 471.432 770.332 497.459 745.155 492.363C719.979 487.267 709.797 452.984 722.417 415.776Z" fill="#231F20"/>
<path d="M744.822 362.448C758.658 350.702 775.933 343.406 793.015 346.861C810.656 350.428 821.996 364.171 826.927 380.763C831.826 397.249 830.881 417.497 823.994 437.783C817.093 458.113 805.202 475.646 791.178 487.552C777.342 499.298 760.066 506.594 742.985 503.139C725.344 499.572 714.003 485.829 709.072 469.237C704.173 452.751 705.12 432.503 712.006 412.217C718.908 391.887 730.798 374.354 744.822 362.448ZM788.673 368.532C780.58 366.896 769.952 370.055 759.024 379.332C748.285 388.45 738.551 402.507 732.832 419.352C727.099 436.24 726.827 451.706 730.157 462.913C733.456 474.014 739.792 479.944 747.326 481.468C755.42 483.104 766.048 479.944 776.975 470.666C787.715 461.549 797.45 447.493 803.168 430.648C808.901 413.76 809.174 398.294 805.844 387.087C802.545 375.986 796.207 370.056 788.673 368.532Z" fill="#231F20"/>
<path d="M793.922 699.867C793.922 673.944 776.756 648.732 745.294 629.429C714.01 610.236 670.094 598.006 621.001 598.006C571.908 598.006 527.99 610.235 496.706 629.429C465.244 648.732 448.079 673.944 448.079 699.867C448.079 706.53 449.191 710.771 450.591 713.48C451.889 715.991 453.702 717.727 456.373 719.038C462.569 722.079 473.135 722.782 489.795 721.08C506.149 719.41 525.157 715.884 547.789 712.569C570.013 709.315 594.818 706.432 621.001 706.432C647.183 706.432 671.987 709.315 694.211 712.569C716.843 715.884 735.851 719.41 752.205 721.08C768.865 722.781 779.431 722.079 785.627 719.038C788.298 717.727 790.112 715.992 791.41 713.48C792.81 710.771 793.922 706.53 793.922 699.867ZM816 699.867C816 708.787 814.538 716.783 811.037 723.556C807.434 730.528 802.019 735.521 795.381 738.779C782.96 744.876 766.586 744.668 749.956 742.97C733.02 741.24 712.387 737.472 691.002 734.34C669.208 731.149 645.618 728.436 621.001 728.436C596.383 728.436 572.792 731.149 550.998 734.34C529.613 737.472 508.98 741.24 492.044 742.97C475.414 744.668 459.04 744.876 446.619 738.779C439.981 735.521 434.566 730.528 430.963 723.556C427.462 716.783 426 708.787 426 699.867C426 663.456 450.015 632.235 485.133 610.69C520.429 589.035 568.493 576 621.001 576C673.508 576 721.571 589.035 756.867 610.69C791.985 632.235 816 663.456 816 699.867Z" fill="#231F20"/>
<path d="M901 1698C928.614 1698 951 1675.84 951 1648.5C951 1621.16 928.614 1599 901 1599C873.386 1599 851 1621.16 851 1648.5C851 1675.84 873.386 1698 901 1698Z" fill="#D41C1C"/>
</svg>
