<svg width="1203" height="1684" viewBox="0 0 1203 1684" fill="none" xmlns="http://www.w3.org/2000/svg">
<path d="M1203 0H0V1683.24H1203V0Z" fill="#F2D359"/>
<path d="M359.281 635.999C483.36 501.057 695.577 518.61 792.002 669.984C794.355 673.678 793.249 678.57 789.532 680.909C785.815 683.248 780.893 682.149 778.54 678.455C687.878 536.126 488.217 519.249 371.042 646.682C368.074 649.91 363.035 650.135 359.787 647.185C356.54 644.235 356.313 639.227 359.281 635.999Z" fill="#231F20"/>
<path d="M386.712 327.095C406.779 253.873 458.235 200.238 501.645 207.296C545.055 214.353 563.975 279.423 543.908 352.645C523.841 425.867 472.386 479.502 428.976 472.454C385.566 465.396 366.645 400.326 386.712 327.104V327.095Z" fill="white"/>
<path d="M429.539 231.131C451.246 208.636 477.54 194.912 503.083 199.04C529.093 203.245 546.448 224.586 554.6 252.459C562.783 280.438 562.325 316.496 551.95 354.135C541.566 391.805 523.006 424.693 501.08 447.416C479.373 469.913 453.08 483.638 427.538 479.515H427.536C401.526 475.311 384.171 453.969 376.019 426.096C367.849 398.161 368.293 362.173 378.621 324.598C378.637 324.536 378.652 324.473 378.669 324.412C389.053 286.742 407.613 253.853 429.539 231.131ZM500.526 214.734C482.467 211.815 461.118 221.347 441.045 242.149C421.209 262.705 403.863 293.117 394.086 328.523C394.077 328.558 394.07 328.595 394.06 328.63C384.28 364.109 384.161 397.098 391.342 421.649C398.553 446.307 412.502 460.978 430.093 463.821H430.092C448.152 466.736 469.501 457.201 489.574 436.399C509.429 415.822 526.788 385.373 536.559 349.925C546.339 314.447 546.458 281.457 539.277 256.906C532.066 232.249 518.117 217.578 500.526 214.734Z" fill="#231F20"/>
<path d="M411.184 393.491C422.857 359.176 451.208 335.172 474.499 339.863C497.79 344.562 507.216 376.185 495.544 410.5C483.871 444.816 455.52 468.819 432.229 464.129C408.938 459.429 399.512 427.807 411.184 393.491Z" fill="#231F20"/>
<path d="M433.223 345.654C445.635 335.166 460.775 328.852 475.547 331.531L476.251 331.665L476.253 331.666C491.652 334.766 501.709 346.714 506.14 361.552C510.549 376.315 509.74 394.626 503.436 413.118C497.121 431.643 486.248 447.568 473.503 458.338C460.894 468.993 445.47 475.34 430.475 472.327L430.472 472.326C415.073 469.226 405.017 457.276 400.586 442.439C396.177 427.676 396.986 409.366 403.29 390.873C409.605 372.349 420.478 356.424 433.223 345.654ZM473.119 347.237C464.616 345.529 453.991 348.903 443.481 357.784C433.107 366.551 423.79 379.978 418.33 395.997C412.858 412.047 412.534 426.924 415.81 437.895C419.064 448.79 425.509 455.122 433.605 456.754H433.606C442.109 458.463 452.735 455.089 463.245 446.208C473.62 437.441 482.935 424.013 488.396 407.995C493.867 391.944 494.192 377.068 490.915 366.096C487.661 355.201 481.216 348.868 473.119 347.237Z" fill="#231F20"/>
<path d="M619.669 327.095C639.736 253.873 691.192 200.238 734.602 207.296C778.012 214.353 796.932 279.423 776.865 352.645C756.798 425.867 705.343 479.502 661.933 472.454C618.523 465.396 599.602 400.326 619.669 327.104V327.095Z" fill="white"/>
<path d="M662.496 231.131C684.203 208.636 710.497 194.912 736.04 199.04C762.05 203.245 779.405 224.586 787.557 252.459C795.74 280.438 795.282 316.496 784.907 354.135C774.523 391.805 755.963 424.693 734.037 447.416C712.33 469.913 686.037 483.638 660.495 479.515H660.493C634.483 475.311 617.128 453.969 608.976 426.096C600.806 398.161 601.25 362.173 611.578 324.598C611.594 324.536 611.609 324.473 611.626 324.412C622.01 286.742 640.57 253.853 662.496 231.131ZM733.484 214.734C715.425 211.815 694.075 221.347 674.002 242.149C654.166 262.705 636.82 293.117 627.044 328.523C627.034 328.558 627.027 328.595 627.017 328.63C617.237 364.109 617.118 397.098 624.299 421.649C631.51 446.307 645.459 460.978 663.05 463.821H663.049C681.109 466.736 702.458 457.201 722.531 436.399C742.386 415.822 759.745 385.373 769.516 349.925C779.296 314.447 779.415 281.457 772.235 256.906C765.023 232.249 751.075 217.578 733.484 214.734Z" fill="#231F20"/>
<path d="M643.009 393.491C654.83 359.176 683.54 335.172 707.126 339.863C730.711 344.562 740.257 376.185 728.437 410.5C716.616 444.816 687.906 468.819 664.32 464.129C640.735 459.429 631.189 427.807 643.009 393.491Z" fill="#231F20"/>
<path d="M666.18 345.654C678.592 335.166 693.732 328.852 708.504 331.531L709.208 331.665L709.21 331.666C724.609 334.766 734.666 346.714 739.098 361.552C743.506 376.315 742.697 394.626 736.393 413.118C730.078 431.643 719.205 447.568 706.46 458.338C693.851 468.993 678.427 475.34 663.433 472.327L663.429 472.326C648.03 469.226 637.974 457.276 633.543 442.439C629.134 427.676 629.943 409.366 636.247 390.873C642.562 372.349 653.435 356.424 666.18 345.654ZM706.076 347.237C697.573 345.529 686.948 348.903 676.438 357.784C666.064 366.551 656.747 379.978 651.287 395.997C645.815 412.047 645.491 426.924 648.767 437.895C652.021 448.79 658.466 455.122 666.563 456.754C675.065 458.462 685.691 455.089 696.202 446.208C706.576 437.441 715.892 424.013 721.353 407.995C726.824 391.944 727.149 377.068 723.872 366.096C720.618 355.201 714.173 348.868 706.076 347.237Z" fill="#231F20"/>
<path d="M1044.51 950.932C1048.91 950.932 1052.48 954.408 1052.48 958.697C1052.48 962.985 1048.91 966.462 1044.51 966.462H135.792C131.394 966.462 127.828 962.985 127.828 958.697C127.828 954.408 131.394 950.932 135.792 950.932H1044.51Z" fill="#231F20"/>
<path d="M916.685 1114.6C921.084 1114.6 924.651 1118.07 924.651 1122.36C924.651 1126.65 921.084 1130.13 916.685 1130.13H135.795C131.395 1130.13 127.828 1126.65 127.828 1122.36C127.828 1118.07 131.395 1114.6 135.795 1114.6H916.685Z" fill="#231F20"/>
<path d="M1011.07 1310.52C1015.47 1310.52 1019.03 1313.99 1019.03 1318.28C1019.03 1322.57 1015.47 1326.05 1011.07 1326.05H135.786C131.391 1326.05 127.828 1322.57 127.828 1318.28C127.828 1313.99 131.391 1310.52 135.786 1310.52H1011.07Z" fill="#231F20"/>
<path d="M686.122 1471.79C690.521 1471.79 694.086 1475.27 694.086 1479.56C694.086 1483.85 690.521 1487.32 686.122 1487.32H135.792C131.394 1487.32 127.828 1483.85 127.828 1479.56C127.828 1475.27 131.394 1471.79 135.792 1471.79H686.122Z" fill="#231F20"/>
</svg>
