<svg width="1910" height="2025" viewBox="0 0 1910 2025" fill="none" xmlns="http://www.w3.org/2000/svg">
<path d="M891.246 1267.94L202.488 1956.66C165.21 1993.94 104.772 1993.94 67.4955 1956.66C30.2189 1919.38 30.2204 1858.94 67.499 1821.66L756.258 1132.95L891.246 1267.94Z" fill="#FF86F7"/>
<path d="M1719.09 711.467C1719.09 423.976 1486.02 190.908 1198.49 190.908C910.971 190.908 677.897 423.976 677.896 711.467C677.896 998.959 910.971 1232.03 1198.49 1232.03C1486.02 1232.03 1719.09 998.959 1719.09 711.467ZM1910 711.467C1910 1104.41 1591.44 1422.94 1198.49 1422.94C805.546 1422.94 486.988 1104.41 486.988 711.467C486.989 318.529 805.546 0 1198.49 0C1591.44 9.83643e-05 1910 318.529 1910 711.467Z" fill="#2D2D2D"/>
</svg>
