<svg width="1690" height="1503" viewBox="0 0 1690 1503" fill="none" xmlns="http://www.w3.org/2000/svg">
<path d="M845 1503C1236.57 1503 1554 1185.57 1554 794C1554 402.43 1236.57 85 845 85C453.43 85 136 402.43 136 794C136 1185.57 453.43 1503 845 1503Z" fill="#50DB8A"/>
<path d="M123.791 562H12.2092C5.46623 562 0 567.482 0 574.245V1012.76C0 1019.52 5.46623 1025 12.2092 1025H123.791C130.534 1025 136 1019.52 136 1012.76V574.245C136 567.482 130.534 562 123.791 562Z" fill="#464646"/>
<path d="M123.791 1024.16V1025H12.2092V1024.16H123.791ZM135.167 1012.76V574.245C135.167 567.944 130.073 562.836 123.791 562.836H12.2092C5.92645 562.836 0.833312 567.944 0.833312 574.245V1012.76C0.833312 1019.06 5.92646 1024.16 12.2092 1024.16V1025L11.8942 1025C5.29685 1024.83 0 1019.41 0 1012.76V574.245C0 567.588 5.29685 562.172 11.8942 562.004L12.2092 562H123.791C130.534 562 136 567.482 136 574.245V1012.76L135.996 1013.07C135.829 1019.69 130.428 1025 123.791 1025V1024.16C130.073 1024.16 135.167 1019.06 135.167 1012.76Z" fill="#464646"/>
<path d="M1677.79 562H1566.21C1559.47 562 1554 567.482 1554 574.245V1012.76C1554 1019.52 1559.47 1025 1566.21 1025H1677.79C1684.53 1025 1690 1019.52 1690 1012.76V574.245C1690 567.482 1684.53 562 1677.79 562Z" fill="#464646"/>
<path d="M1677.79 1024.16V1025H1566.21V1024.16H1677.79ZM1689.17 1012.76V574.245C1689.17 567.944 1684.07 562.836 1677.79 562.836H1566.21C1559.93 562.836 1554.83 567.944 1554.83 574.245V1012.76C1554.83 1019.06 1559.93 1024.16 1566.21 1024.16V1025L1565.89 1025C1559.3 1024.83 1554 1019.41 1554 1012.76V574.245C1554 567.588 1559.3 562.172 1565.89 562.004L1566.21 562H1677.79C1684.53 562 1690 567.482 1690 574.245V1012.76L1690 1013.07C1689.83 1019.69 1684.43 1025 1677.79 1025V1024.16C1684.07 1024.16 1689.17 1019.06 1689.17 1012.76Z" fill="#464646"/>
<path d="M1622.7 794.127C1637.02 801.912 1637.02 801.92 1637.01 801.929C1637.01 801.933 1637.01 801.943 1637 801.951C1636.99 801.967 1636.98 801.987 1636.97 802.01C1636.94 802.056 1636.91 802.116 1636.87 802.19C1636.79 802.337 1636.68 802.538 1636.53 802.791C1636.25 803.298 1635.84 804.014 1635.3 804.925C1634.23 806.746 1632.66 809.351 1630.58 812.627C1626.41 819.177 1620.19 828.425 1611.8 839.481C1595.03 861.577 1569.55 890.989 1534.53 920.544C1464.37 979.752 1355.9 1039.49 1203.1 1042L1202.56 1009.4C1346.44 1007.03 1447.91 950.983 1513.51 895.624C1546.37 867.896 1570.23 840.329 1585.83 819.769C1593.63 809.496 1599.34 800.994 1603.07 795.128C1604.45 792.969 1605.55 791.168 1606.39 789.769C1604.04 371.195 1264.06 32.6049 845 32.6047C424.488 32.6047 83.5993 373.548 83.5993 794.127H51C51 355.54 406.484 0 845 0C1283.52 0.00018595 1639 355.541 1639 794.127V798.272L1637.02 801.913L1622.7 794.127Z" fill="#464646"/>
<path d="M943.029 695.496C938.95 412.17 1378.09 412.16 1373.97 695.516C1378.05 978.831 938.909 978.831 943.029 695.496Z" fill="white"/>
<path d="M1158.02 473C1214.56 473.001 1271.5 491.399 1314.21 528.724C1357.11 566.217 1385 622.274 1383.97 695.996C1385 769.728 1357.1 825.792 1314.19 863.286C1271.48 900.606 1214.53 919.001 1157.98 919C1101.44 918.999 1044.5 900.601 1001.79 863.277C958.887 825.783 930.995 769.721 932.028 695.995C931.006 622.271 958.906 566.212 1001.81 528.719C1044.52 491.397 1101.47 472.999 1158.02 473ZM1158.02 494.105C1105.83 494.105 1054.04 511.115 1015.71 544.608C977.608 577.904 952.168 628.016 953.145 695.844C953.146 695.946 953.146 696.047 953.145 696.149C952.158 763.98 977.591 814.092 1015.69 847.389C1054.01 880.882 1105.8 897.893 1157.99 897.894C1210.17 897.895 1261.96 880.887 1300.29 847.396C1338.39 814.102 1363.83 763.993 1362.86 696.167C1362.85 696.066 1362.85 695.964 1362.86 695.863C1363.84 628.026 1338.41 577.911 1300.31 544.613C1261.99 511.118 1210.2 494.106 1158.02 494.105Z" fill="#231F20"/>
<path d="M1128.31 1001C1199.37 1266.58 757.882 1496.35 626 1086.51C786.492 1121.58 964.937 1091.61 1128.31 1001Z" fill="white"/>
<path d="M1123.85 992.179C1126.64 990.738 1129.93 990.609 1132.83 991.84C1135.82 993.111 1138.07 995.689 1138.91 998.829C1176.3 1138.3 1078.75 1266.81 956.703 1307.5C895.251 1327.99 826.728 1326.65 764.881 1293.13C703.017 1259.61 649.152 1194.61 615.51 1090.28C614.35 1086.68 615.201 1082.74 617.742 1079.94C620.283 1077.14 624.127 1075.91 627.822 1076.72C785.749 1111.16 961.879 1081.82 1123.58 992.323L1123.85 992.179ZM1121.58 1017.45C965.474 1100.64 796.216 1129.93 641.51 1101.04C674.019 1191.22 722.259 1246 774.958 1274.56C830.952 1304.91 893.301 1306.37 950.015 1287.46C1060.32 1250.69 1146.1 1138.5 1121.58 1017.45Z" fill="#231F20"/>
<path d="M316.029 707.496C311.95 424.17 751.091 424.16 746.971 707.516C751.05 990.831 311.909 990.831 316.029 707.496Z" fill="white"/>
<path d="M532.015 484C588.559 484.001 645.504 502.44 688.211 539.849C731.109 577.426 758.999 633.609 757.973 707.496C759 781.393 731.099 837.583 688.187 875.161C645.476 912.565 588.528 931.001 531.984 931C475.441 930.999 418.496 912.559 375.789 875.152C332.887 837.574 304.995 781.387 306.028 707.495C305.006 633.605 332.906 577.421 375.813 539.844C418.524 502.438 475.472 483.999 532.015 484ZM532.015 505.152C479.828 505.152 428.042 522.2 389.712 555.768C351.608 589.139 326.168 639.363 327.145 707.344C327.146 707.445 327.146 707.547 327.145 707.649C326.158 775.632 351.591 825.857 389.69 859.228C428.014 892.797 479.798 909.846 531.985 909.847C584.172 909.848 635.959 892.802 674.288 859.236C712.392 825.867 737.832 775.646 736.856 707.668C736.854 707.566 736.854 707.464 736.856 707.362C737.842 639.374 712.409 589.146 674.31 555.773C635.986 522.203 584.203 505.153 532.015 505.152Z" fill="#231F20"/>
<path d="M626 849C689.513 849 741 780.947 741 697C741 613.053 689.513 545 626 545C562.487 545 511 613.053 511 697C511 780.947 562.487 849 626 849Z" fill="#231F20"/>
<path d="M1249 849C1312.51 849 1364 780.947 1364 697C1364 613.053 1312.51 545 1249 545C1185.49 545 1134 613.053 1134 697C1134 780.947 1185.49 849 1249 849Z" fill="#231F20"/>
</svg>
