<svg width="1875" height="1272" viewBox="0 0 1875 1272" fill="none" xmlns="http://www.w3.org/2000/svg">
<path d="M57.4745 136.684L39.5619 762.318C37.4005 837.806 96.8439 900.754 172.332 902.915L1269.63 934.332C1345.12 936.494 1408.07 877.05 1410.23 801.562L1410.23 169.374C1412.39 93.8853 1410.23 98.3738 1387.11 47.3738L198.072 3.91377C122.583 1.75244 59.6358 61.1958 57.4745 136.684Z" fill="#18A352"/>
<path d="M1370.13 41.227L84.939 89.9251C38.0285 91.7026 1.44097 131.172 3.21849 178.083L30.8354 906.92C32.6129 953.83 72.0824 990.418 118.993 988.64L1404.18 939.942C1451.09 938.165 1487.68 898.695 1485.9 851.785L1458.28 122.948C1456.51 76.0371 1417.04 39.4495 1370.13 41.227Z" fill="#50DB8A"/>
<path d="M546.38 325.599C573.054 229.918 641.453 159.832 699.149 169.056C756.845 178.268 782.004 263.303 755.33 358.984C728.656 454.665 660.257 524.751 602.561 515.527C544.866 506.315 519.707 421.28 546.38 325.599Z" fill="white"/>
<path d="M604.883 201.891C633.444 172.625 667.649 155.181 700.524 160.436L700.525 160.435C733.926 165.768 756.542 192.924 767.249 229.117C777.981 265.396 777.411 312.285 763.739 361.328C750.057 410.407 725.617 453.192 696.827 482.693C668.266 511.959 634.06 529.403 601.184 524.148C567.784 518.814 545.168 491.659 534.461 455.465C523.729 419.187 524.298 372.298 537.97 323.255C551.652 274.177 576.093 231.392 604.883 201.891ZM697.77 177.676C672.951 173.708 644.109 186.695 617.379 214.085C590.877 241.242 567.781 281.341 554.79 327.944C541.788 374.582 541.601 418.051 551.204 450.513C560.832 483.059 579.643 503.027 603.937 506.906L603.939 506.907C628.759 510.875 657.6 497.889 684.331 470.498C710.833 443.342 733.929 403.243 746.921 356.64C759.922 310.002 760.11 266.533 750.507 234.071C740.878 201.524 722.067 181.556 697.772 177.677L697.77 177.676Z" fill="#231F20"/>
<path d="M608.469 383.048C632.103 320.488 678.016 272.762 711.034 276.434C744.052 280.105 751.659 333.797 728.025 396.345C704.392 458.905 658.478 506.631 625.46 502.96C592.442 499.288 584.836 445.597 608.469 383.048Z" fill="#231F20"/>
<path d="M649.941 298.852C668.945 279.098 691.25 265.45 711.998 267.757C734.42 270.25 746.117 289.796 749.417 313.086C752.707 336.305 748.482 366.306 736.755 397.924L736.191 399.431C724.005 431.687 706.022 460.303 686.552 480.541C667.548 500.295 645.243 513.943 624.494 511.636C602.073 509.143 590.376 489.597 587.076 466.308C583.734 442.72 588.147 412.134 600.302 379.963L600.877 378.454C613.05 346.815 630.775 318.774 649.941 298.852ZM710.069 285.11C697.799 283.746 680.638 292.126 662.523 310.957C645.149 329.017 628.608 355.003 617.176 384.716L616.635 386.134C605.157 416.512 601.556 444.045 604.364 463.859C607.213 483.969 615.828 493.105 626.424 494.283C638.693 495.648 655.855 487.267 673.97 468.437C691.62 450.09 708.41 423.563 719.858 393.26L720.39 391.838C731.447 362.023 734.893 335.039 732.129 315.535C729.28 295.424 720.665 286.289 710.069 285.11Z" fill="#231F20"/>
<path d="M773.685 312.096C800.359 216.415 868.758 146.329 926.454 155.553C984.149 164.765 1009.31 249.8 982.635 345.481C955.961 441.162 887.562 511.248 829.866 502.024C772.171 492.812 747.011 407.777 773.685 312.096Z" fill="white"/>
<path d="M832.188 188.388C860.749 159.122 894.954 141.678 927.829 146.933L927.83 146.932C961.231 152.265 983.846 179.421 994.553 215.615C1005.29 251.893 1004.72 298.782 991.044 347.825C977.362 396.904 952.922 439.689 924.132 469.19C895.57 498.456 861.365 515.9 828.489 510.645C795.088 505.311 772.472 478.157 761.765 441.963C751.033 405.685 751.603 358.795 765.275 309.752C778.957 260.674 803.398 217.889 832.188 188.388ZM925.075 164.173C900.255 160.205 871.414 173.192 844.683 200.582C818.181 227.739 795.086 267.838 782.094 314.441C769.093 361.079 768.905 404.548 778.509 437.01C788.137 469.556 806.948 489.524 831.242 493.404L831.244 493.405C856.063 497.373 884.905 484.386 911.635 456.995C938.138 429.839 961.234 389.74 974.225 343.137C987.227 296.499 987.414 253.03 977.811 220.568C968.183 188.021 949.371 168.053 925.077 164.174L925.075 164.173Z" fill="#231F20"/>
<path d="M835.774 369.545C859.408 306.985 905.321 259.26 938.339 262.931C971.357 266.602 978.963 320.294 955.33 382.842C931.696 445.402 885.783 493.128 852.765 489.457C819.747 485.785 812.141 432.094 835.774 369.545Z" fill="#231F20"/>
<path d="M877.245 285.349C896.249 265.595 918.554 251.947 939.303 254.254C961.725 256.747 973.422 276.293 976.722 299.583C980.012 322.802 975.787 352.803 964.06 384.421L963.495 385.928C951.31 418.184 933.327 446.8 913.857 467.038C894.853 486.793 872.548 500.44 851.799 498.133C829.378 495.64 817.681 476.094 814.381 452.805C811.039 429.217 815.451 398.631 827.607 366.46L828.182 364.951C840.355 333.312 858.08 305.271 877.245 285.349ZM937.373 271.608C925.104 270.243 907.943 278.623 889.827 297.454C872.454 315.514 855.913 341.501 844.481 371.213L843.94 372.631C832.462 403.009 828.861 430.542 831.668 450.356C834.518 470.466 843.133 479.602 853.729 480.78C865.998 482.145 883.159 473.765 901.275 454.934C918.924 436.587 935.715 410.06 947.162 379.757L947.695 378.335C958.751 348.521 962.197 321.536 959.434 302.032C956.584 281.921 947.97 272.786 937.373 271.608Z" fill="#231F20"/>
<path d="M965.397 706.43C951.148 653.76 860.228 667.366 726.997 632.639C593.766 597.911 514.032 532.839 482.907 580.679C454.374 624.55 496.031 770.585 678.64 818.173C849.582 862.721 979.061 756.944 965.397 706.419V706.43Z" fill="#231F20"/>
<path d="M515.389 555.002C499.229 555.1 485.634 560.955 476.043 575.233L475.589 575.918L475.588 575.92C466.867 589.329 464.232 609.088 467.12 630.757C470.045 652.699 478.753 677.715 494.173 702.627C525.091 752.578 583.083 802.293 676.439 826.621C764.121 849.472 841.445 833.825 895.289 805.686C922.163 791.641 943.45 774.345 957.246 756.869C970.745 739.77 978.325 720.784 973.824 704.14C973.808 704.079 973.788 704.018 973.771 703.957C969.418 688.087 959.169 677.371 944.955 669.848C931.08 662.504 913.078 658 892.385 654.218C850.249 646.517 795.463 641.463 729.199 624.191C663.055 606.95 611.079 582.466 569.63 567.486C549.346 560.155 531.013 554.908 515.389 555.002ZM515.494 572.461C527.737 572.387 543.502 576.608 563.695 583.907C603.202 598.185 657.708 623.6 724.795 641.086C791.762 658.542 849.052 664.048 889.246 671.394C909.718 675.135 925.445 679.276 936.788 685.28C947.735 691.074 954.168 698.352 956.97 708.71C956.978 708.739 956.988 708.768 956.996 708.797C959.274 717.418 955.773 730.558 943.542 746.051C931.562 761.226 912.358 777.064 887.202 790.211C836.987 816.454 764.101 831.423 680.842 809.725C591.589 786.465 537.448 739.369 509.019 693.438C494.765 670.409 486.995 647.716 484.427 628.45C481.823 608.913 484.68 593.967 490.225 585.441L490.788 584.599C496.669 576.065 504.401 572.528 515.494 572.461Z" fill="#231F20"/>
<path d="M781.617 828.132C749.85 830.346 715.191 827.707 678.64 818.185C582.431 793.106 525.355 740.711 497.052 690.312C550.72 672.805 624.03 672.541 691.248 716.951C739.639 748.925 767.575 788.827 781.629 828.132H781.617Z" fill="#FF86F7"/>
<path d="M694.423 708.595C625.06 663.549 549.65 663.971 494.345 682.012C491.86 682.823 489.869 684.705 488.919 687.14C487.969 689.575 488.161 692.307 489.441 694.586C518.967 747.164 578.059 800.989 676.438 826.633H676.439C713.888 836.389 749.466 839.115 782.136 836.847C782.166 836.845 782.195 836.843 782.225 836.841L782.224 836.84C784.837 836.662 787.245 835.318 788.766 833.16C790.401 830.838 790.806 827.867 789.85 825.193C775.163 784.118 746.036 742.688 696.061 709.667L694.423 708.595ZM510.311 695.479C560.292 682.053 625.022 684.342 684.92 723.243L686.436 724.235C728.652 752.129 754.547 786.08 769.068 820.01C741.537 820.809 711.916 817.833 680.842 809.738L678.645 809.159C592.025 786.051 538.836 740.401 510.311 695.479Z" fill="#231F20"/>
<path d="M1320.15 849.822C1426.47 843.289 1507.35 751.809 1500.82 645.496C1494.29 539.184 1402.81 458.296 1296.5 464.829C1190.18 471.362 1109.3 562.842 1115.83 669.155C1122.36 775.467 1213.84 856.355 1320.15 849.822Z" fill="#F2D359"/>
<path d="M1287.81 771.34C1284.39 770.729 1282.88 768.56 1283.49 765.141L1286.54 748.048C1253.95 740.6 1233.77 719.901 1231.22 693.124C1230.66 688.682 1233.28 686.165 1237.67 685.864L1259.91 684.408C1264 684.323 1266.3 686.634 1267.44 690.907C1270.03 702.224 1278.44 711.325 1292.41 715.175L1300.06 672.31L1291.47 667.248C1272.13 657.011 1248.17 636.18 1252.84 608.52C1258.28 578.015 1286.53 562.705 1319.03 566.067L1322.27 547.921C1322.88 544.502 1325.05 542.99 1328.47 543.601L1332.94 544.399C1336.36 545.009 1337.87 547.179 1337.26 550.598L1333.97 569.006C1358.54 575.833 1373.45 592.607 1377.85 615.101C1378.94 619.637 1376.58 622.201 1372.14 622.765L1349.97 625.32C1345.84 625.668 1343.44 623.883 1342.31 619.61C1340.51 611.42 1335.84 605.701 1328.01 602.404L1320.92 642.114L1330.04 647.27C1362.69 665.039 1372.86 685.579 1369.4 708.026C1363.71 739.846 1334.97 753.437 1301.58 750.461L1298.48 767.817C1297.87 771.236 1295.7 772.748 1292.28 772.138L1287.81 771.34ZM1306.92 633.915L1313.12 599.202C1303.58 599.399 1295.5 603.654 1293.81 613.121C1292.82 618.644 1293.53 625.284 1305.48 632.844L1306.92 633.915ZM1307.49 717.326C1319.22 716.978 1326.92 711.84 1328.62 702.373C1330.02 694.484 1325.53 687.712 1315.5 681.579L1314.07 680.509L1307.49 717.326Z" fill="#7D6917"/>
<path d="M1653.39 1271.78C1775.66 1271.78 1874.78 1172.66 1874.78 1050.39C1874.78 928.12 1775.66 829 1653.39 829C1531.12 829 1432 928.12 1432 1050.39C1432 1172.66 1531.12 1271.78 1653.39 1271.78Z" fill="#F2D359"/>
<path d="M1698.38 1174.78C1694.63 1176.13 1691.89 1174.83 1690.54 1171.08L1683.81 1152.32C1647.11 1163.54 1615.18 1154.47 1597.34 1129.27C1594.24 1125.17 1595.41 1121.17 1599.61 1118.36L1620.92 1104.19C1624.93 1101.77 1628.55 1102.76 1632.12 1106.36C1641.17 1116.14 1654.75 1120.39 1670.86 1116.24L1653.97 1069.19L1642.52 1069.07C1617.42 1069.93 1581.66 1062.89 1570.49 1032.69C1558.47 999.212 1577.83 967.827 1612.11 952.59L1604.96 932.675C1603.62 928.923 1604.91 926.177 1608.66 924.83L1613.57 923.069C1617.32 921.722 1620.07 923.017 1621.42 926.769L1628.67 946.973C1657.02 939.729 1681.46 947.899 1698.69 967.778C1702.37 971.671 1701.49 975.571 1697.39 978.671L1676.79 993.887C1672.87 996.595 1669.47 996.188 1665.89 992.584C1659.42 985.457 1651.5 982.437 1641.83 983.629L1657.47 1027.21L1669.5 1027.13C1712.15 1026.15 1734.02 1040.79 1743.4 1065.11C1755.94 1100.03 1735.09 1130 1700.15 1146.12L1706.99 1165.17C1708.34 1168.93 1707.04 1171.67 1703.29 1173.02L1698.38 1174.78ZM1638.84 1027.06L1625.17 988.957C1615.79 994.603 1610.17 1003.46 1613.9 1013.85C1616.08 1019.91 1620.59 1026.11 1636.8 1026.81L1638.84 1027.06ZM1687.1 1109.76C1698.58 1102.71 1703.31 1093.19 1699.58 1082.8C1696.47 1074.14 1688.13 1069.96 1674.64 1069.59L1672.6 1069.35L1687.1 1109.76Z" fill="#7D6917"/>
<path d="M1041.5 1211C1131.8 1211 1205 1137.8 1205 1047.5C1205 957.201 1131.8 884 1041.5 884C951.201 884 878 957.201 878 1047.5C878 1137.8 951.201 1211 1041.5 1211Z" fill="#F2D359"/>
<path d="M1111.78 1115.08C1109.72 1117.19 1107.48 1117.21 1105.37 1115.16L1094.84 1104.87C1074.09 1124.18 1049.96 1128.46 1029.97 1117.49C1026.58 1115.77 1026.07 1112.73 1027.95 1109.51L1037.53 1093.22C1039.42 1090.31 1042.13 1089.8 1045.67 1091.04C1054.84 1094.62 1065.23 1093.05 1074.59 1085.09L1048.18 1059.3L1040.53 1062.91C1024.14 1071.6 998.117 1078.47 980.946 1062.02C962.152 1043.66 964.874 1016.57 982.72 995.375L971.54 984.457C969.434 982.4 969.407 980.159 971.464 978.052L974.154 975.298C976.211 973.192 978.453 973.165 980.559 975.222L991.901 986.298C1008.39 972.33 1027.26 969.865 1045.13 977.501C1048.83 978.898 1049.5 981.773 1047.78 985.156L1039.01 1001.92C1037.28 1004.98 1034.89 1005.81 1031.35 1004.57C1024.76 1001.92 1018.52 1002.48 1012.48 1006.39L1036.94 1030.29L1044.9 1026.35C1072.92 1011.92 1092.17 1014.58 1106.26 1027.7C1125.86 1046.85 1121.69 1073.48 1103.7 1095.48L1114.39 1105.92C1116.5 1107.98 1116.52 1110.22 1114.47 1112.33L1111.78 1115.08ZM1024.52 1036.2L1003.13 1015.31C998.731 1022.09 997.861 1029.79 1003.69 1035.48C1007.1 1038.81 1012.09 1041.47 1023.09 1036.7L1024.52 1036.2ZM1083.28 1075.54C1088.63 1067.15 1088.69 1059.3 1082.86 1053.61C1078 1048.86 1071.11 1048.78 1062.03 1052.89L1060.6 1053.39L1083.28 1075.54Z" fill="#7D6917"/>
</svg>
