<svg width="1787" height="1360" viewBox="0 0 1787 1360" fill="none" xmlns="http://www.w3.org/2000/svg">
<path d="M1110.39 652.474C1113.18 651.308 1116.38 651.628 1118.89 653.325C1121.4 655.022 1122.89 657.87 1122.85 660.9C1122.1 717.745 1120.04 878.609 1117.27 1027.39C1115.89 1101.78 1114.32 1173.18 1112.64 1227.06C1111.81 1253.99 1110.94 1276.6 1110.05 1293.04C1109.61 1301.25 1109.16 1308 1108.7 1313.01C1108.46 1315.51 1108.22 1317.67 1107.96 1319.42C1107.75 1320.81 1107.4 1322.95 1106.66 1324.69V1324.69C1102.93 1333.41 1098.73 1340.4 1093.44 1345.74C1088.02 1351.21 1081.84 1354.56 1074.83 1356.53C1068.03 1358.44 1060.52 1359.03 1052.42 1359.2C1044.41 1359.37 1034.84 1359.12 1024.33 1359.09C997.541 1358.99 974.537 1359.49 958.264 1358.23C950.157 1357.59 942.752 1356.47 936.99 1354.19C931.12 1351.86 925.098 1347.48 923.784 1339.54L923.785 1339.54C921.773 1327.41 926.618 1316.75 933.111 1307.84C939.553 1299.01 948.56 1290.65 956.931 1282.93C965.608 1274.94 973.714 1267.55 979.771 1259.95C985.82 1252.36 988.882 1245.69 988.923 1239.37C989.171 1201.34 990.653 733.41 988.828 685.92C988.64 681.022 992.406 676.874 997.299 676.589C1041.65 674.005 1079 665.566 1110.39 652.474ZM1104.67 674.01C1076.2 684.343 1043.8 691.162 1007.04 693.972C1008.53 773.77 1007.16 1203.43 1006.92 1239.49C1006.84 1251.68 1000.96 1262.24 993.847 1271.16C986.741 1280.08 977.461 1288.49 969.129 1296.17C960.491 1304.13 952.866 1311.3 947.653 1318.45C942.578 1325.41 940.723 1331.09 941.502 1336.33C941.757 1336.55 942.356 1336.95 943.632 1337.46C946.772 1338.7 951.938 1339.68 959.66 1340.28C975.046 1341.48 996.732 1340.99 1024.39 1341.09H1024.39C1035.52 1341.13 1044.29 1341.37 1052.04 1341.2C1059.71 1341.04 1065.4 1340.48 1069.96 1339.2C1074.31 1337.98 1077.65 1336.1 1080.65 1333.07C1083.73 1329.97 1086.78 1325.3 1089.94 1317.99C1089.97 1317.83 1090.05 1317.45 1090.16 1316.75C1090.35 1315.48 1090.55 1313.69 1090.77 1311.35C1091.2 1306.68 1091.64 1300.19 1092.08 1292.07C1092.96 1275.84 1093.82 1253.39 1094.65 1226.5C1096.32 1172.73 1097.89 1101.42 1099.27 1027.06C1101.85 888.686 1103.81 739.853 1104.67 674.01Z" fill="#2D2D2D"/>
<path d="M778.706 656.807C781.007 654.975 784.059 654.382 786.879 655.221C817.756 664.409 855.593 671.052 901.748 674.579C906.505 674.942 910.152 678.956 910.06 683.726C909.039 736.586 906.967 891.647 904.29 1036.1C902.953 1108.23 901.468 1177.59 899.891 1229.92C899.103 1256.08 898.292 1278.04 897.462 1293.98C897.047 1301.94 896.624 1308.48 896.19 1313.33C895.974 1315.74 895.746 1317.84 895.501 1319.52C895.31 1320.83 894.978 1322.95 894.237 1324.68C890.513 1333.4 886.31 1340.39 881.021 1345.73C875.602 1351.2 869.426 1354.55 862.412 1356.52C855.616 1358.43 848.104 1359.02 840.007 1359.19C831.992 1359.36 822.42 1359.12 811.911 1359.08C785.123 1358.98 762.119 1359.48 745.846 1358.22C737.739 1357.59 730.334 1356.47 724.572 1354.18C718.702 1351.85 712.68 1347.47 711.366 1339.53L711.367 1339.53C709.355 1327.41 714.2 1316.74 720.693 1307.84C727.135 1299 736.142 1290.64 744.513 1282.93C753.19 1274.93 761.296 1267.54 767.353 1259.94C773.402 1252.35 776.464 1245.68 776.505 1239.36C776.793 1195.35 778.718 717.807 775.33 664.418C775.143 661.481 776.404 658.64 778.706 656.807ZM793.808 675.847C796.524 768.564 794.774 1198.47 794.505 1239.48C794.423 1251.67 788.543 1262.23 781.429 1271.16C774.323 1280.07 765.043 1288.49 756.711 1296.16C748.073 1304.12 740.448 1311.3 735.235 1318.44C730.16 1325.4 728.305 1331.08 729.084 1336.32C729.339 1336.54 729.937 1336.94 731.214 1337.45C734.354 1338.7 739.52 1339.67 747.242 1340.27C762.627 1341.47 784.314 1340.98 811.974 1341.08H811.975C823.106 1341.12 831.872 1341.36 839.626 1341.19C847.296 1341.03 852.981 1340.47 857.545 1339.19C861.89 1337.97 865.235 1336.09 868.233 1333.06C871.302 1329.96 874.351 1325.31 877.503 1318.02C877.536 1317.86 877.603 1317.51 877.689 1316.92C877.866 1315.71 878.058 1313.99 878.261 1311.72C878.666 1307.21 879.076 1300.93 879.486 1293.05C880.306 1277.31 881.113 1255.5 881.9 1229.38C883.473 1177.16 884.956 1107.88 886.293 1035.77C888.83 898.814 890.842 751.197 891.907 691.836C854.167 688.575 821.681 683.174 793.808 675.847Z" fill="#2D2D2D"/>
<path d="M1547.72 256.326H1549.11C1549.11 213.013 1513.99 177.892 1470.66 177.892H1181.33V189.289L1167.17 177.892L971.746 20.6037C937.618 -6.86789 888.954 -6.86789 854.826 20.6037L659.404 177.892H355.913C334.252 177.892 314.637 186.672 300.442 200.865C286.247 215.057 277.465 234.662 277.465 256.319H278.851C278.084 256.319 277.465 256.938 277.465 257.705V290.341C277.465 317.216 299.257 338.997 326.129 338.997H328.034C328.8 338.997 329.42 339.616 329.42 340.383V891.076C329.42 891.843 328.8 892.462 328.034 892.462H326.129C299.249 892.462 277.465 914.25 277.465 941.118V1012.59C277.465 1033.58 294.486 1050.61 315.488 1050.61H1511.08C1532.08 1050.61 1549.11 1033.59 1549.11 1012.59V941.118C1549.11 914.243 1527.32 892.462 1500.44 892.462H1500.18C1499.41 892.462 1498.79 891.843 1498.79 891.076V340.39C1498.79 339.624 1499.41 339.004 1500.18 339.004H1500.44C1527.32 339.004 1549.11 317.216 1549.11 290.348V257.712C1549.11 256.946 1548.49 256.326 1547.72 256.326ZM891.719 117.823C904.318 107.687 922.277 107.687 934.876 117.823L1009.51 177.892H817.097L891.726 117.823H891.719ZM697.202 892.47H693.911C667.031 892.47 645.247 914.25 645.247 941.126V970.796H445.806V941.126C445.806 914.25 424.022 892.47 397.142 892.47V339.004C424.022 339.004 445.806 317.224 445.806 290.348V257.712C445.806 256.946 445.186 256.326 444.42 256.326H646.626C645.859 256.326 645.24 256.946 645.24 257.712V290.348C645.24 317.224 667.024 339.004 693.903 339.004H697.195V892.462L697.202 892.47ZM1063.33 892.47H1061.69C1034.81 892.47 1013.02 914.25 1013.02 941.126V970.796H813.581V941.126C813.581 914.25 791.797 892.47 764.917 892.47V339.004C791.797 339.004 813.581 317.224 813.581 290.348V257.712H1013.02V290.348C1013.02 317.224 1034.81 339.004 1061.69 339.004H1063.33V892.462V892.47ZM1431.09 892.47H1429.45C1402.57 892.47 1380.79 914.25 1380.79 941.126V970.796H1181.35V941.126C1181.35 914.25 1159.56 892.47 1132.68 892.47H1131.04V339.004H1132.68C1159.56 339.004 1181.35 317.224 1181.35 290.348V257.712C1181.35 256.946 1180.73 256.326 1179.96 256.326H1382.18C1381.41 256.326 1380.79 256.946 1380.79 257.712V290.348C1380.79 317.224 1402.57 339.004 1429.45 339.004H1431.09V892.462V892.47Z" fill="#7D6917"/>
<path d="M1009.5 177.892H817.09L891.72 117.823C904.319 107.687 922.278 107.687 934.877 117.823L1009.51 177.892H1009.5Z" fill="#F2D359"/>
<path d="M1431.1 339.004V892.462H1429.45C1402.57 892.462 1380.79 914.243 1380.79 941.118V970.789H1181.35V941.118C1181.35 914.243 1159.56 892.462 1132.68 892.462H1131.04V339.004H1132.68C1159.56 339.004 1181.35 317.224 1181.35 290.348V257.712C1181.35 256.946 1180.73 256.326 1179.96 256.326H1382.18C1381.41 256.326 1380.79 256.946 1380.79 257.712V290.348C1380.79 317.224 1402.57 339.004 1429.45 339.004H1431.1Z" fill="#F2D359"/>
<path d="M1063.33 339.004V892.462H1061.69C1034.81 892.462 1013.02 914.243 1013.02 941.118V970.789H813.582V941.118C813.582 914.243 791.798 892.462 764.918 892.462V339.004C791.798 339.004 813.582 317.224 813.582 290.348V257.712H1013.02V290.348C1013.02 317.224 1034.81 339.004 1061.69 339.004H1063.33Z" fill="#F2D359"/>
<path d="M697.201 339.004V892.462H693.91C667.03 892.462 645.246 914.243 645.246 941.118V970.789H445.805V941.118C445.805 914.243 424.02 892.462 397.141 892.462V339.004C424.02 339.004 445.805 317.224 445.805 290.348V257.712C445.805 256.946 445.185 256.326 444.418 256.326H646.624C645.858 256.326 645.238 256.946 645.238 257.712V290.348C645.238 317.224 667.022 339.004 693.902 339.004H697.193H697.201Z" fill="#F2D359"/>
<path d="M697.203 339.004V340.39C697.203 339.624 696.583 339.004 695.816 339.004H697.203Z" fill="#7D6917"/>
<path d="M766.289 339.004C765.522 339.004 764.902 339.624 764.902 340.39V339.004H766.289Z" fill="#7D6917"/>
<path d="M398.519 339.004C397.752 339.004 397.133 339.624 397.133 340.39V339.004H398.519Z" fill="#7D6917"/>
<path d="M697.203 339.004V340.39C697.203 339.624 696.583 339.004 695.816 339.004H697.203Z" fill="#7D6917"/>
<path d="M766.289 339.004C765.522 339.004 764.902 339.624 764.902 340.39V339.004H766.289Z" fill="#7D6917"/>
<path d="M1063.33 339.004V340.39C1063.33 339.624 1062.71 339.004 1061.94 339.004H1063.33Z" fill="#7D6917"/>
<path d="M1132.41 339.004C1131.65 339.004 1131.03 339.624 1131.03 340.39V339.004H1132.41Z" fill="#7D6917"/>
<path d="M398.519 892.47H397.133V891.084C397.133 891.85 397.752 892.47 398.519 892.47Z" fill="#7D6917"/>
<path d="M398.519 339.004C397.752 339.004 397.133 339.624 397.133 340.39V339.004H398.519Z" fill="#7D6917"/>
<path d="M1063.33 339.004V340.39C1063.33 339.624 1062.71 339.004 1061.94 339.004H1063.33Z" fill="#7D6917"/>
<path d="M1132.41 339.004C1131.65 339.004 1131.03 339.624 1131.03 340.39V339.004H1132.41Z" fill="#7D6917"/>
<path d="M1181.34 177.892V189.289L1167.18 177.892H1181.34Z" fill="#7D6917"/>
<path d="M1181.34 177.892V189.289L1167.18 177.892H1181.34Z" fill="#7D6917"/>
<path d="M1181.34 256.326V257.712C1181.34 256.946 1180.72 256.326 1179.95 256.326H1181.34Z" fill="#7D6917"/>
<path d="M961.241 577.96C995.874 575.216 1019.08 511.5 1013.07 435.647C1007.06 359.793 974.107 300.525 939.474 303.269C904.841 306.012 881.638 369.728 887.649 445.582C893.66 521.436 926.608 580.703 961.241 577.96Z" fill="white"/>
<path d="M1003.1 436.437C1000.18 399.603 990.739 367.281 978.264 344.842C965.316 321.551 951.292 312.364 940.265 313.237C929.238 314.111 916.836 325.391 907.718 350.431C898.933 374.554 894.7 407.959 897.619 444.792C900.538 481.625 909.979 513.947 922.453 536.386C935.401 559.677 949.425 568.864 960.452 567.99C971.479 567.117 983.881 555.837 993 530.797C1001.78 506.674 1006.02 473.27 1003.1 436.437ZM1023.04 434.857C1026.13 473.877 1021.76 510.257 1011.79 537.641C1002.15 564.109 985.638 586.058 962.032 587.928C938.426 589.798 918.66 570.723 904.973 546.103C890.812 520.631 880.773 485.392 877.681 446.372C874.589 407.351 878.953 370.97 888.925 343.587C898.564 317.119 915.08 295.17 938.685 293.3C962.291 291.43 982.058 310.505 995.745 335.125C1009.91 360.597 1019.94 395.837 1023.04 434.857Z" fill="#2D2D2D"/>
<path d="M960.423 492.92C979.293 490.506 990.847 459.288 986.228 423.191C981.61 387.094 962.569 359.789 943.699 362.202C924.828 364.616 913.275 395.835 917.894 431.931C922.512 468.028 941.553 495.334 960.423 492.92Z" fill="#2D2D2D"/>
<path d="M976.31 424.459C974.163 407.68 968.706 393.438 962.106 383.974C955.198 374.068 948.853 371.624 944.968 372.121C941.083 372.618 935.559 376.58 931.367 387.906C927.363 398.726 925.667 413.883 927.814 430.662C929.961 447.442 935.418 461.683 942.018 471.147C948.926 481.054 955.27 483.497 959.155 483.001C963.04 482.504 968.565 478.543 972.757 467.216C976.761 456.395 978.457 441.239 976.31 424.459ZM996.149 421.922C998.62 441.239 996.848 459.741 991.513 474.158C986.365 488.068 976.678 500.922 961.693 502.839C946.708 504.755 934.096 494.753 925.612 482.587C916.819 469.977 910.447 452.517 907.975 433.2C905.504 413.882 907.275 395.381 912.61 380.964C917.758 367.054 927.445 354.2 942.43 352.283C957.415 350.366 970.026 360.369 978.511 372.535C987.304 385.145 993.677 402.605 996.149 421.922Z" fill="#2D2D2D"/>
<path d="M829.124 589.966C863.757 587.222 886.96 523.506 880.949 447.652C874.939 371.799 841.99 312.531 807.357 315.274C772.724 318.018 749.521 381.734 755.532 457.588C761.543 533.441 794.491 592.709 829.124 589.966Z" fill="white"/>
<path d="M870.982 448.442C868.063 411.609 858.622 379.287 846.147 356.848C833.199 333.557 819.175 324.37 808.148 325.243C797.121 326.117 784.719 337.397 775.601 362.436C766.816 386.56 762.583 419.965 765.502 456.798C768.42 493.631 777.862 525.952 790.336 548.392C803.284 571.683 817.308 580.87 828.335 579.996C839.362 579.123 851.764 567.843 860.883 542.803C869.667 518.68 873.9 485.276 870.982 448.442ZM890.919 446.863C894.011 485.883 889.647 522.263 879.675 549.647C870.037 576.115 853.521 598.064 829.915 599.934C806.309 601.804 786.543 582.729 772.856 558.109C758.695 532.637 748.656 497.398 745.564 458.377C742.472 419.357 746.836 382.976 756.808 355.592C766.447 329.125 782.962 307.176 806.568 305.306C830.174 303.436 849.941 322.511 863.628 347.131C877.788 372.603 887.827 407.843 890.919 446.863Z" fill="#2D2D2D"/>
<path d="M828.314 504.922C847.184 502.509 858.737 471.29 854.119 435.193C849.5 399.096 830.459 371.791 811.589 374.204C792.719 376.618 781.166 407.837 785.784 443.933C790.403 480.03 809.444 507.336 828.314 504.922Z" fill="#2D2D2D"/>
<path d="M844.201 436.462C842.054 419.682 836.596 405.441 829.997 395.977C823.088 386.07 816.744 383.627 812.859 384.124C808.974 384.621 803.45 388.582 799.258 399.908C795.254 410.729 793.557 425.885 795.704 442.665C797.851 459.444 803.309 473.686 809.908 483.15C816.817 493.056 823.16 495.5 827.045 495.003C830.931 494.506 836.455 490.545 840.647 479.218C844.652 468.398 846.348 453.241 844.201 436.462ZM864.039 433.924C866.511 453.242 864.739 471.743 859.404 486.16C854.256 500.07 844.568 512.924 829.584 514.841C814.599 516.758 801.987 506.755 793.503 494.589C784.71 481.98 778.338 464.519 775.866 445.202C773.394 425.885 775.165 407.383 780.501 392.966C785.648 379.056 795.336 366.202 810.321 364.285C825.305 362.369 837.917 372.371 846.401 384.537C855.194 397.147 861.568 414.607 864.039 433.924Z" fill="#2D2D2D"/>
<path d="M702.407 676.468C721.279 634.037 769.122 685.241 915.075 670.506C1036.22 658.272 1104.73 589.531 1124.64 633.836C1142.9 674.455 1088.75 791.805 928.952 807.941C779.36 823.048 684.301 717.157 702.407 676.468Z" fill="#2D2D2D"/>
<path d="M1100.17 609.161C1106.98 608.912 1113.8 609.985 1119.92 613.547C1126.11 617.151 1130.61 622.731 1133.76 629.736L1134.03 630.357C1139.68 643.486 1139.1 660.873 1133.83 678.736C1128.39 697.186 1117.6 717.399 1101.16 736.578C1068.17 775.066 1012.27 809.578 929.958 817.89C852.557 825.706 788.943 802.236 746.856 771.174C725.862 755.679 709.952 738.093 700.423 721.217C691.165 704.822 686.809 686.926 693.272 672.402C696.098 666.048 699.784 660.739 704.774 656.792C709.815 652.804 715.54 650.716 721.608 649.816C732.967 648.132 747.072 650.518 762.798 653.249C795.173 658.871 842.511 667.781 914.072 660.556C973.071 654.599 1019.16 634.93 1054.28 621.619C1071.33 615.156 1087.11 609.637 1100.17 609.161ZM1100.9 629.148C1091.72 629.483 1079.08 633.606 1061.37 640.32C1026.96 653.361 978.23 674.18 916.081 680.456H916.08C841.689 687.966 792.129 678.642 759.376 672.954C742.538 670.03 732.021 668.491 724.541 669.6C721.189 670.097 718.941 671.086 717.183 672.476C715.374 673.907 713.437 676.28 711.545 680.532L711.544 680.534C708.955 686.354 709.691 696.953 717.839 711.384C725.717 725.335 739.526 740.906 758.733 755.082C797.047 783.36 855.757 805.282 927.948 797.992H927.949C1005.43 790.168 1056.51 757.937 1085.98 723.561C1100.77 706.308 1110.08 688.559 1114.65 673.077C1119.3 657.292 1118.72 645.047 1115.52 637.936L1115.52 637.935C1113.69 633.865 1111.69 631.901 1109.86 630.833C1107.95 629.722 1105.2 628.991 1100.9 629.148Z" fill="#2D2D2D"/>
<path d="M708.418 667.006C712.259 698.171 736.63 721.043 763.486 718.333C786.517 716.011 804.011 695.616 806.969 670.119C751.181 663.7 723.372 651.017 708.426 667.014L708.418 667.006Z" fill="white"/>
<path d="M701.519 659.768C712.635 648.256 727.908 648.274 743.621 650.238C751.82 651.262 761.348 653.014 771.836 654.822C782.457 656.652 794.442 658.612 808.113 660.185C810.749 660.488 813.157 661.827 814.806 663.907C816.454 665.986 817.208 668.636 816.903 671.272C813.539 700.261 793.275 725.38 764.489 728.284C730.844 731.678 702.816 703.3 698.493 668.23C698.099 665.032 699.271 661.911 701.519 659.768ZM741.142 670.083C729.534 668.633 723.273 669.163 719.262 671.183C724.509 695.305 743.775 710.272 762.483 708.384L763.291 708.292C777.557 706.487 789.961 695.174 795.012 678.694C785.21 677.362 776.372 675.898 768.44 674.531C757.556 672.655 748.737 671.032 741.142 670.083Z" fill="#2D2D2D"/>
<path d="M812.629 670.731C817.469 700.548 841.22 722.081 867.325 719.448C890.457 717.11 907.99 696.561 910.832 670.909C871.205 674.61 838.943 673.448 812.629 670.731Z" fill="white"/>
<path d="M805.356 663.867C807.492 661.604 810.561 660.464 813.657 660.783C839.394 663.441 870.996 664.586 909.902 660.952C912.895 660.673 915.856 661.755 917.963 663.899C920.071 666.043 921.102 669.022 920.771 672.01C917.54 701.168 897.243 726.475 868.331 729.398H868.329C835.641 732.694 808.215 705.95 802.758 672.333C802.26 669.261 803.22 666.131 805.356 663.867ZM826.133 681.957C833.8 700.339 850.246 711.119 866.32 709.499C880.29 708.087 892.584 697.574 898.125 681.972C870.616 683.875 846.787 683.468 826.133 681.957Z" fill="#2D2D2D"/>
<path d="M917.672 670.22C925.594 694.78 946.883 711.411 970.006 709.081C996.933 706.363 1016.27 678.946 1013.68 647.541C986.548 657.041 954.58 666.224 917.672 670.22Z" fill="white"/>
<path d="M1010.65 638.011C1013.5 637.105 1016.61 637.521 1019.13 639.154C1021.73 640.84 1023.4 643.634 1023.65 646.72C1026.56 682.054 1004.75 715.625 971.011 719.03H971.009C942.105 721.943 917.159 701.203 908.155 673.29C907.231 670.427 907.646 667.301 909.283 664.777C910.92 662.254 913.606 660.602 916.596 660.278C952.483 656.393 983.664 647.456 1010.38 638.102L1010.65 638.011ZM1003.32 661.586C982.32 668.372 958.644 674.622 932.294 678.444C940.844 692.667 955.015 700.541 969.002 699.132L969.943 699.022C986.289 696.875 1000.29 682.03 1003.32 661.586Z" fill="#2D2D2D"/>
<path d="M1115.1 624.428C1115.02 623.67 1114.92 622.911 1114.82 622.16C1097.36 612.086 1065.44 629.004 1018.43 645.861C1025.67 671.791 1047.62 689.646 1071.52 687.231C1098.81 684.474 1118.32 656.36 1115.1 624.428Z" fill="white"/>
<path d="M1098.3 609.268C1105.48 608.765 1112.7 609.605 1119.19 613.147L1119.82 613.498L1120.06 613.647C1122.61 615.217 1124.33 617.853 1124.73 620.831C1124.8 621.385 1124.89 622.033 1124.97 622.718L1125.05 623.413L1125.05 623.425C1128.64 659.047 1107.06 693.189 1073.33 697.094L1072.53 697.18C1042.63 700.201 1017.01 677.956 1008.8 648.55C1007.39 643.499 1010.12 638.217 1015.05 636.447C1037.57 628.374 1058.59 619.475 1074.69 614.378C1082.99 611.75 1090.96 609.782 1098.3 609.268ZM1105.42 629.372C1103.85 629.133 1101.97 629.06 1099.7 629.219C1094.68 629.57 1088.46 630.996 1080.72 633.445C1066.87 637.831 1051.16 644.419 1031.25 651.818C1039.29 669.006 1055.04 678.845 1070.52 677.281H1070.52C1089.94 675.32 1106.34 655.42 1105.42 629.372Z" fill="#2D2D2D"/>
<path d="M119.463 248.507C130.021 243.289 140.97 244.822 150.139 248.669C159.241 252.488 167.481 258.907 173.883 265.198C203.357 294.154 223.008 326.205 231.733 367.155C232.769 372.017 229.668 376.798 224.806 377.834C219.945 378.869 215.165 375.768 214.129 370.907C206.251 333.934 188.636 304.924 161.269 278.039L161.267 278.037C155.821 272.684 149.449 267.9 143.176 265.267C136.969 262.663 131.78 262.497 127.438 264.642L127.433 264.645C123.537 266.568 120.609 270.244 118.581 275.843C116.53 281.504 115.693 288.397 115.614 295.268C115.224 330.049 133.748 377.857 152.289 409.272C154.626 413.232 153.602 418.317 149.914 421.064C146.226 423.811 141.06 423.336 137.935 419.963C115.631 395.889 78.8754 365.586 49.5857 354.352H49.5847C44.6299 352.451 39.7657 351.01 35.3376 350.606C30.9704 350.208 27.6331 350.866 25.0564 352.492L25.0554 352.493C21.5633 354.696 19.396 358.65 18.865 364.802C18.3278 371.026 19.641 378.369 22.0027 384.955L22.5789 386.538C34.8437 419.672 56.5792 445.889 87.9001 460.941C92.38 463.094 94.2668 468.471 92.114 472.951C89.9609 477.431 84.5833 479.318 80.1033 477.165C43.4175 459.534 18.569 428.693 5.05932 391.032V391.031C2.10103 382.782 0.110705 372.774 0.932371 363.254C1.76042 353.661 5.61463 343.475 15.4499 337.269C22.4059 332.88 30.0805 332.051 36.9744 332.68C43.8079 333.304 50.456 335.407 56.033 337.547H56.032C75.2435 344.915 96.464 359.022 115.396 374.431C104.983 348.273 97.3406 319.455 97.615 295.063V295.06C97.7063 287.136 98.6512 278.009 101.657 269.712C104.685 261.353 110.089 253.135 119.463 248.507Z" fill="#2D2D2D"/>
<path d="M135.526 433.282C147.351 431.852 160.228 431.966 172.425 435.701C177.178 437.157 179.851 442.19 178.396 446.942C176.941 451.695 171.907 454.368 167.155 452.912C158.164 450.159 148.01 449.903 137.687 451.151H137.683C125.596 452.607 114.348 455.983 105.676 462.48C97.0059 468.977 91.468 478.832 91.7573 488.229L91.7925 488.967C92.2784 496.582 96.561 503.617 103.647 509.093C110.998 514.774 120.718 518.204 129.995 518.357H129.994C138.555 518.497 153.558 514.371 167.186 506.756C173.867 503.023 179.777 498.687 184.162 494.066C188.577 489.413 191.031 484.918 191.734 480.818C192.574 475.919 197.226 472.629 202.125 473.469C207.024 474.309 210.314 478.962 209.474 483.861C207.974 492.607 203.149 500.205 197.219 506.455C191.258 512.738 183.756 518.117 175.966 522.47C160.653 531.027 142.481 536.564 129.7 536.355H129.697C116.508 536.137 103.038 531.371 92.6401 523.336C82.2054 515.272 74.2229 503.349 73.7661 488.793V488.789C73.2517 472.171 82.7222 457.188 94.8823 448.076C107.041 438.966 121.765 434.94 135.526 433.282Z" fill="#2D2D2D"/>
<path d="M293.281 433.008C298.221 432.462 302.668 436.024 303.214 440.965C306.094 467.026 302.171 492.425 293.042 513.938C299.939 527.969 310.404 539.829 321.904 547.9C334.359 556.643 347.103 560.34 357.257 558.854C362.175 558.134 366.745 561.537 367.465 566.455C368.185 571.373 364.783 575.944 359.865 576.664C343.681 579.033 326.35 573.013 311.562 562.633C297.126 552.5 284.231 537.635 275.994 520.011C273.906 517.416 273.347 513.763 274.849 510.551C283.866 491.272 288.045 467.566 285.324 442.941C284.778 438.001 288.34 433.554 293.281 433.008Z" fill="#2D2D2D"/>
<path d="M127.418 519.746C131.729 517.271 137.229 518.758 139.704 523.069C152.71 545.721 178.795 558.092 205.849 557.583C208.643 557.531 211.304 558.78 213.049 560.963C214.32 562.554 214.996 564.508 215.014 566.501C233.382 602.864 255.984 636.913 287.538 660.181C304.103 672.396 317.621 680.004 331.546 684.513C345.439 689.012 360.31 690.611 379.821 690.027C384.789 689.878 388.937 693.785 389.086 698.753C389.235 703.722 385.328 707.87 380.36 708.019C359.563 708.642 342.481 706.975 326.001 701.638C309.555 696.312 294.279 687.517 276.856 674.668C242.255 649.154 218.194 612.561 199.38 575.478C169.348 574.04 139.795 559.377 124.095 532.032C121.62 527.721 123.108 522.221 127.418 519.746Z" fill="#2D2D2D"/>
<path d="M193.411 379.53C207.445 365.773 225.876 355.892 245.618 357.329C264.641 358.714 278.171 372.206 287.013 387.807C295.938 403.554 301.181 423.181 303.205 440.934C303.768 445.872 300.221 450.332 295.282 450.895C290.344 451.458 285.885 447.911 285.321 442.973C283.489 426.897 278.769 409.768 271.353 396.683C263.853 383.452 254.662 376.036 244.312 375.282L244.311 375.281C231.513 374.35 217.87 380.76 206.012 392.384C194.228 403.936 185.275 419.664 181.77 434.897C180.085 442.218 179.909 450.735 181.732 457.688C183.552 464.633 186.891 468.616 191.233 470.116H191.232C196.229 471.843 200.802 471.076 205.578 468.211C210.653 465.168 215.676 459.863 220.406 453.158C229.899 439.703 236.278 423.561 239.329 416.861C241.368 412.383 246.625 410.373 251.131 412.347C255.637 414.321 257.724 419.548 255.816 424.082C254.727 426.67 251.747 434.591 249.594 444.029C247.385 453.713 246.358 463.698 248.094 471.06C249.235 475.898 246.238 480.744 241.401 481.885C236.563 483.026 231.715 480.029 230.574 475.192C230.214 473.665 229.936 472.106 229.727 470.526C225.421 475.608 220.463 480.273 214.836 483.648C206.394 488.711 196.294 490.909 185.355 487.13H185.354C173.27 482.955 167.014 472.529 164.32 462.252C161.627 451.983 162.018 440.465 164.228 430.861C168.544 412.102 179.303 393.359 193.411 379.53Z" fill="#2D2D2D"/>
<path d="M1438.51 611.082C1538.48 569.644 1616.62 587.078 1672.23 621.607C1727.29 655.794 1759.8 706.41 1770.19 731.491C1784.79 766.752 1797.42 825.524 1770.44 893.55L1770.44 893.554C1766.98 902.258 1760.81 911.208 1753.21 917.787C1745.74 924.25 1735.55 929.515 1724.38 927.8H1724.38C1713.36 926.104 1704.98 921.698 1699.26 914.828C1694.91 909.603 1692.58 903.535 1691.4 897.488C1687.14 902.061 1681.85 905.963 1675.28 908.083C1666.63 910.878 1656.96 910.197 1646.46 905.763C1635.07 900.949 1630.35 889.95 1628.8 879.282C1625.76 881.553 1622.19 883.301 1617.98 884.089C1610.86 885.42 1603.38 883.733 1595.56 879.821C1589.86 876.964 1585.28 873.319 1582.1 868.744C1578.87 864.1 1577.43 858.994 1577.3 853.853C1577.05 844.074 1581.52 834.255 1586.35 825.955C1591.26 817.496 1597.65 808.86 1602.58 801.762C1603.14 800.964 1603.68 800.183 1604.19 799.422C1598.18 800.594 1591.2 801.821 1584.23 802.399C1576.13 803.071 1567.13 802.965 1559.27 800.3C1550.95 797.479 1543.69 791.652 1540.71 781.497L1540.55 780.901C1538.89 774.755 1539.47 768.847 1542.2 763.558C1544.88 758.387 1549.24 754.53 1553.79 751.581C1562.73 745.792 1575.15 741.827 1586.47 738.523C1598.43 735.031 1609.37 732.215 1617.63 728.745C1621.72 727.025 1624.36 725.452 1625.85 724.109C1626.55 723.483 1626.8 723.074 1626.88 722.927C1626.89 722.907 1626.89 722.891 1626.9 722.88C1626.84 719.007 1623.74 713.229 1614.42 707.064C1605.47 701.14 1592.47 696.093 1577.17 693.281C1546.48 687.642 1508.88 691.377 1479.67 711.831C1475.6 714.682 1469.99 713.692 1467.14 709.621C1464.29 705.549 1465.28 699.937 1469.35 697.086C1503.53 673.15 1546.39 669.324 1580.42 675.578C1597.48 678.712 1612.91 684.476 1624.36 692.054C1635.43 699.383 1644.71 709.789 1644.9 722.629L1644.9 723.228C1644.79 729.383 1641.62 734.128 1637.89 737.486C1634.19 740.82 1629.39 743.327 1624.6 745.34C1615.09 749.335 1602.49 752.599 1591.51 755.803C1579.89 759.195 1569.97 762.544 1563.57 766.689C1560.46 768.707 1558.89 770.472 1558.19 771.828C1557.64 772.896 1557.34 774.21 1557.99 776.438V776.439C1559 779.883 1561.13 781.924 1565.05 783.253C1569.43 784.737 1575.5 785.061 1582.74 784.461C1589.84 783.872 1597.19 782.48 1603.82 781.148C1607.04 780.5 1610.23 779.842 1612.92 779.357C1615.5 778.895 1618.32 778.458 1620.69 778.446C1623.46 778.432 1626.08 779.693 1627.8 781.865C1629.51 784.037 1630.13 786.878 1629.48 789.568C1628.54 793.445 1626.65 797.321 1624.61 800.862C1622.53 804.483 1619.97 808.281 1617.36 812.037C1611.97 819.789 1606.34 827.379 1601.91 835.001C1597.38 842.782 1595.18 848.899 1595.29 853.391C1595.35 855.386 1595.86 857 1596.88 858.47C1597.95 860.008 1599.92 861.871 1603.62 863.725L1603.62 863.726C1609.31 866.574 1612.7 866.764 1614.67 866.396C1616.53 866.048 1618.46 864.95 1620.76 862.208C1623.15 859.341 1625.43 855.286 1627.97 850.004C1630.23 845.308 1633.22 838.472 1636.01 832.901C1638.19 828.545 1643.44 826.715 1647.86 828.773C1652.27 830.832 1654.25 836.031 1652.31 840.503C1648.49 849.335 1645.87 861.303 1646.18 871.577C1646.5 882.528 1649.83 887.645 1653.46 889.181C1660.82 892.288 1666 892.168 1669.75 890.955C1673.65 889.697 1677.22 886.869 1680.53 882.46C1687.39 873.317 1691.28 859.965 1694 850.018C1695.23 845.541 1699.66 842.729 1704.23 843.527C1708.8 844.325 1712.02 848.47 1711.66 853.098C1711.22 858.586 1710.02 865.908 1709.27 872.003C1708.46 878.616 1708.01 884.932 1708.56 890.55C1709.11 896.144 1710.61 900.327 1713.09 903.307C1715.45 906.138 1719.49 908.835 1727.11 910.009H1727.11C1730.92 910.592 1735.95 908.923 1741.43 904.178C1746.78 899.547 1751.29 893.011 1753.71 886.911C1778.51 824.379 1766.9 770.602 1753.56 738.377C1744.4 716.265 1714.15 668.826 1662.74 636.899C1611.87 605.315 1539.82 588.576 1445.4 627.71C1440.81 629.613 1435.54 627.433 1433.64 622.842C1431.74 618.25 1433.92 612.985 1438.51 611.082Z" fill="#2D2D2D"/>
</svg>
