<svg width="955" height="1301" viewBox="0 0 955 1301" fill="none" xmlns="http://www.w3.org/2000/svg">
<path d="M955 651V1229.03C955 1268.78 922.789 1301 883.052 1301H71.9478C32.2108 1301 0 1268.78 0 1229.03V651H955Z" fill="#79E4A6"/>
<path d="M883.052 0H71.9478C32.2108 0 0 32.2685 0 72.0766V651H955V72.0766C955 32.2685 922.789 0 883.052 0ZM477.5 78.3858C465.975 78.3858 456.635 69.0221 456.635 57.4839C456.635 45.9456 465.975 36.5748 477.5 36.5748C489.025 36.5748 498.365 45.9385 498.365 57.4839C498.365 69.0293 489.025 78.3858 477.5 78.3858Z" fill="#18A352"/>
<path d="M342.015 725H261.985C243.768 725 229 739.768 229 757.985V838.015C229 856.232 243.768 871 261.985 871H342.015C360.232 871 375 856.232 375 838.015V757.985C375 739.768 360.232 725 342.015 725Z" fill="#F8F8F8"/>
<path d="M342.015 903H261.985C243.768 903 229 917.667 229 935.759V1015.24C229 1033.33 243.768 1048 261.985 1048H342.015C360.232 1048 375 1033.33 375 1015.24V935.759C375 917.667 360.232 903 342.015 903Z" fill="#F8F8F8"/>
<path d="M342.015 1081H261.985C243.768 1081 229 1095.67 229 1113.76V1193.24C229 1211.33 243.768 1226 261.985 1226H342.015C360.232 1226 375 1211.33 375 1193.24V1113.76C375 1095.67 360.232 1081 342.015 1081Z" fill="#F8F8F8"/>
<path d="M517.241 725H437.759C419.667 725 405 739.768 405 757.985V838.015C405 856.232 419.667 871 437.759 871H517.241C535.333 871 550 856.232 550 838.015V757.985C550 739.768 535.333 725 517.241 725Z" fill="#F8F8F8"/>
<path d="M517.241 903H437.759C419.667 903 405 917.667 405 935.759V1015.24C405 1033.33 419.667 1048 437.759 1048H517.241C535.333 1048 550 1033.33 550 1015.24V935.759C550 917.667 535.333 903 517.241 903Z" fill="#F8F8F8"/>
<path d="M517.241 1081H437.759C419.667 1081 405 1095.67 405 1113.76V1193.24C405 1211.33 419.667 1226 437.759 1226H517.241C535.333 1226 550 1211.33 550 1193.24V1113.76C550 1095.67 535.333 1081 517.241 1081Z" fill="#F8F8F8"/>
<path d="M693.241 725H613.759C595.667 725 581 739.768 581 757.985V838.015C581 856.232 595.667 871 613.759 871H693.241C711.333 871 726 856.232 726 838.015V757.985C726 739.768 711.333 725 693.241 725Z" fill="#F8F8F8"/>
<path d="M693.241 903H613.759C595.667 903 581 917.667 581 935.759V1015.24C581 1033.33 595.667 1048 613.759 1048H693.241C711.333 1048 726 1033.33 726 1015.24V935.759C726 917.667 711.333 903 693.241 903Z" fill="#F8F8F8"/>
<path d="M693.241 1081H613.759C595.667 1081 581 1095.67 581 1113.76V1193.24C581 1211.33 595.667 1226 613.759 1226H693.241C711.333 1226 726 1211.33 726 1193.24V1113.76C726 1095.67 711.333 1081 693.241 1081Z" fill="#F8F8F8"/>
<path d="M869.015 725H788.985C770.768 725 756 739.768 756 757.985V838.015C756 856.232 770.768 871 788.985 871H869.015C887.232 871 902 856.232 902 838.015V757.985C902 739.768 887.232 725 869.015 725Z" fill="#F8F8F8"/>
<path d="M869.015 903H788.985C770.768 903 756 917.667 756 935.759V1015.24C756 1033.33 770.768 1048 788.985 1048H869.015C887.232 1048 902 1033.33 902 1015.24V935.759C902 917.667 887.232 903 869.015 903Z" fill="#F8F8F8"/>
<path d="M869.015 1081H788.985C770.768 1081 756 1095.67 756 1113.76V1193.24C756 1211.33 770.768 1226 788.985 1226H869.015C887.232 1226 902 1211.33 902 1193.24V1113.76C902 1095.67 887.232 1081 869.015 1081Z" fill="#F8F8F8"/>
<path d="M166.241 725H86.7587C68.6666 725 54 739.768 54 757.985V838.015C54 856.232 68.6666 871 86.7587 871H166.241C184.333 871 199 856.232 199 838.015V757.985C199 739.768 184.333 725 166.241 725Z" fill="#F8F8F8"/>
<path d="M166.241 903H86.7587C68.6666 903 54 917.667 54 935.759V1015.24C54 1033.33 68.6666 1048 86.7587 1048H166.241C184.333 1048 199 1033.33 199 1015.24V935.759C199 917.667 184.333 903 166.241 903Z" fill="#F8F8F8"/>
<path d="M166.241 1081H86.7587C68.6666 1081 54 1095.67 54 1113.76V1193.24C54 1211.33 68.6666 1226 86.7587 1226H166.241C184.333 1226 199 1211.33 199 1193.24V1113.76C199 1095.67 184.333 1081 166.241 1081Z" fill="#F8F8F8"/>
<path d="M389.775 128.861C423.907 118.333 457.875 137.986 474.209 169.365C491.048 201.715 490.16 246.952 457.306 291.405L457.304 291.407C441.667 312.561 418.849 332.115 390.544 337.009C362.279 341.896 328.219 328.623 316.941 299.014V299.012C312.6 287.609 311.342 272.625 312.305 257.058C313.282 241.256 316.612 223.815 322.293 206.997C333.403 174.113 354.805 140.126 388.969 129.115L389.775 128.861ZM452.904 180.379C440.555 156.655 417.525 145.632 397.316 151.577L396.355 151.873C373.161 159.348 355.331 184.164 345.039 214.629C340.02 229.485 337.106 244.855 336.261 258.528C335.401 272.436 336.741 283.593 339.38 290.525L339.682 291.285C346.25 307.154 366.849 316.83 386.441 313.442C406.304 310.008 424.305 295.72 437.981 277.219C466.03 239.267 465.072 203.756 452.904 180.379Z" fill="#2D2D2D"/>
<path d="M328.16 294.721C336.907 317.677 364.409 329.33 388.494 325.168C412.579 321.005 432.989 304.089 447.647 284.268C508.554 201.89 447.503 122.825 392.664 140.498C335.303 158.977 314.198 258.063 328.16 294.721Z" fill="white"/>
<path d="M389.775 128.861C423.907 118.333 457.875 137.986 474.209 169.365C491.048 201.715 490.16 246.952 457.306 291.405L457.304 291.407C441.667 312.561 418.849 332.115 390.544 337.009C362.279 341.896 328.219 328.623 316.941 299.014V299.012C312.6 287.609 311.342 272.625 312.305 257.058C313.282 241.256 316.612 223.815 322.293 206.997C333.403 174.113 354.805 140.126 388.969 129.115L389.775 128.861ZM452.904 180.379C440.555 156.655 417.525 145.632 397.316 151.577L396.355 151.873C373.161 159.348 355.331 184.164 345.039 214.629C340.02 229.485 337.106 244.855 336.261 258.528C335.401 272.436 336.741 283.593 339.38 290.525L339.682 291.285C346.25 307.154 366.849 316.83 386.441 313.442C406.304 310.008 424.305 295.72 437.981 277.219C466.03 239.267 465.072 203.756 452.904 180.379Z" fill="#2D2D2D"/>
<path d="M414.335 296.773C428.641 278.33 426.858 252.733 410.363 239.602C393.861 226.472 368.887 230.777 354.582 249.22C351.038 253.79 348.485 258.795 346.894 263.943C346.024 272.14 345.789 279.958 346.188 287.048C348.128 294.581 352.271 301.392 358.554 306.398C375.056 319.528 400.03 315.223 414.335 296.78V296.773Z" fill="#2D2D2D"/>
<path d="M345.944 240.825C363.51 219.252 394.572 212.739 416.776 229.408L417.844 230.234L417.845 230.235C440.232 248.04 441.447 281.079 424.072 303.786C423.991 303.897 423.91 304.009 423.826 304.119C406.148 326.888 373.705 333.749 351.086 315.767L351.08 315.763C342.601 309.014 337.105 299.888 334.566 290.037C334.371 289.28 334.252 288.505 334.208 287.725C333.767 279.9 334.033 271.425 334.962 262.677C335.044 261.907 335.201 261.147 335.429 260.408C337.443 253.896 340.664 247.6 345.104 241.881L345.944 240.825ZM402.954 248.951C392.693 240.796 375.514 242.369 364.52 255.893L364.001 256.546C361.587 259.655 359.807 263.007 358.623 266.433C357.965 273.126 357.776 279.43 358.027 285.123C359.463 289.89 362.153 294.005 365.971 297.046H365.973C376.373 305.314 393.88 303.587 404.853 289.548C404.878 289.515 404.903 289.48 404.929 289.447C415.938 275.267 413.489 257.331 402.954 248.952V248.951Z" fill="#2D2D2D"/>
<path d="M537.775 115.861C571.907 105.333 605.875 124.986 622.209 156.365C639.048 188.715 638.16 233.952 605.306 278.405L605.304 278.407C589.667 299.561 566.849 319.115 538.544 324.009C510.279 328.896 476.219 315.623 464.941 286.014V286.012C460.6 274.609 459.342 259.625 460.305 244.058C461.282 228.256 464.612 210.815 470.293 193.997C481.403 161.113 502.805 127.126 536.969 116.115L537.775 115.861ZM600.904 167.379C588.555 143.655 565.525 132.632 545.316 138.577L544.355 138.873C521.161 146.348 503.331 171.164 493.039 201.629C488.02 216.485 485.106 231.855 484.261 245.528C483.401 259.436 484.741 270.593 487.38 277.525L487.682 278.285C494.25 294.154 514.849 303.83 534.441 300.442C554.304 297.008 572.305 282.72 585.981 264.219C614.03 226.267 613.072 190.756 600.904 167.379Z" fill="#2D2D2D"/>
<path d="M476.16 281.721C484.907 304.677 512.409 316.33 536.494 312.168C560.579 308.005 580.989 291.089 595.647 271.268C656.554 188.89 595.503 109.825 540.664 127.498C483.303 145.977 462.198 245.063 476.16 281.721Z" fill="white"/>
<path d="M537.775 115.861C571.907 105.333 605.875 124.986 622.209 156.365C639.048 188.715 638.16 233.952 605.306 278.405L605.304 278.407C589.667 299.561 566.849 319.115 538.544 324.009C510.279 328.896 476.219 315.623 464.941 286.014V286.012C460.6 274.609 459.342 259.625 460.305 244.058C461.282 228.256 464.612 210.815 470.293 193.997C481.403 161.113 502.805 127.126 536.969 116.115L537.775 115.861ZM600.904 167.379C588.555 143.655 565.525 132.632 545.316 138.577L544.355 138.873C521.161 146.348 503.331 171.164 493.039 201.629C488.02 216.485 485.106 231.855 484.261 245.528C483.401 259.436 484.741 270.593 487.38 277.525L487.682 278.285C494.25 294.154 514.849 303.83 534.441 300.442C554.304 297.008 572.305 282.72 585.981 264.219C614.03 226.267 613.072 190.756 600.904 167.379Z" fill="#2D2D2D"/>
<path d="M506.623 293.397C523.107 306.529 548.055 302.223 562.345 283.778C576.636 265.334 574.855 239.735 558.377 226.603C541.893 213.471 516.945 217.777 502.655 236.222C488.364 254.666 490.145 280.265 506.623 293.397Z" fill="#2D2D2D"/>
<path d="M493.168 228.882C510.833 206.111 543.252 199.251 565.855 217.234L565.857 217.235C588.334 235.126 589.455 268.4 571.832 291.117C554.167 313.888 521.747 320.749 499.144 302.767L499.143 302.764C476.666 284.873 475.545 251.599 493.168 228.882ZM550.485 235.574C540.015 227.725 522.838 229.642 512.05 243.548C501.049 257.729 503.496 275.666 514.023 284.046H514.022C524.439 292.332 541.99 290.578 552.949 276.451C563.949 262.271 561.504 244.335 550.978 235.955L550.485 235.574Z" fill="#2D2D2D"/>
<path d="M277.069 287.016C283.671 287.357 288.745 292.967 288.403 299.545C287.172 323.202 288.349 346.778 292.563 369.844L292.968 372.006C301.676 417.372 322.759 460.472 355.906 491.362L355.907 491.364C389.594 522.764 436.29 540.512 481.088 535.214C530.938 529.316 575.529 495.855 605.562 453.076C635.64 410.234 652.65 359.262 667.508 306.989C669.31 300.651 675.928 296.969 682.289 298.764C688.649 300.559 692.345 307.151 690.544 313.489C675.619 365.998 657.743 420.365 625.18 466.748C592.572 513.194 542.551 551.964 483.912 558.902H483.911C431.141 565.143 377.638 544.284 339.552 508.784L337.778 507.11C300.729 471.747 278.056 423.545 269.011 374.123L269.009 374.119C264.42 349.005 263.181 323.56 264.494 298.31C264.836 291.732 270.467 286.675 277.069 287.016Z" fill="#2D2D2D"/>
</svg>
