<svg width="1634" height="1284" viewBox="0 0 1634 1284" fill="none" xmlns="http://www.w3.org/2000/svg">
<path d="M1439.21 304.573C1447.52 297.979 1456.93 301.481 1462.78 305.128C1468.96 308.984 1474.94 315.104 1479.92 320.956C1485.01 326.94 1489.55 333.249 1492.79 338.01C1493.34 338.823 1493.86 339.595 1494.34 340.316C1495.27 340.018 1496.28 339.695 1497.38 339.353C1503.34 337.498 1511.68 335.047 1521.24 332.663C1540.13 327.953 1564.67 323.271 1585.04 324.424C1587.83 324.581 1590.49 324.957 1592.87 325.708C1595.17 326.436 1597.94 327.753 1600.01 330.306C1605.13 336.608 1601.67 343.508 1599.74 346.38C1597.47 349.77 1593.97 353.05 1590.39 355.974C1587.1 358.662 1583.27 361.413 1579.28 364.099C1583.75 363.963 1588.24 364.065 1592.58 364.517C1601.47 365.446 1610.88 367.959 1617.87 374.045L1618.53 374.645L1618.53 374.646C1622.66 378.468 1625.41 384.006 1623.55 390.358C1622.04 395.544 1617.93 399.184 1614.49 401.591C1609.86 404.828 1603.65 407.707 1597 410.228C1602.37 411.357 1607.59 412.867 1612.29 414.888C1621.57 418.874 1630.74 425.74 1632.91 437.332L1633.01 437.887L1633.01 437.889C1634 443.803 1632.82 449.491 1628.86 454.021C1625.26 458.139 1620.22 460.292 1615.54 461.548C1606.26 464.033 1593.65 464.147 1581.4 464.023C1568.58 463.893 1555.45 463.468 1543.36 464.311C1531.1 465.167 1521.58 467.264 1515.55 471.135C1509.13 475.261 1503.18 482.278 1496.29 492.26C1492.89 497.189 1489.43 502.569 1485.61 508.449C1481.82 514.279 1477.73 520.516 1473.2 526.916C1454.96 552.677 1429.55 581.136 1385.27 600.863L1385.28 600.864C1353.89 614.854 1316.02 612.733 1280.43 603.655C1244.65 594.53 1209.91 578.058 1183.84 561.705C1179.76 559.143 1178.52 553.755 1181.09 549.671C1183.65 545.586 1189.04 544.352 1193.12 546.915C1217.93 562.482 1251.02 578.135 1284.74 586.737C1318.65 595.387 1351.96 596.596 1378.17 584.916H1378.17C1418.61 566.893 1441.8 541.052 1458.95 516.826C1463.27 510.729 1467.2 504.739 1470.97 498.937C1474.71 493.185 1478.34 487.529 1481.92 482.343C1488.99 472.095 1496.58 462.569 1506.11 456.444C1516.05 450.066 1529.34 447.788 1542.15 446.894C1555.14 445.988 1569.35 446.44 1581.57 446.564C1594.35 446.694 1604.47 446.438 1611.02 444.682C1614.25 443.817 1615.41 442.881 1615.71 442.536C1615.79 442.438 1615.81 442.396 1615.83 442.307C1615.86 442.177 1615.95 441.713 1615.79 440.75V440.749C1615.24 437.444 1612.55 434.003 1605.4 430.929C1598.36 427.904 1588.85 426.118 1578.78 425.209C1568.84 424.311 1558.96 424.316 1551.52 424.556C1547.81 424.676 1544.74 424.852 1542.61 424.998C1541.54 425.07 1540.71 425.136 1540.16 425.181C1539.88 425.204 1539.67 425.222 1539.54 425.234C1539.47 425.24 1539.42 425.245 1539.39 425.248C1539.38 425.249 1539.37 425.25 1539.36 425.251H1539.36L1538.93 425.281C1534.44 425.487 1530.5 422.241 1529.88 417.749C1529.25 413.112 1532.38 408.796 1536.99 407.968H1536.99C1536.99 407.967 1536.99 407.967 1536.99 407.967C1537 407.965 1537.02 407.962 1537.04 407.959C1537.08 407.951 1537.14 407.94 1537.22 407.925C1537.39 407.894 1537.64 407.847 1537.97 407.785C1538.63 407.661 1539.61 407.475 1540.85 407.231C1543.33 406.742 1546.86 406.022 1551.04 405.099C1559.43 403.248 1570.31 400.612 1580.49 397.438C1590.94 394.178 1599.68 390.642 1604.48 387.283C1604.89 386.998 1605.23 386.738 1605.52 386.509C1602.41 384.235 1597.52 382.589 1590.76 381.883C1583.29 381.102 1574.69 381.589 1566.31 382.691C1557.99 383.786 1550.21 385.443 1544.49 386.836C1541.64 387.53 1539.32 388.154 1537.73 388.599C1536.94 388.822 1536.33 389 1535.92 389.12C1535.72 389.18 1535.57 389.225 1535.47 389.254C1535.42 389.268 1535.39 389.279 1535.37 389.285C1535.36 389.288 1535.35 389.291 1535.35 389.292H1535.35C1535.35 389.292 1535.34 389.292 1535.34 389.291C1531.01 390.627 1526.38 388.429 1524.68 384.229C1522.98 380.029 1524.77 375.224 1528.81 373.169L1528.82 373.168C1528.82 373.167 1528.82 373.165 1528.82 373.163C1528.83 373.158 1528.85 373.151 1528.87 373.141C1528.91 373.121 1528.97 373.091 1529.05 373.05C1529.21 372.967 1529.45 372.843 1529.76 372.68C1530.39 372.355 1531.32 371.874 1532.49 371.259C1534.83 370.027 1538.14 368.262 1541.99 366.137C1549.73 361.871 1559.53 356.223 1568.1 350.566C1572.39 347.735 1576.25 344.976 1579.35 342.45C1579.65 342.202 1579.94 341.958 1580.22 341.721C1563.26 341.451 1542.7 345.306 1525.46 349.604C1516.3 351.889 1508.29 354.242 1502.58 356.022C1499.72 356.912 1497.45 357.656 1495.9 358.175C1495.12 358.434 1494.53 358.637 1494.13 358.773C1493.93 358.841 1493.78 358.893 1493.69 358.926C1493.64 358.943 1493.61 358.955 1493.58 358.963C1493.57 358.966 1493.57 358.969 1493.56 358.97C1493.56 358.971 1493.56 358.97 1493.56 358.97L1493.56 358.971C1489.78 360.306 1485.6 358.895 1483.39 355.588L1483.19 355.264L1483.18 355.263V355.262L1483.18 355.261C1483.18 355.258 1483.18 355.252 1483.17 355.243C1483.16 355.225 1483.14 355.195 1483.12 355.153C1483.07 355.07 1482.99 354.94 1482.88 354.768C1482.67 354.424 1482.34 353.909 1481.93 353.252C1481.09 351.937 1479.87 350.057 1478.35 347.833C1475.31 343.36 1471.16 337.604 1466.62 332.268C1461.97 326.8 1457.38 322.345 1453.53 319.942C1451.67 318.78 1450.5 318.433 1449.97 318.362C1449.92 318.424 1449.85 318.519 1449.77 318.656C1449.56 319.007 1449.29 319.591 1449.02 320.502C1448.48 322.385 1448.11 325.08 1448.01 328.733C1447.81 336.112 1448.7 345.414 1449.66 356.282C1450.59 366.869 1451.57 378.655 1451.29 390.027C1451.01 400.994 1449.57 412.247 1445.36 422.12L1444.95 423.071C1418.45 482.183 1373.93 507.779 1329.85 511.625C1286.44 515.411 1243.69 498.062 1220.04 471.995C1216.81 468.424 1217.08 462.903 1220.65 459.664C1224.22 456.425 1229.74 456.693 1232.98 460.264C1252.68 481.987 1289.94 497.579 1328.33 494.23C1366.03 490.941 1405.08 469.327 1429.02 415.928C1432.18 408.872 1433.58 399.896 1433.83 389.593C1434.09 379.34 1433.21 368.479 1432.27 357.821C1431.35 347.443 1430.32 336.899 1430.56 328.257C1430.68 323.899 1431.12 319.538 1432.26 315.626C1433.4 311.715 1435.43 307.578 1439.21 304.574L1439.21 304.573Z" fill="#2D2D2D"/>
<path d="M963.945 724.87C968.584 723.558 973.409 726.255 974.721 730.894C989.305 782.463 999.919 838.32 1007.57 897.603C1019.37 989.079 1000.12 1039.47 989.492 1081.3C983.842 1103.53 968.132 1136.11 954.305 1162.45C947.312 1175.77 940.662 1187.76 935.76 1196.41C934.665 1198.35 933.656 1200.11 932.75 1201.69C936.306 1203.16 940.717 1205 945.701 1207.12C958.806 1212.7 975.953 1220.25 991.955 1228.1C1007.73 1235.84 1023.15 1244.22 1032.28 1251.5C1034.6 1253.36 1036.78 1255.35 1038.51 1257.43C1040.13 1259.38 1042.03 1262.21 1042.54 1265.74C1043.16 1270.01 1041.56 1273.96 1038.44 1276.71C1035.82 1279.01 1032.51 1280.16 1029.57 1280.82C1018.93 1283.23 997.496 1284.09 972.412 1283.77C946.945 1283.45 916.668 1281.9 887.721 1279.15C858.857 1276.4 830.951 1272.43 810.385 1267.16C800.196 1264.55 791.195 1261.47 784.705 1257.74C779.025 1254.48 771.213 1248.27 772.736 1238.55C775.046 1223.8 782.691 1203.06 791.768 1179.07C801.002 1154.67 812.076 1126.06 822.011 1094.5C841.906 1031.31 856.872 957.33 843.151 884.445V884.444C835.147 841.944 826.862 794.058 813.926 746.459C812.662 741.807 815.409 737.01 820.061 735.746C824.714 734.481 829.511 737.228 830.775 741.88C843.117 787.294 851.301 832.981 858.815 873.237L860.31 881.214V881.215C874.819 958.29 858.876 1035.55 838.666 1099.75C828.549 1131.88 817.272 1161.01 808.098 1185.25C799.008 1209.27 792.303 1227.73 790.147 1240.27C790.564 1240.71 791.485 1241.5 793.404 1242.6C797.822 1245.14 804.997 1247.75 814.718 1250.24C833.974 1255.18 860.824 1259.05 889.375 1261.77C917.843 1264.48 947.641 1266 972.631 1266.31C993.832 1266.58 1010.86 1265.95 1020.74 1264.64C1013.13 1258.76 999.644 1251.32 984.264 1243.77C968.66 1236.12 951.832 1228.7 938.865 1223.19C932.391 1220.43 926.899 1218.16 923.029 1216.58C921.094 1215.79 919.566 1215.17 918.524 1214.75C918.003 1214.54 917.604 1214.38 917.337 1214.27C917.203 1214.22 917.102 1214.18 917.035 1214.15C917.002 1214.14 916.977 1214.13 916.961 1214.12C916.953 1214.12 916.947 1214.12 916.943 1214.12L916.939 1214.11C914.566 1213.17 912.724 1211.24 911.899 1208.82C911.074 1206.4 911.348 1203.75 912.649 1201.55C912.649 1201.55 912.651 1201.55 912.651 1201.55C912.652 1201.55 912.654 1201.54 912.657 1201.54C912.662 1201.53 912.67 1201.52 912.681 1201.5C912.704 1201.46 912.739 1201.4 912.785 1201.32C912.877 1201.17 913.015 1200.93 913.197 1200.62C913.561 1200 914.098 1199.08 914.787 1197.9C916.165 1195.52 918.151 1192.08 920.568 1187.81C925.405 1179.27 931.962 1167.45 938.846 1154.34C952.774 1127.8 967.5 1096.95 972.57 1077C983.294 1034.81 1001.27 988.155 990.512 901.882L990.253 899.837C982.683 841.18 972.217 786.197 957.921 735.646C956.609 731.006 959.306 726.182 963.945 724.87Z" fill="#2D2D2D"/>
<path d="M790.744 928.12C1047.04 928.12 1254.8 720.353 1254.8 464.06C1254.8 207.767 1047.04 0 790.744 0C534.45 0 326.684 207.767 326.684 464.06C326.684 720.353 534.45 928.12 790.744 928.12Z" fill="#F2D359"/>
<path d="M618.586 741.73C623.407 741.679 627.357 745.546 627.408 750.367C627.759 783.272 630.123 842.224 582.756 878.818C564.447 892.967 539.667 902.011 513.19 908.294C486.593 914.605 457.431 918.316 429.847 921.301C402.014 924.312 376.09 926.561 355.015 929.946C344.52 931.632 335.592 933.548 328.51 935.858C321.26 938.224 316.839 940.725 314.522 943.043C314.542 943.023 314.409 943.156 314.15 943.547C313.897 943.928 313.583 944.467 313.22 945.194C312.487 946.663 311.678 948.65 310.829 951.183C309.131 956.247 307.452 962.946 305.905 970.896C302.819 986.768 300.396 1006.94 299.311 1027.56C298.224 1048.2 298.496 1068.97 300.676 1086.11C301.767 1094.68 303.308 1102.12 305.29 1108.08C307.314 1114.16 309.574 1118.02 311.671 1120.12L312.159 1120.59C313.729 1122.07 314.677 1122.5 315.035 1122.62C315.243 1122.5 315.628 1122.21 316.197 1121.58C317.594 1120.04 319.238 1117.35 320.998 1113.28C322.717 1109.31 324.343 1104.52 325.911 1099.17C329.086 1088.34 331.721 1076.35 334.5 1065.22C335.859 1059.77 337.253 1054.54 338.73 1050.06C340.148 1045.74 341.875 1041.36 344.135 1038.09C348.857 1031.25 356.335 1027.69 364.033 1025.65C371.781 1023.6 381.033 1022.75 390.864 1022.3C411.192 1021.36 434.408 1022.02 459.948 1019.31C504.567 1014.58 595.631 1022.31 685.336 949.685C738.207 906.868 747.162 840.737 743.347 781.754C743.036 776.943 746.684 772.79 751.495 772.479C756.307 772.167 760.459 775.815 760.771 780.626C764.695 841.302 755.971 914.95 696.323 963.254L696.322 963.255C603.008 1038.81 506.437 1032.48 463.78 1036.47L461.789 1036.67C435.721 1039.43 410.197 1038.88 391.669 1039.74C382.073 1040.18 374.368 1040.98 368.508 1042.53C362.598 1044.1 359.816 1046.11 358.503 1048.01C357.746 1049.11 356.644 1051.47 355.316 1055.51C354.045 1059.37 352.774 1064.1 351.44 1069.45C348.833 1079.89 345.969 1092.82 342.666 1104.08C340.996 1109.78 339.139 1115.33 337.021 1120.22C334.944 1125.02 332.396 1129.71 329.139 1133.3C325.827 1136.96 321.02 1140.26 314.743 1140.12C308.708 1139.99 303.558 1136.69 299.327 1132.46L299.326 1132.46C294.486 1127.62 291.139 1120.85 288.723 1113.59C286.265 1106.2 284.533 1097.56 283.356 1088.31C281 1069.8 280.756 1047.91 281.875 1026.64C282.996 1005.35 285.502 984.353 288.767 967.563C290.396 959.183 292.248 951.677 294.275 945.632C296.151 940.037 298.624 934.25 302.176 930.697C307.396 925.478 314.931 921.923 323.094 919.26C331.425 916.542 341.369 914.454 352.245 912.707C373.913 909.227 400.731 906.889 427.969 903.941C455.456 900.967 483.695 897.348 509.158 891.306C534.741 885.235 556.68 876.903 572.081 865.002H572.082C611.515 834.537 610.319 785.287 609.949 750.553C609.898 745.732 613.765 741.782 618.586 741.73Z" fill="#2D2D2D"/>
<path d="M357.434 482.4C357.434 645.53 441.604 788.99 568.884 871.74C424.584 793.05 326.684 639.99 326.684 464.05C326.684 207.76 534.444 0 790.734 0C883.834 0 970.524 27.41 1043.18 74.62C977.314 38.73 901.784 18.34 821.494 18.34C565.204 18.34 357.434 226.11 357.434 482.4Z" fill="#7D6917"/>
<path d="M233.537 404.777C269.24 395.624 307.833 392.732 339.593 394.078C344.41 394.282 348.149 398.353 347.945 403.17C347.741 407.987 343.67 411.726 338.853 411.522C308.543 410.238 271.686 413.021 237.874 421.69C203.846 430.414 174.147 444.777 156.697 465.701C129.943 497.784 122.618 528.28 119.793 554.845C119.079 561.555 118.653 568.018 118.273 574.287C117.898 580.489 117.562 586.625 117.031 592.362C115.982 603.693 114.081 614.915 108.537 624.292L108.538 624.293C102.809 633.985 91.967 641.737 81.0458 648.094C69.8912 654.586 56.9538 660.542 45.9247 665.893C34.3937 671.488 25.4355 676.21 20.4765 680.514C18.8537 681.923 18.1631 682.87 17.8827 683.339C17.9816 683.47 18.1212 683.645 18.3242 683.864C20.608 686.327 25.1929 687.963 33.5283 687.182C41.5925 686.427 51.1567 683.559 60.665 679.79C70.0728 676.06 78.9418 671.645 85.496 668.136C88.7616 666.388 91.4262 664.879 93.2636 663.813C94.1816 663.281 94.8922 662.861 95.3661 662.577C95.6028 662.435 95.7804 662.327 95.8954 662.258C95.9527 662.223 95.9947 662.197 96.0204 662.181C96.0332 662.174 96.0421 662.168 96.0468 662.165L96.0507 662.163C100.041 659.71 105.257 660.843 107.869 664.731C110.482 668.62 109.559 673.876 105.779 676.643V676.645C105.778 676.646 105.775 676.648 105.771 676.65C105.764 676.655 105.753 676.664 105.737 676.676C105.705 676.699 105.655 676.736 105.589 676.785C105.455 676.883 105.254 677.032 104.99 677.228C104.462 677.621 103.684 678.203 102.699 678.948C100.729 680.44 97.936 682.583 94.6679 685.175C88.1069 690.377 79.7345 697.301 72.2636 704.338C64.7647 711.401 58.9761 717.847 56.3886 722.447C60.6441 722.824 66.0076 721.846 72.3007 719.445C79.4748 716.708 86.963 712.469 93.8954 707.868C100.788 703.293 106.897 698.519 111.295 694.874C113.487 693.057 115.238 691.533 116.431 690.473C117.027 689.944 117.483 689.532 117.783 689.258C117.933 689.12 118.045 689.017 118.115 688.952C118.15 688.919 118.176 688.896 118.19 688.883C118.198 688.876 118.202 688.871 118.204 688.869C118.205 688.868 118.206 688.868 118.206 688.868C121.506 685.777 126.62 685.718 129.991 688.732C133.363 691.747 133.875 696.838 131.169 700.463L131.168 700.462V700.463C131.167 700.464 131.165 700.467 131.162 700.47C131.157 700.478 131.148 700.49 131.136 700.507C131.111 700.539 131.074 700.59 131.023 700.658C130.923 700.794 130.772 700.998 130.574 701.266C130.179 701.803 129.599 702.595 128.871 703.601C127.414 705.614 125.367 708.479 123.018 711.87C118.297 718.686 112.45 727.495 107.722 735.748C105.418 739.769 103.454 743.531 102.025 746.783C117.572 739.444 134.233 727.067 147.576 715.886C154.6 710.001 160.555 704.574 164.749 700.625C166.844 698.652 168.494 697.051 169.614 695.952C170.174 695.402 170.601 694.978 170.884 694.695C171.025 694.554 171.131 694.448 171.199 694.38C171.233 694.345 171.257 694.32 171.272 694.304L171.289 694.288L171.544 694.04C174.212 691.539 178.173 690.958 181.458 692.622H181.457C181.458 692.622 181.46 692.623 181.463 692.625C181.468 692.628 181.478 692.633 181.491 692.639C181.518 692.653 181.561 692.674 181.618 692.703C181.733 692.761 181.909 692.848 182.141 692.964C182.605 693.194 183.296 693.535 184.183 693.966C185.956 694.826 188.509 696.044 191.599 697.458C197.798 700.295 206.069 703.881 214.501 706.958C223.059 710.081 231.257 712.482 237.47 713.238C239.636 713.502 241.245 713.523 242.37 713.427C241.679 711.639 240.277 709.169 237.973 705.946C233.247 699.337 226.178 691.489 218.185 682.453C210.39 673.639 201.891 663.88 195.096 654.083C188.414 644.45 182.634 633.757 181.392 623.056L181.391 623.055C174.521 563.818 199.771 523.376 235.644 500.675C270.908 478.359 316.2 473.295 350.369 483.27C354.997 484.621 357.654 489.468 356.303 494.096C354.951 498.725 350.105 501.381 345.477 500.03C316.105 491.455 275.998 495.801 244.981 515.428C214.575 534.67 192.665 568.701 198.734 621.043C199.467 627.353 203.198 635.128 209.442 644.131C215.573 652.97 223.418 662.015 231.264 670.885C238.912 679.532 246.782 688.248 252.176 695.792C254.875 699.567 257.313 703.53 258.775 707.443C260.201 711.257 261.2 716.391 258.917 721.438C256.561 726.644 251.984 729.148 247.824 730.182C243.832 731.175 239.439 731.067 235.36 730.57C227.119 729.567 217.409 726.606 208.516 723.36C199.495 720.068 190.768 716.279 184.333 713.334C182.418 712.457 180.699 711.652 179.226 710.952C178.473 711.673 177.636 712.472 176.719 713.336C172.338 717.461 166.128 723.12 158.79 729.269C144.274 741.433 124.729 756.042 105.951 764.171C103.397 765.276 100.898 766.131 98.5126 766.57C96.203 766.995 93.3383 767.154 90.4716 766.164C87.2537 765.052 84.8025 762.747 83.4638 759.756C82.2745 757.098 82.1826 754.414 82.3388 752.39C82.6472 748.394 84.1824 744.031 85.8906 740.096C87.2832 736.889 89.0157 733.472 90.912 730.024C86.8888 732.185 82.7238 734.156 78.5243 735.759C69.8396 739.072 60.0641 741.189 50.8076 739.244V739.243C45.7449 738.18 40.1387 735.253 38.3388 728.741C36.8336 723.295 38.9257 718.065 40.7822 714.595C42.9917 710.466 46.4157 706.046 50.3603 701.677C45.2439 703.065 40.1026 704.103 35.1562 704.566C24.9583 705.521 13.3825 704.213 5.52142 695.736C1.54579 691.449 -0.702887 685.954 0.669857 679.846C1.87333 674.492 5.53714 670.362 9.03118 667.329C16.0638 661.224 27.2737 655.536 38.3036 650.184C49.8358 644.589 61.8532 639.063 72.2626 633.004C82.905 626.809 90.237 620.941 93.5077 615.408L93.5087 615.406C96.9639 609.563 98.6358 601.661 99.6454 590.753C100.144 585.37 100.459 579.608 100.845 573.232C101.227 566.924 101.672 560.128 102.431 552.999C105.493 524.209 113.653 490.056 143.288 454.519V454.518C164.168 429.482 198.05 413.875 233.537 404.777Z" fill="#2D2D2D"/>
<path d="M1008.5 314.31C987.251 238.09 932.761 182.25 886.791 189.6C840.821 196.94 820.791 264.68 842.031 340.91C863.281 417.13 917.771 472.97 963.741 465.62C1009.71 458.28 1029.74 390.54 1008.5 314.31Z" fill="white"/>
<path d="M885.413 180.979C912.426 176.66 940.223 191.012 963.164 214.519C985.971 237.889 1005.33 271.547 1016.39 310.125L1016.91 311.966L1016.91 311.967C1027.87 351.283 1028.36 388.986 1019.7 418.275C1011.06 447.48 992.655 469.844 965.118 474.241L965.117 474.24C938.104 478.558 910.308 464.207 887.368 440.701C864.199 416.96 844.592 382.602 833.622 343.255V343.253C822.667 303.936 822.172 266.234 830.835 236.945C839.474 207.741 857.875 185.378 885.413 180.98V180.979ZM950.667 226.714C929.558 205.084 907.126 195.19 888.169 198.221H888.167C869.736 201.164 855.138 216.34 847.579 241.897C840.044 267.371 840.156 301.653 850.441 338.566H850.44C860.72 375.438 878.983 407.11 899.864 428.507C920.973 450.137 943.406 460.031 962.363 457L962.365 456.999C980.796 454.056 995.393 438.879 1002.95 413.322C1010.49 387.849 1010.38 353.567 1000.09 316.654C989.811 279.782 971.548 248.11 950.667 226.714Z" fill="#231F20"/>
<path d="M1000.96 313.26C982.132 263.43 945.552 225.4 919.252 228.32C892.952 231.24 886.892 274.01 905.712 323.85C924.542 373.68 961.122 411.71 987.422 408.79C1013.72 405.87 1019.78 363.09 1000.96 313.26Z" fill="#231F20"/>
<path d="M918.288 219.643C935.678 217.712 953.971 229.124 969.2 244.956C984.651 261.018 998.892 283.565 1008.67 308.962L1009.13 310.174L1009.13 310.175C1018.88 335.987 1022.47 360.666 1019.76 379.841C1017.08 398.717 1007.45 415.35 988.385 417.466C970.995 419.397 952.703 407.986 937.474 392.154C921.778 375.837 907.33 352.827 897.546 326.936L897.545 326.934C887.797 301.118 884.201 276.439 886.918 257.265C889.593 238.389 899.224 221.76 918.288 219.643ZM956.616 257.061C942.273 242.151 929.125 236.007 920.215 236.996C912.979 237.8 906.43 244.017 904.205 259.715C902.023 275.116 904.807 296.741 913.878 320.764L914.738 322.999C923.753 346.004 936.615 366.075 950.058 380.049C964.4 394.959 977.549 401.103 986.459 400.114C993.694 399.31 1000.24 393.092 1002.47 377.391C1004.65 361.989 1001.87 340.363 992.795 316.344V316.343C983.749 292.406 970.492 271.486 956.616 257.061Z" fill="#231F20"/>
<path d="M827.423 303.55C806.173 227.33 751.683 171.49 705.713 178.84C659.743 186.18 639.713 253.92 660.953 330.15C682.203 406.37 736.693 462.21 782.663 454.86C828.633 447.52 848.663 379.78 827.423 303.55Z" fill="white"/>
<path d="M704.334 170.219C731.347 165.9 759.145 180.252 782.085 203.759C804.892 227.129 824.248 260.787 835.311 299.365L835.832 301.206L835.833 301.207C846.787 340.523 847.281 378.225 838.618 407.514C829.979 436.72 811.578 459.084 784.04 463.481L784.039 463.48C757.026 467.798 729.23 453.447 706.29 429.941C683.121 406.2 663.514 371.842 652.543 332.495V332.493C641.589 293.176 641.094 255.474 649.757 226.185C658.395 196.981 676.797 174.618 704.334 170.22V170.219ZM769.589 215.954C748.48 194.324 726.048 184.43 707.091 187.461H707.089C688.657 190.404 674.06 205.58 666.5 231.137C658.966 256.611 659.078 290.893 669.363 327.806H669.362C679.642 364.678 697.905 396.35 718.786 417.747C739.895 439.377 762.328 449.271 781.285 446.24L781.287 446.239C799.718 443.296 814.315 428.119 821.874 402.562C829.409 377.089 829.298 342.807 819.013 305.894C808.733 269.022 790.47 237.35 769.589 215.954Z" fill="#231F20"/>
<path d="M819.872 302.51C801.042 252.67 764.462 214.65 738.162 217.57C711.862 220.49 705.802 263.26 724.622 313.1C743.442 362.94 780.032 400.96 806.332 398.04C832.632 395.12 838.692 352.34 819.872 302.51Z" fill="#231F20"/>
<path d="M737.198 208.893C754.587 206.962 772.879 218.371 788.109 234.203C803.56 250.264 817.802 272.811 827.576 298.213L828.039 299.424V299.425C837.788 325.237 841.383 349.916 838.666 369.091C835.991 387.967 826.36 404.601 807.295 406.717C789.906 408.648 771.612 397.239 756.381 381.408C740.683 365.092 726.234 342.082 716.455 316.184C706.707 290.368 703.111 265.689 705.828 246.515C708.503 227.639 718.134 211.01 737.198 208.893ZM775.527 246.307C761.185 231.399 748.036 225.257 739.125 226.247C731.889 227.05 725.34 233.267 723.115 248.965C720.933 264.366 723.717 285.992 732.789 310.016C741.83 333.958 755.086 354.878 768.963 369.302C783.306 384.211 796.458 390.353 805.369 389.364C812.604 388.56 819.153 382.342 821.378 366.641C823.56 351.239 820.776 329.613 811.705 305.595C802.659 281.652 789.403 260.731 775.527 246.307Z" fill="#231F20"/>
<path d="M990.932 596.08C979.582 554.12 907.152 564.96 801.012 537.3C694.872 509.64 631.352 457.79 606.552 495.91C583.822 530.86 617.012 647.2 762.482 685.11C898.662 720.6 1001.81 636.33 990.932 596.08Z" fill="#231F20"/>
<path d="M632.422 473.676C645.213 473.598 660.08 477.883 676.249 483.727C709.467 495.733 750.618 515.145 803.216 528.852C855.934 542.59 899.325 546.57 933.09 552.74C949.597 555.756 964.17 559.381 975.48 565.368C987.004 571.467 995.494 580.222 999.188 593.18L999.361 593.8V593.802C1003.17 607.877 996.709 623.593 985.831 637.372C974.655 651.528 957.484 665.455 935.9 676.735C892.636 699.345 830.584 711.879 760.282 693.558C685.496 674.068 638.904 634.197 614.02 593.995C601.618 573.957 594.585 553.792 592.219 536.039C589.889 518.56 591.965 502.33 599.235 491.151L599.236 491.149C607.268 478.803 618.838 473.759 632.422 473.676ZM632.528 491.135C623.911 491.188 618.24 493.957 613.872 500.67L613.871 500.669C609.777 506.965 607.479 518.384 609.525 533.732C611.535 548.807 617.63 566.651 628.867 584.805C651.263 620.988 694.002 658.242 764.685 676.663C830.563 693.831 888.177 681.974 927.812 661.26C947.678 650.878 962.767 638.408 972.127 626.552C981.783 614.321 984.141 604.41 982.507 598.36L982.305 597.646C980.13 590.34 975.433 585.097 967.312 580.799C958.533 576.153 946.237 572.891 929.951 569.915C898.129 564.1 852.234 559.669 798.812 545.748C745.271 531.795 701.591 511.452 670.314 500.148C654.236 494.337 641.938 491.078 632.528 491.135Z" fill="#231F20"/>
<path d="M844.52 693.04C819.21 694.8 791.6 692.7 762.48 685.11C685.83 665.13 640.37 623.39 617.82 583.24C660.57 569.29 718.98 569.08 772.52 604.46C811.07 629.93 833.32 661.72 844.52 693.03V693.04Z" fill="#FF86F7"/>
<path d="M615.116 574.941C659.938 560.315 721.202 560.082 777.337 597.176L779.206 598.424C818.201 624.735 841.096 657.529 852.744 690.089C853.081 691.033 853.253 692.028 853.254 693.03V693.04C853.254 697.626 849.705 701.43 845.13 701.749C819.714 703.516 792.118 701.524 763.095 694.276L760.282 693.558C681.462 673.013 633.986 629.843 610.213 587.515C608.933 585.236 608.74 582.503 609.69 580.068C610.64 577.633 612.631 575.752 615.116 574.941ZM767.711 611.744C721.094 580.939 670.618 578.481 631.212 588.455C654.191 623.484 696.389 658.86 764.686 676.663C788.284 682.813 810.812 685.227 831.831 684.855C820.214 658.943 800.049 633.109 767.712 611.744H767.711Z" fill="#231F20"/>
<path d="M1091.59 101.68V32.5C1091.59 25.5964 1097.19 20 1104.09 20C1110.99 20 1116.59 25.5964 1116.59 32.5V101.68C1116.59 108.583 1110.99 114.18 1104.09 114.18C1097.19 114.18 1091.59 108.583 1091.59 101.68Z" fill="#50DB8A"/>
<path d="M1138.68 54.59C1145.58 54.59 1151.18 60.1864 1151.18 67.09C1151.18 73.9935 1145.58 79.59 1138.68 79.59H1069.5C1062.6 79.59 1057 73.9935 1057 67.09C1057 60.1864 1062.6 54.59 1069.5 54.59H1138.68Z" fill="#50DB8A"/>
<path d="M1117.09 204.6V158.59C1117.09 153.067 1121.57 148.59 1127.09 148.59C1132.61 148.59 1137.09 153.067 1137.09 158.59V204.6C1137.09 210.123 1132.61 214.6 1127.09 214.6C1121.57 214.6 1117.09 210.123 1117.09 204.6Z" fill="#50DB8A"/>
<path d="M1150.09 171.59C1155.61 171.589 1160.09 176.065 1160.09 181.588C1160.09 187.111 1155.61 191.589 1150.09 191.59L1104.09 191.6C1098.57 191.601 1094.09 187.124 1094.09 181.602C1094.09 176.079 1098.57 171.601 1104.09 171.6L1150.09 171.59Z" fill="#50DB8A"/>
<path d="M1204.28 35.38C1212.56 35.3795 1219.28 42.0948 1219.28 50.379L1219.29 181.599C1219.29 189.883 1212.58 196.599 1204.29 196.6C1196.01 196.6 1189.29 189.885 1189.29 181.601L1189.28 50.381C1189.28 42.0968 1196 35.3806 1204.28 35.38Z" fill="#50DB8A"/>
<path d="M1269.89 100.99C1278.17 100.99 1284.89 107.706 1284.89 115.99C1284.89 124.274 1278.17 130.99 1269.89 130.99H1138.68C1130.4 130.99 1123.68 124.274 1123.68 115.99C1123.68 107.706 1130.4 100.99 1138.68 100.99H1269.89Z" fill="#50DB8A"/>
</svg>
