<svg width="1216" height="1250" viewBox="0 0 1216 1250" fill="none" xmlns="http://www.w3.org/2000/svg">
<path d="M970.983 390.378C971.826 482.618 940.99 567.626 888.685 635.172C802.173 746.902 754.227 883.681 754.227 1025V1027H399.769V1025.15C399.769 884.054 352.4 747.174 265.799 635.8C213.905 569.058 183 485.178 183 394.079C183.006 176.787 358.845 0.565462 575.962 0.00136191C792.116 -0.562738 969 174.182 970.983 390.372V390.378Z" fill="#F2D359"/>
<path d="M635.906 1027.9C635.906 953.997 658.4 891.565 679.537 837.731C690.155 810.687 700.327 786.07 707.403 762.943C714.466 739.858 718.248 718.838 716.363 699.174C712.525 659.133 694.861 633.457 670.741 617.591C646.353 601.549 614.814 595.194 583.002 595.194C551.19 595.194 519.651 601.549 495.263 617.591C471.142 633.457 453.479 659.134 449.641 699.174C447.748 718.927 451.527 739.999 458.588 763.108C465.663 786.259 475.835 810.876 486.455 837.905C507.595 891.711 530.097 954.059 530.097 1027.9C530.097 1031.27 527.376 1034 524.02 1034C520.663 1034 517.942 1031.27 517.942 1027.9C517.942 956.528 496.223 896.022 475.146 842.377C464.657 815.681 454.221 790.424 446.966 766.682C439.699 742.897 435.428 720.056 437.541 698.007C441.717 654.443 461.264 625.373 488.598 607.393C515.665 589.589 549.825 583 583.002 583C616.179 583 650.339 589.589 677.406 607.393C704.74 625.373 724.287 654.443 728.463 698.007C730.568 719.973 726.292 742.765 719.024 766.521C711.768 790.235 701.333 815.491 690.846 842.199C669.774 895.87 648.062 956.463 648.062 1027.9C648.062 1031.27 645.341 1034 641.984 1034C638.628 1034 635.907 1031.27 635.906 1027.9Z" fill="#2D2D2D"/>
<path d="M765.279 1027H387.721C354.186 1027 327 1054.25 327 1087.85V1189.15C327 1222.75 354.186 1250 387.721 1250H765.279C798.814 1250 826 1222.75 826 1189.15V1087.85C826 1054.25 798.814 1027 765.279 1027Z" fill="#606060"/>
<path d="M757.91 1090C761.274 1090 764 1092.69 764 1096C764 1099.31 761.274 1102 757.91 1102H396.09C392.726 1102 390 1099.31 390 1096C390 1092.69 392.726 1090 396.09 1090H757.91Z" fill="white"/>
<path d="M757.91 1133C761.274 1133 764 1135.69 764 1139C764 1142.31 761.274 1145 757.91 1145H396.09C392.726 1145 390 1142.31 390 1139C390 1135.69 392.726 1133 396.09 1133H757.91Z" fill="white"/>
<path d="M757.91 1175C761.274 1175 764 1177.69 764 1181C764 1184.31 761.274 1187 757.91 1187H396.09C392.726 1187 390 1184.31 390 1181C390 1177.69 392.726 1175 396.09 1175H757.91Z" fill="white"/>
<path d="M450.363 260.559C463.801 212.186 498.26 176.748 527.331 181.412C556.402 186.071 569.069 229.062 555.637 277.441C542.199 325.814 507.74 361.252 478.669 356.588C449.598 351.929 436.931 308.938 450.363 260.559Z" fill="white"/>
<path d="M478.617 196.745C493.146 181.822 510.712 172.754 527.746 175.483C545.1 178.261 556.727 192.389 562.193 210.913C567.674 229.489 567.366 253.418 560.425 278.387V278.388C553.475 303.376 541.053 325.189 526.384 340.255C511.854 355.178 494.287 364.247 477.253 361.517V361.516C459.899 358.738 448.273 344.61 442.807 326.086C437.325 307.511 437.634 283.581 444.575 258.612V258.612C451.526 233.624 463.948 211.811 478.617 196.745ZM526.068 186.009C513.941 184.065 499.642 190.412 486.227 204.19C472.952 217.825 461.35 237.998 454.82 261.474C448.287 284.976 448.211 306.818 453.005 323.063C457.814 339.36 467.123 349.101 478.931 350.991H478.932C491.06 352.934 505.358 346.587 518.773 332.809C532.048 319.175 543.65 299.002 550.18 275.525C556.713 252.024 556.789 230.182 551.995 213.937C547.186 197.64 537.877 187.899 526.07 186.009L526.068 186.009Z" fill="#2D2D2D"/>
<path d="M454.913 259.661C466.809 228.239 489.918 204.258 506.533 206.099C523.148 207.941 526.977 234.911 515.087 266.339C503.191 297.761 480.082 321.742 463.467 319.901C446.852 318.059 443.023 291.083 454.913 259.661Z" fill="#2D2D2D"/>
<path d="M475.589 216.213C485.246 206.127 496.793 198.915 507.725 200.134C519.677 201.468 525.752 211.942 527.444 223.94C529.162 236.122 526.891 251.823 520.711 268.266L520.71 268.267C514.509 284.756 505.352 299.404 495.411 309.787C485.754 319.873 474.208 327.085 463.276 325.866C451.323 324.532 445.248 314.056 443.556 302.057C441.838 289.875 444.11 274.173 450.29 257.734L450.29 257.733C456.492 241.244 465.648 226.596 475.589 216.213ZM506.551 210.762C500.787 210.119 492.375 214.104 483.259 223.625C474.428 232.85 465.997 246.219 460.245 261.511L460.245 261.512C454.478 276.853 452.7 290.686 454.092 300.557C455.511 310.612 459.708 314.709 464.45 315.238C470.213 315.881 478.625 311.896 487.741 302.375C496.573 293.15 505.003 279.78 510.755 264.487C516.522 249.142 518.3 235.311 516.908 225.44C515.489 215.388 511.293 211.291 506.551 210.762Z" fill="#2D2D2D"/>
<path d="M565.363 253.559C578.801 205.186 613.26 169.748 642.331 174.412C671.402 179.071 684.069 222.062 670.637 270.441C657.199 318.814 622.74 354.252 593.669 349.588C564.598 344.929 551.931 301.938 565.363 253.559Z" fill="white"/>
<path d="M593.617 190.629C608.146 175.786 625.712 166.766 642.746 169.481C660.1 172.243 671.727 186.296 677.193 204.721C682.674 223.197 682.366 246.999 675.425 271.835V271.835C668.475 296.689 656.053 318.385 641.384 333.371C626.854 348.214 609.287 357.235 592.253 354.519V354.519C574.899 351.756 563.273 337.703 557.807 319.278C552.325 300.803 552.634 277.001 559.575 252.165V252.165C566.526 227.31 578.948 205.614 593.617 190.629ZM641.068 179.95C628.941 178.017 614.642 184.33 601.227 198.034C587.952 211.596 576.35 231.661 569.82 255.012C563.287 278.388 563.211 300.113 568.005 316.271C572.814 332.481 582.123 342.17 593.931 344.049H593.932C606.06 345.983 620.358 339.669 633.773 325.965C647.048 312.404 658.65 292.338 665.18 268.987C671.713 245.612 671.789 223.887 666.995 207.729C662.186 191.519 652.877 181.83 641.07 179.95L641.068 179.95Z" fill="#2D2D2D"/>
<path d="M569.913 252.661C581.809 221.233 604.918 197.258 621.533 199.099C638.148 200.941 641.977 227.911 630.087 259.339C618.198 290.767 595.082 314.742 578.467 312.901C561.852 311.059 558.023 284.083 569.913 252.661Z" fill="#2D2D2D"/>
<path d="M589.59 209.21C599.247 199.125 610.793 191.915 621.725 193.134C633.677 194.468 639.752 204.942 641.444 216.94C643.162 229.122 640.891 244.823 634.711 261.266C628.512 277.758 619.355 292.408 609.413 302.79C599.755 312.876 588.207 320.085 577.276 318.866C565.323 317.532 559.248 307.056 557.556 295.057C555.838 282.875 558.11 267.173 564.29 250.734V250.733C570.491 234.241 579.649 219.593 589.59 209.21ZM620.551 203.762C614.787 203.119 606.374 207.103 597.259 216.623C588.427 225.847 579.997 239.216 574.245 254.512C568.478 269.854 566.7 283.686 568.092 293.557C569.511 303.612 573.708 307.709 578.45 308.238C584.214 308.881 592.627 304.897 601.744 295.377C610.576 286.153 619.006 272.784 624.755 257.489C630.522 242.143 632.3 228.312 630.907 218.441C629.489 208.388 625.293 204.291 620.551 203.762Z" fill="#2D2D2D"/>
<path d="M461.499 439.114C468.685 412.495 514.545 419.372 581.749 401.825C648.953 384.278 689.171 351.385 704.874 375.568C719.266 397.739 698.251 471.543 606.145 495.593C519.921 518.107 454.61 464.648 461.499 439.114Z" fill="#2D2D2D"/>
<path d="M688.149 361.001C696.567 361.052 703.735 364.134 708.771 371.651L709.009 372.013L709.01 372.013C713.58 379.061 714.899 389.323 713.425 400.412C711.929 411.669 707.481 424.464 699.632 437.184C683.884 462.701 654.389 488.025 607.02 500.407C562.497 512.044 523.206 504.082 495.819 489.726C482.154 482.563 471.292 473.724 464.228 464.75C457.346 456.006 453.304 446.085 455.689 437.235L455.689 437.235C457.951 428.848 463.341 423.208 470.722 419.289C477.862 415.499 487.074 413.198 497.538 411.28C518.924 407.361 546.469 404.824 579.907 396.085C613.271 387.364 639.397 375.006 660.436 367.38C670.687 363.664 680.081 360.952 688.149 361.001ZM688.085 371.662C682.076 371.625 674.245 373.711 664.049 377.407C644.192 384.605 616.527 397.531 582.588 406.402C548.722 415.253 519.652 418.065 499.449 421.768C489.12 423.661 481.293 425.74 475.695 428.712C470.338 431.556 467.287 435.062 465.95 440.017C464.886 443.967 466.432 450.344 472.572 458.144C478.53 465.713 488.124 473.662 500.742 480.276C525.921 493.474 562.51 501.023 604.339 490.089C649.21 478.361 676.36 454.635 690.592 431.572C697.733 420.003 701.609 408.625 702.888 399.004C704.189 389.215 702.735 381.892 700.098 377.826V377.827C697.282 373.486 693.612 371.696 688.085 371.662Z" fill="#2D2D2D"/>
<path d="M554 500.628C570.077 501.75 587.615 500.411 606.112 495.569C654.8 482.824 683.676 456.197 698 430.586C670.845 421.687 633.743 421.553 599.734 444.122C575.247 460.369 561.114 480.648 554 500.621V500.628Z" fill="#FC4AF0"/>
<path d="M596.922 439.847C632.363 416.416 671.043 416.563 699.343 425.801C700.852 426.294 702.061 427.437 702.638 428.917C703.215 430.397 703.098 432.057 702.321 433.441C687.314 460.172 657.335 487.454 607.533 500.441C588.547 505.392 570.506 506.771 553.935 505.618C551.156 505.424 549 503.113 549 500.326V500.32C549 499.711 549.105 499.107 549.31 498.534C556.779 477.646 571.575 456.601 596.922 439.847ZM689.584 434.006C664.564 427.593 632.433 429.086 602.768 448.697L602.767 448.698C582.151 462.325 569.338 478.825 561.995 495.362C575.404 495.629 589.787 494.105 604.858 490.175C648.277 478.852 675.055 456.305 689.584 434.006Z" fill="#2D2D2D"/>
<path d="M1098.03 134.393C1105.56 129.419 1115.6 126.2 1124.98 132.449L1125.43 132.753L1125.43 132.754C1133.92 138.701 1134.58 149.33 1133.57 157.721C1133.23 160.586 1132.65 163.565 1131.9 166.593C1135.62 163.164 1139.46 160.074 1143.31 157.638C1151.13 152.698 1161.64 148.894 1171.18 154.944H1171.18C1180.97 161.153 1181.5 172.388 1179.84 181.434C1179.06 185.638 1177.72 190.056 1176.03 194.497C1178.31 193.16 1180.64 191.997 1182.99 191.074C1191.81 187.602 1202.08 187.183 1210.61 194.883L1211.01 195.255L1211.01 195.256C1214.75 198.774 1215.8 203.755 1215.97 207.98C1216.15 212.404 1215.43 217.532 1214.13 223.043C1211.51 234.117 1206.2 248.228 1198.76 264.321C1183.84 296.597 1159.83 337.986 1129.73 381.119C1069.71 467.139 984.381 561.616 896.936 604.23C893.159 606.071 888.607 604.498 886.769 600.718C884.931 596.938 886.502 592.382 890.278 590.542C974.161 549.664 1057.66 457.815 1117.26 372.4C1146.98 329.816 1170.49 289.209 1184.95 257.928C1192.2 242.243 1197.05 229.185 1199.32 219.54C1200.47 214.691 1200.88 211.071 1200.78 208.589C1200.72 207.067 1200.48 206.383 1200.4 206.173C1197.55 203.618 1194.02 203.09 1188.55 205.243C1182.65 207.566 1175.94 212.6 1169.33 218.9C1162.84 225.088 1156.96 231.987 1152.67 237.397C1151.27 239.162 1150.05 240.755 1149.05 242.097C1148.63 242.693 1148.24 243.239 1147.88 243.729C1147.2 244.678 1146.66 245.424 1146.28 245.937C1146.09 246.194 1145.94 246.393 1145.84 246.53C1145.79 246.598 1145.75 246.651 1145.72 246.689C1145.7 246.707 1145.69 246.722 1145.69 246.733C1145.68 246.738 1145.68 246.742 1145.68 246.746C1145.67 246.747 1145.67 246.749 1145.67 246.75L1139.6 242.163C1133.44 237.923 1133.34 237.851 1133.34 237.848C1133.34 237.847 1133.34 237.845 1133.34 237.844C1133.34 237.84 1133.35 237.835 1133.35 237.83C1133.36 237.819 1133.37 237.804 1133.38 237.785C1133.41 237.748 1133.44 237.696 1133.49 237.63C1133.58 237.497 1133.71 237.307 1133.89 237.064C1134.23 236.579 1134.73 235.881 1135.37 235.007C1135.77 234.456 1136.23 233.835 1136.74 233.153C1137.87 231.554 1139.25 229.576 1140.78 227.304C1145.04 220.979 1150.44 212.473 1155.12 203.599C1159.86 194.6 1163.57 185.77 1164.88 178.676C1166.25 171.228 1164.57 168.773 1163.04 167.803C1161.35 166.733 1158.04 166.337 1151.43 170.511C1145.17 174.469 1138.24 181.211 1131.59 188.888C1125.02 196.468 1119.08 204.532 1114.76 210.742C1112.61 213.837 1110.87 216.45 1109.68 218.28C1109.09 219.195 1108.63 219.913 1108.32 220.397C1108.17 220.639 1108.05 220.823 1107.98 220.944C1107.94 221.004 1107.91 221.049 1107.89 221.076C1107.89 221.09 1107.88 221.1 1107.88 221.106C1107.87 221.108 1107.87 221.109 1107.87 221.11C1105.68 224.665 1101.02 225.781 1097.46 223.609C1093.89 221.436 1092.74 216.789 1094.88 213.2C1094.88 213.199 1094.88 213.198 1094.88 213.196C1094.88 213.191 1094.89 213.182 1094.9 213.169C1094.91 213.143 1094.94 213.102 1094.97 213.046C1095.04 212.934 1095.14 212.763 1095.27 212.536C1095.53 212.082 1095.93 211.405 1096.42 210.534C1097.41 208.79 1098.81 206.272 1100.44 203.205C1103.7 197.052 1107.81 188.779 1111.33 180.163C1114.89 171.442 1117.64 162.841 1118.47 155.91C1119.37 148.405 1117.73 145.94 1116.71 145.228C1114.79 143.882 1111.94 143.448 1106.4 147.104C1100.88 150.742 1094.85 157.225 1089.06 164.832C1083.36 172.314 1078.3 180.343 1074.64 186.555C1072.82 189.648 1071.36 192.262 1070.36 194.095C1069.86 195.011 1069.48 195.73 1069.23 196.214C1069.1 196.456 1069 196.639 1068.94 196.759C1068.91 196.819 1068.89 196.863 1068.87 196.891C1068.87 196.904 1068.86 196.914 1068.86 196.919C1068.86 196.922 1068.86 196.924 1068.85 196.924C1068.85 196.924 1068.86 196.924 1068.85 196.924C1066.94 200.663 1062.35 202.139 1058.62 200.22C1054.88 198.3 1053.41 193.712 1055.32 189.972L1061.76 193.277C1055.44 190.032 1055.33 189.971 1055.33 189.969C1055.33 189.968 1055.33 189.966 1055.33 189.964C1055.33 189.96 1055.33 189.956 1055.34 189.95C1055.34 189.938 1055.35 189.922 1055.36 189.902C1055.38 189.862 1055.41 189.805 1055.45 189.732C1055.52 189.586 1055.63 189.376 1055.78 189.106C1056.06 188.566 1056.48 187.787 1057.01 186.807C1058.08 184.849 1059.62 182.084 1061.54 178.822C1065.37 172.322 1070.77 163.737 1076.96 155.604C1083.06 147.597 1090.34 139.466 1098.03 134.393ZM1139.6 242.163L1145.67 246.752C1143.18 250.054 1138.51 250.759 1135.15 248.339C1131.8 245.919 1130.99 241.261 1133.34 237.851L1139.6 242.163Z" fill="#2D2D2D"/>
<path d="M1016.9 142.89C1026.39 132.996 1042.57 130.631 1054.98 139.526C1067.54 148.527 1073.94 167.096 1069.69 194.58C1069.05 198.725 1065.17 201.567 1061.03 200.926C1056.88 200.286 1054.04 196.407 1054.68 192.262C1058.52 167.431 1052 156.074 1046.14 151.872C1040.13 147.566 1032.36 148.721 1027.86 153.405L1027.86 153.406C1026.93 154.376 1025.77 156.543 1024.77 161.214C1023.8 165.757 1023.2 171.545 1022.54 178.848C1021.25 193.209 1019.86 212.266 1014.62 233.979C1004.05 277.784 977.991 331.834 907.125 384.501C903.758 387.002 899.001 386.302 896.499 382.935C893.998 379.569 894.699 374.812 898.065 372.31C965.979 321.838 990.092 270.89 999.859 230.416C1004.79 209.989 1006.11 192.087 1007.42 177.491C1008.06 170.316 1008.73 163.626 1009.92 158.044C1011.08 152.591 1012.97 146.985 1016.9 142.89L1016.9 142.89Z" fill="#2D2D2D"/>
<path d="M95.0004 192.707C104.83 186.012 115.308 189.429 123.181 194.74C131.083 200.07 138.544 208.568 144.79 216.946C151.13 225.452 156.643 234.42 160.548 241.208C162.508 244.615 164.079 247.501 165.165 249.545C165.708 250.567 166.13 251.379 166.42 251.942C166.565 252.224 166.677 252.443 166.754 252.595C166.792 252.671 166.821 252.73 166.842 252.772C166.853 252.792 166.861 252.809 166.867 252.821C166.87 252.827 166.873 252.832 166.874 252.836C166.875 252.838 166.877 252.84 166.877 252.841C166.878 252.842 166.839 252.864 160.096 256.22L166.879 252.843C168.758 256.604 167.227 261.174 163.458 263.049C159.69 264.925 155.113 263.397 153.233 259.637C153.233 259.636 153.232 259.635 153.231 259.632C153.228 259.626 153.223 259.616 153.215 259.602C153.201 259.573 153.177 259.527 153.146 259.464C153.082 259.338 152.984 259.146 152.854 258.893C152.593 258.386 152.202 257.633 151.693 256.675C150.675 254.758 149.186 252.023 147.324 248.787C143.585 242.288 138.406 233.88 132.555 226.031C126.61 218.056 120.381 211.22 114.642 207.349C108.874 203.458 105.761 203.804 103.596 205.278C102.383 206.105 100.66 208.801 101.507 216.621C102.293 223.867 105.063 232.86 108.669 241.966C112.233 250.966 116.425 259.616 119.749 266.049C121.406 269.255 122.836 271.889 123.847 273.713C124.352 274.625 124.752 275.333 125.023 275.809C125.158 276.046 125.261 276.226 125.329 276.343C125.362 276.402 125.387 276.445 125.403 276.472C125.411 276.486 125.417 276.496 125.42 276.501L125.423 276.506L125.519 276.676C127.491 280.262 126.266 284.783 122.719 286.88C119.116 289.011 114.466 287.842 112.303 284.263V284.262C112.303 284.261 112.302 284.259 112.3 284.257C112.297 284.251 112.29 284.241 112.281 284.226C112.263 284.197 112.235 284.15 112.197 284.087C112.119 283.961 112.001 283.768 111.844 283.514C111.53 283.007 111.06 282.255 110.451 281.297C109.231 279.38 107.456 276.644 105.251 273.402C100.826 266.897 94.7323 258.444 87.9728 250.484C81.1298 242.426 73.9713 235.316 67.4605 231.108C60.6087 226.679 57.0161 226.968 55.0939 228.153C53.3304 229.24 51.5669 231.936 52.9108 239.717C54.1933 247.143 57.9681 256.388 62.8072 265.797C67.5811 275.079 73.1079 283.986 77.473 290.609C79.0395 292.986 80.4486 295.057 81.6081 296.731C82.1347 297.45 82.6078 298.103 83.0222 298.683C83.6757 299.596 84.1859 300.325 84.537 300.833C84.7125 301.087 84.8484 301.285 84.9426 301.423C84.9898 301.492 85.0268 301.546 85.0528 301.585C85.0658 301.604 85.0762 301.619 85.0838 301.631C85.0876 301.636 85.0909 301.641 85.0933 301.645C85.0945 301.647 85.0957 301.649 85.0963 301.65C85.0975 301.651 85.0985 301.653 78.7662 305.892L72.6285 310.406C72.6278 310.405 72.6262 310.403 72.6249 310.401C72.6224 310.398 72.6194 310.393 72.6154 310.388C72.6072 310.377 72.5956 310.362 72.5814 310.343C72.5529 310.304 72.5122 310.248 72.4599 310.177C72.3554 310.034 72.2045 309.826 72.0108 309.558C71.623 309.021 71.0639 308.241 70.3649 307.248C70.0025 306.733 69.6021 306.161 69.1683 305.535C68.1352 304.128 66.8831 302.457 65.4459 300.606C61.0387 294.931 54.9897 287.686 48.2902 281.171C41.4734 274.541 34.5208 269.203 28.3462 266.699C22.6027 264.369 18.7919 264.858 15.6818 267.581C15.5928 267.796 15.3238 268.551 15.2612 270.296C15.1638 273.011 15.6189 276.943 16.8427 282.172C19.2766 292.572 24.3931 306.635 31.9315 323.455C46.9683 357.006 71.1365 400.415 100.846 445.331C130.546 490.234 165.651 536.441 202.489 575.654C239.42 614.966 277.668 646.789 313.593 663.49C317.41 665.264 319.063 669.792 317.285 673.601C315.507 677.411 310.972 679.061 307.155 677.287C268.654 659.388 228.834 625.949 191.365 586.064C153.803 546.08 118.175 499.154 88.1199 453.716C58.0739 408.291 33.4648 364.15 18.0114 329.67C10.3047 312.474 4.74714 297.401 1.99339 285.634C0.623445 279.781 -0.143442 274.373 0.0223371 269.751C0.179384 265.374 1.23195 260.153 5.16709 256.549L5.16769 256.548C14.1093 248.36 24.857 248.855 34.0872 252.599C36.7525 253.68 39.3926 255.062 41.9792 256.655C40.1333 251.77 38.6786 246.907 37.8834 242.303C36.2632 232.922 36.9746 221.434 47.081 215.204L47.5433 214.927C57.266 209.258 67.818 213.206 75.7498 218.333C79.9688 221.061 84.1644 224.553 88.2021 228.421C87.3482 224.946 86.7009 221.527 86.3466 218.258C85.4031 209.551 86.2307 198.681 95.0004 192.707ZM85.0987 301.653C87.4069 305.089 86.5433 309.735 83.1539 312.115C79.7643 314.496 75.0903 313.737 72.6303 310.409L78.7662 305.892L85.0987 301.653Z" fill="#2D2D2D"/>
<path d="M168.165 200.504C181.179 191.468 197.961 194.104 207.711 204.429C214.75 211.883 216.667 222.737 217.292 233.196C217.921 243.715 217.286 256.718 217.32 268.938C217.392 294.45 220.238 320.377 238.924 340.165C241.823 343.236 241.667 348.059 238.575 350.938C235.483 353.817 230.626 353.662 227.727 350.592C204.725 326.234 202.044 294.965 201.97 268.981C201.932 255.454 202.57 244.135 201.97 234.1C201.367 224.005 199.553 218.074 196.515 214.857L196.514 214.856C191.754 209.815 183.448 208.492 176.961 212.996C170.623 217.397 163.647 229.297 167.378 255.279C167.977 259.446 165.06 263.306 160.864 263.9C156.668 264.494 152.781 261.598 152.182 257.431C148.068 228.783 155.003 209.643 168.165 200.504Z" fill="#2D2D2D"/>
<path d="M832.323 4.35055e-08C838.861 -0.000548147 844.163 5.17957 844.163 11.5701L844.169 79.083C844.17 85.4736 838.87 90.6549 832.331 90.6554C825.792 90.656 820.491 85.4754 820.49 79.0847L820.484 11.5724C820.484 5.18181 825.784 0.000622496 832.323 4.35055e-08Z" fill="#50DB8A"/>
<path d="M866.084 33.4854C872.474 33.4849 877.655 38.785 877.655 45.3237C877.656 51.8624 872.476 57.1638 866.085 57.1643L798.572 57.1701C792.182 57.1707 787.001 51.8705 787 45.3318C786.999 38.7931 792.18 33.4918 798.57 33.4911L866.084 33.4854Z" fill="#50DB8A"/>
<path d="M858.117 191.14V146.112C858.117 140.504 862.505 135.958 867.918 135.958C873.33 135.958 877.718 140.504 877.718 146.112V191.14C877.718 196.748 873.33 201.295 867.918 201.295C862.505 201.295 858.117 196.748 858.117 191.14Z" fill="#50DB8A"/>
<path d="M890.432 158.009C896.04 158.008 900.587 162.577 900.587 168.214C900.588 173.85 896.042 178.42 890.434 178.421L845.406 178.427C839.798 178.427 835.251 173.859 835.25 168.222C835.249 162.586 839.795 158.015 845.403 158.014L890.432 158.009Z" fill="#50DB8A"/>
<path d="M943.048 27.3345C950.264 27.3342 956.113 33.1726 956.114 40.3749L956.119 168.652C956.119 175.854 950.271 181.693 943.055 181.694C935.84 181.694 929.99 175.855 929.99 168.653L929.984 40.376C929.984 33.1737 935.833 27.3348 943.048 27.3345Z" fill="#50DB8A"/>
<path d="M1007.6 91.0383C1014.8 91.0384 1020.64 96.8888 1020.64 104.106C1020.64 111.323 1014.8 117.173 1007.6 117.173H879.322C872.12 117.173 866.281 111.323 866.281 104.106C866.281 96.8888 872.12 91.0383 879.322 91.0383H1007.6Z" fill="#50DB8A"/>
</svg>
