<svg width="1559" height="1534" viewBox="0 0 1559 1534" fill="none" xmlns="http://www.w3.org/2000/svg">
<path d="M78.2212 830.34C132.608 766.805 221.086 715.242 359.358 727.142C364.162 727.556 367.721 731.785 367.307 736.589C366.894 741.392 362.664 744.951 357.861 744.538C225.403 733.138 142.35 782.274 91.4849 841.694C40.2097 901.593 21.3047 972.397 18.6275 1003.7C14.7735 1048.76 21.429 1119.55 75.7798 1187.11L77.0728 1188.71C82.7121 1195.62 91.178 1202.2 100.009 1206C108.997 1209.87 116.808 1210.26 122.337 1207.53L123.207 1207.09C132.039 1202.53 136.328 1197.33 138.377 1192.31C140.565 1186.95 140.695 1180.57 139.122 1173.14C137.544 1165.69 134.403 1157.86 130.802 1149.98C127.412 1142.57 123.189 1134.28 120.54 1127.75C118.847 1123.58 120.606 1118.8 124.6 1116.73C128.595 1114.65 133.516 1115.95 135.96 1119.73C143.147 1130.85 153.424 1146.25 165.959 1155.2C172.065 1159.55 178.137 1161.95 184.2 1161.99C190.119 1162.02 197.191 1159.8 205.451 1152.75V1152.75C210.702 1148.27 212.401 1139.09 208.453 1125.24C204.685 1112.02 196.566 1097.94 188.169 1088.28C185.07 1084.71 185.372 1079.32 188.851 1076.12C192.33 1072.92 197.723 1073.08 201.018 1076.46C206.665 1082.27 212.771 1089.27 217.559 1094.35C222.778 1099.89 227.364 1104.22 231.755 1107.01C236.013 1109.73 239.498 1110.63 242.791 1110.23C246.186 1109.81 250.842 1107.82 257.003 1101.83L257.747 1101.09C261.344 1097.42 263.168 1094.21 264.004 1091.51C264.872 1088.71 264.84 1085.94 263.984 1082.98C262.136 1076.59 256.509 1069.46 247.833 1061.58C239.288 1053.82 229.223 1046.56 219.664 1039.2C214.996 1035.6 210.454 1031.98 206.57 1028.42C202.752 1024.93 199.144 1021.11 196.684 1017.06C195.292 1014.76 195.034 1011.95 195.985 1009.44C196.936 1006.93 198.991 1004.99 201.555 1004.19C204.218 1003.37 207.628 1002.83 210.98 1002.39C214.451 1001.94 218.576 1001.52 222.832 1001.05C231.516 1000.1 241.25 998.932 250.398 996.846C259.675 994.729 267.488 991.849 272.772 987.964C277.679 984.356 280.111 980.182 279.982 974.426V974.425C279.9 970.734 278.746 968.509 277.087 966.847C275.207 964.962 272.063 963.215 267.174 961.875C257.208 959.142 243.285 958.917 227.706 959.275C212.78 959.619 196.265 960.509 183.219 959.321C176.659 958.724 170.15 957.55 164.726 955.089C159.127 952.548 153.965 948.266 151.879 941.336L151.683 940.655C147.725 926.355 154.317 911.207 164.711 898.327C175.544 884.904 191.949 872.012 211.469 861.629C250.439 840.9 303.872 829.124 354.362 844.96C358.962 846.403 361.522 851.302 360.08 855.902C358.637 860.503 353.738 863.063 349.137 861.62C304.267 847.546 255.724 857.865 219.669 877.044C201.677 886.614 187.307 898.129 178.298 909.292C169.306 920.434 166.891 929.548 168.437 935.717L168.599 936.305C168.791 936.943 169.32 938.001 171.94 939.189C174.735 940.457 178.973 941.403 184.803 941.933C196.539 943.002 211.379 942.186 227.303 941.819C242.574 941.468 258.996 941.528 271.792 945.037C278.283 946.817 284.624 949.68 289.447 954.514C294.492 959.569 297.262 966.17 297.437 974.034C297.718 986.572 291.652 995.753 283.116 1002.03C274.957 1008.03 264.378 1011.57 254.281 1013.87C244.054 1016.2 233.428 1017.46 224.729 1018.41C223.784 1018.51 222.867 1018.61 221.977 1018.71C224.484 1020.81 227.283 1023.03 230.316 1025.36C239.264 1032.25 250.329 1040.27 259.569 1048.66C268.676 1056.93 277.485 1066.81 280.757 1078.13C282.461 1084.03 282.66 1090.29 280.682 1096.67C278.79 1102.78 275.067 1108.49 269.7 1113.83L269.175 1114.35C261.362 1121.95 253.362 1126.52 244.918 1127.56C237.984 1128.41 231.714 1126.76 226.146 1123.91C229.63 1138.48 229.331 1155.32 216.788 1166.03C206.012 1175.23 195.018 1179.5 184.105 1179.45C173.525 1179.39 164.145 1175.26 156.239 1169.7C158.197 1179.07 158.49 1189.23 154.543 1198.9C150.501 1208.81 142.494 1217.03 130.082 1223.17V1223.17C118.071 1229.12 104.431 1226.91 93.104 1222.04C81.6206 1217.09 70.906 1208.77 63.5454 1199.75V1199.75C4.38453 1127.27 -2.92467 1050.8 1.23098 1002.22C4.17389 967.802 24.2441 893.395 78.2212 830.34Z" fill="#2D2D2D"/>
<path d="M680.556 1287.63C685.219 1286.4 689.991 1289.19 691.214 1293.86C703.901 1342.25 701.366 1382.29 688.201 1413.42C675.01 1444.6 651.441 1466.11 623.524 1477.73H623.523C580.174 1495.77 534.558 1487.42 497.766 1471.46C461.127 1455.57 431.527 1431.4 419.633 1415.13C416.787 1411.24 417.635 1405.78 421.526 1402.93C425.418 1400.09 430.881 1400.93 433.727 1404.83C443.352 1417.99 470.157 1440.45 504.714 1455.44C539.116 1470.36 579.485 1477.14 616.815 1461.61L617.935 1461.14C641.392 1451.07 660.995 1432.92 672.12 1406.62C683.447 1379.83 686.278 1343.87 674.325 1298.28C673.102 1293.62 675.892 1288.85 680.556 1287.63Z" fill="#2D2D2D"/>
<path d="M552.555 1276.07C557.36 1275.67 561.58 1279.24 561.982 1284.04C564.485 1313.97 561.08 1336.33 553.072 1352.04C544.863 1368.15 531.995 1376.84 517.376 1379.11C503.187 1381.31 488.259 1377.34 475.253 1370.16C462.186 1362.94 450.338 1352.11 442.204 1339.44V1339.43C431.785 1323.2 416.98 1310.33 401.322 1302.85C385.601 1295.33 369.769 1293.56 356.769 1298.15C347.087 1301.57 338.16 1310.06 330.38 1321.63C322.696 1333.06 316.763 1346.55 312.722 1358.36C300.811 1393.2 299.121 1432.36 319.035 1459.38L319.509 1460.02L319.511 1460.02C334.469 1479.84 361.013 1490.48 385.513 1486.47H385.516C410.017 1482.48 431.802 1463.95 439.684 1440.4C441.214 1435.83 446.161 1433.36 450.733 1434.89C455.305 1436.42 457.771 1441.37 456.24 1445.94C446.302 1475.63 419.228 1498.66 388.33 1503.7C357.431 1508.76 324.437 1495.54 305.574 1470.54C279.949 1436.6 283.486 1389.91 296.201 1352.72H296.202C300.561 1339.97 307.094 1324.97 315.892 1311.89C324.595 1298.95 336.167 1286.91 350.955 1281.69H350.956C369.516 1275.14 390.254 1278.2 408.851 1287.09C427.218 1295.87 444.229 1310.64 456.326 1329.12L456.899 1330L456.9 1330.01C463.396 1340.13 473.046 1349 483.692 1354.87C494.398 1360.78 505.399 1363.3 514.7 1361.85C523.573 1360.48 531.759 1355.41 537.516 1344.11C543.472 1332.43 546.944 1313.75 544.582 1285.5C544.181 1280.69 547.75 1276.47 552.555 1276.07Z" fill="#2D2D2D"/>
<path d="M1052.53 460.63H957.878V273.59C957.878 225.79 939.268 180.86 905.468 147.06C871.668 113.26 826.738 94.65 778.938 94.65C731.138 94.65 686.208 113.26 652.408 147.06C618.608 180.86 599.998 225.79 599.998 273.59V460.63H505.348V273.59C505.348 236.68 512.588 200.84 526.868 167.08C540.648 134.5 560.368 105.24 585.488 80.13C610.598 55.02 639.858 35.3 672.438 21.52C706.178 7.24 742.018 0 778.928 0C815.838 0 851.678 7.24 885.438 21.52C918.018 35.3 947.278 55.02 972.388 80.13C997.498 105.24 1017.22 134.5 1031.01 167.08C1045.29 200.84 1052.53 236.68 1052.53 273.59V460.63Z" fill="#7D6917"/>
<path d="M1272.44 868.79C1272.44 596.232 1051.49 375.28 778.928 375.28C506.37 375.28 285.418 596.232 285.418 868.79C285.418 1141.35 506.37 1362.3 778.928 1362.3C1051.49 1362.3 1272.44 1141.35 1272.44 868.79Z" fill="#F2D359"/>
<path d="M867.7 894.273C908.761 891.02 936.27 815.468 929.144 725.523C922.018 635.578 882.955 565.3 841.894 568.554C800.833 571.807 773.324 647.359 780.45 737.304C787.576 827.249 826.639 897.526 867.7 894.273Z" fill="white"/>
<path d="M920.439 726.213C916.952 682.195 905.665 643.413 890.612 616.331C875.145 588.504 857.621 576.065 842.582 577.257C827.543 578.448 812.195 593.492 801.303 623.406C790.702 652.521 785.664 692.596 789.151 736.614C792.639 780.632 803.925 819.414 818.978 846.496C834.445 874.323 851.97 886.762 867.009 885.57C882.048 884.378 897.395 869.335 908.287 839.421C918.888 810.306 923.927 770.23 920.439 726.213ZM937.845 724.834C941.483 770.76 936.331 813.433 924.694 845.394C913.348 876.555 894.41 900.914 868.388 902.975C842.366 905.037 819.829 883.964 803.717 854.979C787.192 825.249 775.384 783.92 771.745 737.993C768.106 692.066 773.26 649.393 784.897 617.433C796.243 586.272 815.181 561.912 841.203 559.85C867.224 557.789 889.762 578.863 905.873 607.848C922.398 637.577 934.206 678.907 937.845 724.834Z" fill="#2D2D2D"/>
<path d="M897.588 831.716C919.961 828.854 933.659 791.836 928.184 749.035C922.708 706.234 900.133 673.857 877.76 676.719C855.387 679.581 841.689 716.598 847.164 759.4C852.639 802.201 875.215 834.578 897.588 831.716Z" fill="#2D2D2D"/>
<path d="M919.527 750.143C916.931 729.85 910.317 712.46 902.149 700.746C893.712 688.646 885.211 684.568 878.87 685.379C872.529 686.19 865.328 692.277 860.208 706.112C855.252 719.504 853.23 737.999 855.826 758.292C858.422 778.584 865.035 795.975 873.202 807.688C881.64 819.789 890.141 823.868 896.482 823.057C902.823 822.246 910.024 816.158 915.144 802.323C920.1 788.93 922.123 770.436 919.527 750.143ZM936.845 747.927C939.725 770.436 937.636 791.851 931.519 808.383C925.565 824.472 914.729 838.325 898.698 840.376C882.666 842.426 868.692 831.748 858.88 817.675C848.798 803.216 841.386 783.016 838.506 760.507C835.627 737.999 837.716 716.585 843.833 700.053C849.787 683.963 860.622 670.11 876.654 668.059C892.686 666.008 906.659 676.688 916.472 690.76C926.554 705.22 933.966 725.419 936.845 747.927Z" fill="#2D2D2D"/>
<path d="M711.063 908.519C752.124 905.266 779.634 829.714 772.507 739.769C765.381 649.824 726.318 579.547 685.257 582.8C644.196 586.053 616.687 661.605 623.813 751.55C630.939 841.495 670.003 911.772 711.063 908.519Z" fill="white"/>
<path d="M763.803 740.459C760.315 696.441 749.028 657.659 733.975 630.577C718.508 602.75 700.984 590.312 685.945 591.503C670.906 592.695 655.558 607.738 644.666 637.653C634.065 666.767 629.027 706.843 632.515 750.861C636.002 794.879 647.288 833.661 662.341 860.743C677.808 888.569 695.333 901.008 710.372 899.816C725.411 898.625 740.758 883.582 751.65 853.667C762.251 824.552 767.29 784.477 763.803 740.459ZM781.208 739.08C784.847 785.007 779.694 827.68 768.057 859.641C756.711 890.801 737.773 915.16 711.751 917.222C685.73 919.283 663.192 898.211 647.081 869.225C630.556 839.496 618.747 798.167 615.108 752.24C611.47 706.313 616.623 663.64 628.26 631.679C639.606 600.518 658.544 576.158 684.566 574.097C710.588 572.035 733.125 593.109 749.237 622.094C765.762 651.824 777.569 693.153 781.208 739.08Z" fill="#2D2D2D"/>
<path d="M740.963 845.945C763.336 843.082 777.034 806.065 771.559 763.264C766.083 720.463 743.508 688.086 721.135 690.948C698.762 693.81 685.064 730.827 690.539 773.628C696.014 816.43 718.59 848.807 740.963 845.945Z" fill="#2D2D2D"/>
<path d="M762.898 764.371C760.302 744.078 753.688 726.689 745.521 714.975C737.083 702.874 728.582 698.796 722.241 699.607C715.9 700.419 708.699 706.505 703.579 720.34C698.623 733.733 696.601 752.227 699.197 772.52C701.793 792.813 708.406 810.203 716.573 821.917C725.011 834.017 733.512 838.096 739.853 837.285C746.194 836.474 753.395 830.386 758.515 816.551C763.471 803.159 765.494 784.664 762.898 764.371ZM780.217 762.156C783.096 784.664 781.007 806.079 774.89 822.611C768.936 838.701 758.101 852.553 742.069 854.604C726.037 856.655 712.064 845.976 702.251 831.904C692.169 817.444 684.757 797.244 681.877 774.736C678.998 752.228 681.087 730.813 687.204 714.281C693.158 698.192 703.993 684.339 720.025 682.288C736.057 680.237 750.03 690.916 759.843 704.989C769.925 719.448 777.337 739.648 780.217 762.156Z" fill="#2D2D2D"/>
<path d="M553.33 1011.91C574.97 963.27 629.81 1021.97 797.11 1005.08C935.98 991.06 1014.5 912.25 1037.33 963.04C1058.26 1009.61 996.2 1144.15 813.02 1162.65C641.54 1179.97 532.58 1058.57 553.33 1011.92V1011.91Z" fill="#2D2D2D"/>
<path d="M1009.37 937.486C1016.84 937.213 1024.1 938.395 1030.54 942.143C1037.04 945.928 1041.86 951.831 1045.29 959.461L1045.29 959.462C1051.72 973.761 1051.28 993.262 1045.24 1013.74C1039.12 1034.49 1026.96 1057.33 1008.34 1079.05C971.009 1122.62 907.595 1161.87 813.896 1171.34C725.882 1180.23 653.63 1153.53 605.902 1118.3C582.082 1100.71 564.131 1080.83 553.434 1061.88C543.024 1043.44 538.519 1024.02 545.255 1008.6C545.287 1008.52 545.318 1008.44 545.352 1008.36C548.465 1001.36 552.452 995.679 557.738 991.498C563.068 987.281 569.157 985.038 575.742 984.062C588.234 982.21 603.911 984.83 622.089 987.988C659.252 994.443 713.817 1004.71 796.231 996.394C864.29 989.523 917.484 966.818 957.638 951.593C977.27 944.15 994.939 938.013 1009.37 937.486ZM1010.01 954.934C998.959 955.338 984.038 960.257 963.828 967.92C924.297 982.908 868.795 1006.62 797.985 1013.77C713.099 1022.34 656.594 1011.7 619.102 1005.19C599.953 1001.86 587.407 999.984 578.302 1001.33C574.088 1001.96 571.035 1003.24 568.571 1005.19C566.08 1007.16 563.636 1010.25 561.354 1015.35C561.337 1015.39 561.323 1015.43 561.305 1015.47C557.807 1023.33 559.147 1036.48 568.639 1053.3C577.895 1069.69 594.011 1087.82 616.272 1104.25C660.706 1137.05 728.675 1162.39 812.141 1153.96L814.233 1153.75C902.545 1144.35 961.095 1107.35 995.085 1067.69C1012.26 1047.65 1023.14 1026.96 1028.5 1008.8C1033.84 990.672 1033.42 976.068 1029.55 967.045L1029.37 966.619C1027.09 961.552 1024.46 958.807 1021.76 957.235C1018.99 955.626 1015.28 954.742 1010.01 954.934Z" fill="#2D2D2D"/>
<path d="M560.219 1001.06C564.619 1036.79 592.549 1063.01 623.339 1059.9C649.739 1057.23 669.789 1033.86 673.179 1004.62C609.229 997.26 577.359 982.72 560.219 1001.06Z" fill="white"/>
<path d="M553.84 995.099C565.618 982.497 582.027 982.265 600.227 984.54C609.542 985.704 620.367 987.695 632.442 989.777C644.634 991.879 658.43 994.135 674.176 995.947C676.477 996.212 678.579 997.381 680.019 999.196C681.458 1001.01 682.116 1003.32 681.85 1005.63C678.106 1037.92 655.638 1065.41 624.216 1068.59H624.215C587.496 1072.29 556.374 1041.27 551.554 1002.13C551.238 999.561 552.075 996.988 553.84 995.099ZM598.062 1001.87C583.091 999.994 574.971 1000.83 569.577 1004.46C575.182 1034.27 598.764 1053.61 622.459 1051.21L623.459 1051.1C641.999 1048.75 657.559 1033.53 662.945 1012.16C650.511 1010.53 639.388 1008.69 629.476 1006.98C617.055 1004.84 606.85 1002.96 598.062 1001.87Z" fill="#2D2D2D"/>
<path d="M679.68 1005.33C685.23 1039.52 712.46 1064.21 742.38 1061.18C768.89 1058.5 788.99 1034.94 792.25 1005.53C746.82 1009.78 709.85 1008.44 679.68 1005.33Z" fill="white"/>
<path d="M673.33 999.339C675.194 997.363 677.872 996.368 680.575 996.646C710.244 999.705 746.638 1001.03 791.436 996.838C794.05 996.593 796.635 997.538 798.475 999.41C800.315 1001.28 801.215 1003.88 800.926 1006.49C797.327 1038.96 774.814 1066.68 743.257 1069.87L743.256 1069.87C707.585 1073.48 677.15 1044.23 671.062 1006.73C670.627 1004.05 671.465 1001.31 673.33 999.339ZM691.085 1015.14C699.409 1039.55 720.399 1054.63 741.5 1052.49H741.501C759.96 1050.63 775.625 1036.01 781.507 1015.2C746.467 1017.85 716.592 1017.21 691.085 1015.14Z" fill="#2D2D2D"/>
<path d="M800.078 1004.75C809.158 1032.91 833.558 1051.98 860.068 1049.3C890.938 1046.18 913.098 1014.75 910.128 978.75C879.028 989.65 842.378 1000.17 800.078 1004.75Z" fill="white"/>
<path d="M907.239 970.512C909.791 969.617 912.613 969.955 914.88 971.427C917.148 972.898 918.605 975.338 918.827 978.032C922.08 1017.46 897.76 1054.26 860.946 1057.99C829.386 1061.18 801.792 1038.51 791.769 1007.43C790.963 1004.93 791.325 1002.2 792.754 999.999C794.183 997.796 796.528 996.353 799.138 996.07C840.547 991.587 876.51 981.282 907.239 970.512ZM901.439 990.933C875.457 999.527 845.814 1007.51 812.513 1012.03C822.436 1031.27 840.719 1042.48 859.19 1040.61C881.11 1038.4 899.218 1017.98 901.439 990.933Z" fill="#2D2D2D"/>
<path d="M1026.39 952.24C1026.3 951.37 1026.19 950.5 1026.07 949.64C1006.05 938.09 969.468 957.49 915.578 976.81C923.878 1006.54 949.038 1027.01 976.438 1024.24C1007.72 1021.08 1030.08 988.84 1026.39 952.24Z" fill="white"/>
<path d="M1007.33 937.587C1015.23 937.033 1022.93 937.977 1029.77 941.709L1030.43 942.078L1030.86 942.342C1032.96 943.717 1034.37 945.935 1034.72 948.433C1034.81 949.133 1034.91 949.858 1034.99 950.598L1035.07 951.342L1035.08 951.364C1039.11 991.428 1014.62 1029.16 977.317 1032.93C944.687 1036.22 916.318 1011.92 907.171 979.158C905.94 974.749 908.324 970.138 912.633 968.593C938.713 959.243 962.454 949.164 980.89 943.326C990.329 940.337 999.226 938.154 1007.33 937.587ZM1017.91 955.661C1015.42 954.995 1012.36 954.738 1008.55 955.005C1002.48 955.43 995.106 957.139 986.161 959.972C969.647 965.201 950.565 973.247 926.613 982.081C935.788 1004.27 955.584 1017.57 975.561 1015.55H975.562C1000.16 1013.07 1020 987.612 1017.91 955.661Z" fill="#2D2D2D"/>
<path d="M1028.98 1248.09C1033.45 1246.28 1038.54 1248.43 1040.36 1252.9C1043.15 1259.76 1049.08 1269.46 1057.3 1280.83C1065.41 1292.05 1075.4 1304.41 1085.89 1316.49C1107.02 1340.82 1129.54 1363.29 1142.39 1372.9C1146.25 1375.79 1147.04 1381.26 1144.15 1385.12C1141.26 1388.98 1135.79 1389.77 1131.93 1386.88C1117.53 1376.11 1094.01 1352.48 1072.71 1327.94C1061.98 1315.58 1051.65 1302.8 1043.15 1291.06C1034.76 1279.45 1027.79 1268.36 1024.18 1259.47C1022.36 1255 1024.52 1249.91 1028.98 1248.09Z" fill="#2D2D2D"/>
<path d="M926.519 1290.52C931.316 1290.04 935.594 1293.54 936.073 1298.34C939.013 1327.74 958.979 1373.02 986.132 1414.64C999.595 1435.27 1014.58 1454.63 1029.67 1470.3C1044.87 1486.08 1059.69 1497.61 1072.74 1503.26H1072.74C1127.98 1527.14 1196.76 1516.51 1242.2 1477.04L1242.2 1477.04C1259.64 1461.9 1273.52 1442.87 1279.17 1421.53V1421.52C1284.83 1400.16 1281.4 1376.47 1268.3 1360V1360C1250.87 1338.1 1216.86 1331.41 1189.94 1342.72C1163.07 1354 1143.57 1380.74 1136.93 1410.25C1135.88 1414.95 1131.2 1417.91 1126.5 1416.85C1121.8 1415.79 1118.84 1411.12 1119.9 1406.41C1127.52 1372.52 1150.13 1340.5 1183.18 1326.62C1215.91 1312.88 1258.27 1320.08 1281.42 1348.46L1281.97 1349.13L1281.97 1349.13C1299.13 1370.71 1302.84 1400.36 1296.04 1425.99C1289.26 1451.63 1272.92 1473.49 1253.65 1490.22C1203.14 1534.09 1127.21 1545.84 1065.81 1519.28V1519.28C1049.7 1512.32 1032.99 1498.91 1017.1 1482.41C1001.1 1465.8 985.44 1445.53 971.509 1424.18C943.874 1381.83 922.061 1333.69 918.7 1300.08C918.221 1295.28 921.721 1291 926.519 1290.52Z" fill="#2D2D2D"/>
<path d="M1366.71 344.12C1375.01 337.699 1385.6 333.206 1397.56 335.401L1398.13 335.511C1408.96 337.684 1416.75 344.6 1422.2 352.416C1427.61 360.178 1431.14 369.406 1433.45 377.679L1433.45 377.681C1440.91 404.368 1440.63 438.638 1436.51 470.27C1452.6 447.523 1471.93 425.188 1490.98 411.374V411.373C1496.23 407.569 1502.55 403.545 1509.44 401.012C1516.39 398.459 1524.46 397.228 1532.73 399.805H1532.73C1544.42 403.447 1551.16 412.765 1554.66 422.453C1558.14 432.073 1558.86 443.022 1558.07 452.446V452.449C1554.45 495.726 1537.06 534.97 1503.59 563.686C1499.93 566.826 1494.42 566.404 1491.28 562.745C1488.14 559.086 1488.56 553.575 1492.22 550.435C1521.71 525.132 1537.38 490.396 1540.68 450.995L1540.73 450.269C1541.27 442.762 1540.56 434.791 1538.24 428.393C1535.88 421.856 1532.28 417.953 1527.54 416.475V416.474C1524.06 415.392 1520.1 415.697 1515.46 417.401C1510.77 419.125 1505.95 422.08 1501.23 425.506L1501.23 425.507C1473.32 445.751 1443 488.237 1426.22 519.97C1424.14 523.913 1419.42 525.651 1415.27 524.001C1411.13 522.35 1408.9 517.841 1410.1 513.545C1420.81 475.106 1426.93 419.241 1416.64 382.379V382.378C1414.6 375.092 1411.73 367.932 1407.88 362.4C1404.06 356.92 1399.71 353.637 1394.7 352.629V352.628C1389.1 351.506 1383.36 353.314 1377.4 357.928C1371.37 362.586 1365.92 369.554 1361.65 376.804L1361.64 376.806C1340.27 413.032 1329.8 448.793 1331.92 490.254C1332.17 495.07 1328.47 499.172 1323.65 499.419C1318.84 499.665 1314.73 495.961 1314.49 491.146C1312.17 445.747 1323.78 406.628 1346.61 367.934C1351.54 359.565 1358.34 350.599 1366.71 344.12Z" fill="#2D2D2D"/>
<path d="M1433.64 534.957C1448.52 532.842 1464.96 532.951 1480.12 539.039C1495.26 545.126 1509.16 558.005 1513.2 575.26C1516.73 590.346 1511.82 604.841 1503.23 616.095C1494.68 627.313 1482.01 635.996 1468.39 639.876H1468.39C1455.22 643.627 1434.7 642.94 1416.26 638.258C1406.89 635.881 1397.58 632.359 1389.64 627.486C1381.74 622.635 1374.7 616.127 1370.77 607.588C1368.75 603.208 1370.67 598.024 1375.05 596.009C1379.43 593.994 1384.62 595.912 1386.63 600.292C1388.65 604.678 1392.69 608.873 1398.77 612.607C1404.82 616.317 1412.38 619.261 1420.55 621.335C1437.18 625.556 1454.37 625.713 1463.61 623.084C1473.58 620.244 1483.06 613.752 1489.35 605.505C1495.62 597.294 1498.26 588.035 1496.2 579.24C1493.76 568.816 1484.84 559.754 1473.61 555.24C1462.38 550.729 1449.36 550.358 1436.1 552.243H1436.1C1424.77 553.85 1413.97 557.016 1405.09 562.557C1401 565.109 1395.62 563.861 1393.06 559.771C1390.51 555.68 1391.76 550.295 1395.85 547.743C1407.49 540.485 1420.87 536.771 1433.64 534.958V534.957Z" fill="#2D2D2D"/>
<path d="M1267.23 579.089C1271.99 578.364 1276.45 581.641 1277.17 586.408C1281.27 613.346 1292.44 637.355 1307.52 655.306C1309.75 657.968 1310.13 661.581 1308.77 664.556C1305.1 685.335 1295.76 704.53 1283.48 719.177C1270.92 734.158 1254.57 745.18 1237.21 747.202C1232.42 747.759 1228.09 744.329 1227.53 739.539C1226.97 734.751 1230.4 730.416 1235.19 729.859C1246.69 728.52 1259.32 720.822 1270.1 707.96C1280.16 695.954 1287.99 680.141 1291.29 663.022C1275.56 643.002 1264.22 617.35 1259.91 589.033C1259.18 584.266 1262.46 579.814 1267.23 579.089Z" fill="#2D2D2D"/>
<path d="M1455.44 630.005C1456.68 625.346 1461.47 622.573 1466.13 623.814C1470.78 625.054 1473.56 629.836 1472.32 634.495C1463.52 667.552 1436.52 691.198 1405.29 700.964C1395.92 745.51 1380.91 790.935 1351.63 827.571C1336.92 845.979 1323.37 859.464 1307.67 869.628C1291.93 879.811 1274.52 886.345 1252.49 891.529C1247.8 892.633 1243.1 889.723 1241.99 885.03C1240.89 880.336 1243.8 875.637 1248.49 874.532C1269.3 869.636 1284.66 863.719 1298.18 854.97C1311.73 846.202 1323.92 834.271 1337.99 816.67C1364.92 782.979 1379.2 740.413 1388.34 696.727C1387.77 694.782 1387.9 692.68 1388.73 690.789C1389.82 688.309 1392 686.475 1394.63 685.825C1423.6 678.666 1447.99 658.024 1455.44 630.005Z" fill="#2D2D2D"/>
<path d="M1296.36 485.811C1316.37 478.875 1338.25 483.976 1356.76 494.437C1375.07 504.784 1391.33 521.014 1401.12 539.042L1401.58 539.902V539.903C1406.55 549.287 1410.15 561.151 1410.2 572.53C1410.25 583.915 1406.67 596.247 1395.52 603.775L1395.52 603.776C1385.37 610.63 1374.44 611.154 1364.36 608.263C1356.81 606.098 1349.65 602.014 1343.18 597.266C1343.62 599.807 1343.91 602.35 1343.98 604.864C1344.12 609.683 1340.33 613.705 1335.51 613.846C1330.69 613.988 1326.67 610.195 1326.53 605.376C1326.28 596.864 1322.29 586.439 1317.21 576.81C1312.25 567.397 1306.84 559.831 1304.93 557.372C1302 553.601 1302.65 548.179 1306.38 545.2C1310.1 542.221 1315.53 542.788 1318.57 546.474C1323.63 552.624 1334.99 567.968 1348.9 579.569C1355.83 585.353 1362.76 589.64 1369.18 591.48C1375.27 593.227 1380.65 592.745 1385.75 589.305C1390.31 586.224 1392.78 580.66 1392.74 572.613C1392.7 564.56 1390.06 555.455 1386.15 548.079L1385.77 547.363C1377.62 532.366 1363.78 518.457 1348.17 509.638C1332.23 500.63 1315.7 497.584 1302.07 502.308L1302.07 502.309C1290.88 506.188 1283.12 517.019 1278.9 533.249C1274.72 549.319 1274.58 568.871 1277.19 586.448C1277.9 591.217 1274.61 595.657 1269.84 596.365C1265.07 597.073 1260.63 593.782 1259.92 589.012C1257.07 569.819 1257.08 547.796 1262 528.854C1266.89 510.072 1277.19 492.454 1296.36 485.812V485.811Z" fill="#2D2D2D"/>
</svg>
