<svg width="1360" height="1331" viewBox="0 0 1360 1331" fill="none" xmlns="http://www.w3.org/2000/svg">
<path d="M1290.15 809.091C1275.9 809.091 1264.34 797.537 1264.34 783.288V620.923C1264.34 606.675 1275.9 595.12 1290.15 595.12C1328.72 595.12 1360 626.395 1360 664.973V739.231C1360 777.809 1328.72 809.084 1290.15 809.084V809.091Z" fill="#FF86F7"/>
<path d="M1059.25 469.038L969.555 404.517C957.937 396.155 956.675 379.711 966.047 369.644C968.131 367.406 970.081 365.048 971.716 362.467C983.831 343.336 1004.3 316.284 1036.52 291.639C1066.89 268.418 1096.46 255.909 1117.43 249.041C1120.34 248.087 1123.19 246.936 1125.84 245.421C1133.69 240.931 1143.61 241.338 1151.11 246.733C1158.87 252.317 1163.38 262.441 1159.53 273.441L1094.98 457.786C1089.81 472.525 1071.93 478.158 1059.25 469.038Z" fill="#C246B9"/>
<path d="M14.6266 775.101C8.81078 775.101 3.31769 771.607 1.03767 765.876C-1.94389 758.376 1.71817 749.874 9.22469 746.892C35.0555 736.628 57.8628 722.142 76.0538 704.701C72.1041 702.456 68.2246 699.973 64.4643 697.23C37.7846 677.72 23.1854 647.89 26.3634 619.372C28.2856 602.142 38.0231 585.404 52.4118 574.579C65.3272 564.869 80.4805 560.906 95.1007 563.424C120.462 567.788 141.396 591.591 144.889 620.018C147.534 641.555 141.459 664.51 126.832 688.264C126.025 689.576 125.197 690.881 124.348 692.179C131.806 694.031 139.074 695.371 145.717 696.444C174.929 701.165 204.717 702.66 234.245 700.864C242.313 700.394 249.23 706.511 249.721 714.572C250.212 722.626 244.074 729.557 236.013 730.048C204.331 731.97 172.383 730.378 141.045 725.306C130.066 723.531 117.578 721.096 104.852 717.062C82.6553 741.041 53.4781 760.762 20.0144 774.063C18.2466 774.764 16.4155 775.101 14.6196 775.101H14.6266ZM86.5068 591.935C80.9716 591.935 75.226 594.005 69.9784 597.954C62.0229 603.931 56.4386 613.388 55.4144 622.613C53.422 640.468 63.7487 660.49 81.7153 673.63C86.1701 676.885 90.9125 679.677 95.8163 682.09C97.9841 679.095 100.026 676.036 101.934 672.935C109.539 660.588 118.132 642.004 115.866 623.589C113.944 607.909 102.881 594.432 90.1338 592.237C88.9341 592.033 87.7205 591.928 86.4998 591.928L86.5068 591.935Z" fill="#C246B9"/>
<path d="M742.789 1178.73C1052.64 1178.73 1303.83 975.378 1303.83 724.534C1303.83 473.69 1052.64 270.34 742.789 270.34C432.936 270.34 181.75 473.69 181.75 724.534C181.75 975.378 432.936 1178.73 742.789 1178.73Z" fill="#FF86F7"/>
<path d="M872.594 375.663C869.69 385.688 859.398 391.686 849.268 389.182C802.187 377.536 753.872 373.278 705.374 376.526C704.7 376.568 704.027 376.617 703.353 376.666C655.571 380.069 608.954 390.669 564.511 408.215C554.759 412.059 543.717 407.562 539.487 397.972C535.011 387.821 539.901 376.021 550.22 371.945C598.346 352.947 648.836 341.47 700.582 337.787C753.78 333.907 806.817 338.523 858.472 351.305C869.248 353.971 875.681 365.007 872.594 375.67V375.663Z" fill="#8E0084"/>
<path d="M1333.39 670.641H1337.52C1342.98 670.641 1347.42 675.075 1347.42 680.533V723.685C1347.42 729.143 1342.98 733.577 1337.52 733.577H1333.39C1327.93 733.577 1323.5 729.143 1323.5 723.685V680.533C1323.5 675.075 1327.93 670.641 1333.39 670.641Z" fill="#C246B9"/>
<path d="M1170.13 494.126C1168.51 381.402 1343.13 381.402 1341.48 494.133C1343.11 606.85 1168.49 606.85 1170.13 494.126Z" fill="white"/>
<path d="M1255.82 403.459C1278.7 403.459 1301.82 410.908 1319.21 426.111C1336.7 441.412 1348.02 464.258 1347.61 494.126C1348.02 523.998 1336.7 546.846 1319.19 562.147C1301.81 577.347 1278.69 584.795 1255.8 584.794C1232.91 584.794 1209.79 577.345 1192.41 562.143C1174.91 546.842 1163.59 523.995 1164.01 494.125C1163.6 464.255 1174.92 441.408 1192.42 426.108C1209.81 410.906 1232.93 403.458 1255.82 403.459ZM1255.82 415.708C1235.46 415.708 1215.33 422.35 1200.48 435.33C1185.77 448.195 1175.88 467.589 1176.26 494.037C1176.26 494.096 1176.26 494.156 1176.26 494.215C1175.87 520.663 1185.76 540.058 1200.47 552.923C1215.32 565.902 1235.44 572.545 1255.8 572.545C1276.16 572.546 1296.29 565.904 1311.13 552.925C1325.85 540.061 1335.74 520.667 1335.36 494.221C1335.36 494.162 1335.36 494.103 1335.36 494.044C1335.75 467.593 1325.86 448.198 1311.14 435.332C1296.3 422.352 1276.17 415.709 1255.82 415.708Z" fill="#2D2D2D"/>
<path d="M1236.32 530.15C1261.57 530.15 1282.03 503.16 1282.03 469.866C1282.03 436.573 1261.57 409.583 1236.32 409.583C1211.08 409.583 1190.62 436.573 1190.62 469.866C1190.62 503.16 1211.08 530.15 1236.32 530.15Z" fill="#2D2D2D"/>
<path d="M1229.44 498.37C1128.45 378.476 958.374 299.756 765.582 299.756C455.731 299.756 204.543 503.098 204.543 753.943C204.543 836.283 231.609 913.509 278.935 980.106C217.606 907.3 181.75 819.306 181.75 724.534C181.75 473.69 432.938 270.34 742.789 270.34C950.93 270.34 1132.59 362.095 1229.44 498.37Z" fill="#FFC5FB"/>
<path d="M1015.77 425.459L926.067 360.938C914.449 352.575 913.186 336.131 922.559 326.064C924.642 323.826 926.593 321.469 928.227 318.887C940.343 299.756 960.814 272.704 993.036 248.059C1023.4 224.838 1052.98 212.329 1073.94 205.461C1076.85 204.507 1079.7 203.357 1082.35 201.841C1090.2 197.351 1100.13 197.758 1107.62 203.153C1115.39 208.737 1119.89 218.861 1116.04 229.861L1051.49 414.206C1046.33 428.945 1028.44 434.579 1015.77 425.459Z" fill="#FF86F7"/>
<path d="M1084.45 530.15C1082.83 417.426 1257.44 417.426 1255.8 530.157C1257.42 642.874 1082.81 642.874 1084.45 530.15Z" fill="white"/>
<path d="M1170.13 439.483C1193.02 439.483 1216.14 446.932 1233.52 462.135C1251.02 477.436 1262.33 500.282 1261.92 530.15C1262.33 560.022 1251.01 582.87 1233.51 598.171C1216.12 613.372 1193 620.819 1170.12 620.818C1147.23 620.818 1124.11 613.37 1106.73 598.168C1089.23 582.866 1077.91 560.02 1078.32 530.149C1077.92 500.279 1089.24 477.432 1106.74 462.132C1124.13 446.93 1147.25 439.483 1170.13 439.483ZM1170.13 451.733C1149.77 451.732 1129.65 458.375 1114.8 471.354C1100.09 484.219 1090.19 503.613 1090.57 530.062C1090.57 530.121 1090.57 530.18 1090.57 530.239C1090.19 556.687 1100.08 576.082 1114.79 588.947C1129.63 601.926 1149.76 608.569 1170.12 608.569C1190.48 608.57 1210.6 601.928 1225.45 588.95C1240.16 576.085 1250.06 556.692 1249.68 530.245C1249.68 530.186 1249.68 530.127 1249.68 530.068C1250.06 503.617 1240.17 484.222 1225.46 471.356C1210.62 458.376 1190.49 451.733 1170.13 451.733Z" fill="#2D2D2D"/>
<path d="M1150.64 566.174C1175.88 566.174 1196.34 539.184 1196.34 505.891C1196.34 472.597 1175.88 445.607 1150.64 445.607C1125.4 445.607 1104.93 472.597 1104.93 505.891C1104.93 539.184 1125.4 566.174 1150.64 566.174Z" fill="#2D2D2D"/>
<path d="M577.784 1059.89C625.609 1068.11 657.767 1113.61 649.55 1161.43L635.328 1244.21C627.11 1292.03 581.609 1324.19 533.784 1315.97C485.959 1307.76 453.801 1262.26 462.018 1214.43L476.24 1131.66C484.457 1083.83 529.959 1051.67 577.784 1059.89Z" fill="#FF86F7"/>
<path d="M910.583 1059.44C958.576 1052.27 1003.37 1085.41 1010.54 1133.4L1022.96 1216.47C1030.13 1264.46 996.99 1309.25 948.997 1316.42C901.005 1323.6 856.214 1290.46 849.04 1242.46L836.624 1159.4C829.45 1111.41 862.591 1066.61 910.583 1059.44Z" fill="#FF86F7"/>
<path d="M555.763 288.931C555.763 315.632 568.103 339.449 587.396 354.981C563.894 339.912 548.312 313.555 548.312 283.557C548.312 236.729 586.28 198.769 633.108 198.769C653.249 198.769 671.756 205.791 686.299 217.528C673.103 209.06 657.403 204.142 640.552 204.142C593.723 204.142 555.763 242.103 555.763 288.931Z" fill="#7D6917"/>
<path d="M717.896 283.557C717.896 330.385 679.928 368.346 633.107 368.346C616.284 368.346 600.597 363.442 587.401 354.988C587.394 354.995 587.394 354.981 587.394 354.981C568.102 339.449 555.762 315.632 555.762 288.931C555.762 242.103 593.722 204.142 640.55 204.142C657.401 204.142 673.102 209.06 686.298 217.528C705.569 233.067 717.896 256.87 717.896 283.557Z" fill="#F2D359"/>
<path d="M713.044 173.955C713.044 191.444 720.887 207.11 733.249 217.605C716.671 207.573 705.594 189.368 705.594 168.581C705.594 136.956 731.235 111.314 762.861 111.314C777.004 111.314 789.947 116.442 799.937 124.945C791.294 119.705 781.157 116.688 770.311 116.688C738.679 116.688 713.044 142.329 713.044 173.955Z" fill="#7D6917"/>
<path d="M820.127 168.581C820.127 200.207 794.485 225.848 762.86 225.848C752.021 225.848 741.89 222.839 733.247 217.605C720.886 207.11 713.043 191.444 713.043 173.955C713.043 142.329 738.677 116.688 770.31 116.688C781.156 116.688 791.293 119.705 799.936 124.945C812.29 135.44 820.127 151.099 820.127 168.581Z" fill="#F2D359"/>
<path d="M566.021 70.5894C566.021 90.7307 575.148 108.732 589.487 120.694C570.932 109.202 558.57 88.6542 558.57 65.2226C558.57 29.1983 587.769 0 623.793 0C639.676 0 654.226 5.67549 665.535 15.1113C655.573 8.93767 643.822 5.37383 631.236 5.37383C595.219 5.37383 566.021 34.5721 566.021 70.5894Z" fill="#7D6917"/>
<path d="M689.007 65.2225C689.007 101.24 659.809 130.438 623.792 130.438C611.206 130.438 599.448 126.874 589.486 120.694C575.147 108.732 566.02 90.7307 566.02 70.5893C566.02 34.5721 595.218 5.37378 631.235 5.37378C643.821 5.37378 655.572 8.93762 665.534 15.1112C679.88 27.0725 689.007 45.0812 689.007 65.2225Z" fill="#F2D359"/>
<path d="M1246.29 885.908C1248.55 881.649 1253.83 880.028 1258.09 882.288C1262.35 884.548 1263.97 889.833 1261.71 894.092C1246.88 922.04 1213.7 938.486 1180.5 940.156C1146.97 941.843 1111.19 928.583 1091.44 894.364C1089.03 890.188 1090.46 884.85 1094.64 882.439C1098.81 880.029 1104.15 881.46 1106.56 885.636C1122.31 912.916 1151.04 924.157 1179.62 922.719C1208.55 921.264 1235.12 906.96 1246.29 885.908Z" fill="#2D2D2D"/>
</svg>
