<svg width="1213" height="1654" viewBox="0 0 1213 1654" fill="none" xmlns="http://www.w3.org/2000/svg">
<path d="M1072.69 951.502C1150.12 951.502 1212.9 888.727 1212.9 811.289C1212.9 733.851 1150.12 671.076 1072.69 671.076C995.248 671.076 932.473 733.851 932.473 811.289C932.473 888.727 995.248 951.502 1072.69 951.502Z" fill="#18A352"/>
<path d="M140.213 756.79C217.651 756.79 280.426 694.014 280.426 616.577C280.426 539.139 217.651 476.363 140.213 476.363C62.7756 476.363 0 539.139 0 616.577C0 694.014 62.7756 756.79 140.213 756.79Z" fill="#18A352"/>
<path d="M1074.61 828.436C1031.69 838.41 990.418 851.775 950.735 870.241C895.55 895.537 843.686 932.577 805.344 976.33C746.034 1043.87 711.902 1129.3 707.816 1218C707.723 1222.12 707.66 1225.82 707.957 1229.77L708.035 1230.42C708.058 1230.67 708.105 1230.74 708.144 1230.93C708.144 1230.95 708.152 1230.97 708.167 1230.91C710.156 1229.75 525.035 1239.34 525.619 1239.31C525.627 1238.24 525.417 1235.88 525.346 1234.76C517.892 1157.22 501.243 1080.33 477.857 1005.95C438.915 885.212 377.273 763.309 272.626 687.038C246.23 667.949 217.386 652.314 186.756 640.617C171.215 634.808 155.167 630.028 138.783 626.066C133.598 624.811 130.408 619.586 131.664 614.401C132.763 609.862 136.912 606.852 141.403 607.016C158.972 607.656 176.65 609.215 194.281 612.007C243.204 620.015 290.982 637.428 334.135 662.069C434.096 718.931 510.952 808.903 571.533 905.269C627.678 995.731 672.032 1093.35 703.886 1195.02L704.939 1198.56L705.999 1202.24L706.537 1204.18L706.826 1205.26L706.966 1205.81L707.161 1206.64L524.411 1215.6C524.91 1211.44 525.822 1207.1 526.711 1203.01C548.756 1110.69 596.572 1024.51 661.661 955.97C712.667 902.383 776.04 860.4 844.708 833.973C872.406 823.165 901.406 814.673 930.492 808.489C938.048 806.758 947.273 805.183 954.829 803.756C960.724 802.859 967.82 801.666 973.778 800.808C1005.98 796.41 1038.73 794.149 1070.75 794.126C1080.34 794.102 1088.13 801.853 1088.16 811.445C1088.18 819.734 1082.37 826.705 1074.6 828.428L1074.61 828.436Z" fill="#50DB8A"/>
<path d="M743.664 236.041C721.019 343.831 705.603 454.178 693.329 563.629C674.872 733.326 665.655 904.239 665.335 1074.91C665.14 1088.56 665.483 1106.43 665.413 1120.09C665.007 1135.54 662.403 1150.8 657.061 1165.42C653.014 1176.24 647.478 1187.2 639.82 1196.29C630.362 1207.35 613.737 1208.64 602.679 1199.19C590.242 1187.24 581.617 1167.67 577.243 1151.35C574.537 1141.31 573.25 1130.93 572.938 1120.58C572.782 1116.41 572.899 1109.47 572.86 1105.16C572.751 1088.22 573.211 1060.7 573.453 1043.49C574.864 972.065 578.623 899.155 584.853 827.992C599.303 664.276 625.8 501.121 670.372 342.809C681.718 303.149 694.047 263.411 709.143 224.999C717.861 204.366 748.46 213.614 743.664 236.041Z" fill="#50DB8A"/>
<path d="M713.649 461.04C840.962 461.04 944.169 357.833 944.169 230.52C944.169 103.207 840.962 0 713.649 0C586.336 0 483.129 103.207 483.129 230.52C483.129 357.833 586.336 461.04 713.649 461.04Z" fill="#FF86F7"/>
<path d="M728.905 1653.66H503.859C426.317 1653.66 358.25 1602.04 337.344 1527.37L279.133 1319.48H953.639L895.429 1527.37C874.523 1602.04 806.455 1653.66 728.913 1653.66H728.905Z" fill="#FF86F7"/>
<path d="M1002.2 1222.95H230.55C203.896 1222.95 182.289 1244.56 182.289 1271.21C182.289 1297.87 203.896 1319.47 230.55 1319.47H1002.2C1028.86 1319.47 1050.46 1297.87 1050.46 1271.21C1050.46 1244.56 1028.86 1222.95 1002.2 1222.95Z" fill="#8E0084"/>
</svg>
