<svg width="1313" height="1447" viewBox="0 0 1313 1447" fill="none" xmlns="http://www.w3.org/2000/svg">
<path d="M1312.77 262.342C1308.51 318.744 1301.34 376.4 1291.16 434.866C1282.07 486.961 1270.6 539.697 1256.64 592.77C1150.88 994.789 930.221 1310.24 694.469 1437.41C670.767 1450.19 642.251 1450.19 618.54 1437.41C382.788 1310.25 162.118 994.797 56.3466 592.77C42.3778 539.697 30.9181 486.961 21.834 434.866C11.6555 376.4 4.49318 318.744 0.231376 262.342C-3.40762 214.082 36.3722 173.865 84.6845 176.721C84.9959 176.739 85.3162 176.765 85.6365 176.783C168.025 181.543 260.94 170.76 355.571 142.385C401.659 128.567 445.105 111.493 485.205 91.9183C486.424 129.128 491.602 164.505 500.037 196.803C522.271 282.095 567.113 345.943 621.351 365.482C632.695 369.575 644.449 371.72 656.496 371.72C668.543 371.72 680.305 369.566 691.649 365.474C745.887 345.943 790.729 282.095 812.972 196.812C821.398 164.513 826.576 129.128 827.795 91.9094C867.895 111.484 911.35 128.567 957.429 142.385C1052.06 170.76 1144.97 181.543 1227.35 176.783C1227.67 176.756 1228 176.739 1228.32 176.721C1276.64 173.865 1316.41 214.082 1312.77 262.342Z" fill="#7D6917"/>
<path d="M621.352 365.483V772.27C621.352 783.116 615.8 793.206 606.636 799.007C569.944 822.256 467.073 881.701 325.553 916.25C311.584 919.667 297.064 913.162 290.266 900.492C194.505 721.972 127.873 417.159 107.222 314.517C103.512 296.055 116.653 278.429 135.409 276.765C283.522 263.597 394.596 239.075 500.038 196.803C522.272 282.095 567.114 345.943 621.352 365.483Z" fill="#F2D359"/>
<path d="M371.838 988.507C419.269 976.273 502.37 951.92 575.799 915.565C596.779 905.181 621.353 920.592 621.353 943.992V1255.51C621.353 1281.83 591.103 1296.65 570.301 1280.52C449.217 1186.71 382.043 1087.09 352.21 1034.79C341.881 1016.69 351.65 993.721 371.838 988.507Z" fill="#F2D359"/>
<path d="M1205.78 314.517C1185.13 417.159 1118.5 721.972 1022.73 900.492C1015.94 913.162 1001.42 919.666 987.448 916.25C845.927 881.701 743.057 822.256 706.365 799.007C697.2 793.206 691.648 783.116 691.648 772.27V365.474C745.886 345.943 790.729 282.095 812.972 196.812C918.414 239.075 1029.49 263.597 1177.59 276.765C1196.35 278.429 1209.49 296.055 1205.78 314.517Z" fill="#F2D359"/>
<path d="M941.164 988.507C893.733 976.273 810.632 951.92 737.203 915.565C716.223 905.181 691.648 920.592 691.648 943.992V1255.51C691.648 1281.83 721.899 1296.65 742.701 1280.52C863.784 1186.71 930.959 1087.09 960.792 1034.79C971.121 1016.69 961.352 993.721 941.164 988.507Z" fill="#F2D359"/>
<path d="M827.793 91.9095C826.574 129.128 821.396 164.514 812.97 196.812C790.727 282.095 745.885 345.943 691.647 365.474C680.303 369.566 668.541 371.72 656.494 371.72C644.447 371.72 632.693 369.575 621.349 365.483C567.112 345.943 522.269 282.095 500.035 196.803C491.6 164.505 486.422 129.128 485.203 91.9184C530.757 69.6656 571.978 44.183 607.817 16.5828C636.519 -5.5276 676.468 -5.5276 705.171 16.5828C741.009 44.183 782.239 69.6656 827.793 91.9095Z" fill="#007430"/>
<path d="M536.983 636.351C570.145 636.039 596.573 587.535 596.012 528.014C595.451 468.494 568.113 420.496 534.951 420.809C501.789 421.121 475.361 469.626 475.922 529.146C476.483 588.666 503.821 636.664 536.983 636.351Z" fill="white"/>
<path d="M584.762 528.12C584.496 499.909 577.866 474.985 567.932 457.543C557.785 439.728 545.715 431.958 535.058 432.059C524.401 432.159 512.479 440.155 502.67 458.158C493.066 475.784 486.906 500.829 487.172 529.04C487.438 557.251 494.069 582.175 504.003 599.617C514.15 617.432 526.22 625.201 536.877 625.101C547.534 625 559.456 617.005 569.265 599.002C578.869 581.376 585.028 556.331 584.762 528.12ZM607.263 527.908C607.558 559.217 600.784 588.185 589.023 609.769C577.468 630.977 559.594 647.39 537.089 647.602C514.584 647.814 496.405 631.741 484.452 610.755C472.287 589.396 464.968 560.561 464.673 529.252C464.377 497.943 471.152 468.975 482.912 447.391C494.467 426.183 512.341 409.771 534.846 409.559C557.351 409.347 575.531 425.419 587.484 446.405C599.649 467.764 606.968 496.599 607.263 527.908Z" fill="#2D2D2D"/>
<path d="M534.686 615.436C547.083 615.319 556.77 576.705 556.322 529.189C555.874 481.673 545.461 443.248 533.064 443.365C520.667 443.482 510.98 482.096 511.428 529.612C511.876 577.128 522.289 615.553 534.686 615.436Z" fill="#2D2D2D"/>
<path d="M545.072 529.295C544.855 506.209 542.208 485.723 538.315 471.357C536.639 465.172 534.85 460.581 533.197 457.512C531.602 460.611 529.901 465.236 528.342 471.451C524.72 485.887 522.46 506.421 522.678 529.506C522.896 552.592 525.542 573.078 529.435 587.443C531.111 593.628 532.899 598.22 534.552 601.289C536.147 598.189 537.849 593.565 539.408 587.349C543.03 572.913 545.29 552.381 545.072 529.295ZM567.573 529.083C567.803 553.513 565.443 576.046 561.233 592.825C559.15 601.13 556.457 608.668 552.99 614.409C549.902 619.523 544.09 626.599 534.793 626.686C525.495 626.774 519.55 619.809 516.366 614.754C512.791 609.079 509.957 601.594 507.717 593.329C503.193 576.633 500.409 554.149 500.179 529.718C499.948 505.288 502.308 482.756 506.517 465.977C508.601 457.671 511.293 450.133 514.76 444.392C517.849 439.278 523.661 432.203 532.959 432.115L533.391 432.115C542.441 432.244 548.25 439.071 551.384 444.047C554.959 449.721 557.793 457.208 560.033 465.472C564.558 482.169 567.342 504.653 567.573 529.083Z" fill="#2D2D2D"/>
<path d="M936.292 626.531C938.781 620.838 945.415 618.241 951.108 620.73C956.8 623.22 959.397 629.854 956.907 635.547C910.027 742.745 852.117 810.803 790.079 849.492C727.92 888.256 662.5 896.979 601.872 887.021C541.425 877.092 485.83 848.632 442.529 813.085C399.386 777.668 367.466 734.389 355.602 693.953C353.853 687.991 357.268 681.74 363.23 679.99C369.193 678.241 375.445 681.656 377.194 687.618C387.4 722.403 415.922 762.13 456.807 795.693C497.533 829.127 549.552 855.623 605.519 864.816C661.306 873.979 721.1 865.99 778.172 830.398C835.364 794.731 890.698 730.787 936.292 626.531Z" fill="#2D2D2D"/>
<path d="M726.569 518.817C759.514 499.832 796.319 500.117 823.882 504.601C837.786 506.863 849.7 510.25 858.151 513.072C862.385 514.486 865.774 515.767 868.135 516.708C869.316 517.179 870.242 517.565 870.89 517.842C871.214 517.98 871.469 518.091 871.652 518.172C871.743 518.212 871.817 518.245 871.872 518.269C871.899 518.281 871.922 518.291 871.94 518.3C871.95 518.304 871.957 518.308 871.964 518.311C871.967 518.312 871.972 518.314 871.973 518.315C871.975 518.323 871.868 518.568 867.422 528.375L871.981 518.319C877.64 520.884 880.148 527.552 877.583 533.211C875.018 538.869 868.355 541.376 862.696 538.814L862.696 538.815C862.694 538.815 862.692 538.814 862.69 538.813C862.672 538.805 862.636 538.788 862.583 538.765C862.476 538.718 862.298 538.641 862.054 538.536C861.565 538.328 860.807 538.011 859.804 537.611C857.796 536.811 854.81 535.68 851.023 534.415C843.431 531.88 832.714 528.836 820.269 526.811C795.134 522.722 764.363 523.008 737.803 538.314C732.42 541.416 725.541 539.567 722.438 534.183C719.336 528.799 721.185 521.92 726.569 518.817Z" fill="#2D2D2D"/>
</svg>
