<svg width="1209" height="1524" viewBox="0 0 1209 1524" fill="none" xmlns="http://www.w3.org/2000/svg">
<path d="M457.43 1122.13C462.653 1121.28 467.574 1124.83 468.421 1130.06C473.016 1158.43 476.95 1210.3 480.64 1263.75C484.236 1315.85 487.615 1369.7 491.156 1406.38L491.499 1409.87V1409.88C492.546 1420.37 485.937 1429.33 479.346 1435.99C472.338 1443.06 462.757 1450.07 452.872 1456.8C447.874 1460.2 442.65 1463.62 437.495 1467.01C432.313 1470.41 427.19 1473.78 422.267 1477.15C412.382 1483.92 403.771 1490.37 397.601 1496.53C398.752 1497.08 400.289 1497.67 402.275 1498.27C413.309 1501.6 432.154 1503.45 454.413 1504.26C498.773 1505.89 551.094 1503.36 571.42 1503.36C576.711 1503.36 581 1507.66 581 1512.96C581 1518.26 576.711 1522.56 571.42 1522.56C552.858 1522.56 498.262 1525.08 453.714 1523.45C431.519 1522.64 410.412 1520.78 396.752 1516.66C393.257 1515.6 389.901 1514.3 387 1512.63C384.174 1511.01 381.117 1508.66 379.107 1505.2C376.886 1501.38 376.424 1497.01 377.705 1492.78C378.869 1488.94 381.3 1485.71 383.959 1483.05C391.466 1475.52 401.356 1468.21 411.459 1461.3C416.555 1457.81 421.825 1454.34 426.992 1450.95C432.185 1447.54 437.267 1444.2 442.109 1440.91C451.904 1434.25 460.146 1428.11 465.749 1422.46C471.766 1416.38 472.557 1413.03 472.434 1411.79L472.087 1408.26C468.509 1371.2 465.102 1316.89 461.525 1265.08C457.811 1211.28 453.93 1160.43 449.509 1133.14C448.661 1127.91 452.207 1122.98 457.43 1122.13Z" fill="#2D2D2D"/>
<path d="M783.971 1102.01C789.252 1101.76 793.732 1105.86 793.978 1111.16C797.481 1186.71 804.974 1268.1 808.779 1336.96C810.66 1370.99 811.609 1401.64 810.574 1425.88C810.057 1437.99 809.036 1448.76 807.31 1457.68C805.634 1466.35 803.097 1474.38 798.849 1480.11L798.848 1480.11C782.937 1501.56 755.646 1511.35 729.159 1516.08C702.353 1520.86 674.016 1520.85 653.82 1520.85C643.937 1520.85 630.227 1521.65 615.13 1522.3C600.314 1522.93 584.368 1523.38 570.921 1522.55C564.204 1522.13 557.787 1521.38 552.286 1520.05C547.07 1518.79 541.329 1516.72 537.242 1512.75C535.039 1510.61 533.217 1507.81 532.421 1504.35C531.63 1500.92 532.019 1497.55 533.047 1494.51C534.981 1488.79 539.459 1483.36 545.141 1478.12L545.143 1478.11C552.801 1471.05 562.183 1464.27 571.557 1457.88C581.237 1451.27 590.46 1445.36 599.213 1439.2C607.868 1433.1 614.927 1427.53 619.633 1422.35C624.527 1416.96 625.343 1413.69 625.173 1411.97L624.827 1408.44C621.274 1371.5 618.253 1319.71 615.065 1270.44C611.753 1219.25 608.273 1171.04 603.863 1143.76C603.016 1138.52 606.56 1133.59 611.779 1132.74C616.998 1131.89 621.915 1135.44 622.761 1140.68C627.352 1169.08 630.881 1218.35 634.171 1269.19C637.377 1318.75 640.369 1370.06 643.881 1406.57L644.223 1410.06V1410.06C645.221 1420.08 639.795 1428.67 633.78 1435.29C627.577 1442.12 619.057 1448.69 610.21 1454.92C601.458 1461.09 591.252 1467.67 582.322 1473.76C573.085 1480.07 564.674 1486.19 558.101 1492.25C554.295 1495.77 552.474 1498.21 551.665 1499.64C552.609 1500.12 554.211 1500.76 556.759 1501.37C560.734 1502.33 565.917 1502.99 572.1 1503.37C584.452 1504.14 599.508 1503.73 614.32 1503.1C628.851 1502.48 643.396 1501.64 653.82 1501.64C674.239 1501.64 700.92 1501.6 725.806 1497.16C751.01 1492.66 772.086 1484.02 783.489 1468.64C785.117 1466.45 786.994 1461.89 788.515 1454.02C789.988 1446.41 790.95 1436.69 791.447 1425.05C792.439 1401.8 791.538 1371.93 789.664 1338.02C785.96 1271.01 778.323 1186.87 774.853 1112.05C774.608 1106.75 778.69 1102.26 783.971 1102.01Z" fill="#2D2D2D"/>
<path d="M973.104 1101.09C875.408 1264 400.231 1283.76 237.408 1116.78C74.5846 949.802 233.344 440.715 156 265.585C156 265.585 180.348 257.892 221.841 247.627C268.171 236.164 335.877 221.484 414.942 210.711C463.205 204.133 515.708 199.012 570.167 196.964C585.628 196.387 601.248 196.053 616.975 196.008C617.999 196 619.022 196 620.046 196C678.243 195.962 725.157 198.792 764.966 203.678C847.451 213.799 899.506 232.75 958.431 253.287C970.071 257.338 981.983 261.458 994.449 265.585C888.519 477.366 1070.8 938.187 973.104 1101.09Z" fill="#F2D359"/>
<path d="M399.247 283.494C404.265 281.821 409.688 284.534 411.361 289.554C419.854 315.044 419.983 336.385 416.142 354.698C412.35 372.778 404.734 387.545 398.615 399.511C392.104 412.243 388.191 420.401 388.156 427.663C388.128 433.405 390.69 440.515 404.146 450.131C416.984 459.305 441.605 466.638 473.846 471.426C505.599 476.141 543.182 478.181 580.593 477.787C617.999 477.393 654.954 474.568 685.435 469.654C700.679 467.195 714.15 464.24 725.173 460.863C736.355 457.438 744.355 453.777 749.161 450.223C753.951 446.681 756.426 443.093 757.674 439.597C758.951 436.017 759.21 431.766 758.319 426.546C756.459 415.652 750.081 402.866 741.92 387.773C734.09 373.293 724.783 356.955 719.111 340.67C713.392 324.248 710.794 306.361 717.876 288.97C719.871 284.069 725.461 281.714 730.359 283.711C735.258 285.708 737.611 291.299 735.615 296.2C731.033 307.453 732.214 320.048 737.2 334.364C742.233 348.815 750.556 363.468 758.768 378.654C766.647 393.227 774.719 408.781 777.201 423.319C778.481 430.816 778.385 438.554 775.715 446.038C773.015 453.607 767.952 460.159 760.547 465.634C753.159 471.098 742.735 475.527 730.78 479.188C718.666 482.899 704.285 486.026 688.482 488.574C656.867 493.672 618.936 496.55 580.794 496.951C542.656 497.353 504.028 495.282 471.034 490.383C438.528 485.556 409.866 477.771 393.012 465.726C376.777 454.124 368.932 441.891 369 427.571C369.062 414.771 375.75 402.146 381.562 390.781C387.766 378.65 394.198 366.005 397.395 350.763C400.543 335.754 400.603 317.863 393.19 295.615C391.517 290.595 394.229 285.168 399.247 283.494Z" fill="#2D2D2D"/>
<path d="M570 197.262C515.594 199.313 463.143 204.442 414.927 211.029C335.94 221.818 268.3 236.52 222.015 248C222.008 247.293 222 246.587 222 245.88C222 147.64 301.404 68 399.352 68C415.169 68 430.509 70.0742 445.107 73.9795C505.375 90.0717 553.016 137.201 570 197.262Z" fill="#18A352"/>
<path d="M958 253C899.154 232.501 847.168 213.584 764.794 203.482C725.038 198.606 678.186 195.781 620.067 195.819C619.045 195.819 618.022 195.819 617 195.826C638.953 142.515 686.153 102.251 743.712 89.9302C755.737 87.3555 768.217 86 781.007 86C875.467 86 952.669 159.879 958 253Z" fill="#18A352"/>
<path d="M744 90.0155C686.307 102.352 638.997 142.666 616.993 196.045C601.251 196.09 585.616 196.424 570.139 197C553.122 137.063 505.387 90.0307 445 73.9717C477.258 29.1686 529.896 0 589.358 0C655.65 0 713.457 36.2655 744 90.0155Z" fill="#005423"/>
<path d="M731.875 964.181C732.647 958.952 737.531 955.335 742.783 956.103C748.036 956.871 751.668 961.732 750.897 966.962C736.936 1061.61 661.164 1108.87 586.472 1112.74C512.275 1116.59 435.375 1077.51 421.145 996.286C420.232 991.079 423.733 986.122 428.963 985.214C434.193 984.305 439.172 987.79 440.084 992.997C452.096 1061.56 517.424 1097.16 585.472 1093.63C653.025 1090.12 719.518 1047.96 731.875 964.181Z" fill="#2D2D2D"/>
<path d="M586.812 742.213C604.489 658.474 587.828 584.048 549.598 575.978C511.369 567.908 466.047 629.249 448.37 712.988C430.693 796.727 447.355 871.153 485.584 879.223C523.814 887.293 569.135 825.951 586.812 742.213Z" fill="white"/>
<path d="M547.62 585.363C534.426 582.577 516.879 591.546 498.994 615.754C481.664 639.21 466.378 674.129 457.757 714.969C449.135 755.809 449.003 793.927 455.374 822.386C461.949 851.757 474.374 867.054 487.567 869.839C500.761 872.624 518.307 863.654 536.193 839.446C553.523 815.991 568.808 781.072 577.429 740.232C586.05 699.392 586.183 661.273 579.812 632.815C573.237 603.443 560.813 588.148 547.62 585.363ZM551.582 566.593C576.618 571.879 591.638 597.831 598.532 628.624C605.63 660.331 605.254 701.295 596.198 744.194C587.142 787.092 570.929 824.713 551.621 850.845C532.87 876.225 508.641 893.892 483.605 888.607C458.569 883.322 443.548 857.37 436.655 826.576C429.557 794.87 429.932 753.906 438.988 711.007C448.044 668.108 464.258 630.487 483.565 604.355C502.317 578.975 526.546 561.308 551.582 566.593Z" fill="#2D2D2D"/>
<path d="M556.652 670.397C567.025 630.801 558.654 594.306 537.954 588.883C517.255 583.46 492.065 611.163 481.692 650.759C471.319 690.355 479.69 726.85 500.39 732.273C521.09 737.696 546.279 709.993 556.652 670.397Z" fill="#2D2D2D"/>
<path d="M535.525 598.161C530.367 596.81 522.341 599.171 513.049 609.391C504.104 619.228 495.847 634.579 490.972 653.19C486.096 671.801 485.766 689.228 488.739 702.187C491.827 715.65 497.664 721.643 502.822 722.995C507.981 724.346 516.006 721.984 525.299 711.764C534.243 701.928 542.5 686.577 547.375 667.966C552.251 649.355 552.581 631.928 549.609 618.969C546.52 605.506 540.684 599.512 535.525 598.161ZM540.386 579.604C555.927 583.676 564.627 598.642 568.306 614.68C572.101 631.224 571.429 651.842 565.932 672.827C560.434 693.812 550.91 712.111 539.492 724.669C528.422 736.844 513.502 745.622 497.961 741.551C482.42 737.479 473.721 722.514 470.042 706.475C466.247 689.931 466.918 669.313 472.416 648.329C477.913 627.344 487.437 609.044 498.856 596.486C509.926 584.312 524.846 575.533 540.386 579.604Z" fill="#2D2D2D"/>
<path d="M741.304 742.214C758.981 658.475 742.32 584.049 704.091 575.979C665.861 567.909 620.54 629.25 602.863 712.989C585.186 796.728 601.847 871.154 640.076 879.224C678.306 887.294 723.627 825.952 741.304 742.214Z" fill="white"/>
<path d="M702.108 585.364C688.914 582.578 671.368 591.547 653.482 615.755C636.152 639.21 620.866 674.13 612.245 714.97C603.624 755.81 603.492 793.928 609.862 822.387C616.438 851.758 628.862 867.055 642.056 869.84C655.249 872.625 672.796 863.655 690.681 839.447C708.011 815.992 723.296 781.073 731.917 740.233C740.539 699.393 740.672 661.274 734.301 632.816C727.726 603.444 715.301 588.149 702.108 585.364ZM706.07 566.594C731.106 571.88 746.127 597.832 753.02 628.625C760.118 660.332 759.742 701.296 750.687 744.195C741.631 787.093 725.417 824.714 706.11 850.846C687.358 876.226 663.13 893.893 638.094 888.608C613.058 883.323 598.036 857.371 591.143 826.577C584.045 794.871 584.421 753.907 593.476 711.008C602.532 668.109 618.746 630.488 638.053 604.356C656.805 578.976 681.034 561.309 706.07 566.594Z" fill="#2D2D2D"/>
<path d="M711.14 670.403C721.513 630.807 713.142 594.312 692.442 588.889C671.743 583.466 646.553 611.169 636.18 650.765C625.807 690.361 634.179 726.856 654.878 732.279C675.578 737.701 700.767 709.999 711.14 670.403Z" fill="#2D2D2D"/>
<path d="M690.013 598.167C684.855 596.816 676.83 599.178 667.537 609.398C658.593 619.234 650.335 634.585 645.46 653.196C640.584 671.807 640.255 689.234 643.227 702.193C646.315 715.656 652.152 721.649 657.311 723.001C662.469 724.352 670.494 721.99 679.787 711.77C688.731 701.934 696.988 686.583 701.863 667.972C706.739 649.361 707.069 631.934 704.097 618.975C701.009 605.512 695.172 599.519 690.013 598.167ZM694.875 579.611C710.416 583.682 719.115 598.648 722.794 614.687C726.589 631.23 725.917 651.848 720.42 672.833C714.923 693.818 705.399 712.117 693.98 724.675C682.91 736.85 667.99 745.628 652.449 741.557C636.908 737.485 628.209 722.52 624.53 706.481C620.735 689.938 621.407 669.32 626.904 648.335C632.401 627.35 641.925 609.051 653.344 596.493C664.414 584.318 679.334 575.539 694.875 579.611Z" fill="#2D2D2D"/>
<path d="M907.854 801.184C909.741 796.227 915.281 793.742 920.227 795.634C935.866 801.616 961.015 813.613 983.948 829.505C1006.26 844.965 1028.52 865.498 1035.78 889.32L1035.95 889.884V889.884C1042.48 912.073 1033.3 937.549 1019.78 961.913C1005.97 986.783 985.967 1013.31 966.826 1038.54C947.429 1064.11 929.002 1088.25 917.269 1109.26C911.413 1119.74 907.564 1128.86 905.979 1136.53C904.411 1144.12 905.213 1149.43 907.532 1153.33C913.158 1162.79 918.616 1164.9 922.932 1165.06C928.125 1165.25 934.488 1162.71 941.46 1157.78C948.237 1152.99 954.441 1146.76 959.05 1141.56C961.326 1138.98 963.152 1136.73 964.398 1135.14C965.02 1134.34 965.494 1133.71 965.805 1133.3C965.96 1133.09 966.075 1132.93 966.146 1132.83C966.181 1132.79 966.205 1132.75 966.219 1132.73C966.226 1132.72 966.23 1132.72 966.232 1132.72C968.356 1129.74 971.982 1128.23 975.584 1128.83C979.188 1129.42 982.142 1132.02 983.201 1135.52L983.211 1135.55C983.22 1135.59 983.236 1135.64 983.258 1135.71C983.302 1135.85 983.372 1136.07 983.466 1136.37C983.654 1136.96 983.941 1137.85 984.323 1138.98C985.088 1141.26 986.231 1144.52 987.727 1148.43C990.731 1156.28 995.099 1166.57 1000.6 1176.57C1006.17 1186.68 1012.58 1195.91 1019.49 1202.12C1026.37 1208.29 1032.63 1210.56 1038.59 1209.54L1038.59 1209.54C1042.18 1208.92 1044.33 1207.71 1045.7 1206.46C1047.09 1205.2 1048.22 1203.41 1048.99 1200.84C1050.63 1195.36 1050.3 1187.53 1048.41 1178.52C1046.57 1169.75 1043.51 1161.02 1040.84 1154.37C1039.52 1151.08 1038.31 1148.35 1037.45 1146.47C1037.02 1145.53 1036.67 1144.8 1036.44 1144.32C1036.33 1144.07 1036.24 1143.89 1036.18 1143.78C1036.15 1143.72 1036.13 1143.68 1036.12 1143.66C1036.12 1143.65 1036.11 1143.64 1036.11 1143.64L1036.11 1143.64C1033.79 1139 1035.56 1133.36 1040.1 1130.88C1044.65 1128.41 1050.34 1130 1052.95 1134.47C1052.95 1134.47 1052.95 1134.48 1052.95 1134.48C1052.96 1134.48 1052.96 1134.49 1052.97 1134.51C1052.99 1134.54 1053.02 1134.59 1053.06 1134.65C1053.14 1134.79 1053.26 1135 1053.42 1135.27C1053.75 1135.82 1054.25 1136.63 1054.89 1137.67C1056.19 1139.76 1058.08 1142.73 1060.45 1146.26C1065.21 1153.34 1071.81 1162.51 1079.3 1171.1C1086.88 1179.81 1094.89 1187.36 1102.39 1191.74C1109.95 1196.16 1114.98 1196.29 1118.59 1194.35C1121.05 1193.03 1122.25 1191.62 1122.91 1190.37C1123.61 1189.06 1124.04 1187.28 1123.96 1184.8C1123.79 1179.54 1121.35 1172.7 1117.3 1165.23C1113.37 1157.96 1108.46 1151.06 1104.44 1145.89C1102.45 1143.32 1100.72 1141.24 1099.49 1139.8C1098.88 1139.08 1098.4 1138.53 1098.07 1138.16C1097.91 1137.98 1097.79 1137.85 1097.71 1137.76C1097.68 1137.72 1097.65 1137.69 1097.63 1137.67C1097.62 1137.66 1097.62 1137.66 1097.62 1137.66L1097.62 1137.66C1094.16 1133.86 1094.29 1128.01 1097.91 1124.38C1101.54 1120.75 1107.37 1120.61 1111.16 1124.08H1111.16C1111.16 1124.08 1111.16 1124.09 1111.17 1124.09C1111.18 1124.1 1111.21 1124.13 1111.26 1124.17C1111.34 1124.25 1111.48 1124.37 1111.67 1124.53C1112.04 1124.86 1112.61 1125.36 1113.35 1125.99C1114.84 1127.24 1117.03 1129.04 1119.76 1131.11C1125.26 1135.27 1132.79 1140.45 1141.15 1144.71C1158.91 1153.77 1175.27 1156.34 1186.17 1146.19L1186.17 1146.19C1188.64 1143.9 1189.52 1141.81 1189.76 1139.85C1190.02 1137.69 1189.6 1134.78 1187.91 1130.95C1184.42 1123.06 1176.67 1113.79 1166.26 1104.09C1145.65 1084.88 1118.39 1067.31 1106.73 1059.3C1102.36 1056.3 1101.25 1050.32 1104.24 1045.95C1107.24 1041.57 1113.2 1040.46 1117.57 1043.46C1128.49 1050.96 1157.37 1069.57 1179.32 1090.02C1190.19 1100.16 1200.32 1111.6 1205.43 1123.16C1208.04 1129.05 1209.6 1135.54 1208.78 1142.19C1207.94 1149.06 1204.68 1155.19 1199.21 1160.28C1180.51 1177.68 1156.3 1172.61 1138.3 1164.62C1140.94 1170.85 1142.9 1177.56 1143.12 1184.16C1143.29 1189.19 1142.45 1194.47 1139.85 1199.38C1137.2 1204.37 1133.07 1208.37 1127.65 1211.29C1115.5 1217.81 1102.83 1214.24 1092.74 1208.34C1084.29 1203.41 1076.22 1196.11 1069.1 1188.45C1069.45 1194.54 1069.05 1200.69 1067.35 1206.37C1065.78 1211.6 1063.04 1216.64 1058.59 1220.69C1054.12 1224.75 1048.46 1227.34 1041.82 1228.48C1027.91 1230.86 1015.96 1224.75 1006.7 1216.43C997.476 1208.14 989.831 1196.77 983.818 1185.85C978.229 1175.7 973.782 1165.43 970.619 1157.36C965.783 1162.54 959.542 1168.52 952.507 1173.49C944.238 1179.33 933.639 1184.67 922.241 1184.26C909.965 1183.82 899.2 1176.85 891.064 1163.17C885.497 1153.81 885.034 1143.14 887.207 1132.63C889.363 1122.2 894.26 1111.11 900.541 1099.87C913.081 1077.42 932.488 1052.06 951.564 1026.91C970.896 1001.43 990.005 976.02 1003.03 952.569C1016.33 928.614 1021.7 909.385 1017.56 895.317L1017.31 894.506C1011.92 877.47 994.634 860.27 973.046 845.31C951.565 830.424 927.824 819.106 913.391 813.585C908.445 811.693 905.966 806.141 907.854 801.184ZM1111.15 1124.08L1111.16 1124.08H1111.16L1111.15 1124.08Z" fill="#2D2D2D"/>
<path d="M953.46 671.659C955.077 666.623 960.486 663.847 965.541 665.458C1034.84 687.55 1114.77 744.202 1149.59 812.382V812.383C1184.48 880.725 1187.87 1004.55 1091.69 1083.8C1087.6 1087.17 1081.54 1086.6 1078.16 1082.53C1074.77 1078.45 1075.35 1072.42 1079.44 1069.05C1166.37 997.419 1164.36 885.236 1133.2 822.536L1132.45 821.065C1100.51 758.515 1025.38 704.639 959.684 683.695C954.629 682.083 951.842 676.695 953.46 671.659Z" fill="#2D2D2D"/>
<path d="M243.422 812.138C248.094 809.638 253.91 811.394 256.414 816.06C258.917 820.726 257.16 826.535 252.489 829.036C238.856 836.334 216.719 850.554 197.28 868.018C177.435 885.848 162.287 905.401 159.433 923.169C157.113 937.619 164.892 955.966 181.143 977.982C197.051 999.533 219.254 1022.25 241.688 1045.01C263.826 1067.47 286.32 1090.1 301.624 1110.72C309.29 1121.05 315.562 1131.4 319.028 1141.45C322.521 1151.57 323.416 1162.18 319.077 1172.16C312.736 1186.73 302.932 1195 290.798 1197C279.532 1198.86 268.328 1194.92 259.374 1190.19C251.756 1186.16 244.8 1181.04 239.338 1176.53C237.223 1184.92 234.112 1195.65 229.852 1206.4C225.269 1217.98 219.122 1230.2 211.016 1239.57C202.879 1248.98 191.792 1256.55 177.676 1255.97H177.676C170.94 1255.69 164.985 1253.85 160.032 1250.39C155.102 1246.95 151.74 1242.31 149.518 1237.33C147.108 1231.93 145.931 1225.89 145.505 1219.82C139.401 1228.3 132.314 1236.56 124.558 1242.51C115.279 1249.64 103.161 1254.78 90.2659 1249.87C84.5107 1247.67 79.8956 1244.24 76.6397 1239.64C73.4264 1235.1 71.9258 1229.99 71.4527 1224.99C70.8326 1218.44 71.9279 1211.55 73.7575 1205.05C56.8969 1215.24 33.5061 1223.33 12.7227 1208.49C6.64794 1204.16 2.63072 1198.5 0.924877 1191.81C-0.728964 1185.33 -0.00482632 1178.71 1.83423 1172.55C5.44283 1160.46 14.0475 1147.86 23.5586 1136.44C42.7512 1113.4 69.0615 1091.32 78.955 1082.5C82.9093 1078.97 88.9761 1079.32 92.5049 1083.27C96.0336 1087.22 95.6884 1093.28 91.7341 1096.8C81.1749 1106.21 56.3391 1127.07 38.3113 1148.7C29.2122 1159.62 22.6878 1169.79 20.2266 1178.03C19.0308 1182.04 18.9846 1184.97 19.5225 1187.08C20.0085 1188.98 21.1455 1190.94 23.8832 1192.9C35.9987 1201.55 51.9209 1196.93 68.4052 1185.7C76.1566 1180.42 82.9816 1174.34 87.9099 1169.52C90.3593 1167.12 92.3059 1165.07 93.6262 1163.64C94.2854 1162.92 94.7867 1162.36 95.1143 1161.98C95.2781 1161.8 95.3983 1161.66 95.473 1161.57C95.5104 1161.53 95.5365 1161.5 95.5509 1161.48C95.5559 1161.48 95.5598 1161.47 95.562 1161.47C98.8799 1157.56 104.692 1156.95 108.752 1160.08C112.814 1163.22 113.685 1168.99 110.729 1173.19L110.728 1173.19C110.726 1173.19 110.723 1173.2 110.719 1173.2C110.705 1173.22 110.682 1173.25 110.649 1173.3C110.583 1173.4 110.481 1173.55 110.344 1173.75C110.069 1174.15 109.66 1174.76 109.143 1175.54C108.109 1177.12 106.652 1179.41 105 1182.2C101.669 1187.83 97.665 1195.29 94.6852 1202.97C91.6196 1210.88 90.0653 1217.96 90.5602 1223.19C90.7932 1225.65 91.4489 1227.36 92.307 1228.57C93.0717 1229.65 94.3248 1230.81 96.6284 1231.76L97.1035 1231.95L97.1057 1231.95C100.94 1233.42 105.914 1232.65 112.864 1227.31C119.755 1222.02 126.751 1213.53 133.173 1203.95C139.511 1194.5 144.903 1184.58 148.731 1176.97C150.637 1173.18 152.138 1169.99 153.157 1167.76C153.666 1166.65 154.054 1165.78 154.311 1165.2C154.44 1164.91 154.535 1164.69 154.597 1164.54C154.627 1164.47 154.65 1164.42 154.664 1164.39C154.671 1164.37 154.676 1164.36 154.678 1164.36C154.679 1164.35 154.679 1164.35 154.68 1164.35V1164.35C156.705 1159.59 162.15 1157.29 166.981 1159.16C171.812 1161.03 174.284 1166.4 172.565 1171.28C172.563 1171.28 172.561 1171.29 172.558 1171.3C172.549 1171.33 172.534 1171.37 172.514 1171.43C172.473 1171.55 172.408 1171.74 172.323 1171.99C172.154 1172.5 171.903 1173.27 171.594 1174.25C170.976 1176.23 170.129 1179.08 169.235 1182.51C167.432 1189.42 165.503 1198.45 164.79 1207.36C164.057 1216.52 164.723 1224.32 167.049 1229.53C168.139 1231.97 169.482 1233.6 171.026 1234.67C172.546 1235.73 174.83 1236.66 178.475 1236.81H178.474C184.522 1237.07 190.451 1234.02 196.493 1227.04C202.567 1220.01 207.764 1210.06 212.005 1199.35C216.201 1188.76 219.231 1178.02 221.217 1169.87C222.206 1165.81 222.927 1162.44 223.397 1160.09C223.633 1158.92 223.805 1158 223.917 1157.39C223.973 1157.09 224.013 1156.86 224.039 1156.71C224.052 1156.64 224.061 1156.58 224.067 1156.55C224.069 1156.54 224.072 1156.53 224.073 1156.52C224.679 1152.92 227.282 1149.97 230.786 1148.93C234.287 1147.88 238.079 1148.91 240.566 1151.58L240.58 1151.6C240.596 1151.62 240.625 1151.65 240.666 1151.69C240.749 1151.78 240.883 1151.92 241.064 1152.11C241.425 1152.48 241.976 1153.04 242.695 1153.75C244.134 1155.17 246.233 1157.16 248.82 1159.42C254.058 1163.99 261.011 1169.36 268.349 1173.24C275.898 1177.23 282.537 1178.93 287.671 1178.08C291.937 1177.38 297.089 1174.59 301.475 1164.51C303.282 1160.36 303.403 1155 300.882 1147.69C298.334 1140.31 293.352 1131.77 286.206 1122.14C271.886 1102.84 250.521 1081.3 228.012 1058.46C205.799 1035.92 182.566 1012.22 165.695 989.359C149.166 966.967 136.823 942.921 140.483 920.132C144.452 895.42 164.099 872.044 184.445 853.764C205.198 835.118 228.649 820.047 243.422 812.138Z" fill="#2D2D2D"/>
<path d="M181.39 687.906C186.173 685.659 191.863 687.735 194.098 692.543C196.334 697.352 194.269 703.072 189.486 705.32C127.815 734.299 61.0925 796.743 37.0315 862.53L36.4711 864.085C12.9591 930.27 24.6613 1043.53 120.28 1104.26C124.743 1107.1 126.076 1113.03 123.256 1117.52C120.436 1122.01 114.532 1123.35 110.068 1120.51C5.10071 1053.84 -7.28432 930.105 18.4655 857.62L19.0761 855.926C45.2767 784.253 116.338 718.475 181.39 687.906Z" fill="#2D2D2D"/>
</svg>
