<svg width="1114" height="1151" viewBox="0 0 1114 1151" fill="none" xmlns="http://www.w3.org/2000/svg">
<path d="M1072.69 303.238L1044.35 291.177C1038.45 288.662 1031.64 291.67 1029.53 297.738C963.811 486.472 869.849 756.316 824.577 886.346C811.57 923.705 766.512 938.327 734.056 915.73L702.944 894.066L345.855 645.417C332.854 636.364 314.824 641.568 308.642 656.156L114.733 1113.87C101.981 1143.97 67.4271 1158.22 37.1724 1145.87C14.0497 1136.43 0 1114.13 0 1090.55C0 1083.29 1.33834 1075.9 4.14829 1068.74C54.7273 939.816 177.623 627.062 231.059 490.958C244.378 457.019 284.714 442.831 316.336 460.96C407.871 513.422 581.792 613.1 695.331 678.185C707.393 685.093 722.77 680.811 729.525 668.657L953.457 265.804C956.661 260.043 954.17 252.776 948.104 250.191L911.337 234.537C891.54 226.11 887.004 200.065 902.786 185.436L1060.33 39.3871C1079.15 21.9423 1109.73 34.9824 1110.18 60.6396L1114 275.384C1114.38 296.892 1092.48 311.659 1072.69 303.232L1072.69 303.238Z" fill="#FF86F7"/>
<path d="M1060.33 39.3869C1079.15 21.9422 1109.73 34.9828 1110.18 60.6399L1114 275.384C1114.38 296.892 1092.48 311.659 1072.69 303.232L1072.69 303.238L1044.35 291.177C1038.45 288.662 1031.64 291.67 1029.53 297.738L824.577 886.346L824.265 887.217C810.972 923.641 766.959 937.925 734.818 916.252L734.056 915.729L345.855 645.417C332.854 636.364 314.824 641.568 308.642 656.156L114.733 1113.87L114.429 1114.57C101.543 1143.95 67.7284 1157.91 37.882 1146.16L37.1725 1145.87C14.2305 1136.51 0.220418 1114.47 0.00282895 1091.1L0 1090.55C0 1083.51 1.25604 1076.36 3.88925 1069.41L4.14838 1068.74C54.7274 939.816 177.623 627.062 231.058 490.958C244.378 457.019 284.714 442.831 316.336 460.96C407.87 513.422 581.792 613.101 695.331 678.185C707.393 685.093 722.77 680.81 729.525 668.657L953.457 265.805C956.611 260.134 954.246 253.002 948.385 250.315L948.104 250.191L911.337 234.537C891.54 226.11 887.003 200.064 902.785 185.436L1060.33 39.3869ZM0.57937 1090.55C0.579426 1113.9 14.4938 1135.99 37.3914 1145.34C67.3526 1157.57 101.571 1143.45 114.199 1113.64L308.108 655.93C314.434 641.004 332.883 635.678 346.186 644.941L734.387 915.254C766.528 937.632 811.148 923.151 824.029 886.155C869.301 756.125 963.263 486.281 1028.98 297.547C1031.2 291.162 1038.36 287.998 1044.58 290.644L1072.55 302.551L1072.56 302.546L1072.92 302.699C1092.32 310.961 1113.79 296.482 1113.42 275.394L1109.6 60.6501C1109.16 35.4939 1079.17 22.7082 1060.72 39.8125L903.179 185.862C887.705 200.204 892.153 225.741 911.564 234.003L948.331 249.658C954.713 252.377 957.335 260.024 953.963 266.086L730.031 668.939C723.119 681.374 707.385 685.757 695.043 678.688C581.504 613.603 407.582 513.924 316.048 461.462C284.733 443.51 244.789 457.56 231.598 491.169C178.162 627.274 55.2665 940.028 4.68758 1068.95C1.90446 1076.05 0.57937 1083.36 0.57937 1090.55Z" fill="#50DB8A"/>
<path d="M771.323 4.35055e-08C777.861 -0.000548147 783.163 5.17957 783.163 11.5701L783.169 79.083C783.17 85.4736 777.87 90.6549 771.331 90.6554C764.792 90.656 759.491 85.4754 759.49 79.0847L759.484 11.5724C759.484 5.18181 764.784 0.000622496 771.323 4.35055e-08Z" fill="#50DB8A"/>
<path d="M805.084 33.4854C811.474 33.4849 816.655 38.785 816.655 45.3237C816.656 51.8624 811.476 57.1638 805.085 57.1643L737.572 57.1701C731.182 57.1707 726.001 51.8705 726 45.3318C725.999 38.7931 731.18 33.4918 737.57 33.4911L805.084 33.4854Z" fill="#50DB8A"/>
<path d="M797.113 191.14V146.112C797.113 140.504 801.501 135.958 806.914 135.958C812.327 135.958 816.714 140.504 816.714 146.112V191.14C816.714 196.748 812.327 201.295 806.914 201.295C801.501 201.295 797.113 196.748 797.113 191.14Z" fill="#50DB8A"/>
<path d="M829.428 158.009C835.036 158.008 839.583 162.577 839.583 168.214C839.584 173.85 835.039 178.42 829.43 178.421L784.402 178.427C778.794 178.427 774.247 173.859 774.246 168.222C774.245 162.586 778.791 158.015 784.4 158.014L829.428 158.009Z" fill="#50DB8A"/>
<path d="M882.048 27.3344C889.264 27.334 895.113 33.1724 895.114 40.3748L895.119 168.652C895.119 175.854 889.271 181.693 882.055 181.694C874.84 181.694 868.99 175.855 868.99 168.653L868.984 40.3759C868.984 33.1736 874.833 27.3347 882.048 27.3344Z" fill="#50DB8A"/>
<path d="M946.6 91.0381C953.802 91.0381 959.64 96.8886 959.64 104.106C959.64 111.322 953.802 117.173 946.6 117.173H818.322C811.12 117.173 805.281 111.322 805.281 104.106C805.281 96.8886 811.12 91.0381 818.322 91.0381H946.6Z" fill="#50DB8A"/>
<path d="M117.605 537.808V409.53C117.605 402.328 123.456 396.49 130.673 396.49C137.89 396.49 143.74 402.328 143.74 409.53V537.808C143.74 545.011 137.89 550.849 130.673 550.849C123.456 550.849 117.605 545.011 117.605 537.808Z" fill="#50DB8A"/>
<path d="M195.22 461.01C202.422 461.01 208.261 466.676 208.262 473.666C208.262 480.656 202.423 486.323 195.221 486.323L66.9439 486.328C59.7416 486.329 53.9027 480.663 53.9023 473.673C53.9021 466.683 59.7405 461.016 66.9428 461.016L195.22 461.01Z" fill="#50DB8A"/>
<path d="M234.803 346.67C241.342 346.67 246.643 351.846 246.644 358.231L246.65 433.113C246.65 439.498 241.35 444.675 234.811 444.676C228.272 444.676 222.971 439.5 222.971 433.114L222.965 358.233C222.964 351.848 228.265 346.671 234.803 346.67Z" fill="#50DB8A"/>
<path d="M271.837 384.239C278.223 384.239 283.4 389.356 283.4 395.669C283.401 401.982 278.224 407.101 271.839 407.101L196.958 407.107C190.572 407.108 185.395 401.99 185.395 395.677C185.394 389.364 190.57 384.245 196.955 384.245L271.837 384.239Z" fill="#50DB8A"/>
</svg>
