<svg width="1528" height="1498" viewBox="0 0 1528 1498" fill="none" xmlns="http://www.w3.org/2000/svg">
<path d="M483.038 62.0449C660.306 62.0449 804.01 205.749 804.01 383.017C804.01 560.284 660.306 703.988 483.038 703.988C305.77 703.988 162.066 560.284 162.066 383.017C162.066 205.749 305.77 62.045 483.038 62.0449Z" fill="#F2D359" stroke="#7D6917" stroke-width="20"/>
<path d="M550.304 568.975C544.695 570.989 540.59 569.052 538.577 563.443L528.509 535.397C473.644 552.168 425.916 538.614 399.242 500.941C394.607 494.812 396.355 488.827 402.639 484.623L434.492 463.447C440.5 459.83 445.899 461.301 451.242 466.69C464.773 481.316 485.074 487.667 509.149 481.461L483.903 411.129L466.788 410.94C429.26 412.234 375.801 401.711 359.107 356.56C341.14 306.507 370.084 259.587 421.331 236.808L410.644 207.036C408.631 201.426 410.567 197.322 416.177 195.308L423.512 192.675C429.121 190.662 433.226 192.598 435.239 198.207L446.081 228.411C488.466 217.581 524.998 229.796 550.765 259.514C556.263 265.333 554.946 271.164 548.817 275.799L518.015 298.546C512.162 302.595 507.073 301.986 501.73 296.598C492.06 285.943 480.211 281.429 465.751 283.21L489.138 348.365L507.116 348.243C570.887 346.784 603.58 368.658 617.608 405.024C636.349 457.234 605.181 502.03 552.949 526.137L563.171 554.615C565.185 560.224 563.248 564.329 557.639 566.342L550.304 568.975ZM461.291 348.132L440.846 291.175C426.829 299.617 418.431 312.86 424.007 328.393C427.259 337.454 433.997 346.726 458.237 347.766L461.291 348.132ZM533.434 471.77C550.594 461.226 557.664 446.999 552.088 431.465C547.442 418.52 534.973 412.28 514.804 411.727L511.751 411.362L533.434 471.77Z" fill="#7D6917"/>
<path d="M954.694 10C1131.96 10 1275.67 153.704 1275.67 330.972C1275.67 508.24 1131.96 651.943 954.694 651.943C777.427 651.943 633.723 508.239 633.723 330.972C633.723 153.704 777.427 10.0001 954.694 10Z" fill="#F2D359" stroke="#7D6917" stroke-width="20"/>
<path d="M1021.96 516.93C1016.35 518.944 1012.25 517.008 1010.23 511.398L1000.17 483.352C945.3 500.123 897.572 486.569 870.899 448.896C866.263 442.767 868.011 436.782 874.295 432.578L906.148 411.403C912.156 407.785 917.555 409.256 922.898 414.645C936.429 429.271 956.731 435.622 980.805 429.416L955.56 359.084L938.444 358.895C900.916 360.189 847.457 349.666 830.763 304.515C812.797 254.462 841.74 207.542 892.988 184.763L882.301 154.991C880.287 149.381 882.224 145.277 887.833 143.263L895.168 140.63C900.777 138.617 904.882 140.553 906.895 146.162L917.737 176.366C960.122 165.536 996.654 177.751 1022.42 207.469C1027.92 213.288 1026.6 219.119 1020.47 223.754L989.671 246.501C983.819 250.55 978.729 249.941 973.386 244.553C963.716 233.899 951.867 229.384 937.407 231.165L960.794 296.32L978.773 296.198C1042.54 294.739 1075.24 316.613 1089.26 352.979C1108 405.189 1076.84 449.985 1024.61 474.092L1034.83 502.57C1036.84 508.179 1034.9 512.284 1029.3 514.297L1021.96 516.93ZM932.947 296.087L912.503 239.13C898.485 247.572 890.087 260.815 895.663 276.348C898.915 285.409 905.653 294.681 929.893 295.721L932.947 296.087ZM1005.09 419.725C1022.25 409.181 1029.32 394.954 1023.74 379.42C1019.1 366.476 1006.63 360.235 986.46 359.682L983.407 359.317L1005.09 419.725Z" fill="#7D6917"/>
<path d="M1197.03 547.525C1374.29 547.525 1518 691.229 1518 868.497C1518 1045.76 1374.29 1189.47 1197.03 1189.47C1019.76 1189.47 876.055 1045.76 876.055 868.497C876.055 691.229 1019.76 547.525 1197.03 547.525Z" fill="#F2D359" stroke="#7D6917" stroke-width="20"/>
<path d="M1264.29 1054.46C1258.68 1056.47 1254.58 1054.53 1252.56 1048.92L1242.5 1020.88C1187.63 1037.65 1139.9 1024.09 1113.23 986.422C1108.6 980.292 1110.34 974.307 1116.63 970.103L1148.48 948.928C1154.49 945.31 1159.89 946.782 1165.23 952.17C1178.76 966.796 1199.06 973.147 1223.14 966.941L1197.89 896.609L1180.78 896.421C1143.25 897.714 1089.79 887.191 1073.09 842.04C1055.13 791.988 1084.07 745.068 1135.32 722.289L1124.63 692.516C1122.62 686.907 1124.56 682.802 1130.16 680.789L1137.5 678.156C1143.11 676.142 1147.21 678.079 1149.23 683.688L1160.07 713.892C1202.45 703.061 1238.99 715.277 1264.75 744.994C1270.25 750.814 1268.93 756.644 1262.81 761.28L1232 784.026C1226.15 788.075 1221.06 787.467 1215.72 782.078C1206.05 771.424 1194.2 766.91 1179.74 768.691L1203.13 833.845L1221.1 833.724C1284.88 832.265 1317.57 854.138 1331.6 890.505C1350.34 942.715 1319.17 987.511 1266.94 1011.62L1277.16 1040.1C1279.17 1045.7 1277.24 1049.81 1271.63 1051.82L1264.29 1054.46ZM1175.28 833.612L1154.83 776.656C1140.82 785.097 1132.42 798.34 1137.99 813.874C1141.25 822.935 1147.98 832.206 1172.23 833.247L1175.28 833.612ZM1247.42 957.25C1264.58 946.707 1271.65 932.479 1266.08 916.946C1261.43 904.001 1248.96 897.761 1228.79 897.207L1225.74 896.842L1247.42 957.25Z" fill="#7D6917"/>
<path d="M713.175 845.154C890.443 845.154 1034.15 988.858 1034.15 1166.13C1034.15 1343.39 890.443 1487.1 713.175 1487.1C535.907 1487.1 392.203 1343.39 392.203 1166.13C392.203 988.858 535.907 845.154 713.175 845.154Z" fill="#F2D359" stroke="#7D6917" stroke-width="20"/>
<path d="M780.441 1352.09C774.831 1354.1 770.727 1352.16 768.713 1346.55L758.646 1318.51C703.781 1335.28 656.053 1321.73 629.379 1284.05C624.743 1277.92 626.492 1271.94 632.776 1267.73L664.629 1246.56C670.636 1242.94 676.035 1244.41 681.379 1249.8C694.909 1264.43 715.211 1270.78 739.286 1264.57L714.04 1194.24L696.925 1194.05C659.397 1195.35 605.937 1184.82 589.243 1139.67C571.277 1089.62 600.221 1042.7 651.468 1019.92L640.781 990.147C638.768 984.538 640.704 980.433 646.313 978.42L653.649 975.787C659.258 973.773 663.362 975.709 665.376 981.319L676.218 1011.52C718.603 1000.69 755.135 1012.91 780.901 1042.63C786.4 1048.44 785.083 1054.28 778.954 1058.91L748.152 1081.66C742.299 1085.71 737.21 1085.1 731.866 1079.71C722.197 1069.05 710.348 1064.54 695.888 1066.32L719.275 1131.48L737.253 1131.35C801.024 1129.9 833.717 1151.77 847.745 1188.14C866.485 1240.35 835.318 1285.14 783.086 1309.25L793.308 1337.73C795.321 1343.34 793.385 1347.44 787.776 1349.45L780.441 1352.09ZM691.427 1131.24L670.983 1074.29C656.965 1082.73 648.568 1095.97 654.143 1111.5C657.396 1120.57 664.133 1129.84 688.374 1130.88L691.427 1131.24ZM763.571 1254.88C780.731 1244.34 787.801 1230.11 782.225 1214.58C777.579 1201.63 765.11 1195.39 744.941 1194.84L741.887 1194.47L763.571 1254.88Z" fill="#7D6917"/>
<path d="M330.972 623.965C508.239 623.965 651.943 767.669 651.943 944.937C651.943 1122.2 508.239 1265.91 330.972 1265.91C153.704 1265.91 10 1122.2 10 944.937C10.0001 767.669 153.704 623.965 330.972 623.965Z" fill="#F2D359" stroke="#7D6917" stroke-width="20"/>
<path d="M398.238 1130.9C392.628 1132.91 388.524 1130.97 386.51 1125.36L376.443 1097.32C321.578 1114.09 273.849 1100.53 247.176 1062.86C242.54 1056.73 244.289 1050.75 250.573 1046.54L282.426 1025.37C288.433 1021.75 293.832 1023.22 299.176 1028.61C312.706 1043.24 333.008 1049.59 357.083 1043.38L331.837 973.048L314.722 972.86C277.194 974.154 223.734 963.631 207.04 918.48C189.074 868.427 218.018 821.507 269.265 798.728L258.578 768.956C256.565 763.346 258.501 759.242 264.11 757.228L271.445 754.595C277.055 752.582 281.159 754.518 283.173 760.127L294.014 790.331C336.4 779.501 372.932 791.716 398.698 821.434C404.197 827.253 402.88 833.084 396.751 837.719L365.949 860.465C360.096 864.515 355.007 863.906 349.663 858.518C339.994 847.863 328.145 843.349 313.684 845.13L337.072 910.284L355.05 910.163C418.821 908.704 451.514 930.578 465.541 966.944C484.282 1019.15 453.115 1063.95 400.883 1088.06L411.105 1116.53C413.118 1122.14 411.182 1126.25 405.573 1128.26L398.238 1130.9ZM309.224 910.051L288.78 853.095C274.762 861.537 266.364 874.78 271.94 890.313C275.193 899.374 281.93 908.646 306.171 909.686L309.224 910.051ZM381.368 1033.69C398.528 1023.15 405.598 1008.92 400.022 993.385C395.375 980.44 382.907 974.2 362.738 973.647L359.684 973.281L381.368 1033.69Z" fill="#7D6917"/>
<path d="M634.296 236.068C811.564 236.068 955.267 379.772 955.268 557.04C955.268 734.308 811.564 878.012 634.296 878.012C457.028 878.012 313.324 734.308 313.324 557.04C313.324 379.772 457.028 236.068 634.296 236.068Z" fill="#F2D359" stroke="#7D6917" stroke-width="20"/>
<path d="M701.558 743.001C695.949 745.014 691.844 743.078 689.83 737.469L679.763 709.422C624.898 726.193 577.17 712.639 550.496 674.967C545.861 668.837 547.609 662.852 553.893 658.648L585.746 637.473C591.753 633.855 597.153 635.327 602.496 640.715C616.027 655.341 636.328 661.692 660.403 655.486L635.157 585.154L618.042 584.965C580.514 586.259 527.055 575.736 510.36 530.585C492.394 480.533 521.338 433.612 572.585 410.834L561.898 381.061C559.885 375.452 561.821 371.347 567.43 369.334L574.766 366.701C580.375 364.687 584.48 366.623 586.493 372.233L597.335 402.437C639.72 391.606 676.252 403.822 702.018 433.539C707.517 439.359 706.2 445.189 700.071 449.825L669.269 472.571C663.416 476.62 658.327 476.011 652.983 470.623C643.314 459.969 631.465 455.455 617.005 457.235L640.392 522.39L658.37 522.269C722.141 520.81 754.834 542.683 768.862 579.05C787.602 631.26 756.435 676.056 704.203 700.162L714.425 728.64C716.439 734.25 714.502 738.354 708.893 740.368L701.558 743.001ZM612.545 522.157L592.1 465.201C578.082 473.642 569.685 486.885 575.261 502.419C578.513 511.48 585.251 520.751 609.491 521.792L612.545 522.157ZM684.688 645.795C701.848 635.252 708.918 621.024 703.342 605.49C698.696 592.546 686.227 586.306 666.058 585.752L663.005 585.387L684.688 645.795Z" fill="#7D6917"/>
<path d="M871.749 427.17C1049.02 427.17 1192.72 570.874 1192.72 748.142C1192.72 925.409 1049.02 1069.11 871.749 1069.11C694.481 1069.11 550.777 925.409 550.777 748.142C550.777 570.874 694.481 427.17 871.749 427.17Z" fill="#F2D359" stroke="#7D6917" stroke-width="20"/>
<path d="M939.011 934.102C933.402 936.116 929.297 934.179 927.284 928.57L917.216 900.523C862.351 917.295 814.623 903.741 787.949 866.068C783.314 859.939 785.062 853.954 791.346 849.75L823.199 828.574C829.207 824.957 834.606 826.428 839.949 831.816C853.48 846.443 873.781 852.794 897.856 846.588L872.61 776.255L855.495 776.067C817.967 777.361 764.508 766.838 747.814 721.687C729.847 671.634 758.791 624.714 810.038 601.935L799.352 572.163C797.338 566.553 799.274 562.449 804.884 560.435L812.219 557.802C817.828 555.789 821.933 557.725 823.946 563.334L834.788 593.538C877.173 582.708 913.705 594.923 939.472 624.641C944.97 630.46 943.653 636.291 937.524 640.926L906.722 663.672C900.869 667.722 895.78 667.113 890.437 661.725C880.767 651.07 868.918 646.556 854.458 648.337L877.845 713.491L895.823 713.37C959.594 711.911 992.287 733.785 1006.31 770.151C1025.06 822.361 993.888 867.157 941.656 891.264L951.878 919.742C953.892 925.351 951.956 929.456 946.346 931.469L939.011 934.102ZM849.998 713.259L829.553 656.302C815.536 664.744 807.138 677.987 812.714 693.52C815.966 702.581 822.704 711.853 846.944 712.893L849.998 713.259ZM922.141 836.896C939.301 826.353 946.371 812.126 940.795 796.592C936.149 783.647 923.68 777.407 903.511 776.854L900.458 776.488L922.141 836.896Z" fill="#7D6917"/>
<path d="M661.944 562.975C839.212 562.975 982.916 706.679 982.916 883.946C982.916 1061.21 839.212 1204.92 661.944 1204.92C484.677 1204.92 340.973 1061.21 340.973 883.946C340.973 706.679 484.677 562.975 661.944 562.975Z" fill="#F2D359" stroke="#7D6917" stroke-width="20"/>
<path d="M532.918 847.883C540.455 867.729 564.162 877.806 584.92 874.203C605.679 870.6 623.266 855.985 635.9 838.846C688.394 767.642 635.775 699.29 588.515 714.56C539.077 730.533 520.882 816.188 532.918 847.873V847.883Z" fill="white"/>
<path d="M586.426 708.087C614.012 699.174 642.044 714.921 655.656 741.142C669.482 767.776 668.99 805.434 641.38 842.886L641.379 842.885C628.187 860.78 609.235 876.891 586.086 880.909C562.96 884.923 535.533 873.928 526.561 850.3C526.524 850.204 526.489 850.107 526.457 850.009C523.048 840.844 521.981 828.578 522.787 815.505C523.61 802.163 526.418 787.397 531.218 773.153C540.675 745.092 558.598 717.078 586.426 708.087ZM643.579 747.412C632.19 725.474 610.284 714.679 590.61 721.036C568.999 728.018 553.105 750.818 544.114 777.499C539.69 790.626 537.117 804.213 536.369 816.343C535.612 828.606 536.756 838.81 539.281 845.459C539.294 845.493 539.305 845.528 539.317 845.562C545.459 861.568 565.405 870.687 583.76 867.501C602.128 864.313 618.35 851.193 630.427 834.811C655.309 801.059 654.754 768.938 643.579 747.412Z" fill="#231F20"/>
<path d="M623.819 799.294C636.203 783.35 634.661 761.221 620.378 749.872C606.096 738.523 584.471 742.242 572.087 758.186C569.022 762.136 566.806 766.462 565.428 770.913C564.676 777.994 564.474 784.757 564.821 790.884C566.497 797.396 570.082 803.283 575.527 807.608C589.81 818.957 611.435 815.238 623.819 799.294Z" fill="#231F20"/>
<path d="M566.716 754.013C581.01 735.61 606.866 730.443 624.614 744.546C642.302 758.601 643.465 785.096 629.195 803.468C614.902 821.871 589.047 827.039 571.298 812.936L570.677 812.432C564.334 807.168 560.189 800.169 558.235 792.581C558.124 792.151 558.056 791.712 558.031 791.269C557.66 784.725 557.88 777.589 558.665 770.195L558.707 769.867C558.758 769.54 558.833 769.217 558.931 768.901C560.551 763.67 563.147 758.613 566.714 754.016L566.716 754.013ZM616.149 755.2C605.333 746.605 587.937 748.876 577.463 762.361C575.044 765.479 573.273 768.857 572.126 772.314C571.494 778.559 571.319 784.471 571.58 789.81C572.932 794.584 575.556 798.799 579.373 801.966L579.762 802.282L579.763 802.282C590.579 810.877 607.975 808.606 618.449 795.121C628.946 781.606 627.025 763.843 616.149 755.2Z" fill="#231F20"/>
<path d="M660.766 836.776C668.302 856.621 692.01 866.699 712.768 863.095C733.526 859.492 751.114 844.878 763.748 827.739C816.241 756.535 763.623 688.182 716.362 703.452C666.924 719.425 648.729 805.08 660.766 836.766V836.776Z" fill="white"/>
<path d="M714.273 696.978C741.86 688.065 769.892 703.812 783.504 730.033C797.33 756.666 796.838 794.324 769.227 831.776C756.035 849.672 737.082 865.781 713.934 869.799C690.808 873.813 663.381 862.819 654.408 839.191C654.372 839.095 654.337 838.997 654.305 838.9C650.896 829.735 649.828 817.469 650.635 804.395C651.458 791.054 654.266 776.288 659.066 762.044C668.523 733.983 686.445 705.969 714.273 696.978ZM771.427 736.303C760.038 714.364 738.131 703.57 718.457 709.926C696.847 716.908 680.953 739.708 671.961 766.39C667.538 779.517 664.965 793.104 664.216 805.233C663.46 817.497 664.603 827.701 667.129 834.35C667.142 834.384 667.153 834.418 667.165 834.452C673.306 850.459 693.252 859.577 711.607 856.392C729.975 853.204 746.198 840.083 758.274 823.701C783.157 789.949 782.602 757.829 771.427 736.303Z" fill="#231F20"/>
<path d="M703.373 796.501C717.656 807.849 739.281 804.131 751.665 788.187C764.049 772.243 762.507 750.113 748.225 738.765C733.942 727.416 712.317 731.135 699.933 747.079C687.549 763.023 689.091 785.152 703.373 796.501Z" fill="#231F20"/>
<path d="M694.56 742.906C708.854 724.503 734.709 719.335 752.458 733.439C770.145 747.493 771.308 773.988 757.039 792.361C742.745 810.764 716.889 815.931 699.141 801.828C681.454 787.773 680.29 761.278 694.56 742.906ZM743.992 744.092C733.176 735.498 715.78 737.768 705.306 751.253C694.809 764.769 696.73 782.532 707.606 791.175C718.422 799.769 735.818 797.499 746.291 784.014C756.789 770.498 754.869 752.735 743.992 744.092Z" fill="#231F20"/>
<path d="M488.17 844.548C491.923 844.743 494.808 847.943 494.613 851.696C493.538 872.436 494.561 893.136 498.261 913.427L498.616 915.328C506.249 955.225 524.775 993.301 554.055 1020.67C583.807 1048.48 625.174 1064.33 665.063 1059.6L666.102 1059.47C710.055 1053.87 748.974 1024.26 775.097 986.94C801.451 949.29 816.278 904.622 829.124 859.295C830.149 855.68 833.91 853.58 837.525 854.605C841.14 855.629 843.24 859.39 842.215 863.006C829.331 908.468 814.013 955.073 786.245 994.744C758.451 1034.45 716.036 1067.25 666.666 1073.11C622.249 1078.38 577.016 1060.76 544.763 1030.61C512.503 1000.46 492.699 958.77 484.874 915.869V915.868C480.961 894.406 479.902 872.639 481.024 850.991C481.218 847.239 484.418 844.354 488.17 844.548Z" fill="#231F20"/>
</svg>
