<svg width="2252" height="1006" viewBox="0 0 2252 1006" fill="none" xmlns="http://www.w3.org/2000/svg">
<path d="M1360.87 799.393C1360.87 820.381 1335.63 839.678 1293.39 854.91C1236.47 875.446 1148.66 888.608 1050.15 888.608C951.648 888.608 863.854 875.446 806.925 854.91C764.683 839.678 739.441 820.381 739.441 799.393C739.441 750.119 878.554 710.178 1050.15 710.178C1221.76 710.178 1360.87 750.119 1360.87 799.393Z" fill="#F2D359"/>
<path d="M1360.87 799.395V910.429C1360.87 959.702 1221.76 999.644 1050.15 999.644C878.549 999.644 739.441 959.702 739.441 910.429V799.395C739.441 820.383 764.683 839.68 806.925 854.912C863.854 875.448 951.653 888.609 1050.15 888.609C1148.66 888.609 1236.47 875.448 1293.39 854.912C1335.63 839.68 1360.87 820.383 1360.87 799.395Z" fill="#7D6917"/>
<path d="M1439.82 688.359C1439.82 709.348 1414.58 728.645 1372.33 743.877C1315.41 764.413 1227.61 777.574 1129.1 777.574C1030.59 777.574 942.799 764.413 885.871 743.877C843.628 728.645 818.387 709.348 818.387 688.359C818.387 639.086 957.499 599.145 1129.1 599.145C1300.7 599.145 1439.82 639.086 1439.82 688.359Z" fill="#F2D359"/>
<path d="M1439.82 688.359V799.394C1439.82 848.667 1300.71 888.609 1129.1 888.609C957.494 888.609 818.387 848.667 818.387 799.394V688.359C818.387 709.348 843.628 728.645 885.871 743.877C942.799 764.413 1030.6 777.574 1129.1 777.574C1227.6 777.574 1315.41 764.413 1372.33 743.877C1414.58 728.645 1439.82 709.348 1439.82 688.359Z" fill="#7D6917"/>
<path d="M1370.48 577.324C1370.48 598.313 1345.24 617.61 1302.99 632.841C1246.07 653.378 1158.27 666.539 1059.76 666.539C961.253 666.539 873.459 653.378 816.531 632.841C774.288 617.61 749.047 598.313 749.047 577.324C749.047 528.051 888.159 488.109 1059.76 488.109C1231.36 488.109 1370.48 528.051 1370.48 577.324Z" fill="#F2D359"/>
<path d="M1370.48 577.326V688.361C1370.48 737.634 1231.37 777.575 1059.76 777.575C888.154 777.575 749.047 737.634 749.047 688.361V577.326C749.047 598.315 774.288 617.612 816.531 632.843C873.459 653.38 961.258 666.541 1059.76 666.541C1158.26 666.541 1246.07 653.38 1302.99 632.843C1345.24 617.612 1370.48 598.315 1370.48 577.326Z" fill="#7D6917"/>
<path d="M1405.5 454.457C1405.5 475.446 1380.26 494.743 1338.01 509.974C1281.09 530.511 1193.29 543.672 1094.78 543.672C996.273 543.672 908.479 530.511 851.55 509.974C809.308 494.743 784.066 475.446 784.066 454.457C784.066 405.184 923.179 365.242 1094.78 365.242C1266.38 365.242 1405.5 405.184 1405.5 454.457Z" fill="#F2D359"/>
<path d="M1405.5 454.457V565.491C1405.5 614.765 1266.39 654.706 1094.78 654.706C923.174 654.706 784.066 614.765 784.066 565.491V454.457C784.066 475.446 809.308 494.743 851.55 509.974C908.479 530.51 996.278 543.672 1094.78 543.672C1193.28 543.672 1281.09 530.51 1338.01 509.974C1380.26 494.743 1405.5 475.446 1405.5 454.457Z" fill="#7D6917"/>
<path d="M1388.63 323.24C1388.63 344.229 1363.39 363.526 1321.14 378.757C1264.22 399.294 1176.42 412.455 1077.91 412.455C979.402 412.455 891.607 399.294 834.679 378.757C792.437 363.526 767.195 344.229 767.195 323.24C767.195 273.967 906.308 234.025 1077.91 234.025C1249.51 234.025 1388.63 273.967 1388.63 323.24Z" fill="#F2D359"/>
<path d="M1388.63 323.24V434.275C1388.63 483.548 1249.51 523.489 1077.91 523.489C906.303 523.489 767.195 483.548 767.195 434.275V323.24C767.195 344.229 792.437 363.526 834.679 378.757C891.607 399.294 979.406 412.455 1077.91 412.455C1176.41 412.455 1264.22 399.294 1321.14 378.757C1363.39 363.526 1388.63 344.229 1388.63 323.24Z" fill="#7D6917"/>
<path d="M2207.38 805.637C2207.38 826.625 2182.14 845.923 2139.9 861.154C2082.97 881.69 1995.17 894.852 1896.66 894.852C1798.16 894.852 1710.36 881.69 1653.43 861.154C1611.19 845.923 1585.95 826.625 1585.95 805.637C1585.95 756.364 1725.06 716.422 1896.66 716.422C2068.26 716.422 2207.38 756.364 2207.38 805.637Z" fill="#F2D359"/>
<path d="M2207.38 805.637V916.671C2207.38 965.944 2068.27 1005.89 1896.66 1005.89C1725.06 1005.89 1585.95 965.944 1585.95 916.671V805.637C1585.95 826.625 1611.19 845.923 1653.43 861.154C1710.36 881.69 1798.16 894.852 1896.66 894.852C1995.16 894.852 2082.97 881.69 2139.9 861.154C2182.14 845.923 2207.38 826.625 2207.38 805.637Z" fill="#7D6917"/>
<path d="M2252 683.787C2252 704.776 2226.76 724.073 2184.52 739.304C2127.59 759.841 2039.79 773.002 1941.28 773.002C1842.78 773.002 1754.98 759.841 1698.05 739.304C1655.81 724.073 1630.57 704.776 1630.57 683.787C1630.57 634.514 1769.68 594.572 1941.28 594.572C2112.88 594.572 2252 634.514 2252 683.787Z" fill="#F2D359"/>
<path d="M2252 683.787V794.821C2252 844.095 2112.89 884.036 1941.28 884.036C1769.68 884.036 1630.57 844.095 1630.57 794.821V683.787C1630.57 704.776 1655.81 724.073 1698.05 739.304C1754.98 759.84 1842.78 773.002 1941.28 773.002C2039.79 773.002 2127.59 759.84 2184.52 739.304C2226.76 724.073 2252 704.776 2252 683.787Z" fill="#7D6917"/>
<path d="M2162.76 565.367C2162.76 586.356 2137.51 605.653 2095.27 620.884C2038.35 641.421 1950.54 654.582 1852.04 654.582C1753.53 654.582 1665.74 641.421 1608.81 620.884C1566.57 605.653 1541.32 586.356 1541.32 565.367C1541.32 516.094 1680.44 476.152 1852.04 476.152C2023.64 476.152 2162.76 516.094 2162.76 565.367Z" fill="#F2D359"/>
<path d="M2162.76 565.369V676.404C2162.76 725.677 2023.64 765.618 1852.04 765.618C1680.43 765.618 1541.32 725.677 1541.32 676.404V565.369C1541.32 586.358 1566.57 605.655 1608.81 620.886C1665.74 641.423 1753.54 654.584 1852.04 654.584C1950.54 654.584 2038.35 641.423 2095.27 620.886C2137.51 605.655 2162.76 586.358 2162.76 565.369Z" fill="#7D6917"/>
<path d="M2241.7 454.334C2241.7 475.323 2216.46 494.62 2174.22 509.851C2117.29 530.387 2029.49 543.549 1930.98 543.549C1832.48 543.549 1744.68 530.387 1687.75 509.851C1645.51 494.62 1620.27 475.323 1620.27 454.334C1620.27 405.061 1759.38 365.119 1930.98 365.119C2102.58 365.119 2241.7 405.061 2241.7 454.334Z" fill="#F2D359"/>
<path d="M2241.7 454.334V565.368C2241.7 614.642 2102.59 654.583 1930.98 654.583C1759.38 654.583 1620.27 614.642 1620.27 565.368V454.334C1620.27 475.323 1645.51 494.62 1687.75 509.851C1744.68 530.387 1832.48 543.549 1930.98 543.549C2029.49 543.549 2117.29 530.387 2174.22 509.851C2216.46 494.62 2241.7 475.323 2241.7 454.334Z" fill="#7D6917"/>
<path d="M2172.36 343.299C2172.36 364.287 2147.12 383.585 2104.87 398.816C2047.95 419.352 1960.15 432.514 1861.64 432.514C1763.13 432.514 1675.34 419.352 1618.41 398.816C1576.17 383.585 1550.93 364.287 1550.93 343.299C1550.93 294.026 1690.04 254.084 1861.64 254.084C2033.24 254.084 2172.36 294.026 2172.36 343.299Z" fill="#F2D359"/>
<path d="M2172.36 343.299V454.333C2172.36 503.606 2033.24 543.548 1861.64 543.548C1690.03 543.548 1550.93 503.606 1550.93 454.333V343.299C1550.93 364.287 1576.17 383.585 1618.41 398.816C1675.34 419.352 1763.14 432.514 1861.64 432.514C1960.14 432.514 2047.95 419.352 2104.87 398.816C2147.12 383.585 2172.36 364.287 2172.36 343.299Z" fill="#7D6917"/>
<path d="M2207.38 220.432C2207.38 241.42 2182.14 260.718 2139.9 275.949C2082.97 296.485 1995.17 309.647 1896.66 309.647C1798.16 309.647 1710.36 296.485 1653.43 275.949C1611.19 260.718 1585.95 241.42 1585.95 220.432C1585.95 171.158 1725.06 131.217 1896.66 131.217C2068.26 131.217 2207.38 171.158 2207.38 220.432Z" fill="#F2D359"/>
<path d="M2207.38 220.432V331.466C2207.38 380.739 2068.27 420.681 1896.66 420.681C1725.06 420.681 1585.95 380.739 1585.95 331.466V220.432C1585.95 241.42 1611.19 260.717 1653.43 275.949C1710.36 296.485 1798.16 309.647 1896.66 309.647C1995.16 309.647 2082.97 296.485 2139.9 275.949C2182.14 260.717 2207.38 241.42 2207.38 220.432Z" fill="#7D6917"/>
<path d="M2190.51 89.2149C2190.51 110.203 2165.27 129.501 2123.03 144.732C2066.1 165.268 1978.3 178.43 1879.79 178.43C1781.28 178.43 1693.49 165.268 1636.56 144.732C1594.32 129.501 1569.08 110.203 1569.08 89.2149C1569.08 39.9417 1708.19 0 1879.79 0C2051.39 0 2190.51 39.9417 2190.51 89.2149Z" fill="#F2D359"/>
<path d="M2190.51 89.2148V200.249C2190.51 249.522 2051.4 289.464 1879.79 289.464C1708.19 289.464 1569.08 249.522 1569.08 200.249V89.2148C1569.08 110.203 1594.32 129.501 1636.56 144.732C1693.49 165.268 1781.29 178.43 1879.79 178.43C1978.29 178.43 2066.1 165.268 2123.03 144.732C2165.27 129.501 2190.51 110.203 2190.51 89.2148Z" fill="#7D6917"/>
<path d="M638.131 775.504C638.131 796.493 612.889 815.79 570.647 831.021C513.723 851.557 425.92 864.719 327.413 864.719C228.905 864.719 141.111 851.557 84.1832 831.021C41.9406 815.79 16.6992 796.493 16.6992 775.504C16.6992 726.231 155.812 686.289 327.413 686.289C499.013 686.289 638.131 726.231 638.131 775.504Z" fill="#F2D359"/>
<path d="M638.131 775.504V886.538C638.131 935.811 499.018 975.753 327.413 975.753C155.807 975.753 16.6992 935.811 16.6992 886.538V775.504C16.6992 796.492 41.9406 815.79 84.1832 831.021C141.111 851.557 228.91 864.719 327.413 864.719C425.915 864.719 513.723 851.557 570.647 831.021C612.889 815.79 638.131 796.492 638.131 775.504Z" fill="#7D6917"/>
<path d="M621.432 644.287C621.432 665.276 596.19 684.573 553.948 699.804C497.024 720.341 409.22 733.502 310.713 733.502C212.206 733.502 124.412 720.341 67.484 699.804C25.2413 684.573 0 665.276 0 644.287C0 595.014 139.113 555.072 310.713 555.072C482.314 555.072 621.432 595.014 621.432 644.287Z" fill="#F2D359"/>
<path d="M621.432 644.287V755.321C621.432 804.595 482.319 844.536 310.713 844.536C139.108 844.536 0 804.595 0 755.321V644.287C0 665.276 25.2413 684.573 67.484 699.804C124.412 720.341 212.211 733.502 310.713 733.502C409.215 733.502 497.024 720.341 553.948 699.804C596.19 684.573 621.432 665.276 621.432 644.287Z" fill="#7D6917"/>
</svg>
