<svg width="1547" height="984" viewBox="0 0 1547 984" fill="none" xmlns="http://www.w3.org/2000/svg">
<path d="M412.5 677C594.478 677 742 529.478 742 347.5C742 165.522 594.478 18 412.5 18C230.522 18 83 165.522 83 347.5C83 529.478 230.522 677 412.5 677Z" fill="#F2D359"/>
<path d="M732.725 347.5C732.725 170.644 589.356 27.2744 412.5 27.2744C235.644 27.2744 92.2744 170.644 92.2744 347.5C92.2744 524.356 235.644 667.725 412.5 667.725C589.356 667.725 732.725 524.356 732.725 347.5ZM751 347.5C751 534.449 599.449 686 412.5 686C225.551 686 74 534.449 74 347.5C74 160.551 225.551 9 412.5 9C599.449 9.00001 751 160.551 751 347.5Z" fill="#7D6917"/>
<path d="M1179.5 668C1361.48 668 1509 520.478 1509 338.5C1509 156.522 1361.48 9 1179.5 9C997.522 9 850 156.522 850 338.5C850 520.478 997.522 668 1179.5 668Z" fill="#F2D359"/>
<path d="M1499.72 338.5C1499.72 161.644 1356.36 18.2744 1179.5 18.2744C1002.64 18.2744 859.274 161.644 859.274 338.5C859.274 515.356 1002.64 658.725 1179.5 658.725C1356.36 658.725 1499.72 515.356 1499.72 338.5ZM1518 338.5C1518 525.449 1366.45 677 1179.5 677C992.551 677 841 525.449 841 338.5C841 151.551 992.551 0 1179.5 0C1366.45 0 1518 151.551 1518 338.5Z" fill="#7D6917"/>
<path d="M573.448 340.294C577.777 337.709 583.387 339.118 585.976 343.441C585.977 343.442 585.977 343.444 585.979 343.446C585.982 343.451 585.987 343.46 585.994 343.472C586.009 343.495 586.031 343.533 586.061 343.583C586.122 343.684 586.216 343.839 586.341 344.046C586.592 344.459 586.971 345.081 587.474 345.901C588.482 347.541 589.99 349.974 591.973 353.114C595.939 359.394 601.804 368.504 609.373 379.77C624.513 402.307 646.449 433.446 673.603 467.812C728.037 536.702 802.935 617.91 885.677 669.126C889.965 671.781 891.286 677.403 888.628 681.684C885.97 685.965 880.339 687.284 876.051 684.63C790.611 631.743 714.146 548.573 659.26 479.111C631.756 444.301 609.544 412.77 594.201 389.931C586.528 378.51 580.568 369.255 576.519 362.843C574.495 359.637 572.947 357.141 571.902 355.439C571.379 354.589 570.982 353.937 570.713 353.494C570.579 353.272 570.477 353.103 570.407 352.988C570.372 352.93 570.346 352.886 570.327 352.855C570.318 352.839 570.311 352.827 570.305 352.819C570.303 352.815 570.3 352.81 570.299 352.808C570.298 352.805 570.342 352.776 578.136 348.122L570.296 352.803C567.707 348.48 569.118 342.88 573.448 340.294Z" fill="#7D6917"/>
<path d="M973.851 373.132C981.904 377.462 981.903 377.464 981.901 377.467C981.9 377.469 981.898 377.473 981.895 377.478C981.89 377.488 981.882 377.502 981.872 377.52C981.852 377.557 981.823 377.612 981.784 377.683C981.707 377.826 981.592 378.037 981.441 378.314C981.14 378.868 980.693 379.687 980.107 380.755C978.935 382.89 977.208 386.019 974.974 390.015C970.507 398.007 964.014 409.465 955.898 423.363C939.67 451.148 916.927 488.726 890.88 527.851C864.853 566.947 835.422 607.749 805.814 641.906C776.426 675.811 746.046 704.147 718.003 717.148C713.421 719.272 707.982 717.287 705.854 712.715C703.725 708.142 705.714 702.713 710.296 700.588C734.601 689.32 762.858 663.555 791.979 629.959C820.88 596.616 849.831 556.517 875.642 517.746C901.433 479.004 923.984 441.748 940.092 414.167C948.144 400.382 954.579 389.023 958.998 381.119C961.207 377.167 962.911 374.079 964.061 371.983C964.636 370.935 965.073 370.136 965.364 369.6C965.51 369.332 965.619 369.131 965.692 368.997C965.728 368.93 965.755 368.88 965.772 368.848C965.781 368.831 965.788 368.819 965.792 368.812C965.794 368.808 965.795 368.806 965.796 368.804C965.797 368.803 965.797 368.802 973.851 373.132ZM965.797 368.802C968.193 364.363 973.741 362.702 978.189 365.094C982.637 367.485 984.3 373.023 981.904 377.462L965.797 368.802Z" fill="#7D6917"/>
<path d="M104.829 348.122C113.913 349.362 113.913 349.364 113.913 349.367C113.913 349.369 113.912 349.372 113.912 349.376C113.91 349.384 113.909 349.396 113.907 349.411C113.902 349.44 113.897 349.483 113.889 349.54C113.873 349.652 113.85 349.817 113.819 350.034C113.758 350.468 113.666 351.108 113.545 351.944C113.301 353.617 112.937 356.075 112.451 359.236C111.479 365.558 110.02 374.693 108.067 385.984C104.16 408.561 98.2698 439.786 90.3327 474.389C74.5355 543.258 50.3696 626.716 17.0204 681.596C14.4007 685.907 8.76272 687.289 4.42825 684.684C0.0938258 682.078 -1.29626 676.471 1.32341 672.16C33.019 620.001 56.6818 539.081 72.4515 470.331C80.2979 436.125 86.1255 405.231 89.9913 382.891C91.9237 371.724 93.3643 362.701 94.3207 356.479C94.7988 353.369 95.1562 350.959 95.3929 349.332C95.5113 348.518 95.5995 347.9 95.6578 347.488C95.687 347.283 95.7088 347.128 95.723 347.026C95.7301 346.976 95.7352 346.938 95.7386 346.914C95.7402 346.902 95.7413 346.892 95.7421 346.887C95.7425 346.884 95.7426 346.883 95.7428 346.881C95.7433 346.881 95.8009 346.889 104.829 348.122ZM95.7435 346.881C96.4327 341.89 101.058 338.401 106.076 339.086C111.093 339.771 114.603 344.372 113.914 349.363L95.7435 346.881Z" fill="#7D6917"/>
<path d="M1428.4 337.03C1433.44 336.622 1437.85 340.376 1438.25 345.417V345.42C1438.26 345.424 1438.26 345.432 1438.26 345.442C1438.26 345.463 1438.26 345.497 1438.27 345.543C1438.27 345.636 1438.29 345.78 1438.3 345.972C1438.34 346.357 1438.39 346.938 1438.46 347.705C1438.6 349.24 1438.83 351.52 1439.15 354.465C1439.79 360.357 1440.8 368.904 1442.31 379.464C1445.31 400.595 1450.27 429.727 1458.05 461.728C1473.72 526.189 1500.45 600.504 1544.39 645.434C1547.92 649.047 1547.86 654.845 1544.26 658.384C1540.65 661.923 1534.86 661.864 1531.33 658.251C1483.72 609.569 1456.08 531.041 1440.29 466.062C1432.33 433.345 1427.27 403.608 1424.2 382.051C1422.67 371.266 1421.63 362.513 1420.97 356.441C1420.64 353.405 1420.41 351.038 1420.26 349.421C1420.18 348.612 1420.12 347.991 1420.09 347.567C1420.07 347.355 1420.05 347.192 1420.05 347.08C1420.04 347.025 1420.04 346.981 1420.03 346.951C1420.03 346.936 1420.03 346.924 1420.03 346.915C1420.03 346.911 1420.03 346.906 1420.03 346.904C1420.03 346.901 1420.03 346.898 1429.14 346.158L1420.03 346.898C1419.62 341.857 1423.37 337.439 1428.4 337.03Z" fill="#7D6917"/>
<path d="M262.741 611.001C267.751 610.914 271.883 614.936 271.969 619.984L262.897 620.142C271.969 619.984 271.969 619.986 271.969 619.99C271.969 619.992 271.969 619.996 271.969 620C271.969 620.009 271.969 620.021 271.97 620.037C271.97 620.068 271.971 620.113 271.972 620.171C271.973 620.287 271.976 620.456 271.978 620.676C271.983 621.117 271.989 621.764 271.994 622.61C272.003 624.3 272.005 626.781 271.981 629.978C271.932 636.37 271.776 645.626 271.343 657.14C270.478 680.159 268.51 712.246 264.095 748.551C255.299 820.888 236.667 911.083 196.903 979.478C194.37 983.834 188.812 985.297 184.488 982.745C180.165 980.193 178.713 974.593 181.246 970.237C219.093 905.14 237.373 817.977 246.085 746.328C250.425 710.642 252.36 679.08 253.21 656.448C253.635 645.136 253.789 636.065 253.836 629.838C253.86 626.725 253.857 624.323 253.849 622.708C253.844 621.9 253.839 621.289 253.834 620.885C253.832 620.683 253.83 620.532 253.828 620.434C253.828 620.385 253.827 620.349 253.826 620.326V620.299L253.825 620.063C253.865 615.122 257.809 611.087 262.741 611.001Z" fill="#7D6917"/>
<path d="M497.966 611.001C502.973 610.944 507.078 614.995 507.134 620.048V620.081C507.134 620.107 507.135 620.148 507.136 620.202C507.137 620.313 507.14 620.481 507.143 620.706C507.15 621.155 507.163 621.831 507.182 622.721C507.22 624.501 507.285 627.138 507.397 630.537C507.619 637.335 508.024 647.177 508.748 659.298C510.198 683.553 512.929 716.882 518.047 753.201C523.169 789.547 530.658 828.716 541.577 864.707C552.532 900.814 566.753 933.09 585.014 956.136C588.141 960.082 587.506 965.84 583.595 968.996C579.684 972.152 573.978 971.511 570.851 967.564C550.538 941.929 535.489 907.152 524.237 870.064C512.949 832.859 505.294 792.686 500.092 755.778C494.888 718.842 492.117 685.002 490.647 660.401C489.911 648.094 489.5 638.086 489.273 631.141C489.159 627.669 489.091 624.962 489.052 623.115C489.032 622.192 489.02 621.484 489.012 621.003C489.008 620.763 489.005 620.579 489.003 620.453C489.003 620.391 489.002 620.342 489.001 620.308C489.001 620.292 489.001 620.279 489.001 620.27C489.001 620.265 489.001 620.261 489.001 620.258C489.001 620.255 489.091 620.252 498.067 620.15L489.001 620.253C488.945 615.2 492.959 611.057 497.966 611.001Z" fill="#7D6917"/>
<path d="M1097.69 597.407C1098.1 592.375 1102.52 588.624 1107.57 589.03C1112.61 589.436 1116.38 593.845 1115.97 598.877L1106.83 598.142C1115.88 598.87 1115.97 598.879 1115.97 598.882C1115.97 598.884 1115.97 598.888 1115.97 598.892C1115.97 598.901 1115.97 598.914 1115.97 598.93C1115.96 598.962 1115.96 599.008 1115.95 599.069C1115.94 599.19 1115.93 599.367 1115.91 599.6C1115.87 600.065 1115.81 600.75 1115.73 601.645C1115.57 603.435 1115.32 606.064 1114.98 609.444C1114.3 616.205 1113.25 625.977 1111.74 638.064C1108.74 662.232 1103.92 695.698 1096.7 732.898C1082.33 806.935 1058.16 897.116 1018.88 957.813C1016.13 962.056 1010.46 963.276 1006.2 960.539C1001.94 957.802 1000.72 952.145 1003.47 947.902C1040.71 890.361 1064.37 803.185 1078.69 729.424C1085.82 692.724 1090.57 659.68 1093.54 635.814C1095.03 623.884 1096.07 614.257 1096.73 607.624C1097.07 604.307 1097.31 601.739 1097.46 600.008C1097.54 599.142 1097.6 598.485 1097.63 598.048C1097.65 597.83 1097.67 597.666 1097.68 597.559C1097.68 597.505 1097.68 597.466 1097.69 597.44C1097.69 597.428 1097.69 597.418 1097.69 597.413C1097.69 597.41 1097.69 597.408 1097.69 597.407Z" fill="#7D6917"/>
<path d="M1270.16 618.59C1270.17 618.595 1270.17 618.605 1270.17 618.617C1270.17 618.642 1270.18 618.682 1270.19 618.735C1270.21 618.841 1270.24 619.002 1270.28 619.217C1270.35 619.646 1270.47 620.29 1270.62 621.137C1270.93 622.832 1271.39 625.34 1272 628.576C1273.22 635.048 1275.05 644.427 1277.47 656.023C1282.31 679.219 1289.49 711.251 1298.86 746.591C1317.7 817.622 1345.07 900.751 1379.48 952.812C1382.27 957.026 1381.11 962.7 1376.89 965.484C1372.68 968.268 1367 967.109 1364.22 962.895C1328.01 908.113 1300.03 822.389 1281.18 751.278C1271.7 715.546 1264.45 683.184 1259.56 659.755C1257.12 648.037 1255.26 638.546 1254.02 631.975C1253.4 628.69 1252.93 626.133 1252.62 624.394C1252.46 623.524 1252.34 622.859 1252.26 622.408C1252.22 622.183 1252.19 622.011 1252.17 621.894C1252.16 621.836 1252.15 621.791 1252.15 621.761C1252.14 621.746 1252.14 621.734 1252.14 621.725C1252.14 621.721 1252.14 621.718 1252.14 621.716C1252.14 621.713 1252.14 621.711 1261.15 620.147C1270.16 618.583 1270.16 618.583 1270.16 618.584C1270.16 618.585 1270.16 618.587 1270.16 618.59ZM1259.59 611.136C1264.56 610.273 1269.3 613.607 1270.16 618.583L1252.14 621.711C1251.27 616.734 1254.61 612 1259.59 611.136Z" fill="#7D6917"/>
<path d="M415.912 567C411.591 567 409.264 564.68 409.264 560.372V538.83C367.716 536.842 338.466 515.963 329.492 483.816C327.83 478.514 330.489 474.868 335.807 473.543L362.73 466.915C367.716 465.92 371.04 468.24 373.367 473.211C379.017 486.468 391.316 495.747 409.264 497.404V443.385L397.631 439.076C371.705 430.791 337.802 410.575 337.469 375.777C337.469 337.334 368.713 312.478 409.264 309.495V286.628C409.264 282.32 411.591 280 415.912 280H421.563C425.884 280 428.21 282.32 428.21 286.628V309.827C459.787 312.809 481.724 330.043 492.028 356.555C494.355 361.858 492.028 365.503 486.71 367.16L460.119 375.114C455.134 376.44 451.81 374.783 449.483 369.812C445.494 360.201 438.514 354.236 428.21 351.916V401.958L440.509 406.267C484.384 420.849 501.335 443.716 502 471.886C502 511.986 469.759 534.853 428.21 538.499V560.372C428.21 564.68 425.884 567 421.563 567H415.912ZM409.264 394.999V351.253C397.631 353.573 388.657 360.532 388.657 372.463C388.657 379.423 390.983 387.376 407.27 394.005L409.264 394.999ZM428.21 496.741C442.503 493.759 450.813 485.805 450.813 473.874C450.813 463.932 443.833 456.641 430.205 451.338L428.21 450.344V496.741Z" fill="#7D6917"/>
<path d="M1185.41 565C1181.11 565 1178.8 562.68 1178.8 558.372V536.83C1137.49 534.842 1108.41 513.963 1099.49 481.816C1097.84 476.514 1100.48 472.868 1105.77 471.543L1132.54 464.915C1137.49 463.92 1140.8 466.24 1143.11 471.211C1148.73 484.468 1160.96 493.747 1178.8 495.404V441.385L1167.23 437.076C1141.46 428.791 1107.75 408.575 1107.42 373.777C1107.42 335.334 1138.48 310.478 1178.8 307.495V284.628C1178.8 280.32 1181.11 278 1185.41 278H1191.03C1195.32 278 1197.64 280.32 1197.64 284.628V307.827C1229.03 310.809 1250.84 328.043 1261.09 354.555C1263.4 359.858 1261.09 363.503 1255.8 365.16L1229.36 373.114C1224.4 374.44 1221.1 372.783 1218.79 367.812C1214.82 358.201 1207.88 352.236 1197.64 349.916V399.958L1209.86 404.267C1253.49 418.849 1270.34 441.716 1271 469.886C1271 509.986 1238.94 532.853 1197.64 536.499V558.372C1197.64 562.68 1195.32 565 1191.03 565H1185.41ZM1178.8 392.999V349.253C1167.23 351.573 1158.31 358.532 1158.31 370.463C1158.31 377.423 1160.62 385.376 1176.82 392.005L1178.8 392.999ZM1197.64 494.741C1211.85 491.759 1220.11 483.805 1220.11 471.874C1220.11 461.932 1213.17 454.641 1199.62 449.338L1197.64 448.344V494.741Z" fill="#7D6917"/>
<path d="M282.882 242.717C291.039 264.208 316.7 275.121 339.168 271.219C361.637 267.317 380.674 251.491 394.349 232.931C451.167 155.821 394.213 81.8 343.059 98.3361C289.547 115.634 269.853 208.392 282.882 242.706V242.717Z" fill="white"/>
<path d="M341.28 91.7187C371.191 82.0537 401.586 99.129 416.346 127.562C431.338 156.443 430.804 197.278 400.866 237.89L400.865 237.889C386.561 257.294 366.012 274.764 340.912 279.121C315.837 283.473 286.098 271.552 276.369 245.93C276.329 245.826 276.292 245.72 276.257 245.614C272.56 235.676 271.403 222.375 272.277 208.199C273.17 193.732 276.215 177.72 281.419 162.274C291.673 131.845 311.106 101.468 341.28 91.7187ZM403.251 134.361C390.902 110.572 367.149 98.8667 345.817 105.76C322.385 113.331 305.151 138.054 295.402 166.986C290.605 181.221 287.815 195.955 287.004 209.108C286.184 222.405 287.424 233.471 290.162 240.68C290.176 240.717 290.187 240.755 290.201 240.792C296.86 258.148 318.487 268.037 338.389 264.582C358.306 261.125 375.896 246.898 388.99 229.134C415.97 192.534 415.368 157.704 403.251 134.361Z" fill="#231F20"/>
<path d="M394.956 212.829C408.342 195.508 406.676 171.468 391.236 159.139C375.797 146.81 352.42 150.85 339.033 168.171C335.72 172.462 333.324 177.161 331.834 181.996C331.021 189.689 330.803 197.036 331.178 203.692C332.99 210.767 336.866 217.162 342.752 221.861C358.191 234.19 381.569 230.15 394.956 212.829Z" fill="#231F20"/>
<path d="M333.611 163.877C349.115 144.063 377.16 138.5 396.412 153.684C415.597 168.816 416.859 197.342 401.381 217.123C385.877 236.937 357.832 242.5 338.581 227.317L337.907 226.774C331.028 221.106 326.531 213.571 324.411 205.401C324.291 204.939 324.217 204.466 324.19 203.989C323.788 196.943 324.026 189.26 324.878 181.299L324.924 180.946C324.979 180.594 325.061 180.246 325.167 179.906C326.923 174.274 329.74 168.829 333.609 163.88L333.611 163.877ZM387.229 165.154C375.498 155.901 356.628 158.346 345.268 172.864C342.644 176.222 340.723 179.859 339.479 183.581C338.793 190.304 338.603 196.67 338.887 202.417C340.353 207.557 343.2 212.096 347.34 215.505L347.762 215.845L347.763 215.846C359.494 225.099 378.363 222.655 389.724 208.136C401.11 193.584 399.027 174.46 387.229 165.154Z" fill="#231F20"/>
<path d="M421.882 230.717C430.039 252.208 455.7 263.121 478.168 259.219C500.637 255.317 519.674 239.491 533.349 220.931C590.167 143.821 533.213 69.8 482.059 86.3361C428.547 103.634 408.853 196.392 421.882 230.706V230.717Z" fill="white"/>
<path d="M479.28 79.7187C509.191 70.0537 539.587 87.129 554.346 115.562C569.338 144.443 568.804 185.278 538.866 225.89C524.562 245.295 504.012 262.764 478.912 267.121C453.837 271.473 424.098 259.552 414.369 233.93C414.329 233.826 414.292 233.72 414.257 233.614C410.56 223.676 409.403 210.375 410.277 196.199C411.17 181.732 414.215 165.72 419.419 150.274C429.673 119.845 449.106 89.4682 479.28 79.7187ZM541.251 122.361C528.902 98.572 505.149 86.8667 483.817 93.7596C460.385 101.331 443.151 126.054 433.402 154.986C428.605 169.221 425.815 183.955 425.004 197.108C424.184 210.405 425.424 221.471 428.162 228.68C428.176 228.717 428.187 228.755 428.201 228.792C434.86 246.148 456.487 256.037 476.389 252.582C496.305 249.125 513.896 234.898 526.99 217.134C553.97 180.534 553.368 145.704 541.251 122.361Z" fill="#231F20"/>
<path d="M481.762 209.861C497.198 222.19 520.572 218.15 533.957 200.829C547.342 183.508 545.675 159.468 530.238 147.139C514.802 134.81 491.428 138.85 478.043 156.171C464.658 173.492 466.325 197.532 481.762 209.861Z" fill="#231F20"/>
<path d="M471.618 151.877C487.121 132.063 515.164 126.5 534.413 141.684C553.597 156.816 554.858 185.342 539.382 205.123C523.879 224.937 495.837 230.5 476.587 215.316C457.404 200.184 456.142 171.658 471.618 151.877ZM525.232 153.154C513.501 143.901 494.634 146.346 483.274 160.864C471.889 175.416 473.972 194.541 485.769 203.846C497.499 213.099 516.366 210.655 527.725 196.136C539.111 181.584 537.028 162.46 525.232 153.154Z" fill="#231F20"/>
<path d="M1319.12 236.717C1310.96 258.208 1285.3 269.121 1262.83 265.219C1240.36 261.317 1221.33 245.491 1207.65 226.931C1150.83 149.821 1207.79 75.8 1258.94 92.3361C1312.45 109.634 1332.15 202.392 1319.12 236.706V236.717Z" fill="white"/>
<path d="M1260.72 85.7187C1230.81 76.0537 1200.41 93.129 1185.65 121.562C1170.66 150.443 1171.2 191.278 1201.13 231.89L1201.13 231.889C1215.44 251.294 1235.99 268.764 1261.09 273.121C1286.16 277.473 1315.9 265.552 1325.63 239.93C1325.67 239.826 1325.71 239.72 1325.74 239.614C1329.44 229.676 1330.6 216.375 1329.72 202.199C1328.83 187.732 1325.79 171.72 1320.58 156.274C1310.33 125.845 1290.89 95.4682 1260.72 85.7187ZM1198.75 128.361C1211.1 104.572 1234.85 92.8667 1256.18 99.7596C1279.62 107.331 1296.85 132.054 1306.6 160.986C1311.4 175.221 1314.18 189.955 1315 203.108C1315.82 216.405 1314.58 227.471 1311.84 234.68C1311.82 234.717 1311.81 234.755 1311.8 234.792C1305.14 252.148 1283.51 262.037 1263.61 258.582C1243.69 255.125 1226.1 240.898 1213.01 223.134C1186.03 186.534 1186.63 151.704 1198.75 128.361Z" fill="#231F20"/>
<path d="M1207.04 206.829C1193.66 189.508 1195.32 165.468 1210.76 153.139C1226.2 140.81 1249.58 144.85 1262.97 162.171C1266.28 166.462 1268.68 171.161 1270.17 175.996C1270.98 183.689 1271.2 191.036 1270.82 197.692C1269.01 204.767 1265.13 211.162 1259.25 215.861C1243.81 228.19 1220.43 224.15 1207.04 206.829Z" fill="#231F20"/>
<path d="M1268.39 157.877C1252.88 138.063 1224.84 132.5 1205.59 147.684C1186.4 162.816 1185.14 191.342 1200.62 211.123C1216.12 230.937 1244.17 236.5 1263.42 221.317L1264.09 220.774C1270.97 215.106 1275.47 207.571 1277.59 199.401C1277.71 198.939 1277.78 198.466 1277.81 197.989C1278.21 190.943 1277.97 183.26 1277.12 175.299L1277.08 174.946C1277.02 174.594 1276.94 174.246 1276.83 173.906C1275.08 168.274 1272.26 162.829 1268.39 157.88L1268.39 157.877ZM1214.77 159.154C1226.5 149.901 1245.37 152.346 1256.73 166.864C1259.36 170.222 1261.28 173.859 1262.52 177.581C1263.21 184.304 1263.4 190.67 1263.11 196.417C1261.65 201.557 1258.8 206.096 1254.66 209.505L1254.24 209.845L1254.24 209.846C1242.51 219.099 1223.64 216.655 1212.28 202.136C1200.89 187.584 1202.97 168.46 1214.77 159.154Z" fill="#231F20"/>
<path d="M1180.12 224.717C1171.96 246.208 1146.3 257.121 1123.83 253.219C1101.36 249.317 1082.33 233.491 1068.65 214.931C1011.83 137.821 1068.79 63.8 1119.94 80.3361C1173.45 97.6338 1193.15 190.392 1180.12 224.706V224.717Z" fill="white"/>
<path d="M1122.72 73.7187C1092.81 64.0537 1062.41 81.129 1047.65 109.562C1032.66 138.443 1033.2 179.278 1063.13 219.89C1077.44 239.295 1097.99 256.764 1123.09 261.121C1148.16 265.473 1177.9 253.552 1187.63 227.93C1187.67 227.826 1187.71 227.72 1187.74 227.614C1191.44 217.676 1192.6 204.375 1191.72 190.199C1190.83 175.732 1187.79 159.72 1182.58 144.274C1172.33 113.845 1152.89 83.4682 1122.72 73.7187ZM1060.75 116.361C1073.1 92.572 1096.85 80.8667 1118.18 87.7596C1141.62 95.3307 1158.85 120.054 1168.6 148.986C1173.4 163.221 1176.18 177.955 1177 191.108C1177.82 204.405 1176.58 215.471 1173.84 222.68C1173.82 222.717 1173.81 222.755 1173.8 222.792C1167.14 240.148 1145.51 250.037 1125.61 246.582C1105.7 243.125 1088.1 228.898 1075.01 211.134C1048.03 174.534 1048.63 139.704 1060.75 116.361Z" fill="#231F20"/>
<path d="M1120.24 203.861C1104.8 216.19 1081.43 212.15 1068.04 194.829C1054.66 177.508 1056.32 153.468 1071.76 141.139C1087.2 128.81 1110.57 132.85 1123.96 150.171C1137.34 167.492 1135.68 191.532 1120.24 203.861Z" fill="#231F20"/>
<path d="M1130.38 145.877C1114.88 126.063 1086.84 120.5 1067.59 135.684C1048.4 150.816 1047.14 179.342 1062.62 199.123C1078.12 218.937 1106.16 224.5 1125.41 209.316C1144.6 194.184 1145.86 165.658 1130.38 145.877ZM1076.77 147.154C1088.5 137.901 1107.37 140.346 1118.73 154.864C1130.11 169.416 1128.03 188.541 1116.23 197.846C1104.5 207.099 1085.63 204.655 1074.27 190.136C1062.89 175.584 1064.97 156.46 1076.77 147.154Z" fill="#231F20"/>
</svg>
