<svg width="1585" height="1542" viewBox="0 0 1585 1542" fill="none" xmlns="http://www.w3.org/2000/svg">
<path d="M1427.49 798.461H822.82C802.76 798.461 792.72 774.211 806.9 760.031L1234.45 332.481C1243.61 323.321 1258.59 323.771 1267.21 333.451C1372.97 452.071 1440.37 605.631 1449.97 774.651C1450.7 787.571 1440.43 798.461 1427.49 798.461Z" fill="#50DB8A"/>
<path d="M1208.99 307.02L781.43 734.581C767.25 748.761 743 738.72 743 718.66V113.98C743 101.04 753.89 90.7605 766.81 91.5005C935.84 101.1 1089.39 168.5 1208.02 274.26C1217.69 282.88 1218.15 297.86 1208.99 307.02Z" fill="#50DB8A"/>
<path d="M671.818 22.5206V627.191C671.818 647.251 647.568 657.291 633.388 643.111L205.828 215.561C196.668 206.401 197.118 191.421 206.798 182.801C325.428 77.0406 478.988 9.63055 648.008 0.0405506C660.928 -0.689449 671.818 9.58055 671.818 22.5206Z" fill="#18A352"/>
<path d="M627.201 798.459H22.5215C9.5815 798.459 -0.698502 787.569 0.0414975 774.649C9.6415 605.619 77.0415 452.059 182.801 333.439C191.421 323.769 206.401 323.309 215.561 332.469L643.121 760.029C657.301 774.209 647.261 798.459 627.201 798.459Z" fill="#50DB8A"/>
<path d="M643.121 872.901L215.561 1300.46C206.401 1309.62 191.421 1309.17 182.801 1299.49C77.0406 1180.86 9.63055 1027.31 0.0405506 858.281C-0.689449 845.361 9.58055 834.471 22.5206 834.471H627.201C647.261 834.471 657.301 858.721 643.121 872.901Z" fill="#50DB8A"/>
<path d="M707 914.279V1518.95C707 1531.89 696.11 1542.17 683.19 1541.43C514.17 1531.83 360.61 1464.43 241.99 1358.68C232.32 1350.06 231.86 1335.08 241.02 1325.92L668.57 898.359C682.75 884.179 707 894.219 707 914.279Z" fill="#50DB8A"/>
<path d="M1208.03 1358.67C1089.4 1464.43 935.852 1531.83 766.822 1541.43C753.902 1542.16 743.012 1531.89 743.012 1518.95V914.269C743.012 894.209 767.262 884.169 781.442 898.349L1209 1325.91C1218.16 1335.07 1217.71 1350.05 1208.03 1358.67Z" fill="#50DB8A"/>
<path d="M1584.26 905.919C1574.66 1074.95 1507.26 1228.51 1401.49 1347.13C1392.87 1356.8 1377.89 1357.26 1368.73 1348.1L941.17 920.539C926.99 906.359 937.03 882.109 957.09 882.109H1561.78C1574.72 882.109 1585 892.999 1584.26 905.919Z" fill="#18A352"/>
</svg>
