<svg width="32" height="32" viewBox="0 0 32 32" fill="none" xmlns="http://www.w3.org/2000/svg">
<path d="M29.688 7.17337C29.9336 7.66806 29.7317 8.26816 29.237 8.51373C28.7423 8.75931 28.1422 8.55737 27.8966 8.06269L27.2628 6.78598L20.6343 20.8227C19.7708 22.6514 17.2064 22.7514 16.2031 20.9956L11.2171 12.2701C11.007 11.9024 10.4635 11.9461 10.3148 12.3426L3.9366 29.3512C3.74268 29.8683 3.16627 30.1303 2.64915 29.9364C2.13203 29.7425 1.87002 29.1661 2.06394 28.6489L8.44216 11.6403C9.18563 9.65775 11.9031 9.43936 12.9536 11.2778L17.9396 20.0033C18.1403 20.3545 18.6531 20.3345 18.8258 19.9687L25.5308 5.76992L23.6757 6.69087C23.181 6.93645 22.5809 6.73451 22.3353 6.23983C22.0898 5.74515 22.2917 5.14505 22.7864 4.89947L26.5221 3.04495C27.0168 2.79937 27.6168 3.00131 27.8624 3.49599L29.688 7.17337Z" fill="currentColor"/>
</svg>
