<svg width="194" height="25" viewBox="0 0 194 25" fill="none" xmlns="http://www.w3.org/2000/svg">
<g clip-path="url(#clip0_116_1972)">
<path d="M0 13.6792C0 9.24627 2.98216 5.81297 7.18116 5.81297C9.12189 5.81297 10.8583 6.57618 11.9286 8.27819V1.40934C11.9286 0.499798 12.4504 0 13.3475 0H15.0262C15.9233 0 16.4163 0.499798 16.4163 1.40934V19.8141C16.4163 20.7236 15.9233 21.2234 15.0262 21.2234H13.3475C12.4504 21.2234 11.9286 20.7236 11.9286 19.8141V19.1094C10.8583 20.7822 9.11967 21.5454 7.18116 21.5454C2.98216 21.5454 0 18.1413 0 13.6792ZM12.0152 13.6792C11.9864 11.2725 10.4808 9.45114 8.19371 9.45114C5.90658 9.45114 4.48767 11.3603 4.48767 13.6792C4.48767 15.998 5.87771 17.9049 8.19371 17.9049C10.5097 17.9049 11.9864 16.0859 12.0152 13.6792Z" fill="#007430"/>
<path d="M19.0508 13.6791C19.0508 9.33402 22.5836 5.81067 27.3022 5.81067C32.0208 5.81067 35.5537 9.33402 35.5537 13.6791C35.5537 18.0242 32.0208 21.5453 27.3022 21.5453C22.5836 21.5453 19.0508 18.0512 19.0508 13.6791ZM31.2992 13.7084C31.2992 11.331 29.5338 9.50963 27.3044 9.50963C25.075 9.50963 23.3097 11.3287 23.3097 13.7084C23.3097 16.0881 25.0462 17.8779 27.3044 17.8779C29.5627 17.8779 31.2992 16.0588 31.2992 13.7084Z" fill="#007430"/>
<path d="M38.2441 19.8141V1.40934C38.2441 0.499798 38.7371 0 39.6342 0H41.3129C42.21 0 42.7318 0.499798 42.7318 1.40934V19.8141C42.7318 20.7236 42.21 21.2234 41.3129 21.2234H39.6342C38.7371 21.2234 38.2441 20.7236 38.2441 19.8141Z" fill="#007430"/>
<path d="M46.4082 19.8141V1.40934C46.4082 0.499798 46.9012 0 47.7982 0H49.477C50.374 0 50.8959 0.499798 50.8959 1.40934V19.8141C50.8959 20.7236 50.374 21.2234 49.477 21.2234H47.7982C46.9012 21.2234 46.4082 20.7236 46.4082 19.8141Z" fill="#007430"/>
<path d="M53.6172 13.6791C53.6172 9.24622 56.5993 5.81067 60.7695 5.81067C62.7391 5.81067 64.4755 6.57387 65.5458 8.27589V7.54195C65.5458 6.63241 66.0388 6.13261 66.9359 6.13261H68.6434C69.5405 6.13261 70.0335 6.63241 70.0335 7.54195V19.8118C70.0335 20.7213 69.5405 21.2211 68.6434 21.2211H66.9359C66.0388 21.2211 65.5458 20.7213 65.5458 19.8118V19.1071C64.4755 20.7799 62.7369 21.5431 60.7695 21.5431C56.5993 21.5431 53.6172 18.139 53.6172 13.6769V13.6791ZM65.6035 13.6791C65.6035 11.2724 64.098 9.45109 61.8109 9.45109C59.5238 9.45109 58.1049 11.3602 58.1049 13.6791C58.1049 15.998 59.466 17.9049 61.8109 17.9049C64.1558 17.9049 65.6035 16.0858 65.6035 13.6791Z" fill="#007430"/>
<path d="M73.6211 19.814V7.5442C73.6211 6.63466 74.1141 6.13486 75.0111 6.13486H76.6033C77.5003 6.13486 77.9933 6.63466 77.9933 7.5442V9.42182C78.4862 6.66168 80.5691 5.81067 81.8437 5.81067L82.3366 5.83994C83.0316 5.89847 83.176 6.4568 83.176 7.04441V9.09988C83.176 9.92162 82.7696 10.2751 82.1634 10.1873C81.9036 10.158 81.6705 10.1287 81.4395 10.1287C79.7031 10.1287 78.111 11.2747 78.111 15.0614V19.8163C78.111 20.7258 77.618 21.2256 76.7209 21.2256H75.0134C74.1163 21.2256 73.6233 20.7258 73.6233 19.8163L73.6211 19.814Z" fill="#007430"/>
<path d="M91.67 19.4742C91.5412 19.3301 91.4235 19.177 91.3125 19.0149C91.4213 19.177 91.5412 19.3301 91.67 19.4742Z" fill="#007430"/>
<path d="M104.397 13.7669C104.397 9.36329 107.725 5.81067 112.968 5.81067C114.387 5.81067 116.094 6.13486 117.687 7.07367C118.468 7.57347 118.497 8.33668 117.946 9.07062L117.482 9.65822C116.932 10.3629 116.352 10.3922 115.513 10.0094C114.558 9.53889 113.63 9.48036 113.226 9.48036C110.707 9.48036 108.882 11.2116 108.882 13.6791C108.882 16.1466 110.705 17.8779 113.226 17.8779C113.632 17.8779 114.558 17.8193 115.513 17.3488C116.352 16.9661 116.96 16.9953 117.482 17.7L117.946 18.2876C118.497 19.0216 118.382 19.8726 117.425 20.4016C115.948 21.2526 114.327 21.5476 112.966 21.5476C107.783 21.5476 104.395 18.085 104.395 13.7692L104.397 13.7669Z" fill="#007430"/>
<path d="M121.16 19.8141V1.40934C121.16 0.499798 121.653 0 122.55 0H124.258C125.155 0 125.648 0.499798 125.648 1.40934V8.5416C126.372 6.81032 127.964 5.81072 130.164 5.81072C134.159 5.81072 135.607 8.98061 135.607 12.5332V19.8141C135.607 20.7236 135.085 21.2234 134.188 21.2234H132.509C131.612 21.2234 131.119 20.7236 131.119 19.8141V12.8574C131.119 10.7434 130.309 9.51193 128.774 9.51193C127.24 9.51193 125.648 10.7164 125.648 13.5328V19.8141C125.648 20.7236 125.155 21.2234 124.258 21.2234H122.55C121.653 21.2234 121.16 20.7236 121.16 19.8141Z" fill="#007430"/>
<path d="M138.039 13.6791C138.039 9.33402 141.572 5.81067 146.291 5.81067C151.009 5.81067 154.542 9.33402 154.542 13.6791C154.542 18.0242 151.009 21.5453 146.291 21.5453C141.572 21.5453 138.039 18.0512 138.039 13.6791ZM150.285 13.7084C150.285 11.331 148.52 9.50963 146.291 9.50963C144.061 9.50963 142.296 11.3287 142.296 13.7084C142.296 16.0881 144.032 17.8779 146.291 17.8779C148.549 17.8779 150.285 16.0588 150.285 13.7084Z" fill="#007430"/>
<path d="M157.232 19.8141V1.40934C157.232 0.499798 157.725 0 158.622 0H160.301C161.198 0 161.72 0.499798 161.72 1.40934V19.8141C161.72 20.7236 161.198 21.2234 160.301 21.2234H158.622C157.725 21.2234 157.232 20.7236 157.232 19.8141Z" fill="#007430"/>
<path d="M164.441 13.6791C164.441 9.24622 167.424 5.81067 171.594 5.81067C173.563 5.81067 175.3 6.57387 176.37 8.27589V7.54195C176.37 6.63241 176.863 6.13261 177.76 6.13261H179.468C180.365 6.13261 180.858 6.63241 180.858 7.54195V19.8118C180.858 20.7213 180.367 21.2211 179.468 21.2211H177.76C176.863 21.2211 176.37 20.7213 176.37 19.8118V19.1071C175.298 20.7799 173.561 21.5431 171.594 21.5431C167.424 21.5431 164.441 18.139 164.441 13.6769V13.6791ZM176.428 13.6791C176.428 11.2724 174.922 9.45109 172.635 9.45109C170.348 9.45109 168.929 11.3602 168.929 13.6791C168.929 15.998 170.29 17.9049 172.635 17.9049C174.98 17.9049 176.428 16.0858 176.428 13.6791Z" fill="#007430"/>
<path d="M184.448 19.814V7.5442C184.448 6.63466 184.938 6.13486 185.838 6.13486H187.43C188.327 6.13486 188.82 6.63466 188.82 7.5442V9.42182C189.31 6.66168 191.396 5.81067 192.67 5.81067L193.161 5.83994C193.856 5.89847 194 6.4568 194 7.04441V9.09988C194 9.92162 193.596 10.2751 192.988 10.1873C192.728 10.158 192.495 10.1287 192.264 10.1287C190.527 10.1287 188.933 11.2747 188.933 15.0614V19.8163C188.933 20.7258 188.44 21.2256 187.543 21.2256H185.835C184.938 21.2256 184.445 20.7258 184.445 19.8163L184.448 19.814Z" fill="#007430"/>
<path d="M98.1855 4.33831V4.63098C98.1855 4.76381 98.07 4.86287 97.9412 4.84261C97.5638 4.79083 97.1707 4.76381 96.7621 4.76381C96.3536 4.76381 95.9361 4.79533 95.5453 4.85386C95.4143 4.87413 95.2988 4.77507 95.2988 4.63999V4.33605C95.2988 3.52782 95.945 2.87268 96.7422 2.87268C97.5393 2.87268 98.1855 3.52782 98.1855 4.33605V4.33831Z" fill="#007430"/>
<path d="M98.1738 22.4414V22.6733C98.1738 23.4208 97.6431 24.0917 96.9103 24.1817C96.0332 24.2898 95.2871 23.5986 95.2871 22.7296V22.4504C95.2871 22.3199 95.3981 22.223 95.5269 22.2366C95.9066 22.2816 96.2997 22.3018 96.7038 22.3018C97.1079 22.3018 97.5387 22.2771 97.934 22.2298C98.0605 22.214 98.1738 22.3131 98.1738 22.4437V22.4414Z" fill="#007430"/>
<path d="M91.67 19.4742C91.5412 19.3301 91.4235 19.177 91.3125 19.0149C91.4213 19.177 91.5412 19.3301 91.67 19.4742Z" fill="#007430"/>
<path d="M102.696 16.6757C102.696 16.7928 102.692 16.9098 102.683 17.0224C102.681 17.0832 102.676 17.144 102.669 17.2025C102.665 17.252 102.658 17.2993 102.652 17.3466C102.647 17.3781 102.643 17.4074 102.638 17.4367C102.629 17.4929 102.621 17.547 102.61 17.5987C102.598 17.6708 102.583 17.7383 102.565 17.8059C102.552 17.8689 102.534 17.9297 102.516 17.9905C102.481 18.1121 102.441 18.2314 102.396 18.3439C102.374 18.4047 102.35 18.4633 102.323 18.5196C102.321 18.5263 102.319 18.5308 102.316 18.5353C102.292 18.5916 102.265 18.6479 102.234 18.7019C102.216 18.7424 102.196 18.7807 102.174 18.819C102.145 18.8753 102.112 18.9293 102.077 18.9833C102.039 19.0486 101.997 19.1139 101.952 19.1769C101.908 19.2422 101.861 19.3053 101.812 19.3683C101.81 19.3706 101.808 19.3728 101.806 19.3751C101.755 19.4403 101.701 19.5011 101.646 19.5642C101.593 19.625 101.535 19.6857 101.477 19.7443C101.419 19.8006 101.357 19.8591 101.297 19.9131C101.235 19.9694 101.171 20.0234 101.104 20.0752C100.929 20.2171 100.74 20.3454 100.54 20.4647C100.504 20.4872 100.467 20.5075 100.431 20.5277C100.371 20.5615 100.309 20.5953 100.247 20.6268C100.169 20.6651 100.091 20.7034 100.011 20.7416C99.9316 20.7776 99.8494 20.8137 99.7672 20.8474C99.6917 20.8767 99.614 20.9082 99.5363 20.9375C99.5296 20.9397 99.523 20.942 99.5163 20.9442C99.4319 20.9735 99.3453 21.0028 99.2587 21.0298C99.1721 21.0568 99.0833 21.0838 98.9945 21.1086C98.9057 21.1334 98.8169 21.1559 98.7258 21.1761C98.6592 21.1919 98.5926 21.2077 98.526 21.2212C98.4105 21.2459 98.2928 21.2662 98.1729 21.2865C98.1551 21.2865 98.1352 21.2932 98.1174 21.2932C98.0175 21.3112 97.9176 21.3247 97.8154 21.336C97.6977 21.3517 97.5778 21.363 97.4579 21.372H97.4379C97.3447 21.381 97.2514 21.3855 97.1559 21.39C97.0071 21.3968 96.8561 21.4013 96.7029 21.4013C96.5808 21.4013 96.4587 21.4013 96.3388 21.3945C96.2588 21.3923 96.1789 21.3878 96.0989 21.3833C96.0035 21.3765 95.9102 21.3698 95.8169 21.3607C95.777 21.3607 95.7392 21.354 95.6993 21.3495C95.646 21.345 95.5927 21.3382 95.5394 21.3315C95.455 21.3225 95.3706 21.3112 95.2862 21.2977C95.2707 21.2955 95.2551 21.2932 95.2396 21.2887C95.1419 21.2752 95.0486 21.2572 94.9532 21.2392C94.9376 21.2369 94.9221 21.2324 94.9065 21.2302C94.8066 21.2099 94.7089 21.1874 94.6112 21.1626C94.589 21.1581 94.569 21.1536 94.5468 21.1469C94.4513 21.1244 94.3581 21.0973 94.2648 21.0681C94.1604 21.0388 94.0561 21.005 93.9561 20.969C93.9184 20.9578 93.8806 20.9442 93.8429 20.9285C93.7763 20.9037 93.7097 20.879 93.6453 20.8497C93.6231 20.8429 93.6031 20.8362 93.5831 20.8249C93.5542 20.8137 93.5254 20.8002 93.4965 20.7889C93.4299 20.7596 93.3655 20.7304 93.3033 20.6989C93.2722 20.6831 93.2434 20.6696 93.2123 20.6538C93.2101 20.6538 93.2056 20.6516 93.2034 20.6493C93.1212 20.6088 93.0413 20.566 92.9614 20.5187C92.9569 20.5165 92.9525 20.5142 92.948 20.512C92.8548 20.458 92.7615 20.4017 92.6727 20.3431C92.6705 20.3431 92.6705 20.3409 92.6682 20.3409C92.5972 20.2936 92.5261 20.2441 92.4573 20.1923C92.424 20.1675 92.3885 20.1428 92.3552 20.1158C92.2663 20.0482 92.182 19.9784 92.0976 19.9019C92.031 19.8456 91.9688 19.7871 91.9066 19.7263C91.8311 19.652 91.7601 19.5777 91.6912 19.4989C91.6823 19.4899 91.6757 19.4831 91.669 19.4741C91.5402 19.33 91.4225 19.1769 91.3115 19.0148C91.2937 18.9901 91.276 18.9653 91.2582 18.9383C91.256 18.9338 91.2516 18.927 91.2471 18.9203C91.2005 18.8482 91.1539 18.7717 91.1094 18.6952C91.1028 18.6839 91.0961 18.6704 91.0895 18.6591C91.0362 18.5691 90.9873 18.4745 90.9407 18.3777C90.5055 17.4974 90.9695 16.8513 91.8666 16.6172L92.7637 16.4123C92.9103 16.374 93.0391 16.356 93.159 16.356C93.2056 16.356 93.2522 16.3583 93.2967 16.365C93.3233 16.3673 93.3499 16.3718 93.3744 16.3785C93.3921 16.3808 93.4099 16.3853 93.4254 16.3898C93.4321 16.3898 93.4388 16.3898 93.4432 16.3943C93.4699 16.401 93.4943 16.41 93.5209 16.419C93.5498 16.4281 93.5764 16.4393 93.6031 16.4528C93.6431 16.4708 93.683 16.4911 93.723 16.5159C93.763 16.5384 93.8029 16.5654 93.8407 16.5924C94.0494 16.741 94.2559 16.9526 94.5024 17.2048C94.5357 17.243 94.5712 17.2813 94.609 17.3173C94.6401 17.3489 94.6756 17.3804 94.7089 17.4096C94.7489 17.4457 94.7888 17.4772 94.8288 17.5087C94.8577 17.5312 94.8865 17.5537 94.9176 17.574C94.9332 17.5852 94.9487 17.5942 94.9643 17.6055C94.9976 17.628 95.0331 17.6505 95.0686 17.6708C95.1397 17.7136 95.213 17.7518 95.2885 17.7879C95.3417 17.8149 95.3928 17.8374 95.4483 17.8577C95.5083 17.8824 95.5705 17.9027 95.6326 17.9229C95.6815 17.9387 95.7326 17.9545 95.7859 17.968C95.8414 17.9837 95.8969 17.9972 95.9546 18.0085C96.0234 18.022 96.0945 18.0355 96.1678 18.0445C96.2055 18.0513 96.2433 18.0558 96.2832 18.0603C96.3121 18.0648 96.341 18.067 96.3721 18.0693C96.3943 18.0715 96.4165 18.0738 96.4409 18.0738C96.4787 18.0783 96.5186 18.0805 96.5586 18.0805C96.6163 18.0828 96.6741 18.085 96.7318 18.085C96.8739 18.085 97.0094 18.076 97.1381 18.0603C97.1848 18.0558 97.2292 18.049 97.2736 18.04C97.3202 18.0333 97.3669 18.022 97.4113 18.0107C97.4601 18.0017 97.5045 17.9905 97.5489 17.977C97.5512 17.977 97.5534 17.977 97.5556 17.9747C97.6133 17.959 97.6711 17.941 97.7244 17.9184C97.7288 17.9184 97.731 17.9162 97.7332 17.9162C97.7799 17.8982 97.8243 17.8802 97.8665 17.8599C97.8887 17.8486 97.9109 17.8396 97.9309 17.8261C97.9575 17.8149 97.9842 17.8014 98.0108 17.7834C98.0286 17.7744 98.0463 17.7631 98.0641 17.7518C98.0996 17.7293 98.1374 17.7023 98.1729 17.6775C98.1729 17.6753 98.1751 17.6753 98.1751 17.6753C98.2107 17.6483 98.2462 17.6168 98.2795 17.5852C98.3106 17.5582 98.3394 17.529 98.3639 17.4974C98.4261 17.4276 98.4793 17.3511 98.5215 17.2678C98.5371 17.2385 98.5504 17.2093 98.5615 17.18C98.5704 17.162 98.5748 17.1462 98.5815 17.1282C98.5948 17.0922 98.6037 17.0562 98.6126 17.0179C98.6215 16.9796 98.6281 16.9414 98.6326 16.9008C98.6392 16.8558 98.6414 16.8108 98.6414 16.7635C98.6414 16.7162 98.6392 16.6734 98.6348 16.6329C98.6348 16.6239 98.6348 16.6172 98.6348 16.6082C98.6303 16.5721 98.6237 16.5384 98.6148 16.5046C98.6148 16.5001 98.6148 16.4956 98.6126 16.4911C98.6059 16.4573 98.597 16.4258 98.5837 16.3943C98.5815 16.3875 98.5793 16.3808 98.5748 16.3718C98.5659 16.3448 98.5548 16.3222 98.5415 16.2975C98.5349 16.2817 98.526 16.266 98.5171 16.2502C98.5127 16.2389 98.506 16.2299 98.4993 16.2209C98.486 16.1984 98.4705 16.1759 98.4549 16.1556C98.4349 16.1264 98.4105 16.0994 98.3861 16.0723C98.3705 16.0543 98.3528 16.0363 98.3328 16.0206C98.3172 16.0025 98.2995 15.9868 98.2817 15.9733C98.2506 15.9463 98.2173 15.9192 98.1796 15.8922C98.1241 15.8517 98.0641 15.8134 97.9975 15.7752C97.9575 15.7526 97.9153 15.7301 97.8731 15.7076C97.8221 15.6806 97.771 15.6558 97.7155 15.6311C97.6733 15.6108 97.6311 15.5928 97.5867 15.5748C97.56 15.5635 97.5334 15.5523 97.5045 15.541C97.4246 15.5073 97.3424 15.4757 97.2536 15.442L95.4306 14.7958C95.3862 14.7823 95.3395 14.7666 95.2929 14.7508C95.0509 14.6698 94.7844 14.5729 94.5091 14.4559C94.398 14.4108 94.287 14.3613 94.1738 14.3073C94.1182 14.2825 94.0605 14.2555 94.005 14.2262C93.9473 14.1992 93.8917 14.17 93.834 14.1407C93.663 14.0529 93.4943 13.9561 93.3277 13.8503C93.2722 13.8165 93.2167 13.7805 93.1612 13.7422C93.1123 13.7107 93.0657 13.6769 93.0169 13.6431C92.9569 13.6004 92.897 13.5553 92.837 13.5103C92.7859 13.4698 92.7326 13.427 92.6816 13.3842C92.6305 13.3415 92.5794 13.2987 92.5306 13.2537C92.4795 13.2086 92.4306 13.1614 92.384 13.1141C92.3352 13.0668 92.2885 13.0195 92.2419 12.97C92.1975 12.9205 92.1531 12.8709 92.1087 12.8191C92.0643 12.7674 92.0221 12.7156 91.9821 12.6616C91.9399 12.6075 91.8999 12.5512 91.8622 12.495C91.8178 12.4319 91.7756 12.3666 91.7379 12.3013C91.7068 12.2496 91.6779 12.1978 91.649 12.1437C91.6157 12.083 91.5868 12.0222 91.558 11.9614C91.5535 11.9524 91.5513 11.9456 91.5469 11.9366C91.5225 11.8803 91.498 11.8241 91.4758 11.7655C91.4758 11.761 91.4714 11.7543 91.4692 11.7475C91.4447 11.6867 91.4225 11.6237 91.4026 11.5584C91.3737 11.4706 91.3493 11.3783 91.3293 11.286C91.3159 11.2342 91.3048 11.1824 91.296 11.1306C91.2538 10.9078 91.2316 10.6714 91.2316 10.4237C91.2316 10.3404 91.2338 10.2594 91.2382 10.1783C91.2382 10.1085 91.2449 10.041 91.2538 9.97345C91.256 9.92842 91.2604 9.88339 91.2671 9.84062C91.2715 9.79334 91.2782 9.74831 91.2849 9.70329C91.2893 9.67402 91.2937 9.64475 91.2982 9.61773C91.3093 9.54794 91.3226 9.47815 91.3382 9.41061C91.3559 9.32956 91.3737 9.25077 91.3959 9.17197C91.4203 9.08192 91.447 8.99411 91.478 8.90631C91.5003 8.84327 91.5225 8.78024 91.5469 8.7172C91.5491 8.71269 91.5491 8.71044 91.5513 8.70819C91.5802 8.6339 91.6113 8.56185 91.6446 8.49206C91.6779 8.42002 91.7134 8.34798 91.7512 8.27819C91.7734 8.23316 91.8 8.18813 91.8267 8.1431C91.8422 8.11384 91.86 8.08457 91.8777 8.0553C91.8866 8.03954 91.8955 8.02378 91.9066 8.01028C91.9355 7.963 91.9643 7.91797 91.9954 7.87294C92.0398 7.80765 92.0865 7.74237 92.1353 7.67933C92.182 7.61854 92.2286 7.56001 92.2797 7.50147C92.2841 7.49472 92.2885 7.49021 92.293 7.48571C92.3396 7.42943 92.3907 7.3754 92.444 7.32136C92.444 7.32136 92.444 7.32061 92.444 7.31911C92.4995 7.26058 92.555 7.20429 92.6127 7.15026C92.6682 7.09623 92.726 7.04445 92.7859 6.99267C92.8592 6.92963 92.9369 6.86884 93.0146 6.81031C93.0613 6.77429 93.1101 6.74052 93.159 6.7045C93.1745 6.69324 93.1901 6.68198 93.2078 6.67298C93.2522 6.63921 93.2989 6.60994 93.3455 6.58292C93.6497 6.38706 93.985 6.22046 94.3447 6.08538C94.3936 6.06511 94.4447 6.0471 94.4957 6.02909C94.5224 6.02009 94.549 6.01108 94.5757 6.00208C94.6378 5.98181 94.7022 5.96155 94.7666 5.94354C94.9398 5.89176 95.1175 5.84898 95.2996 5.81071C95.3506 5.79946 95.4017 5.79045 95.455 5.78144L95.495 5.77469C95.5438 5.76569 95.5949 5.75668 95.646 5.74767C95.7414 5.73417 95.8347 5.72291 95.9324 5.71165C96.0101 5.70265 96.0901 5.69589 96.1678 5.68914C96.1767 5.68914 96.1855 5.68689 96.1966 5.68689C96.2855 5.68013 96.3743 5.67563 96.4631 5.67338C96.563 5.66888 96.663 5.66663 96.7629 5.66663C96.8983 5.66663 97.0316 5.66888 97.1648 5.67563C97.2669 5.68013 97.3691 5.68689 97.4712 5.69589C97.5401 5.70265 97.6067 5.7094 97.6755 5.71841C97.731 5.72516 97.7843 5.73191 97.8398 5.73867C97.9553 5.75443 98.073 5.77469 98.1862 5.7972C98.2706 5.81296 98.3528 5.83097 98.4349 5.84898C98.5171 5.86925 98.5992 5.88951 98.6792 5.91202C98.7591 5.93454 98.8391 5.9593 98.9168 5.98407H98.919C98.9901 6.00883 99.0611 6.03359 99.1322 6.05836C99.2365 6.09663 99.3387 6.13941 99.4408 6.18443C99.5696 6.24297 99.6962 6.30601 99.8205 6.3758C99.896 6.41632 99.9693 6.4591 100.043 6.50638C100.114 6.5514 100.182 6.59643 100.249 6.64371C100.318 6.69099 100.385 6.74277 100.451 6.79455C100.518 6.84633 100.582 6.90036 100.647 6.95665C100.707 7.01068 100.769 7.06471 100.826 7.12325C100.875 7.17052 100.924 7.22005 100.971 7.27183C101 7.3011 101.028 7.33262 101.055 7.36414C101.111 7.42493 101.166 7.48796 101.217 7.5555C101.257 7.60278 101.297 7.65231 101.333 7.70409C101.395 7.78514 101.453 7.86844 101.51 7.95624C102.09 8.80725 101.655 9.57046 100.7 9.80685L99.8894 10.0117C99.7139 10.059 99.5585 10.0815 99.4142 10.0815C98.9412 10.0815 98.6104 9.83612 98.2084 9.45339C98.1996 9.44438 98.1929 9.43763 98.184 9.43087C98.1152 9.36108 98.0441 9.3003 97.9686 9.25077C97.9464 9.23275 97.9242 9.217 97.902 9.20574C97.7799 9.12469 97.6489 9.06165 97.5134 9.01663C97.4579 8.99636 97.4002 8.97835 97.3424 8.96484C97.338 8.96484 97.3336 8.96485 97.3313 8.96259C97.2692 8.94683 97.2048 8.93558 97.1426 8.92657C97.0804 8.91532 97.0182 8.90856 96.9583 8.90406H96.9538C96.8895 8.89956 96.8273 8.8973 96.7629 8.8973C96.7074 8.8973 96.6541 8.89956 96.603 8.90406C96.5297 8.90856 96.4609 8.91757 96.3943 8.93107C96.3654 8.93558 96.3365 8.94233 96.3099 8.94909C96.2921 8.95134 96.2744 8.95584 96.2588 8.96259C96.2166 8.97385 96.1767 8.98511 96.1367 9.00087C96.0901 9.01663 96.0457 9.03464 96.0012 9.0549C95.9457 9.07966 95.8947 9.10893 95.8458 9.14045C95.8192 9.15621 95.7925 9.17197 95.7703 9.18998C95.7614 9.19673 95.7548 9.20124 95.7481 9.20574C95.7192 9.226 95.6926 9.24851 95.6682 9.27328C95.6637 9.27553 95.6593 9.28003 95.6548 9.28454C95.6304 9.3048 95.6082 9.32731 95.586 9.35208C95.5372 9.40386 95.495 9.45789 95.4572 9.51417C95.4084 9.58622 95.3684 9.66276 95.3373 9.74606C95.3195 9.78884 95.3062 9.83161 95.2951 9.87664C95.2774 9.94193 95.2663 10.0072 95.2618 10.0748C95.2574 10.113 95.2552 10.1491 95.2552 10.1873C95.2552 10.2211 95.2574 10.2571 95.2618 10.2886C95.2618 10.3021 95.264 10.3179 95.2663 10.3314C95.2685 10.3584 95.2751 10.3877 95.2818 10.4147C95.2862 10.4305 95.2907 10.444 95.2951 10.4597C95.2951 10.4597 95.2973 10.471 95.2996 10.4755C95.3062 10.5003 95.3151 10.525 95.3262 10.5475C95.3262 10.5498 95.3284 10.5498 95.3284 10.5498C95.3373 10.5768 95.3506 10.6038 95.3662 10.6286C95.4328 10.7524 95.5305 10.8582 95.6504 10.9528C95.6793 10.9753 95.7081 10.9978 95.7392 11.0181C95.8391 11.0879 95.9502 11.1509 96.0745 11.2072C96.1145 11.2274 96.1567 11.2477 96.2011 11.2635C96.2766 11.2972 96.3565 11.3288 96.4387 11.358C96.4964 11.3805 96.5564 11.4008 96.6163 11.4211L98.1818 12.0154L98.4705 12.1257C101.539 13.1523 102.638 14.8251 102.698 16.6757H102.696Z" fill="#007430"/>
</g>
<defs>
<clipPath id="clip0_116_1972">
<rect width="194" height="24.1929" fill="white"/>
</clipPath>
</defs>
</svg>
