<svg width="653" height="506" viewBox="0 0 653 506" fill="none" xmlns="http://www.w3.org/2000/svg">
<path d="M280.488 229.994C281.419 229.365 282.605 229.246 283.642 229.679C294.622 234.26 307.689 237.213 323.212 238.117C325.027 238.222 326.423 239.76 326.353 241.576C325.715 258.211 326.233 422.195 326.321 435.524C326.322 435.557 326.32 435.59 326.32 435.623C326.363 437.751 327.407 440.019 329.484 442.626C331.596 445.276 334.425 447.856 337.469 450.661C340.4 453.362 343.571 456.305 345.841 459.418C348.13 462.557 349.858 466.345 349.142 470.663L349.142 470.663C348.667 473.536 346.487 475.109 344.401 475.937C342.356 476.749 339.738 477.143 336.893 477.364C331.182 477.808 323.107 477.633 313.728 477.665L313.729 477.665C310.052 477.678 306.69 477.763 303.879 477.704C301.037 477.643 298.385 477.436 295.981 476.76C293.496 476.062 291.303 474.873 289.379 472.931C287.503 471.038 286.019 468.565 284.709 465.497V465.496C284.438 464.862 284.312 464.092 284.239 463.606C284.147 462.989 284.062 462.226 283.98 461.35C283.817 459.59 283.658 457.221 283.503 454.344C283.192 448.581 282.889 440.656 282.596 431.217C282.009 412.333 281.461 387.31 280.975 361.242C280.005 309.101 279.285 252.725 279.02 232.804C279.005 231.68 279.557 230.624 280.488 229.994ZM285.76 237.658C286.067 260.866 286.749 312.811 287.649 361.117C288.134 387.179 288.682 412.169 289.268 431.01C289.56 440.434 289.862 448.299 290.168 453.984C290.322 456.831 290.475 459.101 290.627 460.734C290.702 461.554 290.775 462.177 290.84 462.615C290.873 462.832 290.898 462.959 290.91 463.019C292.009 465.561 293.067 467.17 294.121 468.234C295.147 469.269 296.291 469.914 297.787 470.335C299.364 470.778 301.337 470.974 304.021 471.031C306.735 471.088 309.799 471.004 313.705 470.991H313.706C323.407 470.958 330.993 471.128 336.375 470.71C339.077 470.499 340.864 470.16 341.938 469.733C342.292 469.593 342.484 469.48 342.581 469.41C342.816 467.66 342.188 465.738 340.447 463.351C338.633 460.863 335.975 458.361 332.946 455.569C330.029 452.882 326.765 449.923 324.264 446.785C321.76 443.644 319.671 439.903 319.643 435.571C319.642 435.515 319.643 435.46 319.646 435.405C319.559 421.726 319.087 272.862 319.601 244.561C306.883 243.576 295.652 241.22 285.76 237.658Z" fill="#231F20"/>
<path d="M396.889 230.635C397.935 230.324 399.067 230.543 399.92 231.223C400.773 231.902 401.241 232.956 401.172 234.045C399.985 252.749 400.661 420.112 400.762 435.524C400.776 437.68 401.82 439.976 403.929 442.622C406.041 445.272 408.869 447.852 411.913 450.657C414.844 453.358 418.015 456.302 420.285 459.414C422.574 462.553 424.303 466.342 423.586 470.662L423.586 470.661C423.11 473.533 420.931 475.105 418.846 475.933C416.8 476.745 414.182 477.139 411.337 477.36C405.626 477.805 397.551 477.629 388.173 477.661L388.173 477.661C384.496 477.674 381.133 477.759 378.322 477.7C375.479 477.639 372.828 477.432 370.424 476.756C367.939 476.058 365.746 474.869 363.822 472.927C361.947 471.034 360.463 468.561 359.153 465.494C358.883 464.861 358.764 464.094 358.698 463.638C358.611 463.044 358.531 462.307 358.455 461.46C358.302 459.759 358.154 457.464 358.009 454.673C357.718 449.084 357.433 441.387 357.157 432.219C356.605 413.877 356.085 389.568 355.616 364.292C354.679 313.665 353.953 259.326 353.594 240.802C353.56 239.033 354.913 237.544 356.677 237.41C372.839 236.176 386.086 233.849 396.889 230.635ZM394.323 238.278C384.639 240.806 373.378 242.674 360.326 243.808C360.7 264.723 361.404 316.305 362.29 364.169C362.758 389.44 363.278 413.717 363.829 432.018C364.104 441.172 364.387 448.811 364.674 454.326C364.818 457.087 364.962 459.286 365.103 460.864C365.174 461.657 365.241 462.256 365.302 462.675C365.329 462.857 365.35 462.971 365.362 463.033C366.458 465.565 367.513 467.168 368.565 468.23C369.591 469.266 370.734 469.911 372.23 470.331C373.806 470.774 375.78 470.97 378.463 471.027C381.178 471.084 384.242 471.001 388.149 470.987H388.15C397.851 470.954 405.438 471.124 410.82 470.706C413.521 470.495 415.309 470.156 416.382 469.729C416.736 469.589 416.928 469.476 417.025 469.406C417.261 467.656 416.633 465.734 414.892 463.347C413.077 460.859 410.42 458.357 407.39 455.566C404.474 452.878 401.21 449.92 398.709 446.782C396.204 443.64 394.115 439.899 394.087 435.567C393.994 421.235 393.381 271.293 394.323 238.278Z" fill="#231F20"/>
<path d="M451.204 304.845C520.487 235.566 520.487 123.243 451.204 53.9643C381.922 -15.3146 269.592 -15.3146 200.31 53.9643C131.027 123.243 131.027 235.566 200.31 304.845C269.592 374.124 381.922 374.124 451.204 304.845Z" fill="#F31DE5"/>
<path d="M449.784 55.3818C381.284 -13.1139 270.224 -13.1137 201.725 55.3821C133.225 123.878 133.225 234.931 201.725 303.427C270.224 371.923 381.284 371.923 449.784 303.427C518.283 234.932 518.283 123.878 449.784 55.3818ZM452.619 52.5462C522.685 122.608 522.685 236.201 452.619 306.263C382.554 376.325 268.955 376.325 198.889 306.263C128.823 236.201 128.823 122.608 198.889 52.5465C268.955 -17.5154 382.554 -17.5155 452.619 52.5462Z" fill="#F31DE5"/>
<path d="M354.428 176.051C367.981 174.977 377.061 150.041 374.709 120.355C372.356 90.6686 359.463 67.4735 345.91 68.5472C332.358 69.6209 323.278 94.5568 325.63 124.243C327.982 153.929 340.876 177.124 354.428 176.051Z" fill="white"/>
<path d="M371.382 120.618C370.235 106.14 366.523 93.4066 361.593 84.5373C356.505 75.3836 350.852 71.5038 346.175 71.8744C341.498 72.245 336.526 76.9667 332.943 86.8075C329.471 96.3424 327.811 109.501 328.958 123.98C330.105 138.458 333.817 151.191 338.747 160.061C343.835 169.214 349.488 173.094 354.165 172.724C358.842 172.354 363.814 167.632 367.397 157.791C370.869 148.256 372.53 135.097 371.382 120.618ZM378.036 120.091C379.241 135.299 377.538 149.452 373.67 160.075C369.913 170.392 363.568 178.675 354.693 179.378C345.817 180.081 338.247 172.9 332.913 163.303C327.42 153.422 323.509 139.715 322.304 124.507C321.099 109.299 322.803 95.1468 326.671 84.5238C330.428 74.2068 336.772 65.9235 345.648 65.2203C354.523 64.5171 362.093 71.6981 367.428 81.2949C372.921 91.1763 376.832 104.883 378.036 120.091Z" fill="#231F20"/>
<path d="M353.439 154.151C360.824 153.206 365.345 140.988 363.538 126.861C361.73 112.733 354.279 102.047 346.894 102.991C339.51 103.936 334.989 116.154 336.796 130.282C338.603 144.409 346.055 155.096 353.439 154.151Z" fill="#231F20"/>
<path d="M360.227 127.284C359.378 120.644 357.216 114.977 354.57 111.183C351.821 107.24 349.157 106.066 347.318 106.302C345.478 106.537 343.196 108.343 341.528 112.851C339.923 117.189 339.257 123.218 340.106 129.858C340.956 136.498 343.118 142.165 345.764 145.959C348.513 149.902 351.176 151.076 353.016 150.841C354.855 150.606 357.137 148.799 358.805 144.291C360.411 139.953 361.077 133.924 360.227 127.284ZM366.848 126.437C367.806 133.924 367.115 141.069 365.065 146.607C363.079 151.977 359.407 156.752 353.863 157.461C348.318 158.171 343.563 154.473 340.288 149.777C336.911 144.932 334.443 138.192 333.485 130.705C332.527 123.218 333.219 116.073 335.268 110.535C337.255 105.165 340.926 100.39 346.471 99.6806C352.015 98.9713 356.77 102.669 360.045 107.365C363.423 112.21 365.89 118.95 366.848 126.437Z" fill="#231F20"/>
<path d="M302.729 180.75C316.282 179.676 325.361 154.74 323.009 125.054C320.657 95.3677 307.764 72.1726 294.211 73.2463C280.658 74.32 271.579 99.2559 273.931 128.942C276.283 158.628 289.176 181.824 302.729 180.75Z" fill="white"/>
<path d="M319.683 125.318C318.536 110.839 314.824 98.1057 309.894 89.2364C304.806 80.0827 299.153 76.2029 294.476 76.5735C289.799 76.9441 284.827 81.6655 281.244 91.5062C277.772 101.041 276.112 114.2 277.259 128.679C278.406 143.157 282.118 155.891 287.048 164.76C292.136 173.914 297.789 177.794 302.466 177.423C307.143 177.053 312.115 172.331 315.698 162.49C319.17 152.955 320.83 139.796 319.683 125.318ZM326.337 124.79C327.542 139.998 325.839 154.151 321.971 164.774C318.214 175.091 311.869 183.374 302.993 184.077C294.118 184.78 286.548 177.599 281.214 168.003C275.721 158.121 271.81 144.414 270.605 129.206C269.4 113.998 271.104 99.8459 274.972 89.2229C278.728 78.9059 285.073 70.6226 293.948 69.9194C302.824 69.2162 310.394 76.3972 315.729 85.994C321.221 95.8754 325.132 109.582 326.337 124.79Z" fill="#231F20"/>
<path d="M302.385 160.683C309.769 159.739 314.29 147.521 312.483 133.393C310.676 119.266 303.224 108.579 295.84 109.524C288.455 110.468 283.934 122.686 285.741 136.814C287.549 150.941 295 161.628 302.385 160.683Z" fill="#231F20"/>
<path d="M309.172 133.816C308.323 127.176 306.161 121.51 303.515 117.715C300.766 113.772 298.103 112.599 296.263 112.834C294.423 113.069 292.141 114.876 290.473 119.383C288.868 123.722 288.202 129.75 289.052 136.39C289.901 143.03 292.063 148.697 294.709 152.492C297.458 156.434 300.121 157.609 301.961 157.373C303.801 157.138 306.083 155.331 307.751 150.823C309.356 146.485 310.022 140.457 309.172 133.816ZM315.793 132.97C316.751 140.457 316.06 147.601 314.011 153.14C312.024 158.509 308.353 163.285 302.808 163.994C297.263 164.703 292.508 161.006 289.234 156.309C285.856 151.465 283.388 144.724 282.43 137.237C281.473 129.75 282.164 122.606 284.213 117.067C286.2 111.698 289.871 106.922 295.416 106.213C300.961 105.504 305.716 109.201 308.99 113.898C312.368 118.742 314.835 125.482 315.793 132.97Z" fill="#231F20"/>
<path d="M342.294 204.616C367.091 202.183 390.759 204.793 403.619 210.831C405.287 211.614 406.004 213.602 405.221 215.27C404.437 216.939 402.45 217.656 400.781 216.873C389.502 211.576 367.239 208.875 342.946 211.259C318.731 213.635 293.324 220.989 275.635 235.026C274.191 236.171 272.092 235.93 270.946 234.486C269.8 233.042 270.042 230.943 271.486 229.797C290.574 214.65 317.417 207.058 342.294 204.616Z" fill="#231F20"/>
<path d="M578.786 133.162C581.962 130.641 585.559 131.98 587.794 133.374C590.157 134.848 592.444 137.188 594.347 139.425C596.293 141.712 598.029 144.124 599.267 145.944C599.479 146.255 599.676 146.55 599.859 146.826C600.215 146.712 600.604 146.588 601.024 146.458C603.301 145.748 606.489 144.811 610.144 143.9C617.366 142.099 626.747 140.309 634.537 140.75C635.602 140.81 636.62 140.954 637.527 141.241C638.407 141.52 639.466 142.023 640.259 142.999C642.216 145.408 640.893 148.046 640.156 149.144C639.287 150.44 637.949 151.693 636.58 152.811C635.322 153.839 633.861 154.891 632.332 155.917C634.042 155.865 635.759 155.904 637.416 156.077C640.817 156.432 644.415 157.393 647.084 159.719L647.34 159.949L647.34 159.949C648.917 161.41 649.969 163.527 649.259 165.956C648.68 167.938 647.109 169.329 645.794 170.249C644.025 171.487 641.651 172.588 639.109 173.551C641.162 173.983 643.156 174.56 644.954 175.333C648.499 176.857 652.005 179.481 652.838 183.912L652.875 184.125L652.876 184.126C653.251 186.386 652.8 188.561 651.287 190.292C649.912 191.867 647.986 192.69 646.195 193.17C642.648 194.12 637.828 194.163 633.142 194.116C628.244 194.066 623.222 193.904 618.602 194.226C613.913 194.553 610.274 195.355 607.969 196.835C605.513 198.412 603.24 201.094 600.606 204.91C599.306 206.795 597.985 208.851 596.524 211.099C595.076 213.328 593.512 215.712 591.78 218.158C584.806 228.006 575.091 238.885 558.165 246.427L558.166 246.427C546.167 251.775 531.689 250.964 518.083 247.494C504.405 244.006 491.123 237.709 481.158 231.457C479.597 230.478 479.125 228.418 480.104 226.857C481.084 225.296 483.144 224.824 484.705 225.804C494.192 231.755 506.839 237.738 519.732 241.027C532.697 244.333 545.43 244.795 555.448 240.33H555.449C570.911 233.441 579.774 223.562 586.332 214.301C587.983 211.97 589.486 209.681 590.927 207.463C592.355 205.264 593.745 203.102 595.113 201.119C597.817 197.202 600.716 193.56 604.362 191.219C608.159 188.781 613.24 187.91 618.138 187.568C623.105 187.222 628.537 187.394 633.21 187.442C638.094 187.491 641.962 187.394 644.468 186.722C645.702 186.392 646.144 186.034 646.26 185.902C646.292 185.864 646.299 185.848 646.307 185.815C646.32 185.765 646.352 185.587 646.291 185.219V185.219C646.08 183.955 645.052 182.64 642.318 181.465C639.627 180.308 635.993 179.626 632.142 179.278C628.342 178.935 624.566 178.937 621.719 179.029C620.302 179.074 619.128 179.142 618.313 179.197C617.906 179.225 617.589 179.25 617.377 179.268C617.272 179.276 617.192 179.283 617.14 179.288C617.115 179.29 617.096 179.292 617.085 179.293C617.079 179.294 617.075 179.294 617.073 179.294H617.072L616.906 179.306C615.192 179.384 613.685 178.144 613.449 176.426C613.205 174.654 614.403 173.004 616.164 172.687H616.164C616.165 172.687 616.166 172.687 616.168 172.687C616.171 172.686 616.177 172.685 616.184 172.684C616.199 172.681 616.223 172.677 616.255 172.671C616.319 172.659 616.415 172.641 616.542 172.617C616.794 172.57 617.167 172.499 617.641 172.406C618.59 172.219 619.941 171.943 621.539 171.591C624.746 170.883 628.902 169.875 632.794 168.662C636.791 167.416 640.132 166.064 641.968 164.78C642.124 164.671 642.254 164.572 642.363 164.484C641.176 163.615 639.308 162.985 636.723 162.715C633.865 162.417 630.577 162.603 627.374 163.025C624.192 163.443 621.22 164.076 619.034 164.609C617.944 164.874 617.058 165.113 616.45 165.283C616.146 165.368 615.912 165.436 615.757 165.482C615.679 165.505 615.621 165.522 615.585 165.533C615.566 165.539 615.553 165.543 615.545 165.545C615.542 165.546 615.539 165.547 615.538 165.548H615.537C615.537 165.548 615.537 165.548 615.537 165.547C613.882 166.058 612.111 165.218 611.46 163.613C610.809 162.007 611.496 160.17 613.04 159.384L613.041 159.384C613.041 159.384 613.043 159.383 613.044 159.382C613.048 159.38 613.053 159.378 613.061 159.374C613.075 159.366 613.099 159.355 613.129 159.339C613.191 159.307 613.283 159.26 613.403 159.198C613.644 159.073 613.999 158.889 614.446 158.654C615.34 158.183 616.605 157.509 618.077 156.696C621.035 155.065 624.784 152.907 628.06 150.744C629.699 149.662 631.176 148.607 632.358 147.641C632.475 147.546 632.586 147.453 632.693 147.363C626.209 147.259 618.349 148.733 611.759 150.376C608.256 151.25 605.194 152.149 603.01 152.83C601.919 153.17 601.049 153.455 600.456 153.653C600.159 153.752 599.932 153.829 599.781 153.881C599.705 153.907 599.648 153.927 599.612 153.94C599.594 153.946 599.58 153.951 599.572 153.954C599.568 153.955 599.565 153.956 599.563 153.957C599.563 153.957 599.562 153.957 599.562 153.957L599.562 153.957C598.118 154.467 596.518 153.928 595.675 152.664L595.597 152.54L595.596 152.54V152.539L595.596 152.539C595.595 152.538 595.594 152.535 595.592 152.532C595.587 152.525 595.58 152.513 595.57 152.497C595.551 152.466 595.52 152.416 595.48 152.35C595.398 152.219 595.275 152.022 595.115 151.771C594.795 151.268 594.328 150.549 593.749 149.699C592.585 147.989 590.998 145.789 589.263 143.749C587.485 141.659 585.733 139.955 584.26 139.037C583.548 138.593 583.101 138.46 582.897 138.433C582.878 138.457 582.852 138.493 582.821 138.545C582.741 138.68 582.638 138.903 582.537 139.251C582.327 139.971 582.189 141.001 582.151 142.398C582.074 145.218 582.411 148.775 582.779 152.929C583.137 156.976 583.51 161.482 583.402 165.829C583.298 170.021 582.745 174.323 581.137 178.097L580.978 178.461C570.847 201.058 553.828 210.843 536.975 212.313C520.383 213.76 504.038 207.128 494.998 197.163C493.76 195.798 493.863 193.688 495.228 192.449C496.594 191.211 498.704 191.314 499.942 192.679C507.475 200.983 521.72 206.944 536.395 205.663C550.81 204.406 565.736 196.143 574.887 175.73C576.097 173.033 576.631 169.602 576.729 165.663C576.827 161.744 576.49 157.592 576.13 153.517C575.779 149.55 575.388 145.519 575.478 142.215C575.524 140.55 575.693 138.882 576.128 137.387C576.563 135.892 577.339 134.311 578.785 133.162L578.786 133.162Z" fill="#231F20"/>
<path d="M48.3175 179.596C49.9422 177.576 52.832 175.171 56.5739 176.37L56.7527 176.429L56.7531 176.43C58.4965 177.038 59.7509 178.275 60.6537 179.543C61.5569 180.812 62.2656 182.331 62.8572 183.889C64.0305 186.979 64.9888 190.913 65.9641 194.775C66.9657 198.741 68.0159 202.772 69.3988 206.441C70.7886 210.128 72.4236 213.192 74.4538 215.341C89.8182 231.602 106.632 234.488 120.657 230.928C134.934 227.304 146.422 216.983 150.801 206.661C151.521 204.965 153.48 204.173 155.177 204.893C156.874 205.612 157.666 207.572 156.946 209.268C151.691 221.654 138.443 233.299 122.299 237.397C105.902 241.56 86.6101 237.926 69.6015 219.925V219.924C66.6963 216.849 64.6797 212.846 63.1528 208.795C61.6191 204.726 60.4872 200.349 59.4923 196.409C58.471 192.365 57.6185 188.896 56.6168 186.258C56.1209 184.952 55.6509 184.025 55.2161 183.414C55.0057 183.119 54.8347 182.942 54.7154 182.841C54.669 182.802 54.6323 182.777 54.6068 182.761C54.4229 182.854 54.0445 183.126 53.5189 183.78C52.4313 185.132 51.3383 187.317 50.3477 189.877C49.3811 192.374 48.607 194.974 48.0711 196.972C47.8047 197.966 47.6001 198.798 47.4633 199.378C47.395 199.668 47.3436 199.894 47.3099 200.045C47.293 200.121 47.2805 200.178 47.2725 200.215C47.2686 200.233 47.266 200.246 47.2643 200.254C47.2635 200.258 47.2627 200.261 47.2625 200.262L47.2621 200.262L47.2625 200.263L47.2621 200.263L47.2289 200.406C46.849 201.877 45.5165 202.913 43.9845 202.907V202.907H43.9319C43.8931 202.907 43.833 202.907 43.7531 202.908C43.5932 202.908 43.3532 202.91 43.0408 202.914C42.4154 202.922 41.5005 202.94 40.3583 202.978C38.0718 203.054 34.8846 203.214 31.2896 203.542C24.5258 204.161 16.6184 205.357 10.5305 207.59C10.6615 207.64 10.7974 207.691 10.9385 207.743C12.3732 208.265 14.1148 208.774 16.0189 209.256C19.8238 210.22 24.0745 211.023 27.4046 211.589C29.0629 211.871 30.4791 212.091 31.4788 212.241C31.9784 212.316 32.3736 212.373 32.6422 212.411C32.7764 212.43 32.8789 212.445 32.9472 212.454C32.9812 212.459 33.0067 212.462 33.0233 212.465C33.0316 212.466 33.0379 212.467 33.0416 212.467C33.0434 212.467 33.0446 212.467 33.0454 212.468H33.0461L33.2055 212.493C34.8401 212.795 36.0138 214.263 35.9309 215.939C35.8453 217.67 34.4495 219.047 32.718 219.109L32.7183 219.11H32.718C32.7167 219.11 32.7141 219.11 32.7101 219.11C32.702 219.11 32.6882 219.111 32.669 219.112C32.6306 219.114 32.5703 219.116 32.4895 219.12C32.3279 219.128 32.0843 219.141 31.7693 219.16C31.1389 219.2 30.2242 219.267 29.1081 219.375C26.8685 219.592 23.8529 219.973 20.7114 220.626C17.5481 221.283 14.3822 222.19 11.7823 223.413C9.43127 224.519 7.87473 225.729 7.04013 226.94C7.17174 226.987 7.32686 227.038 7.50905 227.089C9.66532 227.697 13.2647 227.873 17.4492 227.733C21.5238 227.597 25.7806 227.18 29.0424 226.792C30.6676 226.598 32.0336 226.414 32.9909 226.278C33.4692 226.21 33.845 226.154 34.0993 226.115C34.2263 226.096 34.3232 226.082 34.3871 226.072C34.4191 226.067 34.4428 226.063 34.4581 226.06C34.4656 226.059 34.4711 226.058 34.4745 226.058L34.4782 226.057C36.2455 225.776 37.9198 226.939 38.2736 228.693C38.6273 230.447 37.5349 232.168 35.7972 232.594L35.7976 232.594C35.7974 232.594 35.7968 232.594 35.7961 232.595C35.7941 232.595 35.7901 232.596 35.7846 232.597C35.7734 232.6 35.755 232.605 35.73 232.611C35.6799 232.624 35.6025 232.643 35.4997 232.67C35.2939 232.723 34.9865 232.804 34.5929 232.912C33.8051 233.128 32.6744 233.451 31.3209 233.874C28.6028 234.725 25.0365 235.966 21.5607 237.542C18.0394 239.138 14.8322 240.98 12.6719 242.958C10.4762 244.969 9.9398 246.549 10.1575 247.812C10.2209 248.18 10.3098 248.336 10.3378 248.38C10.3569 248.409 10.3682 248.422 10.4114 248.446C10.5633 248.533 11.0983 248.725 12.3733 248.631C14.9599 248.44 18.6439 247.259 23.2396 245.604C27.6362 244.021 32.7084 242.069 37.5127 240.761C42.2496 239.47 47.334 238.62 51.7216 239.671H51.722C55.9345 240.681 59.871 243.164 63.714 245.972C65.6588 247.393 67.6827 248.976 69.7557 250.582C71.8467 252.201 74.0204 253.868 76.3466 255.525C85.5894 262.109 97.2119 268.518 114.08 269.932L114.607 269.974C136.839 271.662 152.055 261.515 165.883 244.23C167.035 242.791 169.135 242.557 170.574 243.709C172.013 244.86 172.247 246.961 171.095 248.4C156.345 266.837 139.043 278.724 113.522 276.583C95.0589 275.035 82.3021 267.963 72.474 260.962C70.0325 259.222 67.7701 257.486 65.6688 255.859C63.5495 254.218 61.6245 252.711 59.776 251.361C56.0321 248.626 53.0029 246.842 50.1659 246.162V246.161C47.5021 245.523 43.8022 245.965 39.2667 247.201C34.7985 248.418 30.1094 250.224 25.501 251.884C21.0917 253.472 16.5266 255.017 12.8646 255.288C11.0153 255.424 8.92585 255.281 7.1092 254.247C5.11069 253.109 3.96918 251.205 3.57966 248.946C2.7939 244.391 5.27281 240.684 8.16388 238.036C9.6069 236.715 11.299 235.513 13.0949 234.429C10.3784 234.357 7.77562 234.099 5.69798 233.514C4.15345 233.078 2.21189 232.282 1.01222 230.601C-0.457617 228.541 -0.160552 226.196 0.847576 224.298C2.56791 221.057 5.74769 218.876 8.9408 217.374C10.4483 216.665 12.0564 216.062 13.6882 215.548C11.9069 215.082 10.1815 214.57 8.6552 214.014C6.99433 213.41 5.31805 212.666 4.0706 211.728C3.01327 210.934 0.895241 208.878 1.95116 205.96C2.37895 204.777 3.21263 203.954 3.95188 203.401C4.71376 202.832 5.62788 202.36 6.61378 201.953L6.61453 201.952C13.8245 198.972 23.2706 197.573 30.6814 196.895C34.4327 196.552 37.7518 196.387 40.1347 196.307C40.5738 196.292 40.9816 196.281 41.3548 196.272C41.4368 195.951 41.5264 195.607 41.6239 195.243C42.1942 193.117 43.0387 190.268 44.1227 187.468C45.1827 184.729 46.5719 181.766 48.3175 179.596Z" fill="#231F20"/>
<ellipse cx="337.7" cy="467.839" rx="210.528" ry="37.559" fill="#800477" fill-opacity="0.2"/>
</svg>
