<svg width="78" height="78" viewBox="0 0 78 78" fill="none" xmlns="http://www.w3.org/2000/svg">
<path d="M70.2 39C70.2 21.7687 56.2313 7.8 39 7.8C21.7687 7.8 7.8 21.7687 7.8 39C7.8 56.2313 21.7687 70.2 39 70.2C56.2313 70.2 70.2 56.2313 70.2 39ZM35.1 54.21V36.66C35.1 34.5061 36.8461 32.76 39 32.76C41.1539 32.76 42.9 34.5061 42.9 36.66V54.21C42.9 56.3639 41.1539 58.11 39 58.11C36.8461 58.11 35.1 56.3639 35.1 54.21ZM35.1 23.6537V23.4975C35.1 21.3436 36.8461 19.5975 39 19.5975C41.1539 19.5975 42.9 21.3436 42.9 23.4975V23.6537C42.899 25.8067 41.1533 27.5537 39 27.5537C36.8467 27.5537 35.101 25.8067 35.1 23.6537ZM78 39C78 60.5391 60.5391 78 39 78C17.4609 78 -5.68073e-07 60.5391 0 39C1.88301e-06 17.4609 17.4609 5.62599e-07 39 0C60.5391 1.88301e-06 78 17.4609 78 39Z" fill="#868686"/>
</svg>
