<svg width="335" height="475" viewBox="0 0 335 475" fill="none" xmlns="http://www.w3.org/2000/svg">
<path d="M272.998 20C272.998 8.95431 264.044 0 252.998 0H40.998C29.9524 0 20.998 8.95431 20.998 20V104C20.998 115.046 30.4657 123.063 40.5067 127.666C53.6707 133.7 58.5651 146.447 63.8928 160.323C68.8069 173.122 74.0895 186.881 86.57 197.218C88.6364 198.929 91.4715 196.97 90.9873 194.331C83.4963 153.502 98.6203 124 187.498 124H252.998C264.044 124 272.998 115.046 272.998 104V20Z" fill="#F4DAF2"/>
<path d="M252.998 119V124H187.498V119H252.998ZM267.998 104V20C267.998 11.7157 261.282 5 252.998 5H40.998C32.7138 5 25.998 11.7157 25.998 20V104C25.998 111.927 32.9433 118.698 42.5898 123.12C57.9117 130.143 63.3909 145.067 68.5605 158.531C72.7824 169.527 76.9589 180.226 85.085 188.954C82.6812 170.253 85.4691 152.917 99.7715 140.127C115.19 126.339 142.846 119 187.498 119V124C98.6204 124 83.4964 153.501 90.9873 194.331C91.4564 196.888 88.8102 198.806 86.7656 197.367L86.5703 197.218C74.0899 186.881 68.8066 173.122 63.8926 160.323C58.6482 146.664 53.8239 134.098 41.1182 127.953L40.5068 127.666C30.6227 123.135 21.294 115.295 21.0049 104.516L20.998 104V20C20.998 9.12703 29.6745 0.280844 40.4814 0.00683594L40.998 0H252.998C264.044 3.70448e-07 272.998 8.95431 272.998 20V104C272.998 114.873 264.322 123.719 253.515 123.993L252.998 124V119C261.282 119 267.998 112.284 267.998 104Z" fill="#D650CD"/>
<path d="M203.004 457.685C208.795 457.685 212.47 457.096 215.153 450.813C215.609 449.747 216.673 447.255 218.311 323.103L218.351 320.024C218.36 319.392 218.05 318.799 217.526 318.445C217.001 318.09 216.335 318.024 215.753 318.269C209.377 320.926 201.893 322.523 193.505 323.011C192.484 323.071 191.7 323.935 191.738 324.955C192.099 334.353 191.805 426.691 191.755 433.966C191.738 436.716 188.673 439.537 185.709 442.266C182.005 445.678 178.173 449.204 178.923 453.716C179.424 456.733 183.172 457.19 184.583 457.36C187.117 457.67 190.541 457.661 194.874 457.652C196.128 457.65 197.45 457.646 198.836 457.652C199.597 457.654 200.319 457.663 201.001 457.669C201.695 457.678 202.363 457.685 203.004 457.685ZM211.669 449.417C209.685 454.013 207.832 453.991 201.041 453.918C200.351 453.912 199.623 453.903 198.849 453.901C197.454 453.897 196.125 453.901 194.866 453.901C191.308 453.909 188.239 453.916 185.99 453.733C183.501 453.531 182.788 453.142 182.611 453.011C182.28 450.525 185.182 447.855 188.252 445.027C191.805 441.755 195.481 438.371 195.509 433.992C195.554 427.045 195.825 342.608 195.534 326.635C202.514 326.092 208.894 324.79 214.562 322.755L214.557 323.056C213.242 422.817 212.26 446.907 211.666 449.419L211.669 449.417ZM211.703 449.339C211.703 449.339 211.699 449.348 211.696 449.352C211.696 449.348 211.701 449.344 211.703 449.339Z" fill="#231F20"/>
<path d="M161.149 457.685C166.94 457.685 170.615 457.096 173.298 450.813C173.612 450.078 174.136 448.852 174.953 410.715C175.409 389.487 175.798 364.097 176.084 345.556C176.228 336.149 176.342 328.719 176.423 324.523C176.443 323.528 175.682 322.693 174.691 322.615C165.938 321.947 158.331 320.664 152.08 318.806C151.493 318.632 150.855 318.754 150.376 319.137C149.896 319.519 149.632 320.11 149.673 320.722C150.341 331.263 149.959 425.545 149.903 433.966C149.886 436.716 146.82 439.537 143.856 442.266C140.153 445.676 136.32 449.204 137.07 453.716C137.571 456.733 141.32 457.19 142.73 457.36C145.264 457.669 148.688 457.661 153.022 457.652C154.275 457.65 155.597 457.646 156.983 457.652C157.744 457.654 158.466 457.663 159.148 457.669C159.842 457.678 160.508 457.685 161.151 457.685H161.149ZM169.809 449.425C167.828 454.01 165.973 453.991 159.187 453.918C158.497 453.912 157.768 453.903 156.994 453.901C155.599 453.896 154.271 453.901 153.011 453.901C149.456 453.909 146.384 453.916 144.136 453.733C141.647 453.531 140.933 453.142 140.757 453.011C140.426 450.525 143.327 447.855 146.397 445.027C149.95 441.755 153.626 438.373 153.654 433.992C153.705 426.052 154.049 341.65 153.523 323.103C159.058 324.545 165.467 325.587 172.636 326.212C172.559 330.58 172.455 337.286 172.329 345.498C171.832 377.835 170.8 444.982 169.807 449.427L169.809 449.425ZM169.848 449.337C169.848 449.337 169.844 449.348 169.842 449.352C169.844 449.346 169.846 449.341 169.848 449.337Z" fill="#231F20"/>
<path d="M121.542 360.515C82.5875 321.576 82.5875 258.444 121.542 219.505C160.497 180.566 223.656 180.566 262.61 219.505C301.565 258.444 301.565 321.576 262.61 360.515C223.656 399.454 160.497 399.454 121.542 360.515Z" fill="#F31DE5"/>
<path d="M192.077 390.847C205.694 390.847 218.905 388.181 231.344 382.923C243.357 377.844 254.144 370.573 263.408 361.314C272.672 352.054 279.946 341.27 285.026 329.263C290.286 316.831 292.953 303.626 292.953 290.012C292.953 276.398 290.286 263.195 285.026 250.761C279.944 238.752 272.67 227.97 263.408 218.71C254.144 209.449 243.355 202.178 231.344 197.101C218.907 191.841 205.696 189.175 192.077 189.175C178.457 189.175 165.249 191.841 152.809 197.099C140.796 202.178 130.009 209.449 120.745 218.708C111.481 227.968 104.207 238.752 99.1274 250.759C93.8676 263.191 91.2 276.396 91.2 290.01C91.2 303.624 93.8676 316.827 99.1274 329.261C104.209 341.27 111.483 352.052 120.745 361.312C130.009 370.573 140.798 377.844 152.809 382.921C165.246 388.179 178.457 390.845 192.077 390.845V390.847ZM192.077 191.429C205.391 191.429 218.307 194.035 230.465 199.175C242.207 204.14 252.755 211.248 261.813 220.302C270.871 229.356 277.982 239.9 282.949 251.638C288.091 263.79 290.698 276.701 290.698 290.01C290.698 303.319 288.091 316.23 282.949 328.382C277.982 340.12 270.871 350.664 261.813 359.718C252.755 368.772 242.207 375.88 230.465 380.845C218.307 385.985 205.391 388.591 192.077 388.591C178.762 388.591 165.846 385.985 153.688 380.845C141.946 375.88 131.398 368.772 122.34 359.718C113.282 350.664 106.171 340.12 101.204 328.382C96.0622 316.23 93.4548 303.319 93.4548 290.01C93.4548 276.701 96.0622 263.79 101.204 251.638C106.171 239.9 113.282 229.356 122.34 220.302C131.398 211.248 141.946 204.14 153.688 199.175C165.846 194.035 178.762 191.429 192.077 191.429Z" fill="#F31DE5"/>
<path d="M71.0261 309.313C79.349 309.313 89.125 307.833 97.3641 303.063C98.2604 302.543 98.5678 301.395 98.0476 300.499C97.5274 299.604 96.3796 299.296 95.4832 299.816C90.06 302.958 83.0784 304.891 75.295 305.411C69.4462 305.8 63.0213 305.362 58.1118 304.236C52.7488 303.005 46.4335 300.403 40.7825 297.096C34.7209 293.549 29.7039 289.37 26.658 285.33C26.039 284.509 24.8718 284.34 24.0442 284.952C20.0848 287.878 16.3898 287.982 13.9867 287.554C11.1687 287.051 9.10943 285.614 8.32271 284.415C7.53599 283.218 7.29522 282.234 7.60475 281.493C7.89494 280.794 9.22121 279.041 15.2312 277.823C16.2028 277.625 16.852 276.71 16.7165 275.728C16.5811 274.748 15.7106 274.039 14.7197 274.112C11.8479 274.323 6.26131 272.93 4.38049 270.356C3.6604 269.372 3.56797 268.311 4.08601 267.017C4.44283 266.13 4.98236 265.565 5.78628 265.24C7.6757 264.48 10.9988 265.051 14.9045 266.813C15.5924 267.123 16.4005 266.992 16.953 266.478C17.5054 265.965 17.6989 265.17 17.4388 264.461C17.2238 263.87 16.8799 263.152 16.4822 262.32C15.3709 259.994 13.5095 256.1 14.3607 254.035C14.5262 253.631 14.8852 253.047 16.0781 252.619C18.9219 251.599 20.9145 254.757 23.2059 260.185C23.6165 261.154 23.9389 261.921 24.2656 262.495C24.6719 263.21 25.4994 263.58 26.3034 263.401C27.1073 263.223 27.7027 262.542 27.7693 261.721C28.1476 257.009 29.5771 253.861 31.7889 252.862C33.2054 252.222 34.7273 252.596 35.3571 253.064C36.7242 254.085 38.9919 260.464 34.061 267.125C33.5623 267.797 33.5709 268.719 34.0803 269.383C38.863 275.612 45.0858 280.126 52.0781 282.438C59.2833 284.821 76.6858 284.827 92.8221 277.382C93.7636 276.948 94.1742 275.833 93.74 274.892C93.3058 273.951 92.1902 273.541 91.2487 273.975C82.5969 277.967 74.2676 279.372 68.8035 279.849C61.4565 280.489 55.9559 279.765 53.2582 278.874C47.3836 276.931 42.1001 273.24 37.9043 268.158C42.9986 260.215 40.5503 252.254 37.6033 250.056C36.0192 248.874 33.0421 248.178 30.2434 249.442C28.5174 250.222 26.4968 251.902 25.2114 255.488C24.5795 254.22 23.8336 252.935 22.9415 251.833C20.0075 248.206 16.8992 248.339 14.8099 249.087C12.8861 249.777 11.5663 250.961 10.8892 252.607C9.71773 255.453 10.8527 258.947 12.1058 261.805C9.48774 261.094 6.69336 260.829 4.38264 261.76C2.63938 262.462 1.33249 263.797 0.599503 265.621C-0.404319 268.124 -0.146376 270.526 1.34753 272.569C2.73612 274.469 4.99096 275.777 7.34252 276.622C5.75618 277.574 4.69431 278.712 4.13759 280.047C3.32077 282.008 3.67115 284.17 5.1844 286.471C6.70841 288.792 9.8295 290.622 13.3268 291.245C17.1959 291.935 21.1983 291.131 24.7686 288.976C32.567 298.218 47.0526 305.549 57.2714 307.893C60.6375 308.664 65.5126 309.315 71.0261 309.315V309.313Z" fill="#231F20"/>
<path d="M33.2846 283.45C34.0541 283.45 34.7763 282.973 35.0514 282.206C35.4018 281.23 34.8924 280.156 33.9165 279.808C30.3311 278.525 27.5024 276.072 26.3459 273.244C25.0971 270.189 25.527 266.349 27.5583 262.432C28.0354 261.513 27.6765 260.38 26.7565 259.903C25.8365 259.426 24.7037 259.785 24.2265 260.705C21.6793 265.614 21.1978 270.571 22.8702 274.662C24.4221 278.459 28.0784 281.703 32.6483 283.338C32.8568 283.413 33.0717 283.448 33.2802 283.448L33.2846 283.45Z" fill="#231F20"/>
<path d="M250.676 385.605C251.753 385.605 252.916 385.437 254.088 385.039C256.585 384.189 259.906 382.031 262.118 376.634C270.19 378.213 282.923 378.903 294.827 377.025C311.51 374.393 323.431 367.352 329.303 356.663C336.751 343.1 335.552 328.023 325.836 313.06C318.764 302.171 307.043 291.385 294.481 284.211C293.581 283.697 292.435 284.009 291.921 284.909C291.407 285.809 291.719 286.955 292.62 287.468C304.685 294.361 315.927 304.691 322.687 315.104C326.868 321.541 329.374 327.983 330.139 334.254C331.006 341.362 329.617 348.294 326.012 354.858C323.164 360.042 318.71 364.284 312.773 367.468C307.636 370.223 301.4 372.191 294.24 373.321C280.254 375.527 266.976 373.929 261.336 372.635C260.392 372.421 259.438 372.956 259.135 373.875C257.798 377.919 255.633 380.551 252.875 381.49C250.724 382.223 248.853 381.694 248.331 381.34C246.448 380.065 248.51 374.412 250.655 370.994C251.087 370.306 251.027 369.419 250.504 368.794C249.984 368.171 249.12 367.954 248.366 368.254C242.351 370.663 239.086 369.606 237.674 368.761C236.442 368.024 235.926 367.049 235.858 366.439C235.524 363.431 238.164 362.202 243.486 360.865C244.331 360.653 245.131 360.453 245.816 360.229C246.659 359.956 247.196 359.129 247.104 358.248C247.011 357.367 246.313 356.671 245.431 356.579C235.905 355.586 234.759 353.309 234.938 350.994C234.981 350.451 235.208 349.127 236.406 348.582C237.354 348.15 240.273 347.668 246.872 352.541C247.583 353.068 248.563 353.025 249.227 352.44C249.892 351.856 250.057 350.887 249.625 350.116C248.252 347.662 247.22 343.751 248.015 341.334C248.325 340.391 248.873 339.77 249.737 339.377C250.283 339.13 251.04 339.226 251.869 339.645C254.109 340.78 256.987 344.321 258.354 350.855C258.498 351.54 259.012 352.088 259.685 352.277C264.988 353.762 273.616 355.283 281.919 355.105C291.302 354.903 297.409 352.509 299.582 348.178C301.901 343.554 301.486 338.21 298.348 332.293C295.803 327.495 291.953 323.116 288.86 319.599L288.147 318.786C287.463 318.007 286.279 317.929 285.498 318.61C284.718 319.294 284.641 320.477 285.322 321.257L286.04 322.076C291.73 328.546 300.326 338.324 296.227 346.495C294.739 349.46 289.63 351.186 281.84 351.353C274.482 351.512 266.858 350.264 261.77 348.951C260.27 342.851 257.247 338.165 253.567 336.298C251.702 335.352 249.791 335.23 248.187 335.958C246.375 336.779 245.083 338.232 244.449 340.161C243.791 342.159 243.91 344.424 244.348 346.493C240.503 344.484 237.319 344.037 234.847 345.165C232.756 346.119 231.391 348.188 231.195 350.7C230.959 353.725 232.279 356.158 235.013 357.739C235.718 358.147 236.526 358.508 237.45 358.826C236.879 359.078 236.322 359.359 235.799 359.679C232.341 361.808 231.894 364.752 232.126 366.847C232.345 368.834 233.699 370.751 235.744 371.976C238.738 373.77 242.323 373.697 245.361 373.072C243.628 377.21 242.805 382.126 246.225 384.44C247.205 385.104 248.815 385.6 250.672 385.6L250.676 385.605Z" fill="#231F20"/>
<path d="M175.952 288.126C168.332 287.523 163.227 273.507 164.55 256.822C165.872 240.136 173.121 227.099 180.742 227.703C188.362 228.306 193.467 242.322 192.144 259.007C190.822 275.693 183.572 288.73 175.952 288.126Z" fill="white"/>
<path d="M176.469 290.021C180.695 290.021 184.785 286.832 188.051 280.96C191.236 275.229 193.356 267.486 194.015 259.153C194.675 250.821 193.805 242.841 191.561 236.681C189.14 230.037 185.351 226.185 180.891 225.83C176.428 225.474 172.08 228.686 168.645 234.865C165.459 240.596 163.34 248.339 162.68 256.672C162.02 265.004 162.891 272.984 165.135 279.144C167.555 285.788 171.345 289.64 175.805 289.995C176.026 290.012 176.25 290.021 176.471 290.021H176.469ZM180.244 229.558C180.36 229.558 180.478 229.562 180.594 229.571C183.461 229.799 186.174 232.856 188.033 237.964C190.097 243.63 190.892 251.049 190.273 258.857C189.654 266.665 187.7 273.867 184.768 279.136C182.127 283.886 178.967 286.484 176.099 286.252C173.232 286.024 170.519 282.967 168.66 277.859C166.596 272.193 165.801 264.774 166.42 256.966C167.039 249.158 168.993 241.956 171.925 236.687C174.459 232.13 177.471 229.556 180.246 229.556L180.244 229.558Z" fill="#231F20"/>
<path d="M173.167 267.667C169.015 267.136 166.473 260.269 167.489 252.328C168.506 244.388 172.695 238.381 176.847 238.912C180.999 239.443 183.541 246.311 182.525 254.251C181.509 262.191 177.319 268.198 173.167 267.667Z" fill="#231F20"/>
<path d="M173.698 269.571C176.17 269.571 178.582 268.046 180.566 265.203C182.502 262.425 183.861 258.62 184.392 254.484C184.921 250.348 184.566 246.323 183.39 243.148C182.064 239.564 179.826 237.396 177.09 237.048C174.356 236.697 171.643 238.231 169.457 241.366C167.52 244.145 166.162 247.952 165.631 252.086C165.102 256.222 165.457 260.246 166.633 263.422C167.959 267.006 170.196 269.172 172.933 269.522C173.189 269.554 173.444 269.571 173.698 269.571ZM176.344 240.752C176.434 240.752 176.525 240.758 176.613 240.769C177.874 240.93 179.061 242.273 179.867 244.45C180.837 247.069 181.12 250.464 180.667 254.009C180.213 257.554 179.082 260.768 177.485 263.059C176.157 264.965 174.672 265.962 173.408 265.803C172.146 265.642 170.959 264.299 170.153 262.122C169.184 259.503 168.9 256.108 169.354 252.563C169.807 249.018 170.938 245.803 172.535 243.513C173.771 241.742 175.142 240.752 176.344 240.752Z" fill="#231F20"/>
<path d="M205.023 290.767C197.403 290.164 192.297 276.148 193.62 259.463C194.942 242.777 202.192 229.74 209.812 230.344C217.432 230.947 222.537 244.963 221.215 261.648C219.892 278.334 212.643 291.371 205.023 290.767Z" fill="white"/>
<path d="M205.535 292.663C209.761 292.663 213.852 289.475 217.117 283.603C220.303 277.872 222.422 270.129 223.082 261.796C223.742 253.464 222.871 245.484 220.627 239.324C218.207 232.68 214.417 228.828 209.957 228.473C205.495 228.119 201.146 231.329 197.711 237.508C194.526 243.239 192.406 250.982 191.746 259.315C191.086 267.647 191.957 275.627 194.201 281.787C196.621 288.431 200.411 292.283 204.871 292.638C205.093 292.655 205.316 292.663 205.538 292.663H205.535ZM209.31 232.199C209.426 232.199 209.544 232.203 209.66 232.212C212.528 232.44 215.24 235.497 217.1 240.604C219.163 246.27 219.959 253.689 219.34 261.498C218.721 269.306 216.767 276.508 213.835 281.776C211.193 286.527 208.033 289.125 205.166 288.893C202.298 288.665 199.586 285.607 197.726 280.5C195.663 274.834 194.867 267.415 195.486 259.607C196.106 251.799 198.059 244.596 200.991 239.328C203.526 234.771 206.537 232.197 209.312 232.197L209.31 232.199Z" fill="#231F20"/>
<path d="M202.24 270.306C198.088 269.775 195.545 262.907 196.562 254.967C197.578 247.026 201.768 241.02 205.92 241.551C210.072 242.082 212.614 248.949 211.597 256.889C210.581 264.83 206.392 270.837 202.24 270.306Z" fill="#231F20"/>
<path d="M202.766 272.212C205.238 272.212 207.65 270.686 209.634 267.844C211.571 265.066 212.929 261.258 213.46 257.124C213.989 252.988 213.634 248.964 212.458 245.788C211.132 242.204 208.895 240.038 206.158 239.688C203.424 239.338 200.711 240.872 198.525 244.007C196.589 246.785 195.23 250.593 194.699 254.726C194.17 258.863 194.525 262.887 195.701 266.063C197.027 269.647 199.265 271.815 202.001 272.163C202.257 272.195 202.513 272.212 202.766 272.212ZM205.412 243.392C205.503 243.392 205.593 243.399 205.681 243.41C206.943 243.571 208.129 244.914 208.935 247.09C209.905 249.709 210.189 253.104 209.735 256.649C209.281 260.195 208.151 263.409 206.554 265.7C205.225 267.605 203.738 268.6 202.476 268.443C201.214 268.282 200.028 266.939 199.222 264.763C198.252 262.144 197.969 258.749 198.422 255.203C198.876 251.658 200.006 248.444 201.603 246.153C202.839 244.383 204.211 243.392 205.412 243.392Z" fill="#231F20"/>
<path d="M232.908 309.796C228.755 300.463 218.229 311.726 186.115 308.486C159.459 305.796 144.387 290.674 140.006 300.42C135.989 309.356 147.901 335.17 183.061 338.717C215.974 342.039 236.889 318.748 232.906 309.796H232.908Z" fill="#231F20"/>
<path d="M189.346 340.911C208.904 340.911 224.327 331.822 231.452 321.979C234.969 317.123 236.123 312.405 234.623 309.032C233.322 306.112 231.343 304.582 228.387 304.219C225.928 303.916 223.009 304.425 218.97 305.13C212.047 306.337 201.587 308.161 186.304 306.617C174.591 305.435 165.29 301.849 157.819 298.97C153.105 297.152 149.38 295.717 146.287 295.379C142.445 294.96 139.756 296.396 138.295 299.646C136.392 303.879 137.519 310.501 141.233 316.932C143.565 320.967 148.021 326.831 155.998 331.846C163.575 336.607 172.616 339.547 182.871 340.582C185.072 340.803 187.233 340.911 189.341 340.911H189.346ZM226.981 307.917C229.655 307.917 230.399 308.77 231.194 310.557C232.108 312.611 231.042 316.146 228.411 319.779C224.776 324.8 218.678 329.459 211.681 332.561C203.077 336.375 193.247 337.858 183.252 336.85C173.577 335.875 165.08 333.122 157.999 328.67C150.672 324.063 146.607 318.724 144.485 315.056C141.966 310.697 140.133 304.717 141.719 301.187C142.387 299.698 143.318 298.832 145.88 299.111C148.488 299.395 152.009 300.753 156.469 302.472C163.747 305.276 173.712 309.118 185.928 310.351C201.722 311.945 212.489 310.067 219.615 308.825C223.059 308.226 225.371 307.917 226.981 307.917Z" fill="#231F20"/>
<path d="M231.586 307.714C230.741 314.569 225.38 319.601 219.469 319.005C214.401 318.494 210.553 314.008 209.902 308.4C222.178 306.988 228.295 304.197 231.584 307.717L231.586 307.714Z" fill="white"/>
<path d="M220.429 320.929C223.428 320.929 226.332 319.742 228.707 317.525C231.301 315.104 232.984 311.7 233.447 307.944C233.515 307.392 233.335 306.84 232.954 306.434C229.947 303.217 225.577 303.98 218.961 305.132C216.293 305.596 213.271 306.122 209.686 306.535C209.191 306.591 208.74 306.842 208.431 307.233C208.121 307.624 207.979 308.121 208.037 308.615C208.807 315.241 213.428 320.282 219.279 320.871C219.664 320.909 220.047 320.929 220.429 320.929ZM229.562 308.469C228.488 313.776 224.212 317.598 219.657 317.138C216.106 316.78 213.19 313.945 212.119 310.013C214.946 309.64 217.396 309.212 219.608 308.827C224.919 307.901 227.869 307.454 229.562 308.469Z" fill="#231F20"/>
<path d="M208.656 308.533C207.592 315.093 202.365 319.828 196.621 319.25C191.533 318.737 187.675 314.216 187.047 308.574C195.766 309.388 202.863 309.133 208.654 308.535L208.656 308.533Z" fill="white"/>
<path d="M197.556 321.174C203.781 321.174 209.35 315.967 210.507 308.834C210.601 308.258 210.421 307.669 210.019 307.246C209.617 306.821 209.041 306.608 208.46 306.668C201.547 307.384 194.598 307.394 187.221 306.705C186.66 306.653 186.103 306.855 185.708 307.257C185.312 307.659 185.119 308.217 185.181 308.778C185.923 315.447 190.548 320.52 196.432 321.115C196.808 321.154 197.184 321.171 197.556 321.171V321.174ZM206.169 310.643C204.567 314.945 200.799 317.787 196.81 317.383C193.373 317.037 190.535 314.38 189.385 310.65C195.148 311.073 200.681 311.069 206.169 310.641V310.643Z" fill="#231F20"/>
<path d="M185.545 308.424C183.801 313.825 179.118 317.484 174.03 316.971C168.106 316.374 163.85 310.342 164.421 303.435C170.391 305.525 177.426 307.545 185.547 308.424H185.545Z" fill="white"/>
<path d="M174.984 318.894C180.431 318.894 185.405 314.968 187.331 308.997C187.505 308.46 187.426 307.873 187.118 307.401C186.811 306.928 186.308 306.616 185.747 306.556C177.018 305.611 169.75 303.31 165.041 301.662C164.493 301.471 163.886 301.541 163.398 301.859C162.911 302.175 162.597 302.7 162.549 303.28C162.238 307.063 163.199 310.748 165.258 313.653C167.384 316.653 170.432 318.494 173.841 318.838C174.223 318.877 174.604 318.896 174.984 318.896V318.894ZM182.845 309.979C180.973 313.41 177.658 315.454 174.217 315.104C170.06 314.685 166.857 310.836 166.324 306.062C170.591 307.463 176.25 309.059 182.845 309.979Z" fill="#231F20"/>
<path d="M142.107 298.349C142.125 298.181 142.146 298.016 142.17 297.85C146.011 295.633 153.035 299.356 163.379 303.063C161.786 308.767 156.956 312.695 151.696 312.164C145.693 311.558 141.4 305.372 142.109 298.349H142.107Z" fill="white"/>
<path d="M152.631 314.087C158.267 314.087 163.437 309.829 165.184 303.568C165.449 302.62 164.937 301.63 164.011 301.297C161.803 300.506 159.781 299.726 157.825 298.972C150.391 296.108 145.02 294.036 141.23 296.224C140.727 296.514 140.386 297.023 140.308 297.599C140.282 297.784 140.259 297.97 140.239 298.157C139.427 306.2 144.48 313.318 151.505 314.027C151.881 314.066 152.257 314.083 152.629 314.083L152.631 314.087ZM160.991 304.189C159.256 308.172 155.634 310.675 151.883 310.295C147.092 309.812 143.621 304.883 143.926 299.163C146.424 298.6 150.929 300.336 156.475 302.472C157.861 303.007 159.385 303.593 160.991 304.189Z" fill="#231F20"/>
<path d="M295.998 454C295.998 465.598 242.944 475 177.498 475C112.052 475 58.998 465.598 58.998 454C58.998 442.402 112.052 433 177.498 433C242.944 433 295.998 442.402 295.998 454Z" fill="#800477" fill-opacity="0.2"/>
<path d="M193.728 87.36C193.152 87.36 192.816 87.072 192.744 86.496L191.904 77.664V77.112C191.904 76.536 192.24 76.2 192.816 76.2H195.432C196.032 76.2 196.344 76.536 196.344 77.112V77.664L195.504 86.496C195.432 87.072 195.096 87.36 194.544 87.36H193.728ZM194.112 93.264C192.792 93.264 191.832 92.376 191.832 91.176C191.832 89.976 192.792 89.04 194.112 89.04C195.408 89.04 196.416 89.976 196.416 91.176C196.416 92.376 195.408 93.264 194.112 93.264Z" fill="#8E0084"/>
<path d="M184.928 93.264C182.744 93.264 180.968 92.448 180.152 90.792C179.792 90.072 180.176 89.544 180.92 89.352L181.664 89.184C182.312 89.016 182.6 89.328 183.104 89.832C183.536 90.312 184.184 90.552 184.952 90.552C185.888 90.552 186.536 90.12 186.536 89.472C186.536 88.944 186.176 88.68 185.384 88.392L183.872 87.864C182.6 87.456 180.392 86.52 180.392 84.288C180.392 81.984 182.312 80.4 184.976 80.4C186.56 80.4 188 80.904 188.912 82.272C189.392 82.968 189.032 83.592 188.24 83.784L187.568 83.952C186.944 84.12 186.608 83.904 186.176 83.496C185.84 83.16 185.408 83.04 184.976 83.04C184.208 83.04 183.728 83.52 183.728 84.096C183.728 84.624 184.208 84.888 184.856 85.104L186.392 85.68C188.936 86.52 189.848 87.888 189.896 89.4C189.896 91.992 187.592 93.264 184.928 93.264Z" fill="#8E0084"/>
<path d="M172.393 93.264C167.977 93.264 165.289 90.408 165.289 86.88C165.289 83.4 167.905 80.4 172.057 80.4C175.561 80.4 178.441 82.512 178.609 86.448C178.633 87.144 178.153 87.456 177.433 87.456H168.841C168.793 88.92 170.257 90.336 172.633 90.336C173.521 90.336 174.433 90.12 175.369 89.592C176.017 89.232 176.545 89.28 177.001 89.832L177.265 90.168C177.745 90.744 177.697 91.392 177.049 91.872C175.633 92.904 173.977 93.264 172.393 93.264ZM168.937 85.392H175.129C174.793 83.736 173.377 83.208 172.105 83.208C170.809 83.208 169.345 83.784 168.937 85.392Z" fill="#8E0084"/>
<path d="M160.199 93.264C158.111 93.264 155.879 92.304 155.879 88.896V83.424H154.655C154.271 83.424 154.031 83.208 154.031 82.824V81.264C154.031 80.88 154.271 80.664 154.655 80.664H156.167L156.575 78.168C156.671 77.664 157.007 77.4 157.511 77.4H158.687C159.239 77.4 159.527 77.712 159.527 78.24V80.664H162.311C162.695 80.664 162.911 80.88 162.911 81.264V82.824C162.911 83.208 162.695 83.424 162.311 83.424H159.527V89.016C159.527 89.928 159.983 90.288 160.535 90.288C161.159 90.288 161.567 89.808 161.567 89.16C161.567 89.04 161.567 88.896 161.543 88.728C161.495 88.296 161.639 88.08 162.047 88.08H163.511C163.823 88.08 164.087 88.2 164.183 88.56C164.279 88.92 164.327 89.304 164.327 89.496C164.327 92.16 162.431 93.264 160.199 93.264Z" fill="#8E0084"/>
<path d="M144.619 93.264C141.331 93.264 140.131 90.672 140.131 87.768V81.816C140.131 81.072 140.539 80.664 141.283 80.664H142.699C143.443 80.664 143.851 81.072 143.851 81.816V87.504C143.851 89.232 144.523 90.264 145.795 90.264C147.043 90.264 148.387 89.256 148.387 86.952V81.816C148.387 81.072 148.795 80.664 149.539 80.664H150.931C151.675 80.664 152.107 81.072 152.107 81.816V91.848C152.107 92.592 151.675 93 150.931 93H149.539C148.795 93 148.387 92.592 148.387 91.848V91.056C147.763 92.448 146.467 93.264 144.619 93.264Z" fill="#8E0084"/>
<path d="M126.662 93C125.918 93 125.51 92.592 125.51 91.848V81.816C125.51 81.072 125.918 80.664 126.662 80.664H128.078C128.822 80.664 129.23 81.072 129.23 81.816V82.632C129.83 81.216 131.15 80.4 132.974 80.4C136.286 80.4 137.486 82.992 137.486 85.896V91.848C137.486 92.592 137.054 93 136.31 93H134.918C134.174 93 133.766 92.592 133.766 91.848V86.16C133.766 84.432 133.094 83.424 131.822 83.424C130.55 83.424 129.23 84.408 129.23 86.712V91.848C129.23 92.592 128.822 93 128.078 93H126.662Z" fill="#8E0084"/>
<path d="M120.632 79.2C119.264 79.2 118.4 78.36 118.4 77.28C118.4 76.176 119.192 75.336 120.632 75.336C122.048 75.336 122.864 76.176 122.864 77.28C122.864 78.36 122 79.2 120.632 79.2ZM119.936 93C119.192 93 118.784 92.592 118.784 91.848V81.816C118.784 81.072 119.192 80.664 119.936 80.664H121.328C122.072 80.664 122.504 81.072 122.504 81.816V91.848C122.504 92.592 122.072 93 121.328 93H119.936Z" fill="#8E0084"/>
<path d="M97.9508 93C97.2068 93 96.7988 92.592 96.7988 91.848V81.816C96.7988 81.072 97.2068 80.664 97.9508 80.664H99.3668C100.111 80.664 100.519 81.072 100.519 81.816V82.632C100.999 81.216 102.319 80.4 103.855 80.4C105.271 80.4 106.639 81 107.431 82.536C108.583 80.712 109.999 80.4 111.391 80.4C114.583 80.4 115.927 83.016 115.927 85.92V91.848C115.927 92.592 115.495 93 114.751 93H113.359C112.615 93 112.207 92.592 112.207 91.848V86.088C112.207 84.36 111.535 83.424 110.431 83.424C109.399 83.424 108.271 84.264 108.223 86.52V91.848C108.223 92.592 107.815 93 107.071 93H105.655C104.911 93 104.503 92.592 104.503 91.848V86.088C104.503 84.36 103.855 83.424 102.751 83.424C101.647 83.424 100.519 84.336 100.519 86.64V91.848C100.519 92.592 100.111 93 99.3668 93H97.9508Z" fill="#8E0084"/>
<path d="M196.468 69C195.724 69 195.316 68.592 195.316 67.848V57.816C195.316 57.072 195.724 56.664 196.468 56.664H197.884C198.628 56.664 199.036 57.072 199.036 57.816V58.632C199.636 57.216 200.956 56.4 202.78 56.4C206.092 56.4 207.292 58.992 207.292 61.896V67.848C207.292 68.592 206.86 69 206.116 69H204.724C203.98 69 203.572 68.592 203.572 67.848V62.16C203.572 60.432 202.9 59.424 201.628 59.424C200.356 59.424 199.036 60.408 199.036 62.712V67.848C199.036 68.592 198.628 69 197.884 69H196.468Z" fill="#8E0084"/>
<path d="M190.439 55.2C189.071 55.2 188.207 54.36 188.207 53.28C188.207 52.176 188.999 51.336 190.439 51.336C191.855 51.336 192.671 52.176 192.671 53.28C192.671 54.36 191.807 55.2 190.439 55.2ZM189.743 69C188.999 69 188.591 68.592 188.591 67.848V57.816C188.591 57.072 188.999 56.664 189.743 56.664H191.135C191.879 56.664 192.311 57.072 192.311 57.816V67.848C192.311 68.592 191.879 69 191.135 69H189.743Z" fill="#8E0084"/>
<path d="M176.875 69.264C174.787 69.264 172.555 68.304 172.555 64.896V59.424H171.331C170.947 59.424 170.707 59.208 170.707 58.824V57.264C170.707 56.88 170.947 56.664 171.331 56.664H172.843L173.251 54.168C173.347 53.664 173.683 53.4 174.187 53.4H175.363C175.915 53.4 176.203 53.712 176.203 54.24V56.664H178.987C179.371 56.664 179.587 56.88 179.587 57.264V58.824C179.587 59.208 179.371 59.424 178.987 59.424H176.203V65.016C176.203 65.928 176.659 66.288 177.211 66.288C177.835 66.288 178.243 65.808 178.243 65.16C178.243 65.04 178.243 64.896 178.219 64.728C178.171 64.296 178.315 64.08 178.723 64.08H180.187C180.499 64.08 180.763 64.2 180.859 64.56C180.955 64.92 181.003 65.304 181.003 65.496C181.003 68.16 179.107 69.264 176.875 69.264Z" fill="#8E0084"/>
<path d="M157.236 74.376C156.492 74.376 156.084 73.968 156.084 73.224V57.816C156.084 57.072 156.492 56.664 157.236 56.664H158.652C159.396 56.664 159.804 57.072 159.804 57.816V58.392C160.692 57.024 162.132 56.4 163.764 56.4C167.22 56.4 169.692 59.208 169.692 62.832C169.692 66.48 167.22 69.264 163.764 69.264C162.132 69.264 160.692 68.64 159.804 67.248V73.224C159.804 73.968 159.396 74.376 158.652 74.376H157.236ZM162.9 66.288C164.844 66.288 165.972 64.752 165.972 62.832C165.972 60.936 164.844 59.376 162.9 59.376C161.004 59.376 159.756 60.864 159.756 62.832C159.756 64.8 161.004 66.288 162.9 66.288Z" fill="#8E0084"/>
<path d="M147.749 69.264C143.333 69.264 140.645 66.408 140.645 62.88C140.645 59.4 143.261 56.4 147.413 56.4C150.917 56.4 153.797 58.512 153.965 62.448C153.989 63.144 153.509 63.456 152.789 63.456H144.197C144.149 64.92 145.613 66.336 147.989 66.336C148.877 66.336 149.789 66.12 150.725 65.592C151.373 65.232 151.901 65.28 152.357 65.832L152.621 66.168C153.101 66.744 153.053 67.392 152.405 67.872C150.989 68.904 149.333 69.264 147.749 69.264ZM144.293 61.392H150.485C150.149 59.736 148.733 59.208 147.461 59.208C146.165 59.208 144.701 59.784 144.293 61.392Z" fill="#8E0084"/>
<path d="M134.905 69.264C130.609 69.264 127.801 66.432 127.801 62.904C127.801 59.304 130.561 56.4 134.905 56.4C136.081 56.4 137.497 56.664 138.817 57.432C139.465 57.84 139.489 58.464 139.033 59.064L138.649 59.544C138.193 60.12 137.713 60.144 137.017 59.832C136.225 59.448 135.457 59.4 135.121 59.4C133.033 59.4 131.521 60.816 131.521 62.832C131.521 64.848 133.033 66.264 135.121 66.264C135.457 66.264 136.225 66.216 137.017 65.832C137.713 65.52 138.217 65.544 138.649 66.12L139.033 66.6C139.489 67.2 139.393 67.896 138.601 68.328C137.377 69.024 136.033 69.264 134.905 69.264Z" fill="#8E0084"/>
<path d="M114.931 69C114.187 69 113.779 68.592 113.779 67.848V57.816C113.779 57.072 114.187 56.664 114.931 56.664H116.347C117.091 56.664 117.499 57.072 117.499 57.816V58.632C118.099 57.216 119.419 56.4 121.243 56.4C124.555 56.4 125.755 58.992 125.755 61.896V67.848C125.755 68.592 125.323 69 124.579 69H123.187C122.443 69 122.035 68.592 122.035 67.848V62.16C122.035 60.432 121.363 59.424 120.091 59.424C118.819 59.424 117.499 60.408 117.499 62.712V67.848C117.499 68.592 117.091 69 116.347 69H114.931Z" fill="#8E0084"/>
<path d="M104.756 69.264C100.844 69.264 97.916 66.408 97.916 62.832C97.916 59.28 100.844 56.4 104.756 56.4C108.668 56.4 111.596 59.28 111.596 62.832C111.596 66.384 108.668 69.264 104.756 69.264ZM104.756 66.264C106.604 66.264 108.068 64.776 108.068 62.856C108.068 60.912 106.604 59.424 104.756 59.424C102.884 59.424 101.444 60.912 101.444 62.856C101.444 64.776 102.884 66.264 104.756 66.264Z" fill="#8E0084"/>
<path d="M92.2017 69.264C87.9057 69.264 85.0977 66.432 85.0977 62.904C85.0977 59.304 87.8577 56.4 92.2017 56.4C93.3777 56.4 94.7937 56.664 96.1137 57.432C96.7617 57.84 96.7857 58.464 96.3297 59.064L95.9457 59.544C95.4897 60.12 95.0097 60.144 94.3137 59.832C93.5217 59.448 92.7537 59.4 92.4177 59.4C90.3297 59.4 88.8177 60.816 88.8177 62.832C88.8177 64.848 90.3297 66.264 92.4177 66.264C92.7537 66.264 93.5217 66.216 94.3137 65.832C95.0097 65.52 95.5137 65.544 95.9457 66.12L96.3297 66.6C96.7857 67.2 96.6897 67.896 95.8977 68.328C94.6737 69.024 93.3297 69.264 92.2017 69.264Z" fill="#8E0084"/>
<path d="M205.097 45C204.425 45 203.993 44.712 203.777 44.064L200.201 34.008C199.889 33.192 200.273 32.664 201.137 32.664H202.721C203.417 32.664 203.825 32.952 204.017 33.648L205.961 39.984L207.809 33.984C208.001 33.312 208.433 33 209.105 33H209.465C210.137 33 210.569 33.312 210.761 33.984L212.633 39.984L214.553 33.648C214.745 32.952 215.177 32.664 215.849 32.664H217.433C218.297 32.664 218.681 33.192 218.393 34.008L214.793 44.064C214.577 44.712 214.145 45 213.473 45H212.441C211.769 45 211.337 44.688 211.121 44.04L209.297 38.112L207.449 44.04C207.257 44.688 206.801 45 206.129 45H205.097Z" fill="#8E0084"/>
<path d="M192.959 45.264C188.543 45.264 185.855 42.408 185.855 38.88C185.855 35.4 188.471 32.4 192.623 32.4C196.127 32.4 199.007 34.512 199.175 38.448C199.199 39.144 198.719 39.456 197.999 39.456H189.407C189.359 40.92 190.823 42.336 193.199 42.336C194.087 42.336 194.999 42.12 195.935 41.592C196.583 41.232 197.111 41.28 197.567 41.832L197.831 42.168C198.311 42.744 198.263 43.392 197.615 43.872C196.199 44.904 194.543 45.264 192.959 45.264ZM189.503 37.392H195.695C195.359 35.736 193.943 35.208 192.671 35.208C191.375 35.208 189.911 35.784 189.503 37.392Z" fill="#8E0084"/>
<path d="M172.986 45C172.242 45 171.834 44.592 171.834 43.848V33.816C171.834 33.072 172.242 32.664 172.986 32.664H174.402C175.146 32.664 175.554 33.072 175.554 33.816V34.632C176.154 33.216 177.474 32.4 179.298 32.4C182.61 32.4 183.81 34.992 183.81 37.896V43.848C183.81 44.592 183.378 45 182.634 45H181.242C180.498 45 180.09 44.592 180.09 43.848V38.16C180.09 36.432 179.418 35.424 178.146 35.424C176.874 35.424 175.554 36.408 175.554 38.712V43.848C175.554 44.592 175.146 45 174.402 45H172.986Z" fill="#8E0084"/>
<path d="M155.362 45.264C151.906 45.264 149.434 42.48 149.434 38.832C149.434 35.208 151.906 32.4 155.362 32.4C156.994 32.4 158.434 33.024 159.322 34.416V33.816C159.322 33.072 159.73 32.664 160.474 32.664H161.89C162.634 32.664 163.042 33.072 163.042 33.816V43.848C163.042 44.592 162.634 45 161.89 45H160.474C159.73 45 159.322 44.592 159.322 43.848V43.272C158.434 44.64 156.994 45.264 155.362 45.264ZM156.226 42.288C158.122 42.288 159.37 40.8 159.37 38.832C159.37 36.864 158.122 35.376 156.226 35.376C154.282 35.376 153.154 36.936 153.154 38.832C153.154 40.752 154.282 42.288 156.226 42.288Z" fill="#8E0084"/>
<path d="M130.728 45C129.984 45 129.576 44.592 129.576 43.848V33.816C129.576 33.072 129.984 32.664 130.728 32.664H132.144C132.888 32.664 133.296 33.072 133.296 33.816V34.632C133.896 33.216 135.216 32.4 137.04 32.4C140.352 32.4 141.552 34.992 141.552 37.896V43.848C141.552 44.592 141.12 45 140.376 45H138.984C138.24 45 137.832 44.592 137.832 43.848V38.16C137.832 36.432 137.16 35.424 135.888 35.424C134.616 35.424 133.296 36.408 133.296 38.712V43.848C133.296 44.592 132.888 45 132.144 45H130.728Z" fill="#8E0084"/>
<path d="M121.048 45C120.304 45 119.896 44.592 119.896 43.848V33.816C119.896 33.072 120.304 32.664 121.048 32.664H122.368C123.112 32.664 123.52 33.072 123.52 33.816V35.352C123.928 33.096 125.656 32.4 126.712 32.4L127.12 32.424C127.696 32.472 127.816 32.928 127.816 33.408V35.088C127.816 35.76 127.48 36.048 126.976 35.976C126.76 35.952 126.568 35.928 126.376 35.928C124.936 35.928 123.616 36.864 123.616 39.96V43.848C123.616 44.592 123.208 45 122.464 45H121.048Z" fill="#8E0084"/>
<path d="M109.237 45.264C105.781 45.264 103.309 42.48 103.309 38.832C103.309 35.208 105.781 32.4 109.237 32.4C110.869 32.4 112.309 33.024 113.197 34.416V33.816C113.197 33.072 113.605 32.664 114.349 32.664H115.765C116.509 32.664 116.917 33.072 116.917 33.816V43.848C116.917 44.592 116.509 45 115.765 45H114.349C113.605 45 113.197 44.592 113.197 43.848V43.272C112.309 44.64 110.869 45.264 109.237 45.264ZM110.101 42.288C111.997 42.288 113.245 40.8 113.245 38.832C113.245 36.864 111.997 35.376 110.101 35.376C108.157 35.376 107.029 36.936 107.029 38.832C107.029 40.752 108.157 42.288 110.101 42.288Z" fill="#8E0084"/>
<path d="M95.7173 45.264C91.3013 45.264 88.6133 42.408 88.6133 38.88C88.6133 35.4 91.2293 32.4 95.3813 32.4C98.8853 32.4 101.765 34.512 101.933 38.448C101.957 39.144 101.477 39.456 100.757 39.456H92.1653C92.1173 40.92 93.5813 42.336 95.9573 42.336C96.8453 42.336 97.7573 42.12 98.6933 41.592C99.3413 41.232 99.8693 41.28 100.325 41.832L100.589 42.168C101.069 42.744 101.021 43.392 100.373 43.872C98.9573 44.904 97.3013 45.264 95.7173 45.264ZM92.2613 37.392H98.4533C98.1173 35.736 96.7013 35.208 95.4293 35.208C94.1333 35.208 92.6693 35.784 92.2613 37.392Z" fill="#8E0084"/>
<path d="M77.51 45C76.766 45 76.334 44.592 76.334 43.848V29.352C76.334 28.608 76.766 28.2 77.51 28.2H78.998C79.742 28.2 80.15 28.608 80.15 29.352V41.784H86.582C87.326 41.784 87.758 42.192 87.758 42.936V43.848C87.758 44.592 87.326 45 86.582 45H77.51Z" fill="#8E0084"/>
</svg>
