<svg width="24" height="24" viewBox="0 0 24 24" fill="none" xmlns="http://www.w3.org/2000/svg">
<path d="M18.2012 14.4321C18.2012 11.0298 15.4292 8.26426 12.001 8.26416C8.57262 8.26416 5.80078 11.0298 5.80078 14.4321C5.80086 17.8344 8.57267 20.6001 12.001 20.6001C15.4292 20.6 18.2011 17.8344 18.2012 14.4321ZM11.001 15.6851V13.2856C11.001 12.7334 11.4487 12.2856 12.001 12.2856C12.5532 12.2857 13.001 12.7334 13.001 13.2856V15.6851C13.001 16.2373 12.5532 16.685 12.001 16.6851C11.4487 16.6851 11.001 16.2373 11.001 15.6851ZM12.001 3.3999C9.6806 3.3999 7.77816 5.20533 7.61328 7.53271C8.88268 6.73013 10.3874 6.26416 12.001 6.26416C13.6143 6.2642 15.1184 6.73032 16.3877 7.53271C16.2228 5.20542 14.3213 3.4 12.001 3.3999ZM20.2012 14.4321C20.2011 18.9473 16.5254 22.6 12.001 22.6001C7.47648 22.6001 3.80086 18.9474 3.80078 14.4321C3.80078 12.4829 4.48638 10.6948 5.62891 9.2915C5.61067 9.21602 5.60061 9.13724 5.60059 9.05615V7.86084C5.60083 4.29402 8.44679 1.3999 12.001 1.3999C15.5551 1.40001 18.4001 4.29408 18.4004 7.86084V9.32764C19.5257 10.7255 20.2012 12.4993 20.2012 14.4321Z" fill="#868686"/>
</svg>
