<svg width="517" height="451" viewBox="0 0 517 451" fill="none" xmlns="http://www.w3.org/2000/svg">
<g clip-path="url(#clip0_146_2335)">
<path d="M265.074 340.941C352.384 340.941 423.163 269.156 423.163 180.604C423.163 92.0527 352.384 20.2675 265.074 20.2675C177.763 20.2675 106.984 92.0527 106.984 180.604C106.984 269.156 177.763 340.941 265.074 340.941Z" fill="#F31DE5"/>
<path d="M265.074 342.772C243.483 342.772 222.534 338.482 202.817 330.025C183.773 321.856 166.67 310.162 151.985 295.265C137.3 280.372 125.774 263.031 117.719 243.719C109.382 223.727 105.156 202.494 105.156 180.604C105.156 158.715 109.382 137.481 117.719 117.489C125.774 98.1776 137.3 80.8364 151.985 65.9435C166.67 51.0472 183.773 39.3561 202.817 31.1843C222.538 22.7264 243.483 18.4364 265.074 18.4364C286.665 18.4364 307.614 22.7264 327.331 31.1843C346.375 39.3526 363.478 51.0472 378.163 65.9435C392.848 80.8364 404.375 98.1776 412.429 117.489C420.766 137.481 424.992 158.715 424.992 180.604C424.992 202.494 420.766 223.727 412.429 243.719C404.375 263.031 392.848 280.372 378.163 295.265C363.478 310.162 346.375 321.856 327.331 330.025C307.611 338.482 286.665 342.772 265.074 342.772ZM265.074 22.0986C243.982 22.0986 223.522 26.2874 204.262 34.55C185.654 42.53 168.945 53.9595 154.592 68.514C140.239 83.072 128.97 100.023 121.097 118.899C112.949 138.441 108.814 159.203 108.814 180.604C108.814 202.005 112.945 222.768 121.097 242.31C128.97 261.186 140.239 278.137 154.592 292.695C168.942 307.249 185.654 318.679 204.262 326.659C223.522 334.921 243.982 339.11 265.074 339.11C286.166 339.11 306.627 334.921 325.887 326.659C344.494 318.679 361.203 307.249 375.556 292.695C389.91 278.137 401.178 261.186 409.051 242.31C417.2 222.768 421.335 202.005 421.335 180.604C421.335 159.203 417.203 138.441 409.051 118.899C401.178 100.023 389.91 83.072 375.556 68.514C361.206 53.9595 344.494 42.53 325.887 34.55C306.627 26.2874 286.166 22.0986 265.074 22.0986Z" fill="#F31DE5"/>
<path d="M163.5 182.5L143.5 191L150 210.5L165.5 230L186 244L211.5 246.5L244.5 230L269.5 200V191L254 184.5L226 179H196.5L163.5 182.5Z" fill="#231F20"/>
<path d="M477.247 305.924C475.306 305.924 473.429 305.54 471.705 304.689C464.865 301.306 461.644 296.068 462.136 289.12C462.209 288.087 462.366 287.052 462.583 286.016C460.248 287.658 457.666 288.876 454.863 289.284C450.264 289.953 445.752 288.433 441.445 284.757C439.152 282.8 437.809 279.964 437.554 276.56C437.401 274.492 437.641 272.298 438.172 270.08C436.626 270.872 434.993 271.357 433.227 271.409C429.81 271.51 426.516 269.986 423.166 266.728C419.966 263.621 418.455 260.227 418.675 256.645C419.142 249.031 427.333 242.82 434.56 237.34C436.322 236.004 438.113 234.648 439.634 233.368C439.634 233.368 439.631 233.368 439.627 233.368C435.045 232.872 428.77 232.196 423.623 230.305C418.828 228.544 413.143 224.945 413.304 217.788C413.367 214.963 414.372 212.608 416.284 210.791C421.274 206.055 431.37 206.355 441.135 206.644C445.888 206.784 450.376 206.916 453.785 206.463C456.388 206.114 458.022 205.448 458.266 204.632C459.187 201.57 457.023 197.06 452.48 192.571C446.512 186.677 437.526 181.675 427.828 178.847C419.931 176.545 407.874 174.633 395.262 178.585C393.657 179.087 391.947 178.194 391.444 176.59C390.942 174.986 391.835 173.277 393.44 172.774C407.504 168.366 420.831 170.465 429.535 173.001C440.175 176.102 450.1 181.658 456.762 188.239C463.124 194.524 465.73 200.97 464.101 206.39C462.003 213.362 451.778 213.058 440.957 212.737C433.237 212.511 423.634 212.225 420.482 215.214C419.76 215.901 419.425 216.738 419.397 217.931C419.25 224.495 430.1 226.221 440.283 227.32C443.096 227.623 445.315 227.864 446.767 228.314C447.66 228.593 448.379 229.266 448.711 230.141C449.042 231.017 448.952 231.997 448.467 232.799C446.614 235.854 442.736 238.795 438.245 242.199C432.368 246.653 425.057 252.198 424.761 257.022C424.653 258.776 425.522 260.524 427.416 262.365C429.517 264.409 431.363 265.368 433.038 265.323C436.249 265.222 439.76 261.354 443.476 257.259C444.593 256.031 445.745 254.758 446.952 253.52C448.104 252.338 449.985 252.285 451.199 253.401C452.414 254.518 452.518 256.397 451.436 257.639C447.339 262.355 443.211 270.429 443.633 276.107C443.766 277.91 444.345 279.222 445.406 280.125C448.358 282.643 451.164 283.672 453.984 283.257C460.824 282.259 466.788 273.041 469.653 268.608C470.508 267.29 472.225 266.836 473.617 267.562C475.013 268.287 475.624 269.951 475.034 271.409C474.437 272.874 473.68 274.457 472.877 276.135C467.817 286.713 464.963 294.561 474.406 299.231C478.786 301.397 486.247 297.511 490.204 292.667C510.619 267.673 511.746 241.512 510.602 228.143C509.719 217.837 503.27 192.763 485.175 171.637C475.233 160.03 463.186 151.213 449.374 145.434C432.805 138.5 413.576 135.919 392.215 137.754C390.533 137.893 389.061 136.655 388.917 134.981C388.774 133.307 390.017 131.831 391.692 131.685C414.044 129.763 434.239 132.497 451.726 139.815C466.425 145.964 479.236 155.339 489.803 167.675C508.867 189.931 515.662 215.831 516.67 227.623C517.892 241.913 516.695 269.864 494.922 296.517C490.616 301.791 483.601 305.924 477.243 305.924H477.247Z" fill="#231F20"/>
<path d="M151.066 363.507C150.138 363.507 149.223 363.085 148.623 362.287C147.615 360.94 147.89 359.033 149.237 358.025C158.527 351.077 180.663 326.457 184.843 316.168C185.478 314.609 187.255 313.859 188.815 314.494C190.375 315.125 191.125 316.904 190.49 318.463C187.576 325.63 178.628 336.501 173.554 342.344C165.87 351.192 157.756 359.263 152.888 362.904C152.34 363.312 151.698 363.511 151.066 363.511V363.507Z" fill="#231F20"/>
<path d="M151.779 414C148.461 414 145.114 413.742 141.764 413.226C129.902 411.391 119.063 406.452 110.412 398.947C102.884 392.414 97.7683 384.668 95.6152 376.545C93.0467 366.849 94.8823 356.828 100.529 349.738C104.326 344.97 109.982 341.59 116.463 340.213C122.699 338.891 129.284 339.484 135.004 341.883C145.777 346.403 154.236 357.069 157.084 369.712C157.454 371.351 156.421 372.984 154.78 373.353C153.144 373.72 151.507 372.691 151.137 371.051C148.715 360.295 141.628 351.272 132.641 347.502C123.006 343.46 111.249 346.051 105.292 353.532C100.906 359.04 99.4539 367.264 101.499 374.986C103.823 383.751 109.798 390.353 114.401 394.35C122.183 401.106 131.964 405.549 142.688 407.209C153.412 408.866 164.081 407.583 173.541 403.495C182.304 399.707 193.604 388.152 203.766 372.586C213.534 357.62 220.231 342.078 221.236 332.023C221.403 330.349 222.893 329.128 224.572 329.296C226.247 329.463 227.469 330.956 227.301 332.63C225.008 355.541 197.572 399.746 175.963 409.086C168.418 412.347 160.2 414.004 151.779 414.007V414Z" fill="#231F20"/>
<path d="M354.66 385.25C353.833 385.25 353.003 385.229 352.165 385.18C340.935 384.567 330.993 379.851 323.41 371.543C314.912 362.234 309.901 349.124 308.522 332.574C308.383 330.9 309.629 329.425 311.307 329.285C312.989 329.146 314.458 330.391 314.598 332.068C315.865 347.247 320.342 359.148 327.915 367.438C334.399 374.539 342.9 378.571 352.504 379.098C380.872 380.643 402.658 350.773 406.148 339.156C406.633 337.544 408.333 336.63 409.942 337.115C411.554 337.6 412.468 339.295 411.983 340.907C408.089 353.874 385.534 385.247 354.664 385.247L354.66 385.25Z" fill="#231F20"/>
<path d="M427.562 366.845C418.384 366.845 409.164 362.534 403.51 355.294C402.474 353.968 402.711 352.053 404.037 351.021C405.363 349.985 407.279 350.222 408.312 351.548C413.645 358.377 422.955 361.938 431.491 360.407C440.024 358.876 447.516 352.298 450.137 344.039C454.656 329.794 444.941 315.362 440.554 309.82C433.278 300.623 425.244 295.133 419.064 295.133C409.094 295.133 398.852 305.453 395.753 318.634C394.465 324.109 391.432 329.585 387.437 333.659C383.046 338.134 377.84 340.634 372.773 340.697C372.706 340.697 372.64 340.697 372.574 340.697C367.765 340.697 363.242 338.514 359.484 334.37C355.442 329.917 352.218 323.171 349.901 314.326C349.475 312.701 350.449 311.034 352.075 310.608C353.701 310.183 355.369 311.156 355.795 312.781C359.484 326.861 365.441 334.604 372.574 334.604C372.616 334.604 372.654 334.604 372.696 334.604C379.783 334.517 387.625 326.561 389.82 317.235C391.582 309.747 395.425 302.754 400.642 297.539C406.128 292.057 412.667 289.04 419.064 289.04C430.636 289.04 441.29 300.926 445.335 306.039C455.881 319.369 459.751 333.889 455.947 345.877C452.664 356.232 443.269 364.477 432.57 366.399C430.915 366.695 429.237 366.838 427.558 366.838L427.562 366.845Z" fill="#231F20"/>
<path d="M21.0913 80.5469C20.3899 80.5469 19.6815 80.3062 19.1092 79.811C7.99429 70.2823 1.41959 56.8648 0.0969748 41.0128C-0.489304 33.9954 1.47543 24.976 8.94001 22.6531C14.5864 20.8988 19.9607 24.1145 23.5097 26.6885C30.0774 31.4493 36.8336 39.1887 42.5219 47.2246C41.0772 36.0637 41.0213 24.1075 43.5828 14.9416C45.9523 6.45935 50.2168 1.37416 55.9086 0.233656C62.3367 -1.05334 68.8905 3.06923 73.8913 11.5411C82.3086 25.8026 85.8716 39.4573 85.1004 54.5175C85.0131 56.1986 83.5824 57.4856 81.9003 57.4019C80.2182 57.3147 78.927 55.8847 79.0143 54.2036C79.7227 40.3955 76.4284 27.822 68.6427 14.6347C63.3802 5.71994 58.484 5.92921 57.1056 6.20474C54.8093 6.66513 51.6162 8.83802 49.4526 16.5809C46.8422 25.9177 46.5351 43.6845 51.7349 62.3267C52.1536 63.8264 51.3719 65.3994 49.9272 65.9749C48.4824 66.5504 46.8318 65.9435 46.1059 64.5693C37.8736 49.0033 26.7692 36.5764 19.9327 31.6237C15.9788 28.7568 13.0614 27.7558 10.7547 28.4742C8.04314 29.3183 5.57589 33.3676 6.17264 40.5106C7.36264 54.7338 13.208 66.7283 23.0805 75.1931C24.3577 76.2883 24.5043 78.2101 23.4085 79.4866C22.8048 80.1876 21.9533 80.5504 21.0948 80.5504L21.0913 80.5469Z" fill="#231F20"/>
<path d="M38.5284 107.225C35.8448 107.225 33.381 106.946 31.3988 106.384C21.9276 103.688 13.3847 93.9888 15.7612 83.8463C17.035 78.4019 21.46 73.5609 27.3053 71.2101C31.8525 69.3825 37.307 68.9047 43.5222 69.7836C48.7115 70.5195 53.147 72.0193 56.7135 74.2445C58.1408 75.1339 58.5735 77.0138 57.6837 78.4403C56.7903 79.8668 54.9128 80.2993 53.4855 79.4099C50.6448 77.6381 47.005 76.4278 42.6672 75.814C37.5233 75.085 33.1193 75.4373 29.5772 76.8603C25.543 78.4786 22.5244 81.6874 21.6938 85.231C20.1339 91.8892 26.4364 98.6345 33.0669 100.525C39.6451 102.398 56.5844 99.8413 59.9276 92.5763C60.6325 91.0486 62.4402 90.379 63.9687 91.0835C65.4972 91.7845 66.1672 93.5947 65.4623 95.1224C62.4367 101.693 54.2183 104.644 49.5874 105.819C45.9162 106.751 42.0321 107.225 38.5249 107.225H38.5284Z" fill="#231F20"/>
<path d="M112.425 143.84C112.306 143.84 112.188 143.833 112.069 143.819C100.588 142.483 89.7277 129.896 87.0999 115.003C86.6218 113.963 86.751 112.701 87.5327 111.766C92.9906 105.272 96.7526 96.7372 98.1206 87.7387C98.3753 86.075 99.9283 84.9345 101.593 85.1857C103.257 85.4403 104.399 86.9923 104.147 88.656C102.696 98.1951 98.8255 107.291 93.1965 114.459C95.4858 126.233 104.259 136.78 112.774 137.771C114.446 137.966 115.643 139.477 115.447 141.147C115.266 142.699 113.95 143.84 112.425 143.84Z" fill="#231F20"/>
<path d="M107.438 194.238C107.208 194.238 106.974 194.21 106.736 194.158C91.1094 190.482 82.7026 185.062 72.1356 171.85C63.4182 160.947 57.4542 146.895 53.4131 127.695C41.7712 124.074 32.9108 115.359 30.0212 104.512C29.5885 102.886 30.5552 101.219 32.1814 100.787C33.8076 100.354 35.4757 101.32 35.9085 102.946C38.4106 112.338 46.5417 119.798 57.1331 122.414C58.0509 122.641 58.8117 123.283 59.1921 124.148C59.4817 124.807 59.5236 125.539 59.3282 126.219C63.1669 144.565 68.761 157.878 76.8956 168.048C86.5832 180.165 93.8802 184.881 108.129 188.229C109.766 188.612 110.781 190.252 110.397 191.891C110.066 193.293 108.816 194.238 107.434 194.238H107.438Z" fill="#231F20"/>
<path d="M77.8583 97.3092C77.8269 97.3092 77.799 97.3092 77.7676 97.3092C76.0855 97.2604 74.7629 95.8548 74.8117 94.1737C74.8362 93.3018 74.9339 92.4159 75.0909 91.5265C70.2088 95.098 63.2816 98.1498 56.829 93.7936C50.0938 89.249 50.6661 79.1449 54.7143 71.5136C58.0923 65.1379 63.7946 59.3587 70.3518 55.6546C77.6489 51.5321 85.1344 50.4648 91.4334 52.6482C97.2439 54.6606 101.393 59.8539 103.424 67.6631C105.002 73.7283 105.26 81.1782 104.15 88.6456C103.902 90.3093 102.356 91.4567 100.688 91.2091C99.0236 90.9615 97.8755 89.4129 98.1233 87.7492C99.917 75.685 97.9628 61.3572 89.4373 58.403C79.3414 54.9048 65.6232 63.9451 60.0989 74.3666C57.7817 78.7368 56.2951 86.0855 60.242 88.7467C67.7485 93.811 79.0413 79.6366 82.7509 74.977C83.1208 74.5131 83.4349 74.119 83.6897 73.8085C84.7506 72.525 86.642 72.3262 87.9437 73.3656C89.2454 74.405 89.4687 76.2953 88.4497 77.6102C86.4117 80.2365 81.0863 88.3631 80.9083 94.3551C80.8595 96.0048 79.5055 97.3092 77.8653 97.3092H77.8583Z" fill="#231F20"/>
<path d="M189.041 114.905C194.703 94.1479 191.357 75.1587 181.567 72.4911C171.777 69.8236 159.25 84.4877 153.588 105.244C147.926 126.001 151.272 144.99 161.063 147.658C170.853 150.325 183.379 135.661 189.041 114.905Z" fill="white"/>
<path d="M163.438 151.011C162.36 151.011 161.296 150.871 160.256 150.585C154.32 148.967 150.153 142.989 148.523 133.753C147.037 125.309 147.787 114.898 150.642 104.435C153.496 93.9714 158.134 84.6171 163.704 78.095C169.797 70.959 176.42 67.9211 182.36 69.5395C188.296 71.1578 192.463 77.1358 194.092 86.3715C195.579 94.8154 194.829 105.23 191.974 115.693C189.12 126.157 184.482 135.511 178.912 142.033C173.89 147.913 168.502 151.014 163.442 151.014L163.438 151.011ZM179.244 75.2211C172.18 75.2211 161.704 87.0272 156.518 106.036C153.898 115.651 153.189 125.121 154.522 132.696C155.702 139.382 158.371 143.76 161.854 144.708C165.333 145.657 169.86 143.24 174.271 138.074C179.268 132.222 183.466 123.705 186.087 114.089C188.708 104.473 189.416 95.0038 188.083 87.4283C186.904 80.7422 184.234 76.365 180.751 75.4164C180.27 75.2838 179.764 75.2211 179.24 75.2211H179.244Z" fill="#231F20"/>
<path d="M175.162 109.913C178.932 96.094 177.414 83.6452 171.773 82.108C166.131 80.5707 158.502 90.5273 154.732 104.346C150.962 118.166 152.48 130.615 158.121 132.152C163.763 133.689 171.392 123.732 175.162 109.913Z" fill="#231F20"/>
<path d="M159.295 135.343C158.625 135.343 157.962 135.256 157.31 135.078C153.307 133.99 150.662 129.774 149.863 123.213C149.175 117.58 149.856 110.591 151.782 103.535C153.708 96.4791 156.668 90.1139 160.119 85.6042C164.139 80.3551 168.557 78.0636 172.56 79.1553C176.563 80.2435 179.208 84.4602 180.007 91.0207C180.695 96.6535 180.011 103.643 178.088 110.699C176.165 117.755 173.202 124.12 169.751 128.63C166.387 133.024 162.74 135.343 159.295 135.343ZM170.588 84.9904C169.377 84.9904 167.287 86.2669 164.956 89.3117C161.972 93.2076 159.379 98.8264 157.659 105.139C155.938 111.452 155.317 117.608 155.91 122.477C156.427 126.701 157.788 128.898 158.912 129.205C160.032 129.512 162.325 128.309 164.914 124.929C167.898 121.033 170.487 115.414 172.211 109.101C173.931 102.789 174.553 96.6326 173.959 91.7636C173.446 87.5399 172.082 85.3426 170.958 85.0357C170.847 85.0043 170.724 84.9904 170.592 84.9904H170.588Z" fill="#231F20"/>
<path d="M249.576 104.975C255.239 84.2178 251.892 65.2287 242.102 62.5611C232.312 59.8935 219.785 74.5576 214.123 95.3144C208.461 116.071 211.808 135.06 221.598 137.728C231.388 140.395 243.914 125.731 249.576 104.975Z" fill="white"/>
<path d="M223.966 141.081C222.888 141.081 221.823 140.941 220.783 140.655C214.847 139.037 210.68 133.059 209.051 123.823C207.564 115.379 208.314 104.968 211.169 94.5015C214.024 84.0347 218.661 74.6839 224.231 68.1618C230.324 61.0258 236.948 57.9879 242.887 59.6062C248.823 61.2246 252.99 67.2026 254.62 76.4383C256.106 84.8822 255.356 95.2932 252.502 105.76C249.647 116.223 245.009 125.578 239.439 132.1C234.418 137.98 229.029 141.081 223.969 141.081H223.966ZM239.774 65.2913C232.711 65.2913 222.235 77.0975 217.049 96.1059C214.428 105.722 213.72 115.191 215.053 122.767C216.233 129.453 218.902 133.83 222.385 134.778C229.378 136.683 241.052 124.577 246.618 104.159C249.239 94.5434 249.947 85.074 248.614 77.4986C247.434 70.8125 244.765 66.4353 241.282 65.4866C240.8 65.3541 240.294 65.2913 239.771 65.2913H239.774Z" fill="#231F20"/>
<path d="M235.693 99.9822C239.463 86.163 237.945 73.7141 232.304 72.1769C226.662 70.6397 219.033 80.5962 215.263 94.4154C211.493 108.235 213.011 120.684 218.653 122.221C224.294 123.758 231.924 113.801 235.693 99.9822Z" fill="#231F20"/>
<path d="M219.827 125.414C219.157 125.414 218.494 125.326 217.841 125.149C213.838 124.06 211.193 119.844 210.394 113.283C209.706 107.65 210.387 100.661 212.313 93.6051C214.24 86.5493 217.199 80.1841 220.65 75.6744C224.67 70.4253 229.089 68.1338 233.091 69.2255C237.094 70.3172 239.739 74.5304 240.538 81.0909C241.226 86.7237 240.545 93.7132 238.619 100.769C236.696 107.825 233.733 114.19 230.282 118.696C226.918 123.091 223.271 125.41 219.827 125.41V125.414ZM231.12 75.0571C229.909 75.0571 227.818 76.3336 225.487 79.3784C222.503 83.2743 219.91 88.8931 218.19 95.206C216.47 101.519 215.848 107.675 216.442 112.544C216.958 116.767 218.319 118.965 219.443 119.272C220.563 119.575 222.856 118.375 225.445 114.996C228.429 111.1 231.022 105.481 232.742 99.1681C234.463 92.8552 235.084 86.6993 234.491 81.8303C233.974 77.6066 232.613 75.4093 231.489 75.1024C231.378 75.071 231.256 75.0571 231.123 75.0571H231.12Z" fill="#231F20"/>
<path d="M266.002 204C235.5 193.5 208.001 208.5 214.001 244.5V246L219.001 244.5L238.001 236.5C241.835 233.167 256.402 216.4 266.002 204Z" fill="white"/>
<path d="M202.758 249.572C201.48 249.572 200.21 249.527 198.94 249.432C174.463 247.636 153.161 229.144 140.504 198.699C139.338 195.898 139.419 192.721 140.72 189.98C142.022 187.238 144.437 185.17 147.344 184.301C167.298 178.344 187.138 175.261 206.307 175.136C227.036 175.007 247.025 178.334 265.772 185.034C268.798 186.115 271.153 188.473 272.235 191.5C273.324 194.549 272.992 197.89 271.324 200.673C261.197 217.537 249.569 230.337 236.762 238.718C225.856 245.854 214.18 249.568 202.758 249.568V249.572ZM207.507 181.225C207.12 181.225 206.733 181.225 206.345 181.229C187.752 181.351 168.488 184.347 149.085 190.14C147.812 190.52 146.793 191.392 146.22 192.595C145.648 193.799 145.616 195.135 146.126 196.362C157.869 224.606 177.282 241.735 199.383 243.357C210.819 244.197 222.269 240.922 233.419 233.626C245.451 225.754 256.444 213.613 266.093 197.541C266.819 196.331 266.966 194.876 266.491 193.555C266.027 192.254 265.011 191.239 263.713 190.775C245.989 184.437 227.085 181.225 207.5 181.225H207.507Z" fill="#231F20"/>
</g>
<ellipse cx="254.5" cy="413" rx="214.5" ry="38" fill="#800477" fill-opacity="0.2"/>
<defs>
<clipPath id="clip0_146_2335">
<rect width="517" height="414" fill="white"/>
</clipPath>
</defs>
</svg>
