<svg width="450" height="417" viewBox="0 0 450 417" fill="none" xmlns="http://www.w3.org/2000/svg">
<g opacity="0.92" clip-path="url(#clip0_113_1455)">
<path d="M416.698 304.533C417.567 304.533 418.429 304.354 419.269 303.994C422.33 302.683 423.313 299.391 423.468 296.072C425.088 298.066 426.692 299.419 428.299 300.16C430.036 300.96 431.827 301.058 433.478 300.436C435.168 299.802 436.444 298.526 437.162 296.751C437.827 295.108 438.028 293.007 437.761 290.414C438.806 291.192 439.849 291.752 440.886 292.088C443.076 292.797 445.26 292.543 447.207 291.354C448.871 290.336 449.773 288.373 449.965 285.351C450.566 275.846 443.814 251.491 429.742 223.332C422.268 208.374 413.79 194.432 404.54 181.889C393.757 167.27 382.218 154.996 370.241 145.411C369.037 144.447 367.278 144.642 366.312 145.849C365.348 147.054 365.543 148.814 366.749 149.78C397.768 174.606 418.212 211.821 427.638 231.796C433.827 244.911 438.855 258.14 441.796 269.044C444.968 280.805 444.575 285.623 444.099 286.688C443.622 286.927 443.176 286.947 442.61 286.766C439.421 285.735 435.299 279.255 432.865 274.099C432.375 272.96 432.045 272.257 432.012 272.189C431.362 270.813 429.736 270.21 428.348 270.829C426.96 271.448 426.319 273.062 426.907 274.464C426.933 274.53 427.238 275.251 427.767 276.367C430.492 282.631 433.27 291.477 431.983 294.65C431.804 295.092 431.63 295.159 431.515 295.203C431.407 295.243 431.179 295.329 430.642 295.081C427.068 293.436 422.177 283.664 419.845 277.252C419.322 275.808 417.73 275.058 416.285 275.571C414.837 276.084 414.075 277.67 414.576 279.12C414.594 279.169 416.311 284.177 417.264 289.384C418.588 296.609 417.447 298.692 417.07 298.853C416.853 298.946 416.621 299.012 416.163 298.791C412.921 297.23 409.093 287.929 407.411 281.824C407 280.336 405.462 279.461 403.975 279.872C402.487 280.281 401.612 281.82 402.021 283.308C402.067 283.478 403.185 287.515 405.06 291.966C407.794 298.453 410.631 302.333 413.737 303.83C414.709 304.299 415.708 304.533 416.7 304.533H416.698Z" fill="#231F20"/>
<path d="M396.084 298.723C396.827 298.723 397.576 298.63 398.312 298.44C400.86 297.781 406.861 294.927 407.504 282.715C407.586 281.174 406.401 279.856 404.861 279.777C403.32 279.688 402.003 280.88 401.923 282.421C401.461 291.177 397.974 292.751 396.915 293.025C395.474 293.399 393.927 292.788 393.149 291.546C392.583 290.639 393.076 287.475 393.553 284.415C394.515 278.26 395.967 268.958 393.77 256.302C391.184 241.407 384.041 225.174 372.537 208.054C371.675 206.771 369.94 206.431 368.659 207.293C367.377 208.155 367.036 209.891 367.898 211.174C393.403 249.137 389.909 271.525 388.03 283.553C387.279 288.364 386.737 291.84 388.408 294.513C390.064 297.16 393.025 298.723 396.086 298.723H396.084Z" fill="#231F20"/>
<path d="M89.5431 135.754C90.6968 135.754 91.7776 135.033 92.182 133.881C92.6926 132.424 91.9234 130.828 90.467 130.319C70.3305 123.268 52.8682 105.417 41.7645 91.6839C29.3525 76.3307 17.7625 57.2784 10.7608 40.7158C5.5803 28.4601 5.31509 23.2377 5.68197 22.0637C6.11958 21.7453 6.55939 21.6502 7.15171 21.7431C10.4647 22.2538 15.5635 27.9958 18.7858 32.7008C19.4511 33.7467 19.8887 34.3879 19.9329 34.452C20.7926 35.7056 22.4944 36.0439 23.7674 35.2126C25.0405 34.3812 25.4162 32.6854 24.6139 31.3941C24.5764 31.3344 24.1609 30.6689 23.4624 29.6519C19.7782 23.8988 15.6298 15.6075 16.3967 12.2711C16.5028 11.8046 16.6663 11.7117 16.7724 11.652C16.8741 11.5946 17.084 11.4729 17.6543 11.6321C21.4424 12.689 27.823 21.5596 31.1449 27.5205C31.8919 28.8625 33.5804 29.349 34.9286 28.6127C36.2746 27.8764 36.7763 26.1916 36.0514 24.8385C36.0271 24.7921 33.5362 20.1224 31.7681 15.1322C29.3149 8.20729 30.1083 5.97196 30.4553 5.75307C30.6542 5.62704 30.873 5.52533 31.3593 5.66905C34.8093 6.69496 40.0649 15.2693 42.695 21.0289C43.3359 22.4329 44.9935 23.052 46.3992 22.4108C47.8026 21.7696 48.4215 20.1114 47.7827 18.7074C47.7098 18.5482 45.966 14.7386 43.4067 10.6416C39.6782 4.67188 36.2591 1.29125 32.9572 0.30735C31.0189 -0.269723 29.1204 -0.02209 27.4672 1.02372C24.6537 2.80358 24.2051 6.21075 24.5786 9.51178C22.6624 7.80046 20.8633 6.71928 19.1593 6.24391C17.3161 5.72875 15.5325 5.91889 14.0031 6.79224C12.4339 7.6877 11.3797 9.14918 10.9509 11.0175C10.5553 12.7443 10.6901 14.8492 11.3664 17.3697C10.2105 16.7661 9.09219 16.3814 8.01585 16.2134C5.74162 15.8618 3.62433 16.4588 1.89159 17.9424C0.0196075 19.5453 -0.442299 22.4771 0.439545 27.1711C2.54359 38.3787 12.9776 61.4506 28.853 83.8636C37.4482 95.9954 46.5362 106.445 55.8674 114.922C66.8053 124.858 77.8272 131.814 88.6281 135.597C88.9331 135.703 89.2448 135.754 89.552 135.754H89.5431Z" fill="#231F20"/>
<path d="M100.733 96.9926C101.631 96.9926 102.51 96.5615 103.052 95.7633C103.916 94.4831 103.58 92.7452 102.303 91.8807C82.5395 78.5152 69.5837 63.8186 63.7976 48.2023C59.0016 35.2568 59.9962 24.1398 60.6526 16.7838C61.1366 11.3691 61.4571 7.79386 59.4326 5.47893C56.8799 2.55819 52.6011 1.60966 49.0273 3.17506C46.6161 4.23192 41.146 8.00169 42.45 20.1622C42.6157 21.6989 43.9927 22.8088 45.5265 22.6452C47.0603 22.4794 48.172 21.1019 48.0085 19.5675C47.0736 10.8495 50.2672 8.74017 51.2684 8.30018C52.6188 7.70763 54.23 8.05254 55.198 9.13373C55.6467 9.96507 55.335 13.4695 55.0831 16.2863C53.704 31.717 50.8308 63.823 99.1685 96.515C99.6481 96.84 100.192 96.9948 100.731 96.9948L100.733 96.9926Z" fill="#231F20"/>
<path d="M166.721 395.368C169.079 395.368 171.526 394.073 174.006 391.508C176.225 389.211 178.556 385.876 181.129 381.313C185.558 373.455 190.5 362.336 196.231 347.319C206.539 320.311 217.123 286.456 224.852 261.737C227.665 252.736 230.097 244.962 232.086 238.873C232.565 237.405 231.763 235.826 230.295 235.346C228.828 234.867 227.25 235.669 226.77 237.135C224.772 243.257 222.337 251.047 219.517 260.066C211.81 284.716 201.254 318.476 191.008 345.322C185.454 359.873 180.492 371.056 176.26 378.565C169.857 389.92 166.909 389.816 166.595 389.765C151.407 387.386 141.937 369.568 132.778 352.335L132.546 351.9C129.116 345.448 125.869 337.356 124.072 330.782C121.668 321.989 122.536 318.763 123.075 318.261C123.197 318.149 124.479 317.994 127.655 319.984C143.634 329.993 156.928 349.923 157.061 350.124C157.624 350.976 158.608 351.453 159.627 351.367C160.645 351.281 161.534 350.646 161.947 349.711C162.891 347.575 185.12 297.16 190.535 273.626C190.882 272.12 189.943 270.621 188.438 270.274C186.935 269.927 185.434 270.866 185.087 272.372C180.718 291.362 164.48 329.774 158.804 342.921C153.869 336.261 143.203 323.126 130.621 315.243C125.657 312.135 121.836 311.772 119.263 314.169C116.297 316.933 116.107 322.849 118.68 332.257C120.607 339.306 123.944 347.632 127.608 354.524L127.841 354.96C132.572 363.861 137.463 373.068 143.347 380.462C150.269 389.164 157.591 394.015 165.729 395.291C166.058 395.342 166.387 395.368 166.721 395.368Z" fill="#231F20"/>
<path d="M325.923 404C326.162 404 326.398 403.982 326.637 403.945C327.906 403.752 329.643 402.939 330.717 400.146C331.336 398.541 331.723 396.348 331.902 393.442C333.365 369.703 330.889 329.876 320.933 319.78C318.643 317.459 316.342 317.059 314.815 317.134C305.53 317.583 289.1 323.846 282.355 326.568C279.17 314.379 267.496 269.414 263.498 249.948C263.187 248.436 261.71 247.461 260.198 247.772C258.687 248.084 257.712 249.561 258.024 251.073C262.68 273.738 277.61 330.513 277.76 331.085C277.968 331.87 278.505 332.527 279.234 332.885C279.964 333.243 280.812 333.265 281.559 332.947C281.787 332.85 304.45 323.234 315.087 322.721C315.297 322.712 315.94 322.679 316.955 323.709C324.305 331.163 327.963 366.49 326.323 393.1C326.153 395.859 325.804 397.305 325.545 398.026C324.166 396.885 320.48 392.611 313.244 376.71C308.419 366.11 304.458 355.674 304.421 355.57C304.111 354.752 303.437 354.128 302.6 353.879C301.762 353.631 300.858 353.788 300.153 354.305C299.976 354.434 282.172 367.268 266.818 362.818C263.812 361.947 255.524 356.048 243.53 320.176C235.215 295.311 229.199 268.175 226.574 252.493C226.319 250.969 224.878 249.941 223.356 250.198C221.833 250.452 220.805 251.894 221.061 253.417C223.72 269.299 229.811 296.777 238.23 321.949C242.433 334.521 246.633 344.734 250.713 352.304C255.725 361.608 260.486 366.804 265.264 368.188C279.327 372.263 294.215 364.626 300.458 360.797C302.129 365.033 305.281 372.805 308.81 380.446C311.889 387.112 314.66 392.399 317.047 396.16C320.495 401.592 323.198 403.998 325.928 403.998L325.923 404Z" fill="#231F20"/>
<path d="M236.317 4.50824C318.363 4.50824 384.875 71.0463 384.875 153.126C384.875 221.932 338.135 279.816 274.685 296.74C272.888 297.217 271.08 297.664 269.257 298.075C259.143 300.368 248.638 301.626 237.859 301.736C237.347 301.741 236.832 301.743 236.317 301.743C234.885 301.743 233.459 301.723 232.038 301.681C225.494 301.498 219.053 300.89 212.748 299.881C210.883 299.585 209.03 299.253 207.192 298.889C199.503 297.359 192.028 295.236 184.819 292.57C183.061 291.922 181.322 291.241 179.6 290.527C125.691 268.233 87.7585 215.111 87.7585 153.126C87.7585 71.0463 154.27 4.50824 236.317 4.50824ZM179.841 216.447C188.295 220.606 197.471 221.494 206.131 221.837C211.49 222.047 219.56 221.337 227.562 216.75C234.199 212.947 239.572 207.194 243.568 199.617L160.576 192.468C162.22 198.031 164.618 202.822 167.725 206.751C170.937 210.809 175.012 214.07 179.841 216.447Z" fill="#F31DE5"/>
<path d="M268.848 296.454C268.985 296.996 269.119 297.538 269.257 298.075C259.143 300.368 248.638 301.626 237.859 301.736C237.7 301.177 237.543 300.618 237.389 300.058C248.079 299.983 258.593 298.776 268.848 296.454ZM97.8853 94.6223C105.453 76.7242 116.285 60.6502 130.082 46.8491C143.878 33.0457 159.946 22.2096 177.837 14.6391C196.36 6.80106 216.034 2.82788 236.317 2.82788C256.599 2.82788 276.274 6.80106 294.797 14.6391C312.688 22.2096 328.753 33.0457 342.551 46.8491C356.349 60.6502 367.181 76.7242 374.748 94.6223C382.583 113.153 386.555 132.835 386.555 153.126C386.555 173.416 382.583 193.098 374.748 211.629C367.181 229.527 356.349 245.599 342.551 259.402C328.753 273.206 312.688 284.042 294.797 291.612C288.361 294.336 281.788 296.591 275.098 298.376C273.297 298.858 271.489 299.304 269.672 299.716C259.452 302.035 248.981 303.271 238.337 303.41C237.663 303.419 236.991 303.423 236.317 303.423C235.048 303.423 233.782 303.408 232.515 303.377C225.668 303.209 218.896 302.585 212.217 301.506C210.359 301.21 208.507 300.876 206.663 300.505C199.054 298.984 191.575 296.866 184.264 294.159C182.516 293.514 180.776 292.833 179.046 292.116C178.643 291.95 178.239 291.782 177.837 291.612C159.946 284.042 143.878 273.206 130.082 259.402C116.285 245.599 105.453 229.527 97.8853 211.629C90.0504 193.098 86.0788 173.414 86.0788 153.126C86.0788 132.837 90.0504 113.153 97.8853 94.6223ZM179.145 288.517C179.479 288.658 179.815 288.798 180.149 288.937C181.879 289.653 183.616 290.336 185.367 290.984C192.658 293.686 200.117 295.789 207.713 297.288C209.559 297.653 211.411 297.98 213.27 298.274C219.297 299.223 225.401 299.795 231.567 299.988C233.147 300.038 234.73 300.063 236.317 300.063C236.675 300.063 237.033 300.06 237.389 300.058C248.079 299.983 258.593 298.776 268.848 296.454C270.664 296.045 272.472 295.599 274.273 295.119C280.798 293.374 287.212 291.172 293.488 288.517C310.977 281.117 326.687 270.521 340.175 257.025C353.666 243.532 364.257 227.816 371.654 210.32C379.312 192.205 383.195 172.963 383.195 153.126C383.195 133.288 379.312 114.046 371.654 95.9313C364.257 78.4355 353.666 62.7197 340.175 49.2259C326.687 35.7299 310.977 25.1348 293.488 17.7345C275.381 10.0734 256.146 6.18861 236.317 6.18861C216.487 6.18861 197.253 10.0734 179.145 17.7345C161.656 25.1348 145.947 35.7299 132.458 49.2259C118.968 62.7197 108.377 78.4355 100.979 95.9313C93.3214 114.046 89.4382 133.288 89.4382 153.126C89.4382 172.963 93.3214 192.205 100.979 210.32C108.377 227.816 118.968 243.532 132.458 257.025C145.947 270.521 161.656 281.117 179.145 288.517Z" fill="#F31DE5"/>
<path d="M201.93 115.198C199.972 141.155 212.327 158.803 229.117 160.07C245.907 161.34 260.771 145.747 262.731 119.79C264.691 93.833 252.334 76.1847 235.544 74.9178C218.754 73.6487 203.891 89.2407 201.93 115.198Z" fill="white"/>
<path d="M231.024 162.938C239.467 162.938 247.414 159.095 253.596 151.972C260.41 144.12 264.532 133.063 265.517 120C266.503 106.935 264.087 95.3874 258.529 86.6008C253.068 77.9668 244.979 72.8262 235.754 72.1298C226.529 71.4333 217.761 75.2981 211.064 83.0146C204.25 90.8658 200.129 101.923 199.143 114.986C198.157 128.051 200.573 139.599 206.131 148.385C211.592 157.019 219.682 162.16 228.907 162.856C229.616 162.909 230.321 162.936 231.024 162.936V162.938ZM233.665 77.6418C234.22 77.6418 234.774 77.6617 235.334 77.7059C242.753 78.2675 249.313 82.4861 253.806 89.5901C258.646 97.2424 260.825 107.893 259.943 119.58C259.062 131.268 255.309 141.469 249.375 148.308C243.867 154.656 236.748 157.842 229.329 157.282C221.909 156.723 215.35 152.502 210.856 145.398C206.016 137.746 203.837 127.095 204.719 115.408C205.601 103.721 209.354 93.5191 215.288 86.6804C220.382 80.8102 226.853 77.6418 233.667 77.6418H233.665Z" fill="#231F20"/>
<path d="M214.642 111.362C213.502 126.465 220.692 136.731 230.46 137.469C240.229 138.208 248.877 129.136 250.018 114.033C251.158 98.9294 243.969 88.6637 234.2 87.9252C224.431 87.1867 215.783 96.2585 214.642 111.362Z" fill="#231F20"/>
<path d="M231.577 140.308C236.831 140.308 241.764 137.932 245.587 133.525C249.718 128.765 252.213 122.099 252.805 114.245C253.398 106.392 251.93 99.4247 248.562 94.0983C245.183 88.7543 240.157 85.5727 234.41 85.1371C228.666 84.7016 223.218 87.0939 219.074 91.8697C214.944 96.63 212.448 103.296 211.856 111.15C211.264 119.003 212.731 125.97 216.1 131.296C219.479 136.64 224.505 139.822 230.251 140.258C230.695 140.291 231.137 140.308 231.577 140.308ZM233.113 90.6801C233.405 90.6801 233.697 90.6912 233.991 90.7133C242.623 91.3655 248.193 101.085 247.231 113.823C246.736 120.374 244.654 126.067 241.366 129.859C238.409 133.266 234.614 134.98 230.673 134.681C222.04 134.029 216.471 124.31 217.432 111.572C217.927 105.021 220.009 99.3274 223.298 95.5355C226.034 92.3826 229.491 90.6801 233.113 90.6801Z" fill="#231F20"/>
<path d="M138.435 110.4C136.476 136.357 148.831 154.006 165.621 155.273C182.412 156.542 197.275 140.95 199.235 114.992C201.193 89.0352 188.839 71.3869 172.048 70.12C155.258 68.8508 140.395 84.4429 138.435 110.4Z" fill="white"/>
<path d="M167.528 158.142C175.971 158.142 183.918 154.3 190.1 147.176C196.914 139.325 201.036 128.267 202.021 115.205C203.007 102.14 200.591 90.5917 195.033 81.8052C189.572 73.1712 181.483 68.0306 172.257 67.3341C163.03 66.6376 154.263 70.5025 147.568 78.2189C140.754 86.0702 136.632 97.1274 135.647 110.19C134.661 123.255 137.077 134.803 142.635 143.592C148.096 152.226 156.185 157.366 165.41 158.063C166.12 158.116 166.825 158.142 167.528 158.142ZM170.169 72.8461C170.724 72.8461 171.278 72.866 171.838 72.9103C179.257 73.4697 185.817 77.6905 190.31 84.7944C195.15 92.4467 197.329 103.097 196.447 114.785C195.566 126.472 191.813 136.674 185.878 143.512C180.784 149.382 174.313 152.551 167.499 152.551C166.944 152.551 166.39 152.531 165.83 152.487C158.411 151.925 151.851 147.706 147.358 140.603C142.518 132.95 140.339 122.3 141.221 110.612C142.102 98.925 145.855 88.7234 151.789 81.8848C156.884 76.0145 163.355 72.8461 170.167 72.8461H170.169Z" fill="#231F20"/>
<path d="M151.146 106.807C150.006 121.911 157.195 132.176 166.964 132.915C176.733 133.653 185.381 124.582 186.522 109.478C187.662 94.3748 180.473 84.109 170.704 83.3706C160.935 82.6321 152.287 91.7039 151.146 106.807Z" fill="#231F20"/>
<path d="M168.081 135.754C173.334 135.754 178.267 133.377 182.091 128.97C186.222 124.21 188.717 117.544 189.309 109.69C189.902 101.837 188.434 94.87 185.066 89.5437C181.687 84.1997 176.661 81.0181 170.914 80.5825C165.172 80.1491 159.722 82.5392 155.578 87.315C151.448 92.0753 148.952 98.7415 148.36 106.595C147.768 114.449 149.235 121.415 152.603 126.742C155.983 132.086 161.009 135.267 166.755 135.703C167.199 135.736 167.641 135.754 168.081 135.754ZM169.617 86.1255C169.909 86.1255 170.201 86.1365 170.494 86.1587C179.127 86.8109 184.697 96.5305 183.735 109.268C183.24 115.819 181.158 121.513 177.87 125.305C174.912 128.712 171.115 130.423 167.177 130.127C158.544 129.475 152.975 119.755 153.936 107.017C154.431 100.466 156.513 94.7728 159.802 90.9809C162.538 87.828 165.995 86.1255 169.617 86.1255Z" fill="#231F20"/>
<path d="M154.779 187.505C155.365 186.832 156.236 186.481 157.122 186.558L248.084 194.394C248.984 194.471 249.788 194.978 250.248 195.754C250.708 196.53 250.765 197.481 250.403 198.305C245.79 208.779 239.04 216.617 230.341 221.603C223.625 225.452 215.878 227.462 207.824 227.462C207.188 227.462 206.549 227.451 205.91 227.424C200.113 227.197 188.055 226.721 177.371 221.466C165.306 215.527 157.495 204.925 154.154 189.954C153.961 189.083 154.191 188.175 154.779 187.505ZM167.724 206.751C170.935 210.809 175.011 214.07 179.84 216.447C188.294 220.606 197.47 221.494 206.129 221.837C211.489 222.047 219.558 221.337 227.561 216.75C234.198 212.947 239.571 207.194 243.567 199.616L160.574 192.468C162.218 198.031 164.616 202.822 167.724 206.751Z" fill="#231F20"/>
<path d="M160.574 192.468C162.218 198.031 164.616 202.822 167.724 206.751C170.935 210.809 175.01 214.07 179.84 216.447C188.293 220.606 197.47 221.494 206.129 221.837C211.489 222.047 219.558 221.337 227.561 216.75C234.198 212.947 239.57 207.194 243.566 199.617L160.574 192.468Z" fill="white"/>
</g>
<ellipse cx="235.728" cy="395.126" rx="175.728" ry="21.1258" fill="#800477" fill-opacity="0.2"/>
<defs>
<clipPath id="clip0_113_1455">
<rect width="450" height="404" fill="white" transform="matrix(-1 0 0 1 450 0)"/>
</clipPath>
</defs>
</svg>
