<svg width="393" height="435" viewBox="0 0 393 435" fill="none" xmlns="http://www.w3.org/2000/svg">
<ellipse cx="196.98" cy="413.874" rx="175.728" ry="21.1258" fill="#800477" fill-opacity="0.2"/>
<path d="M162.751 417.97C158.456 417.97 154.953 417.285 152.249 415.439C148.972 413.202 148.194 410.545 148.118 408.713C147.835 401.908 156.312 395.018 164.51 388.354C167.072 386.273 169.49 384.306 171.299 382.59C173.446 380.554 173.893 379.642 173.982 379.395C173.5 375.312 162.902 287.35 161.134 278.183C160.86 276.755 161.75 275.361 163.162 275.013C169.944 273.337 178.473 273.986 186.721 274.615C193.272 275.114 199.458 275.585 204.256 274.887C205.72 274.673 207.088 275.663 207.343 277.12C211.091 298.496 219.896 391.927 220.56 399.524C220.992 404.459 217.512 408.2 210.22 410.643C204.594 412.525 197.314 413.545 190.888 414.445C187.536 414.914 184.408 415.4 181.384 415.871C174.068 417.008 167.852 417.974 162.753 417.974L162.751 417.97ZM155.333 410.924C159.459 413.742 168.764 412.294 180.544 410.463C183.589 409.99 186.736 409.499 190.129 409.026C196.32 408.159 203.336 407.178 208.482 405.455C215.388 403.143 215.18 400.776 215.113 399.998C214.501 392.999 206.232 305.497 202.369 280.578C197.56 280.922 192.068 280.502 186.306 280.064C179.528 279.547 172.549 279.015 166.946 279.839C169.605 297.305 178.985 374.811 179.433 378.946C179.863 382.918 175.127 386.768 167.958 392.595C164.318 395.554 160.555 398.612 157.708 401.599C154.211 405.269 153.533 407.368 153.58 408.483C153.595 408.834 153.634 409.763 155.333 410.924Z" fill="#231F20"/>
<path d="M306.693 392.757C303.384 392.757 300.874 391.516 299.199 389.037C298.482 387.976 296.234 384.723 293.124 380.219C277.01 356.893 234.206 294.936 225.463 279.238C224.743 277.946 225.182 276.316 226.453 275.559C230.434 273.188 235.341 269.451 240.537 265.494C247.981 259.824 255.677 253.963 262.207 250.893C263.523 250.275 265.095 250.794 265.78 252.078C269.966 259.904 319.095 338.469 322.681 344.056C322.901 344.19 323.82 344.618 326.777 344.847C329.262 345.04 332.381 345.042 335.682 345.044C346.247 345.051 357.17 345.059 361.238 350.521C362.334 351.993 363.404 354.546 362.269 358.348C360.222 365.208 351.706 370.173 339.918 377.039C337.272 378.58 334.538 380.173 331.642 381.922C326.087 385.272 319.791 389.07 314.236 391.153C311.383 392.223 308.867 392.757 306.695 392.757H306.693ZM231.534 278.825C242.478 297.292 282.241 354.848 297.621 377.113C300.857 381.797 302.995 384.892 303.727 385.975C304.164 386.621 305.495 388.59 312.315 386.033C317.396 384.127 323.463 380.467 328.815 377.24C331.748 375.47 334.501 373.866 337.164 372.317C347.466 366.314 355.601 361.575 357.03 356.785C357.618 354.814 357.062 354.068 356.853 353.787C356.187 352.892 354.337 351.69 349.307 351.044C345.216 350.519 340.365 350.515 335.675 350.512C326.437 350.506 320.333 350.502 318.163 347.145C317.742 346.492 271.659 272.996 262.283 256.991C256.717 260.043 250.187 265.016 243.844 269.845C239.447 273.193 235.252 276.387 231.532 278.823L231.534 278.825Z" fill="#231F20"/>
<path d="M184.351 292.209C264.589 292.209 329.634 227.163 329.634 146.926C329.634 66.6881 264.589 1.64264 184.351 1.64264C104.114 1.64264 39.0684 66.6881 39.0684 146.926C39.0684 227.163 104.114 292.209 184.351 292.209Z" fill="#F31DE5"/>
<path d="M184.353 293.851C164.518 293.851 145.277 289.967 127.163 282.305C109.666 274.904 93.9549 264.311 80.4613 250.818C66.9676 237.324 56.3746 221.613 48.9739 204.116C41.3118 186.002 37.4277 166.761 37.4277 146.926C37.4277 127.09 41.3118 107.85 48.9739 89.7349C56.3746 72.2384 66.9676 56.5272 80.4613 43.0335C93.9549 29.5399 109.666 18.9469 127.163 11.5462C145.277 3.88404 164.518 0 184.353 0C204.189 0 223.429 3.88404 241.544 11.5462C259.041 18.9469 274.752 29.5399 288.246 43.0335C301.739 56.5272 312.332 72.2384 319.733 89.7349C327.395 107.85 331.279 127.09 331.279 146.926C331.279 166.761 327.395 186.002 319.733 204.116C312.332 221.613 301.739 237.324 288.246 250.818C274.752 264.311 259.041 274.904 241.544 282.305C223.429 289.967 204.189 293.851 184.353 293.851ZM184.353 3.28533C164.961 3.28533 146.151 7.08291 128.442 14.5722C111.337 21.8064 95.9758 32.1638 82.7848 45.357C69.5916 58.5502 59.2363 73.9113 51.9999 91.0145C44.5106 108.723 40.7131 127.534 40.7131 146.926C40.7131 166.318 44.5106 185.128 51.9999 202.837C59.2341 219.942 69.5916 235.303 82.7848 248.494C95.978 261.687 111.339 272.045 128.442 279.279C146.151 286.768 164.961 290.566 184.353 290.566C203.745 290.566 222.556 286.768 240.265 279.279C257.37 272.045 272.731 261.687 285.922 248.494C299.113 235.301 309.473 219.94 316.707 202.837C324.196 185.128 327.994 166.318 327.994 146.926C327.994 127.534 324.196 108.723 316.707 91.0145C309.473 73.9092 299.115 58.5481 285.922 45.357C272.729 32.1638 257.368 21.8085 240.265 14.5722C222.556 7.08291 203.745 3.28533 184.353 3.28533Z" fill="#F31DE5"/>
<path d="M184.367 167.826C174.091 167.826 164.216 164.941 156.482 159.665C147.672 153.656 142.053 144.952 140.229 134.493C139.969 133.006 140.966 131.591 142.453 131.331C143.94 131.072 145.355 132.066 145.615 133.555C147.18 142.525 152.002 149.993 159.564 155.15C166.563 159.924 175.604 162.486 185.03 162.356C195.346 162.218 205.237 158.898 212.886 153.008C221.463 146.405 226.888 136.832 228.578 125.325C228.799 123.831 230.186 122.798 231.68 123.016C233.173 123.235 234.206 124.624 233.988 126.118C229.817 154.527 206.432 167.535 185.106 167.82C184.859 167.824 184.613 167.824 184.369 167.824L184.367 167.826Z" fill="#231F20"/>
<path d="M343.461 262.58C340.621 262.58 337.846 261.381 335.192 259.001C332.929 256.971 330.733 254.045 328.669 250.303C327.085 247.431 325.818 244.528 324.912 242.22C321.774 245.581 316.74 249.858 311.462 249.858C311.328 249.858 311.196 249.856 311.062 249.85C306.603 249.666 303.793 246.486 302.224 243.852C298.852 238.195 302.058 231.037 304.759 226.143C308.205 219.91 313.431 213.034 318.966 205.757C329.287 192.186 340.987 176.801 338.289 167.654C335.406 157.873 318.541 148.201 308.587 144.403C307.176 143.865 306.469 142.285 307.007 140.874C307.545 139.465 309.125 138.756 310.537 139.294C320.317 143.027 339.798 153.434 343.533 166.106C347.01 177.907 334.965 193.746 323.317 209.064C313.997 221.319 303.434 235.208 306.919 241.05C308.844 244.282 310.679 244.36 311.283 244.386C311.345 244.388 311.408 244.39 311.473 244.39C316.022 244.39 321.923 237.601 323.654 235.187C324.262 234.341 325.295 233.914 326.324 234.082C327.35 234.253 328.193 234.99 328.494 235.986C328.511 236.045 330.357 242.069 333.493 247.729C335.6 251.535 339.809 257.812 344.287 257.043C346.027 256.744 346.632 255.953 346.965 255.296C348.846 251.583 345.887 242.896 343.58 238.295C342.919 236.976 343.425 235.37 344.722 234.666C346.018 233.961 347.639 234.415 348.383 235.688C348.415 235.742 351.681 241.295 355.937 246.156C360.686 251.583 364.753 253.976 367.099 252.72C368.222 252.117 368.478 251.427 368.579 250.831C368.901 248.953 367.73 245.79 365.367 242.155C363.342 239.038 361.14 236.615 361.116 236.592C360.13 235.513 360.167 233.847 361.202 232.813C362.235 231.78 363.9 231.743 364.978 232.729C365.015 232.762 368.845 236.231 373.613 238.641C379.267 241.498 383.558 241.625 386.365 239.019C387.163 238.28 387.472 237.553 387.396 236.596C387.277 235.079 386.028 231.622 378.982 225.514C374.205 221.373 368.627 217.617 365.292 215.371C364.689 214.965 364.157 214.606 363.714 214.303C362.469 213.449 362.151 211.748 363.005 210.503C363.859 209.258 365.56 208.941 366.805 209.794C367.237 210.091 367.756 210.441 368.346 210.838C380.102 218.758 392.208 227.959 392.847 236.174C393.051 238.792 392.095 241.163 390.085 243.028C387.485 245.44 384.502 246.361 381.468 246.363C378.496 246.363 375.47 245.481 372.697 244.252C373.76 246.77 374.372 249.389 373.968 251.752C373.54 254.265 372.057 256.269 369.679 257.542C366.011 259.507 362.242 258.171 359.724 256.703C357.599 255.465 355.336 253.565 352.98 251.043C353.132 253.712 352.753 255.958 351.843 257.76C350.564 260.293 348.268 261.908 345.206 262.431C344.622 262.531 344.041 262.58 343.461 262.58Z" fill="#231F20"/>
<path d="M357.63 222.071C356.843 222.071 356.063 221.734 355.522 221.079C354.561 219.916 354.723 218.194 355.888 217.23C370.118 205.461 374.772 190.915 376.17 180.786C377.809 168.905 375.863 156.066 370.966 146.439C366.667 137.991 359.417 129.669 349.998 122.377C341.281 115.629 331.278 110.247 321.833 107.223C320.395 106.763 319.602 105.224 320.062 103.786C320.523 102.349 322.06 101.556 323.499 102.016C333.539 105.228 344.138 110.923 353.346 118.054C363.399 125.837 371.178 134.796 375.84 143.96C381.304 154.702 383.398 168.397 381.587 181.534C380.057 192.624 374.96 208.552 359.374 221.444C358.864 221.866 358.248 222.071 357.634 222.071H357.63Z" fill="#231F20"/>
<path d="M192.25 75.2537C197.287 51.3921 192.539 30.1842 181.645 27.8846C170.752 25.5849 157.837 43.0644 152.8 66.926C147.763 90.7876 152.511 111.996 163.404 114.295C174.298 116.595 187.212 99.1153 192.25 75.2537Z" fill="white"/>
<path d="M165.374 117.228C164.522 117.228 163.675 117.139 162.836 116.964C156.458 115.618 151.707 109.341 149.457 99.2885C147.369 89.9685 147.607 78.271 150.121 66.3552C152.635 54.4394 157.145 43.6453 162.821 35.9637C168.942 27.6769 175.826 23.8577 182.203 25.2021C188.581 26.5486 193.332 32.8253 195.582 42.878C197.669 52.198 197.434 63.8955 194.918 75.8113C192.404 87.7271 187.893 98.5212 182.218 106.203C176.901 113.4 171.009 117.228 165.374 117.228ZM179.704 30.4089C175.878 30.4089 171.413 33.5343 167.218 39.2101C161.998 46.2757 157.824 56.3176 155.468 67.4834C153.112 78.6492 152.87 89.5189 154.792 98.0932C156.523 105.82 159.867 110.748 163.965 111.615C164.41 111.71 164.868 111.755 165.335 111.755C169.161 111.755 173.626 108.63 177.821 102.954C183.041 95.8886 187.215 85.8467 189.571 74.6809C191.927 63.5151 192.169 52.6432 190.247 44.0711C188.516 36.3441 185.172 31.4161 181.074 30.5494C180.629 30.4543 180.171 30.4089 179.704 30.4089Z" fill="#231F20"/>
<path d="M173.595 78.8488C176.551 67.5658 174.165 57.1665 168.267 55.6212C162.368 54.076 155.191 61.97 152.235 73.253C149.279 84.536 151.664 94.9353 157.563 96.4806C163.461 98.0258 170.639 90.1317 173.595 78.8488Z" fill="#231F20"/>
<path d="M159.093 99.4073C158.343 99.4073 157.597 99.3122 156.865 99.1199C152.978 98.1018 150.154 94.5528 148.909 89.1255C147.806 84.3164 148.046 78.4331 149.585 72.5562C151.124 66.6794 153.8 61.4336 157.118 57.783C160.863 53.6634 165.067 51.9537 168.951 52.9717C172.837 53.9898 175.662 57.5388 176.907 62.9661C178.01 67.7752 177.77 73.6585 176.231 79.5354C174.692 85.4122 172.016 90.658 168.698 94.3086C165.659 97.6523 162.32 99.4073 159.093 99.4073ZM154.874 73.9417C153.553 78.9799 153.329 83.9382 154.239 87.9043C154.995 91.2026 156.458 93.364 158.25 93.8331C160.042 94.3042 162.378 93.1371 164.654 90.632C167.391 87.6212 169.626 83.1903 170.944 78.1521C172.265 73.1139 172.489 68.1556 171.58 64.1894C170.823 60.8911 169.36 58.7297 167.568 58.2607C165.776 57.7895 163.44 58.9567 161.164 61.4617C158.427 64.4726 156.192 68.9056 154.874 73.9417Z" fill="#231F20"/>
<path d="M236.273 75.2519C241.31 51.3903 236.563 30.1824 225.669 27.8828C214.775 25.5832 201.861 43.0626 196.824 66.9242C191.787 90.7858 196.534 111.994 207.428 114.293C218.321 116.593 231.236 99.1135 236.273 75.2519Z" fill="white"/>
<path d="M209.394 117.228C208.542 117.228 207.695 117.139 206.857 116.964C200.478 115.618 195.728 109.341 193.478 99.2885C191.39 89.9685 191.625 78.271 194.141 66.3552C196.655 54.4394 201.166 43.6453 206.841 35.9637C212.963 27.6769 219.847 23.8577 226.223 25.2021C232.601 26.5486 237.352 32.8253 239.602 42.878C241.69 52.198 241.454 63.8955 238.938 75.8113C236.425 87.7271 231.914 98.5212 226.238 106.203C220.921 113.4 215.029 117.228 209.394 117.228ZM223.722 30.4089C219.896 30.4089 215.431 33.5343 211.236 39.2101C206.016 46.2757 201.842 56.3176 199.486 67.4834C197.13 78.6492 196.888 89.5211 198.81 98.0932C200.541 105.82 203.885 110.748 207.983 111.615C208.428 111.71 208.886 111.755 209.353 111.755C213.179 111.755 217.644 108.63 221.839 102.954C227.059 95.8886 231.233 85.8467 233.589 74.6809C235.945 63.5151 236.187 52.6432 234.265 44.0711C232.534 36.3441 229.19 31.4161 225.092 30.5494C224.647 30.4543 224.189 30.4089 223.722 30.4089Z" fill="#231F20"/>
<path d="M217.618 78.8485C220.574 67.5655 218.189 57.1662 212.29 55.621C206.392 54.0758 199.214 61.9698 196.258 73.2528C193.302 84.5358 195.688 94.9351 201.586 96.4803C207.485 98.0255 214.663 90.1315 217.618 78.8485Z" fill="#231F20"/>
<path d="M203.113 99.4073C202.363 99.4073 201.617 99.3122 200.884 99.1199C196.998 98.1018 194.173 94.5528 192.928 89.1255C191.826 84.3164 192.066 78.4309 193.605 72.5562C195.144 66.6794 197.819 61.4336 201.137 57.783C204.883 53.6634 209.087 51.9537 212.971 52.9717C216.857 53.9898 219.682 57.5388 220.927 62.9661C222.029 67.7752 221.789 73.6585 220.25 79.5354C218.711 85.4122 216.036 90.658 212.716 94.3086C209.677 97.6523 206.337 99.4073 203.11 99.4073H203.113ZM210.77 58.1591C209.115 58.1591 207.126 59.3219 205.181 61.4617C202.445 64.4726 200.21 68.9034 198.891 73.9417C197.571 78.9799 197.346 83.9382 198.256 87.9043C199.012 91.2026 200.476 93.364 202.268 93.8331C204.059 94.3042 206.396 93.1371 208.672 90.632C211.408 87.6212 213.643 83.1903 214.961 78.1521C216.28 73.1139 216.507 68.1556 215.597 64.1894C214.84 60.8911 213.377 58.7297 211.585 58.2607C211.324 58.1915 211.051 58.1591 210.77 58.1591Z" fill="#231F20"/>
<path d="M39.7197 307.064C39.1404 307.064 38.5417 307.001 37.9236 306.865C35.291 306.284 33.3198 304.76 32.2239 302.456C31.1951 300.292 31.0719 297.606 31.4113 294.893C26.6908 298.81 20.5934 301.637 14.3448 298.44C11.9024 297.191 10.3397 295.168 9.82317 292.593C8.2086 284.514 17.3578 272.369 26.5243 261.556C26.9847 261.013 27.3889 260.535 27.7239 260.133C28.6901 258.973 30.4148 258.817 31.5734 259.783C32.7319 260.749 32.8897 262.474 31.9235 263.633C31.5798 264.046 31.1649 264.534 30.6937 265.09C28.0957 268.154 23.7469 273.286 20.2735 278.57C15.151 286.362 14.8852 290.028 15.1834 291.521C15.3715 292.464 15.8664 293.078 16.8348 293.575C20.2454 295.319 24.3391 294.033 29.0056 289.747C32.9394 286.133 35.6843 281.756 35.7124 281.711C36.4841 280.47 38.0965 280.055 39.3717 280.771C40.6469 281.486 41.1332 283.077 40.4762 284.382C38.3342 288.653 35.5374 296.702 37.1606 300.111C37.42 300.658 37.8544 301.252 39.0994 301.526C41.6952 302.099 44.9611 298.691 48.0584 292.178C50.8336 286.343 52.4698 280.113 52.4871 280.051C52.8588 278.622 54.2962 277.747 55.7357 278.073C57.1752 278.399 58.0959 279.809 57.8149 281.257C56.8445 286.31 56.356 295.472 59.1745 298.537C59.6738 299.08 60.4713 299.678 62.2242 299.49C66.7437 299.011 69.0888 291.833 70.0831 287.596C71.5636 281.298 71.7041 275 71.7063 274.937C71.7279 273.895 72.3374 272.957 73.2798 272.514C74.2221 272.073 75.3353 272.205 76.148 272.855C78.5017 274.734 86.2006 279.776 90.5515 278.35C91.1243 278.162 92.8707 277.589 93.8455 273.956C95.6114 267.387 81.6725 256.887 69.3763 247.623C54.0065 236.045 38.1116 224.07 38.2564 211.768C38.4099 198.557 54.3329 183.25 62.7321 177.004C63.9425 176.102 65.6565 176.353 66.5578 177.566C67.4591 178.776 67.2084 180.49 65.9959 181.391C57.4475 187.75 43.8415 201.637 43.7226 211.833C43.6124 221.369 59.0469 232.997 72.6659 243.257C79.9693 248.76 86.8685 253.956 91.8743 259.02C95.8059 262.995 100.833 269.015 99.1237 275.376C98.3283 278.337 96.4889 282.16 92.2461 283.548C88.7165 284.702 84.3008 283.922 79.1199 281.224C78.3094 280.803 77.5442 280.366 76.8461 279.945C76.5997 282.415 76.1717 285.562 75.4239 288.766C74.4534 292.928 73.135 296.339 71.5074 298.907C69.2099 302.532 66.279 304.557 62.8013 304.926C59.7148 305.255 57.0649 304.323 55.1456 302.233C53.6672 300.625 52.7616 298.438 52.2342 296.062C50.6499 299.136 48.9856 301.585 47.2738 303.355C45.5576 305.132 42.9488 307.062 39.7175 307.062L39.7197 307.064Z" fill="#231F20"/>
<path d="M39.1427 269.559C38.7731 269.559 38.3991 269.484 38.0403 269.326C19.5387 261.151 10.3095 247.206 5.82463 236.948C0.511903 224.797 -1.18912 211.048 1.15384 199.227C3.15314 189.142 8.2065 178.409 15.7671 168.187C22.6922 158.826 31.3486 150.466 40.1369 144.647C41.397 143.813 43.0915 144.159 43.9258 145.419C44.7601 146.677 44.4143 148.374 43.1542 149.208C34.8825 154.683 26.7167 162.578 20.1612 171.44C13.0761 181.015 8.35779 190.992 6.51412 200.291C4.4154 210.886 6.0278 223.772 10.8326 234.761C14.9285 244.13 23.3558 256.865 40.2493 264.329C41.6304 264.938 42.2551 266.553 41.6456 267.934C41.1938 268.956 40.1931 269.564 39.1427 269.564V269.559Z" fill="#231F20"/>
</svg>
