<svg width="18" height="18" viewBox="0 0 18 18" fill="none" xmlns="http://www.w3.org/2000/svg">
<path d="M11.7258 1.09271C12.5845 0.23376 13.9767 0.233408 14.8361 1.09173L16.9065 3.16009C17.7662 4.01888 17.7673 5.41184 16.9084 6.27142L7.13399 16.0507C6.82762 16.3571 6.43767 16.5667 6.0129 16.6523L1.64669 17.5312C1.31854 17.5972 0.979124 17.4953 0.74239 17.2587C0.505656 17.0218 0.40269 16.6817 0.468952 16.3534L1.35079 11.9921C1.43651 11.5683 1.64478 11.1789 1.9504 10.873L11.7258 1.09271ZM3.36544 12.287C3.3377 12.3148 3.31853 12.3501 3.31075 12.3886L2.72774 15.2734L5.61837 14.6913C5.65681 14.6835 5.69218 14.6644 5.71993 14.6367L12.717 7.63372L10.3654 5.28118L3.36544 12.287ZM13.4231 2.50677C13.3449 2.42872 13.2179 2.42866 13.1399 2.50677L11.7795 3.86712L14.1311 6.21966L15.4934 4.85735C15.5713 4.77926 15.5713 4.6532 15.4934 4.57513L13.4231 2.50677Z" fill="#464646"/>
</svg>
