<svg width="20" height="18" viewBox="0 0 20 18" fill="none" xmlns="http://www.w3.org/2000/svg">
<path d="M6.25406 2.07227C7.97388 -0.690759 12.0264 -0.690754 13.7463 2.07227C13.7551 2.0865 13.7635 2.10156 13.7716 2.11622L19.4416 12.3398C19.8211 12.964 20.1844 13.8774 19.8966 14.8574C19.3619 16.6785 17.6683 18 15.6701 18H4.33024C2.33205 18 0.638449 16.6785 0.103674 14.8574C-0.184091 13.8774 0.179206 12.964 0.558752 12.3398L6.22867 2.11622L6.25406 2.07227ZM12.0382 3.11426C11.0988 1.62887 8.9003 1.62858 7.9611 3.11426L2.30778 13.3096C2.29964 13.3242 2.29124 13.3393 2.28238 13.3535C2.01123 13.7893 1.96589 14.1007 2.02262 14.294C2.31043 15.274 3.23054 16 4.33024 16H15.6701C16.7698 16 17.6899 15.274 17.9777 14.294C18.0344 14.1007 17.9891 13.7893 17.7179 13.3535C17.7091 13.3393 17.7007 13.3242 17.6925 13.3096L12.0382 3.11426ZM9.00016 13.2647V13.2246C9.00025 12.6724 9.44793 12.2246 10.0002 12.2246C10.5524 12.2246 11.0001 12.6724 11.0002 13.2246V13.2647C10.9999 13.8167 10.5523 14.2647 10.0002 14.2647C9.44802 14.2647 9.0004 13.8167 9.00016 13.2647ZM9.00016 9.9004V5.41407C9.00038 4.86197 9.44801 4.41407 10.0002 4.41407C10.5523 4.41407 10.9999 4.86197 11.0002 5.41407V9.9004C11 10.4525 10.5523 10.9004 10.0002 10.9004C9.44799 10.9004 9.00035 10.4525 9.00016 9.9004Z" fill="white"/>
</svg>
