<svg width="1563" height="1563" viewBox="0 0 1563 1563" fill="none" xmlns="http://www.w3.org/2000/svg">
<g clip-path="url(#clip0_425_2918)">
<ellipse cx="780.101" cy="781.412" rx="674.58" ry="668.879" transform="rotate(-9.56381 780.101 781.412)" fill="#FF86F7"/>
<path d="M1411.3 676.087C1427.46 772.024 1421.33 866.564 1396.68 954.413L781.39 782.219L675.258 152.309C1023.14 93.6941 1352.68 328.195 1411.3 676.087Z" fill="#50DB8A"/>
<path d="M1376.65 680.905C1321.24 352.054 1009.74 130.389 680.901 185.795C352.057 241.201 130.39 552.707 185.796 881.549C241.202 1210.39 552.701 1432.06 881.545 1376.65C1119.65 1336.53 1301.64 1162.14 1362.85 943.977L1362.85 943.973C1386.14 860.985 1391.94 771.654 1376.65 680.905ZM1445.61 669.287C1462.65 770.41 1456.19 870.157 1430.18 962.866L1430.18 962.866C1361.93 1206.11 1158.95 1400.82 893.163 1445.61C526.236 1507.43 178.662 1260.09 116.84 893.168C55.0173 526.242 302.354 178.662 669.282 116.839C1036.21 55.016 1383.78 302.353 1445.61 669.287Z" fill="#8E0084"/>
<path d="M662.45 286.732C659.241 267.69 672.077 249.653 691.119 246.445C710.161 243.236 728.198 256.072 731.406 275.114L812.17 754.462L1232.78 872.172C1251.38 877.376 1262.23 896.67 1257.03 915.266C1251.83 933.862 1232.53 944.718 1213.94 939.514L771.956 815.823C758.913 812.173 749.151 801.318 746.901 787.962L662.45 286.732Z" fill="#8E0084"/>
</g>
<defs>
<clipPath id="clip0_425_2918">
<rect width="1356" height="1356" fill="white" transform="translate(0 225.293) rotate(-9.56381)"/>
</clipPath>
</defs>
</svg>
