<svg width="1349" height="1737" viewBox="0 0 1349 1737" fill="none" xmlns="http://www.w3.org/2000/svg">
<path d="M1326.6 316.423C1338.14 262.413 1303.71 209.275 1249.7 197.734L422.093 20.8958C368.084 9.35535 314.945 43.7832 303.405 97.7925L20.8946 1419.95C9.35417 1473.96 43.782 1527.09 97.7913 1538.64L925.399 1715.47C979.408 1727.01 1032.55 1692.59 1044.09 1638.58L1185.34 977.495L1326.6 316.423Z" fill="#BBBBBB"/>
<path d="M132.371 901.635L1155.56 1120.26" stroke="black" stroke-width="43" stroke-miterlimit="10"/>
<path d="M470.586 973.902L380.92 1393.54L729.075 1467.93L815.554 1063.21" stroke="black" stroke-width="43" stroke-miterlimit="10"/>
<path d="M675.137 868.476C844.094 904.578 1010.31 796.942 1046.4 628.065C1082.48 459.187 974.769 293.019 805.811 256.917C636.854 220.815 470.634 328.451 434.549 497.328C398.465 666.206 506.179 832.374 675.137 868.476Z" fill="#F2D359"/>
<path d="M617.031 358.205L713.924 495.091" stroke="#7D6917" stroke-width="43" stroke-miterlimit="10"/>
<path d="M599.208 470.581L737.664 383.982" stroke="#7D6917" stroke-width="43" stroke-miterlimit="10"/>
<path d="M848.91 410.217L925.353 550.158" stroke="#7D6917" stroke-width="43" stroke-miterlimit="10"/>
<path d="M692.051 793.357C687.85 792.459 686.072 789.707 686.973 785.494L691.474 764.428C651.493 753.852 627.417 727.357 625.409 694.056C624.901 688.525 628.248 685.513 633.696 685.321L661.258 684.433C666.313 684.496 669.06 687.455 670.283 692.8C673.007 706.938 683.025 718.567 700.13 723.917L711.418 671.089L701.007 664.459C677.531 650.971 648.792 624.158 655.741 590.059C663.774 552.464 699.345 534.648 739.395 540.156L744.173 517.793C745.074 513.58 747.821 511.795 752.022 512.693L757.516 513.867C761.717 514.764 763.494 517.516 762.594 521.73L757.747 544.416C787.824 553.893 805.552 575.303 810.031 603.371C811.185 609.04 808.161 612.122 802.644 612.637L775.128 614.891C770.004 615.152 767.118 612.841 765.895 607.496C764.025 597.269 758.485 589.985 748.952 585.576L738.495 634.514L749.552 641.282C789.163 664.657 800.867 690.541 795.627 718.227C787.247 757.442 751.122 773.107 709.964 768.04L705.393 789.43C704.493 793.643 701.746 795.429 697.545 794.531L692.051 793.357ZM721.529 623.772L730.67 580.992C718.874 580.843 708.694 585.785 706.201 597.452C704.747 604.258 705.347 612.52 719.797 622.385L721.529 623.772ZM718.689 727.204C733.209 727.257 742.95 721.205 745.443 709.538C747.521 699.815 742.258 691.235 730.116 683.218L728.384 681.831L718.689 727.204Z" fill="#7D6917"/>
<path d="M807.015 522.399L967.258 437.981" stroke="#7D6917" stroke-width="43" stroke-miterlimit="10"/>
<path d="M276.731 932.481L358.617 549.254L1091.69 705.892L1009.8 1089.12" stroke="black" stroke-width="43" stroke-miterlimit="10"/>
</svg>
