<svg width="1100" height="1990" viewBox="0 0 1100 1990" fill="none" xmlns="http://www.w3.org/2000/svg">
<path d="M765.572 1453.74L93.5404 1368.76C93.5404 1368.76 102.744 741.839 50.4761 632.667C469.46 522.298 1048.66 659.949 1048.66 659.949L765.572 1453.74Z" fill="#8E0084"/>
<path d="M293.356 1443.81C381.714 1443.14 450.929 1119.4 447.952 720.702C444.976 322.007 370.934 -0.662094 282.576 0.00102024C194.218 0.664134 125.003 324.408 127.98 723.104C130.956 1121.8 204.998 1444.47 293.356 1443.81Z" fill="#F2D359"/>
<path d="M291.159 241.096C334.647 219.239 364.157 190.087 357.071 175.983C349.985 161.879 308.987 168.163 265.498 190.019C222.01 211.876 192.5 241.027 199.586 255.132C206.672 269.236 247.67 262.952 291.159 241.096Z" fill="#7D6917"/>
<path d="M298.046 433.598C356.109 412.392 397.605 379.933 390.729 361.097C383.853 342.262 331.209 344.183 273.145 365.388C215.082 386.593 173.586 419.053 180.462 437.888C187.338 456.724 239.982 454.803 298.046 433.598Z" fill="#7D6917"/>
<path d="M307.986 622.493C366.049 601.287 407.545 568.828 400.668 549.992C393.792 531.157 341.148 533.078 283.085 554.283C225.021 575.488 183.526 607.948 190.402 626.783C197.278 645.619 249.922 643.698 307.986 622.493Z" fill="#7D6917"/>
<path d="M585.265 1037.13C585.265 1037.13 670.647 755.728 642.672 529.421C669.479 502.903 680.003 519.089 680.003 519.089C680.003 519.089 697.382 751.469 682.168 907.405C718.158 739.265 768.732 453.925 739.248 290.517C772.14 271.369 795.02 273.956 795.02 273.956C795.02 273.956 769.967 645.682 748.574 834.881C727.181 1024.08 844.736 241.812 887.962 181.212C922.564 175.425 927.315 197.788 927.315 197.788C927.315 197.788 872.404 383.188 864.822 450.245C932.652 343.665 999.699 351.246 999.699 351.246C999.699 351.246 1017.75 363.242 1015.31 384.793C979.896 397.769 877.033 471.025 864.208 498.682C851.382 526.34 780.669 884.589 780.669 884.589L585.282 1037.13L585.265 1037.13Z" fill="#18A352"/>
<path d="M619.701 377.323C647.977 380.52 673.491 360.187 676.689 331.906C679.887 303.626 659.557 278.109 631.281 274.911C603.006 271.714 577.491 292.048 574.294 320.328C571.096 348.609 591.426 374.126 619.701 377.323Z" fill="#005423"/>
<path d="M589.817 584.184C618.092 587.381 643.606 567.047 646.804 538.767C650.002 510.487 629.672 484.97 601.396 481.772C573.121 478.575 547.607 498.909 544.409 527.189C541.211 555.469 561.541 580.987 589.817 584.184Z" fill="#005423"/>
<path d="M646.21 544.022C674.486 547.219 700 526.885 703.197 498.605C706.395 470.325 686.065 444.807 657.79 441.61C629.514 438.413 604 458.747 600.802 487.027C597.605 515.307 617.934 540.825 646.21 544.022Z" fill="#005423"/>
<path d="M691.378 557.249C719.653 560.446 745.168 540.112 748.365 511.832C751.563 483.552 731.233 458.034 702.958 454.837C674.682 451.64 649.168 471.974 645.97 500.254C642.772 528.534 663.102 554.052 691.378 557.249Z" fill="#005423"/>
<path d="M688.194 505.02C716.47 508.217 741.984 487.883 745.182 459.603C748.38 431.322 728.05 405.805 699.774 402.608C671.498 399.411 645.984 419.745 642.787 448.025C639.589 476.305 659.919 501.822 688.194 505.02Z" fill="#005423"/>
<path d="M611.704 504.164C639.98 507.361 665.494 487.027 668.692 458.747C671.889 430.467 651.56 404.949 623.284 401.752C595.008 398.555 569.494 418.889 566.296 447.169C563.099 475.449 583.428 500.967 611.704 504.164Z" fill="#005423"/>
<path d="M617.642 451.651C645.918 454.848 671.432 434.514 674.629 406.234C677.827 377.954 657.497 352.436 629.222 349.239C600.946 346.042 575.432 366.376 572.234 394.656C569.036 422.936 589.366 448.454 617.642 451.651Z" fill="#005423"/>
<path d="M670.467 443.044C698.743 446.241 724.257 425.907 727.455 397.627C730.652 369.347 710.323 343.829 682.047 340.632C653.771 337.435 628.257 357.769 625.06 386.049C621.862 414.329 642.192 439.847 670.467 443.044Z" fill="#005423"/>
<path d="M728.361 389.61C756.637 392.807 782.151 372.473 785.349 344.193C788.546 315.912 768.217 290.395 739.941 287.198C711.665 284.001 686.151 304.334 682.954 332.615C679.756 360.895 700.086 386.412 728.361 389.61Z" fill="#005423"/>
<path d="M720.577 344.98C748.853 348.177 774.367 327.843 777.564 299.563C780.762 271.283 760.432 245.765 732.157 242.568C703.881 239.371 678.367 259.705 675.169 287.985C671.972 316.265 692.301 341.783 720.577 344.98Z" fill="#005423"/>
<path d="M744.994 301.202C773.269 304.399 798.783 284.065 801.981 255.785C805.179 227.505 784.849 201.987 756.573 198.79C728.298 195.593 702.784 215.927 699.586 244.207C696.388 272.487 716.718 298.005 744.994 301.202Z" fill="#005423"/>
<path d="M796.191 306.991C824.467 310.188 849.981 289.854 853.179 261.574C856.376 233.294 836.047 207.776 807.771 204.579C779.495 201.382 753.981 221.716 750.783 249.996C747.586 278.276 767.916 303.794 796.191 306.991Z" fill="#005423"/>
<path d="M787.144 387.007C815.419 390.204 840.934 369.87 844.131 341.59C847.329 313.31 826.999 287.792 798.724 284.595C770.448 281.398 744.934 301.732 741.736 330.012C738.538 358.292 758.868 383.81 787.144 387.007Z" fill="#005423"/>
<path d="M808.28 360.218C836.556 363.416 862.07 343.082 865.268 314.802C868.466 286.521 848.136 261.004 819.86 257.807C791.584 254.61 766.07 274.943 762.873 303.224C759.675 331.504 780.005 357.021 808.28 360.218Z" fill="#005423"/>
<path d="M861.057 249.341C889.332 252.538 914.847 232.204 918.044 203.924C921.242 175.644 900.912 150.126 872.636 146.929C844.361 143.732 818.847 164.066 815.649 192.346C812.451 220.626 832.781 246.144 861.057 249.341Z" fill="#005423"/>
<path d="M946.823 207.178C975.099 210.375 1000.61 190.041 1003.81 161.761C1007.01 133.481 986.679 107.964 958.403 104.766C930.127 101.569 904.613 121.903 901.416 150.183C898.218 178.463 918.548 203.981 946.823 207.178Z" fill="#005423"/>
<path d="M920.394 285.846C948.67 289.043 974.184 268.71 977.382 240.429C980.579 212.149 960.249 186.632 931.974 183.435C903.698 180.237 878.184 200.571 874.986 228.851C871.789 257.132 892.118 282.649 920.394 285.846Z" fill="#005423"/>
<path d="M960.273 290.355C988.549 293.553 1014.06 273.219 1017.26 244.939C1020.46 216.658 1000.13 191.141 971.853 187.944C943.578 184.747 918.063 205.08 914.866 233.361C911.668 261.641 931.998 287.158 960.273 290.355Z" fill="#005423"/>
<path d="M899.349 370.516C927.624 373.713 953.138 353.379 956.336 325.099C959.534 296.819 939.204 271.301 910.928 268.104C882.653 264.907 857.139 285.241 853.941 313.521C850.743 341.801 871.073 367.319 899.349 370.516Z" fill="#005423"/>
<path d="M896.53 318.336C924.806 321.534 950.32 301.2 953.518 272.92C956.715 244.639 936.386 219.122 908.11 215.925C879.834 212.728 854.32 233.061 851.122 261.342C847.925 289.622 868.254 315.139 896.53 318.336Z" fill="#005423"/>
<path d="M953.562 405.824C981.838 409.021 1007.35 388.687 1010.55 360.407C1013.75 332.127 993.418 306.609 965.142 303.412C936.866 300.215 911.352 320.549 908.154 348.829C904.957 377.109 925.286 402.627 953.562 405.824Z" fill="#005423"/>
<path d="M1015.43 383.641C1043.71 386.839 1069.22 366.505 1072.42 338.224C1075.62 309.944 1055.29 284.427 1027.01 281.23C998.736 278.033 973.222 298.366 970.024 326.647C966.827 354.927 987.156 380.444 1015.43 383.641Z" fill="#005423"/>
<path d="M1042.05 447.338C1070.33 450.535 1095.84 430.201 1099.04 401.921C1102.24 373.641 1081.91 348.123 1053.63 344.926C1025.36 341.729 999.844 362.063 996.646 390.343C993.448 418.623 1013.78 444.141 1042.05 447.338Z" fill="#005423"/>
<path d="M997.03 479.969C1025.31 483.166 1050.82 462.832 1054.02 434.552C1057.22 406.272 1036.89 380.754 1008.61 377.557C980.335 374.36 954.821 394.694 951.623 422.974C948.425 451.254 968.755 476.771 997.03 479.969Z" fill="#005423"/>
<path d="M974.934 523.673C1003.21 526.871 1028.72 506.537 1031.92 478.256C1035.12 449.976 1014.79 424.459 986.514 421.262C958.238 418.064 932.724 438.398 929.526 466.678C926.329 494.959 946.658 520.476 974.934 523.673Z" fill="#005423"/>
<path d="M950.886 474.751C979.162 477.948 1004.68 457.614 1007.87 429.334C1011.07 401.054 990.742 375.537 962.466 372.339C934.191 369.142 908.677 389.476 905.479 417.756C902.281 446.036 922.611 471.554 950.886 474.751Z" fill="#005423"/>
<path d="M1048.66 659.949C908.741 1148.26 799.193 1901.39 799.193 1901.39C787.958 1957.28 735.831 1995.3 679.188 1988.89L97.482 1923.12C40.1678 1916.64 -2.36457 1866.91 0.102035 1809.28C0.102035 1809.28 56.002 1091.31 50.4761 632.667C198.645 692.694 1048.66 659.949 1048.66 659.949Z" fill="#FF86F7"/>
<path d="M550.789 1182.08C565.123 1036.27 793.743 1062.12 775.14 1207.46C760.807 1353.25 532.187 1327.4 550.789 1182.08Z" fill="white"/>
<path d="M676.151 1078.2C705.959 1081.57 734.98 1094.54 755.406 1116.62C775.961 1138.84 787.413 1169.88 782.528 1208.28C778.714 1246.81 760.616 1274.51 735.613 1291.58C710.771 1308.54 679.586 1314.7 649.778 1311.33C619.971 1307.96 590.95 1294.99 570.524 1272.91C549.967 1250.69 538.514 1219.65 543.401 1181.24C547.217 1142.72 565.316 1115.02 590.316 1097.95C615.159 1080.99 646.344 1074.83 676.151 1078.2ZM674.48 1092.98C647.666 1089.95 620.171 1095.58 598.698 1110.24C577.406 1124.77 561.562 1148.49 558.188 1182.81C558.181 1182.88 558.173 1182.95 558.164 1183.02C553.785 1217.23 563.931 1243.88 581.437 1262.8C599.093 1281.89 624.636 1293.52 651.45 1296.55C678.264 1299.58 705.758 1293.95 727.232 1279.29C748.524 1264.76 764.367 1241.05 767.74 1206.73C767.747 1206.66 767.756 1206.58 767.765 1206.51C772.144 1172.3 761.998 1145.65 744.492 1126.73C726.836 1107.64 701.294 1096.01 674.48 1092.98Z" fill="#231F20"/>
<path d="M538.639 1394.48C541.205 1391.27 545.884 1390.75 549.089 1393.31C552.295 1395.88 552.814 1400.56 550.249 1403.77C531.355 1427.39 497.886 1440.95 464.884 1441.32C431.704 1441.69 397.393 1428.72 377.735 1397.21C375.562 1393.72 376.623 1389.14 380.107 1386.96C383.59 1384.79 388.176 1385.85 390.35 1389.33C406.565 1415.33 435.261 1426.77 464.717 1426.44C494.351 1426.11 523.146 1413.84 538.639 1394.48Z" fill="#231F20"/>
<path d="M223.935 1151.26C238.269 1005.45 466.889 1031.3 448.285 1176.63C433.953 1322.43 205.333 1296.58 223.935 1151.26Z" fill="white"/>
<path d="M349.297 1047.38C379.105 1050.75 408.126 1063.72 428.552 1085.8C449.107 1108.02 460.559 1139.05 455.674 1177.46C451.86 1215.99 433.762 1243.69 408.759 1260.75C383.917 1277.71 352.732 1283.87 322.924 1280.5C293.117 1277.13 264.096 1264.16 243.67 1242.08C223.113 1219.86 211.66 1188.83 216.547 1150.42C220.363 1111.89 238.462 1084.2 263.462 1067.13C288.305 1050.17 319.49 1044.01 349.297 1047.38ZM347.626 1062.16C320.812 1059.12 293.317 1064.75 271.844 1079.41C250.552 1093.95 234.708 1117.66 231.334 1151.98C231.327 1152.06 231.319 1152.13 231.31 1152.2C226.931 1186.41 237.077 1213.06 254.583 1231.98C272.239 1251.06 297.782 1262.69 324.596 1265.72C351.41 1268.76 378.904 1263.13 400.378 1248.47C421.669 1233.93 437.513 1210.22 440.886 1175.9C440.893 1175.83 440.901 1175.76 440.911 1175.69C445.29 1141.48 435.144 1114.83 417.638 1095.9C399.982 1076.82 374.44 1065.19 347.626 1062.16Z" fill="#231F20"/>
<path d="M304.891 1187.38C330.077 1190.23 353.647 1164.66 357.536 1130.26C361.425 1095.87 344.16 1065.68 318.974 1062.83C293.787 1059.99 270.217 1085.56 266.329 1119.95C262.44 1154.34 279.705 1184.53 304.891 1187.38Z" fill="#231F20"/>
<path d="M350.149 1129.43C351.934 1113.64 348.819 1099.11 342.704 1088.41C336.587 1077.72 327.809 1071.32 318.138 1070.22C308.468 1069.13 298.483 1073.41 290.131 1082.47C281.783 1091.53 275.502 1104.99 273.716 1120.79C271.93 1136.58 275.046 1151.11 281.16 1161.8C287.278 1172.5 296.056 1178.9 305.727 1179.99C315.397 1181.08 325.382 1176.81 333.734 1167.75C342.082 1158.69 348.363 1145.22 350.149 1129.43ZM364.924 1131.1C362.821 1149.7 355.372 1166.21 344.666 1177.83C333.964 1189.44 319.571 1196.53 304.056 1194.77C288.54 1193.02 276.092 1182.9 268.253 1169.19C260.411 1155.48 256.838 1137.72 258.941 1119.12C261.044 1100.52 268.492 1084 279.198 1072.39C289.9 1060.78 304.294 1053.69 319.809 1055.45C335.325 1057.2 347.773 1067.32 355.612 1081.03C363.454 1094.74 367.027 1112.5 364.924 1131.1Z" fill="#231F20"/>
<path d="M633.936 1224.59C659.122 1227.43 682.693 1201.86 686.581 1167.47C690.47 1133.08 673.205 1102.89 648.019 1100.04C622.832 1097.19 599.262 1122.76 595.374 1157.16C591.485 1191.55 608.75 1221.74 633.936 1224.59Z" fill="#231F20"/>
<path d="M679.194 1166.64C680.979 1150.84 677.864 1136.31 671.749 1125.62C665.632 1114.92 656.854 1108.52 647.183 1107.43C637.513 1106.34 627.528 1110.61 619.176 1119.67C610.828 1128.73 604.547 1142.2 602.761 1157.99C600.976 1173.78 604.091 1188.32 610.205 1199.01C616.323 1209.71 625.101 1216.1 634.772 1217.2C644.442 1218.29 654.427 1214.01 662.779 1204.95C671.127 1195.9 677.408 1182.43 679.194 1166.64ZM693.969 1168.31C691.866 1186.91 684.417 1203.42 673.711 1215.03C663.009 1226.65 648.616 1233.73 633.101 1231.98C617.585 1230.22 605.137 1220.1 597.298 1206.39C589.456 1192.68 585.883 1174.92 587.986 1156.32C590.089 1137.72 597.538 1121.21 608.244 1109.59C618.946 1097.98 633.339 1090.9 648.854 1092.65C664.37 1094.41 676.818 1104.53 684.657 1118.23C692.499 1131.95 696.072 1149.71 693.969 1168.31Z" fill="#231F20"/>
</svg>
