<svg width="32" height="32" viewBox="0 0 32 32" fill="none" xmlns="http://www.w3.org/2000/svg">
<path fill-rule="evenodd" clip-rule="evenodd" d="M9.8 9.27778C9.8 6.30572 12.3438 4 15.35 4C18.1813 4 20.6025 6.04528 20.8746 8.76623L23.5447 8.049C23.7436 7.99554 23.9484 7.94048 24.1255 7.90856C24.3173 7.87399 24.5879 7.84342 24.8851 7.9227C25.2675 8.02469 25.6114 8.26153 25.8375 8.60466C26.0173 8.87749 26.0648 9.15918 26.0833 9.35499C26.1001 9.53182 26.1001 9.73925 26.1 9.93083L26.1 11.3077C26.1078 11.3151 26.1161 11.323 26.1248 11.3313C26.8451 12.0137 27.4432 12.8163 27.8815 13.7077C27.894 13.7332 27.9054 13.7564 27.9159 13.7778C27.9352 13.7778 27.9559 13.7778 27.9785 13.7778L28.0031 13.7778C28.1547 13.7777 28.3174 13.7777 28.4581 13.788C28.6158 13.7996 28.8251 13.828 29.0446 13.9274C29.3745 14.0768 29.6543 14.3334 29.8256 14.6678C29.9418 14.8945 29.9752 15.1127 29.9885 15.2733C30.0001 15.4129 30 15.5725 30 15.7128L30 19.9377C30.0001 20.0851 30.0001 20.2527 29.9874 20.3991C29.9727 20.5679 29.9358 20.7966 29.8083 21.0317C29.6417 21.3392 29.3821 21.578 29.0771 21.7241C28.8487 21.8336 28.6291 21.8649 28.4635 21.8776C28.3159 21.889 28.1451 21.8889 27.9858 21.8889L27.2564 21.8889C27.233 21.8889 27.2119 21.8889 27.1927 21.8889C27.1782 21.9086 27.1623 21.9305 27.1443 21.9552C26.2481 23.1833 25.0164 24.1671 23.5808 24.7937C23.5514 24.8066 23.5246 24.8183 23.5 24.8291L23.5 26.0488C23.5001 26.1962 23.5001 26.3638 23.4874 26.5102C23.4727 26.679 23.4358 26.9077 23.3083 27.1428C23.1417 27.4504 22.8821 27.6892 22.5771 27.8353C22.3487 27.9447 22.1291 27.976 21.9635 27.9887C21.8159 28.0001 21.6451 28 21.4858 28H18.9641C18.8048 28 18.634 28.0001 18.4864 27.9887C18.3208 27.976 18.1012 27.9447 17.8728 27.8353C17.5678 27.6892 17.3082 27.4504 17.1416 27.1428C17.0142 26.9077 16.9772 26.679 16.9625 26.5102C16.9498 26.3638 16.9499 26.1962 16.9499 26.0488L16.9499 25.5556C16.937 25.5556 16.9237 25.5556 16.9099 25.5556H15.0899C15.0761 25.5556 15.0628 25.5556 15.0499 25.5556L15.0499 26.0488C15.05 26.1962 15.05 26.3638 15.0373 26.5102C15.0226 26.679 14.9857 26.9077 14.8583 27.1428C14.6916 27.4504 14.432 27.6892 14.127 27.8353C13.8986 27.9447 13.679 27.976 13.5134 27.9887C13.3658 28.0001 13.195 28 13.0357 28H10.5141C10.3548 28 10.184 28.0001 10.0364 27.9887C9.87083 27.976 9.65119 27.9447 9.42279 27.8353C9.1178 27.6892 8.85825 27.4504 8.69157 27.1428C8.56415 26.9077 8.52719 26.679 8.51252 26.5102C8.4998 26.3638 8.49986 26.1962 8.4999 26.0488L8.49991 23.1367C8.4921 23.1293 8.48384 23.1215 8.47507 23.1132C7.12447 21.8334 6.20359 20.1299 5.96263 18.2222H5.6C3.67079 18.2222 2 16.7373 2 14.7778C2 13.4706 2.75613 12.3617 3.82223 11.7819C4.3074 11.518 4.91462 11.6974 5.17848 12.1826C5.44235 12.6678 5.26295 13.275 4.77777 13.5388C4.28959 13.8043 4 14.2754 4 14.7778C4 15.5183 4.65733 16.2222 5.6 16.2222H5.96214C6.27839 13.7013 7.77567 11.5507 9.89266 10.2426C9.8318 9.9295 9.8 9.60696 9.8 9.27778ZM11.8009 9.35181C12.7102 9.05155 13.686 8.88889 14.6999 8.88889H18.8748C18.6684 7.30523 17.2186 6 15.35 6C13.3304 6 11.8 7.52473 11.8 9.27778C11.8 9.30253 11.8003 9.3272 11.8009 9.35181ZM11.4621 11.6497C9.32414 12.7308 7.89991 14.8458 7.89991 17.2222C7.89991 18.9417 8.63563 20.5101 9.85068 21.6614C9.85956 21.6698 9.8694 21.679 9.88002 21.689C9.97545 21.7784 10.1349 21.9278 10.2443 22.0968C10.3407 22.2456 10.4072 22.3963 10.4513 22.5702C10.502 22.7698 10.5008 22.9779 10.5001 23.0924C10.5 23.1044 10.4999 23.1155 10.4999 23.1253V26C10.5128 26 10.5261 26 10.5399 26H13.0099C13.0237 26 13.037 26 13.0499 26L13.0499 25.5067C13.0499 25.3593 13.0498 25.1917 13.0625 25.0454C13.0772 24.8765 13.1142 24.6479 13.2416 24.4128C13.4082 24.1052 13.6678 23.8664 13.9728 23.7203C14.2012 23.6109 14.4208 23.5795 14.5864 23.5668C14.734 23.5555 14.9048 23.5555 15.0641 23.5556H16.9357C17.095 23.5555 17.2658 23.5555 17.4134 23.5668C17.579 23.5795 17.7986 23.6109 18.027 23.7203C18.332 23.8664 18.5916 24.1052 18.7583 24.4128C18.8857 24.6479 18.9226 24.8765 18.9373 25.0454C18.95 25.1917 18.95 25.3593 18.9499 25.5067L18.9499 26C18.9628 26 18.9761 26 18.9899 26H21.46C21.4738 26 21.4871 26 21.5 26L21.5 24.8106C21.5 24.7042 21.4999 24.583 21.5067 24.4766C21.5143 24.3553 21.5334 24.1885 21.6018 24.0072C21.694 23.7626 21.8291 23.5662 22.0172 23.3928C22.1614 23.2599 22.3153 23.1767 22.4199 23.1245C22.521 23.0741 22.6433 23.0207 22.7633 22.9684L22.7808 22.9608C23.8989 22.4727 24.8464 21.7113 25.5287 20.7763C25.5379 20.7637 25.5479 20.7497 25.5587 20.7348C25.6558 20.5998 25.815 20.3788 26.0146 20.2274C26.187 20.0967 26.3641 20.0097 26.5695 19.952C26.802 19.8865 27.0519 19.8879 27.2097 19.8887C27.2263 19.8888 27.2419 19.8889 27.2564 19.8889H27.96C27.9738 19.8889 27.9871 19.8889 28 19.8889V15.7778C27.993 15.7778 27.9858 15.7778 27.9785 15.7778C27.9617 15.7778 27.9435 15.7779 27.9241 15.778C27.7428 15.7791 27.4572 15.7808 27.1991 15.699C26.9426 15.6177 26.7272 15.49 26.5323 15.2964C26.3972 15.1623 26.3101 15.0185 26.2548 14.9196C26.2026 14.8261 26.1474 14.7137 26.0948 14.6066L26.0866 14.5901C25.7566 13.9189 25.3027 13.3075 24.7492 12.7831C24.7403 12.7746 24.7305 12.7654 24.7199 12.7554C24.6245 12.666 24.465 12.5166 24.3556 12.3477C24.2592 12.1989 24.1927 12.0481 24.1486 11.8743C24.0979 11.6747 24.0992 11.4666 24.0999 11.3521C24.0999 11.34 24.1 11.329 24.1 11.3191V9.97074C24.0788 9.97642 24.0568 9.98234 24.0337 9.98854L20.9494 10.817C20.946 10.818 20.9423 10.8189 20.9384 10.82C20.8987 10.8307 20.8347 10.848 20.7671 10.8606C20.709 10.8713 20.6504 10.8791 20.5915 10.8837C20.5231 10.8891 20.4567 10.889 20.4152 10.8889C20.4111 10.8889 20.4072 10.8889 20.4036 10.8889H14.6999C13.5445 10.8889 12.4609 11.1567 11.5129 11.6263C11.4961 11.6346 11.4792 11.6424 11.4621 11.6497ZM27.7226 13.7742L27.7245 13.7744L27.7226 13.7742Z" fill="currentColor"/>
</svg>
