<svg width="923" height="1306" viewBox="0 0 923 1306" fill="none" xmlns="http://www.w3.org/2000/svg">
<path d="M864.777 1046C864.777 1073.26 832.004 1098.31 777.158 1118.09C703.252 1144.75 589.251 1161.84 461.354 1161.84C333.457 1161.84 219.469 1144.75 145.556 1118.09C90.7097 1098.31 57.9375 1073.26 57.9375 1046C57.9375 982.03 238.555 930.172 461.354 930.172C684.153 930.172 864.777 982.03 864.777 1046Z" fill="#F2D359"/>
<path d="M864.777 1046.01V1190.17C864.777 1254.14 684.159 1306 461.354 1306C238.549 1306 57.9375 1254.14 57.9375 1190.17V1046.01C57.9375 1073.26 90.7097 1098.31 145.556 1118.09C219.469 1144.75 333.463 1161.84 461.354 1161.84C589.245 1161.84 703.252 1144.75 777.158 1118.09C832.004 1098.31 864.777 1073.26 864.777 1046.01Z" fill="#7D6917"/>
<path d="M922.71 887.8C922.71 915.05 889.938 940.105 835.092 959.881C761.185 986.544 647.185 1003.63 519.287 1003.63C391.39 1003.63 277.402 986.544 203.489 959.881C148.643 940.105 115.871 915.05 115.871 887.8C115.871 823.825 296.489 771.967 519.287 771.967C742.086 771.967 922.71 823.825 922.71 887.8Z" fill="#F2D359"/>
<path d="M922.71 887.801V1031.96C922.71 1095.94 742.093 1147.8 519.287 1147.8C296.482 1147.8 115.871 1095.94 115.871 1031.96V887.801C115.871 915.051 148.643 940.106 203.489 959.882C277.402 986.545 391.397 1003.63 519.287 1003.63C647.178 1003.63 761.185 986.545 835.092 959.882C889.938 940.106 922.71 915.051 922.71 887.801Z" fill="#7D6917"/>
<path d="M806.839 734.049C806.839 761.3 774.067 786.355 719.221 806.131C645.314 832.794 531.314 849.882 403.416 849.882C275.519 849.882 161.531 832.794 87.6182 806.131C32.7722 786.355 0 761.3 0 734.049C0 670.075 180.617 618.217 403.416 618.217C626.215 618.217 806.839 670.075 806.839 734.049Z" fill="#F2D359"/>
<path d="M806.839 734.051V878.213C806.839 942.187 626.222 994.046 403.416 994.046C180.611 994.046 0 942.187 0 878.213V734.051C0 761.301 32.7722 786.356 87.6182 806.132C161.531 832.795 275.525 849.884 403.416 849.884C531.307 849.884 645.314 832.795 719.221 806.132C774.067 786.356 806.839 761.301 806.839 734.051Z" fill="#7D6917"/>
<path d="M909.335 589.887C909.335 617.138 876.563 642.193 821.717 661.968C747.81 688.632 633.81 705.72 505.912 705.72C378.015 705.72 264.027 688.632 190.114 661.968C135.268 642.193 102.496 617.138 102.496 589.887C102.496 525.913 283.114 474.055 505.912 474.055C728.711 474.055 909.335 525.913 909.335 589.887Z" fill="#F2D359"/>
<path d="M909.335 589.889V734.051C909.335 798.025 728.718 849.883 505.912 849.883C283.107 849.883 102.496 798.025 102.496 734.051V589.889C102.496 617.139 135.268 642.194 190.114 661.97C264.027 688.633 378.022 705.721 505.912 705.721C633.803 705.721 747.81 688.633 821.717 661.97C876.563 642.194 909.335 617.139 909.335 589.889Z" fill="#7D6917"/>
<path d="M819.308 445.725C819.308 472.976 786.536 498.031 731.69 517.806C657.783 544.47 543.782 561.558 415.885 561.558C287.988 561.558 174 544.47 100.087 517.806C45.241 498.031 12.4688 472.976 12.4688 445.725C12.4688 381.751 193.086 329.893 415.885 329.893C638.684 329.893 819.308 381.751 819.308 445.725Z" fill="#F2D359"/>
<path d="M819.308 445.727V589.889C819.308 653.863 638.69 705.721 415.885 705.721C193.08 705.721 12.4688 653.863 12.4688 589.889V445.727C12.4688 472.977 45.241 498.032 100.087 517.808C174 544.471 287.994 561.559 415.885 561.559C543.776 561.559 657.783 544.471 731.69 517.808C786.536 498.032 819.308 472.977 819.308 445.727Z" fill="#7D6917"/>
<path d="M864.777 286.2C864.777 313.45 832.004 338.505 777.158 358.281C703.252 384.944 589.251 402.033 461.354 402.033C333.457 402.033 219.469 384.944 145.556 358.281C90.7097 338.505 57.9375 313.45 57.9375 286.2C57.9375 222.226 238.555 170.367 461.354 170.367C684.153 170.367 864.777 222.226 864.777 286.2Z" fill="#F2D359"/>
<path d="M864.777 286.199V430.361C864.777 494.335 684.159 546.194 461.354 546.194C238.549 546.194 57.9375 494.335 57.9375 430.361V286.199C57.9375 313.45 90.7097 338.505 145.556 358.28C219.469 384.944 333.463 402.032 461.354 402.032C589.245 402.032 703.252 384.944 777.158 358.28C832.004 338.505 864.777 313.45 864.777 286.199Z" fill="#7D6917"/>
<path d="M842.874 115.833C842.874 143.083 810.102 168.138 755.256 187.914C681.349 214.577 567.349 231.665 439.452 231.665C311.554 231.665 197.566 214.577 123.653 187.914C68.8074 168.138 36.0352 143.083 36.0352 115.833C36.0352 51.8585 216.653 0 439.452 0C662.25 0 842.874 51.8585 842.874 115.833Z" fill="#F2D359"/>
<path d="M842.874 115.834V259.996C842.874 323.97 662.257 375.829 439.452 375.829C216.646 375.829 36.0352 323.97 36.0352 259.996V115.834C36.0352 143.085 68.8074 168.139 123.653 187.915C197.566 214.578 311.561 231.667 439.452 231.667C567.342 231.667 681.349 214.578 755.256 187.915C810.102 168.139 842.874 143.085 842.874 115.834Z" fill="#7D6917"/>
</svg>
