<svg width="1461" height="1662" viewBox="0 0 1461 1662" fill="none" xmlns="http://www.w3.org/2000/svg">
<path d="M1354.92 659H105.379V1661.89H1354.92V659Z" fill="#FFC5FB"/>
<path d="M1460.31 386.82H0V658.99H1460.31V386.82Z" fill="#FF86F7"/>
<path d="M844.419 659H615.879V1661.89H844.419V659Z" fill="#50DB8A"/>
<path d="M844.419 386.82H615.879V658.99H844.419V386.82Z" fill="#18A352"/>
<path d="M844.42 80.4108C738.21 224.021 730.16 386.831 730.16 386.831C730.16 386.831 1098.66 417.121 1131.85 187.111C1165.05 -42.8992 932.45 -38.6292 844.42 80.4108ZM781.16 356.501C782.19 354.331 935.74 32.8508 1024.59 135.361C1113.42 237.871 783.44 355.701 781.16 356.501Z" fill="#50DB8A"/>
<path d="M615.89 80.4108C722.1 224.021 730.15 386.831 730.15 386.831C730.15 386.831 361.65 417.121 328.46 187.111C295.26 -42.8992 527.86 -38.6292 615.89 80.4108ZM679.15 356.501C678.12 354.331 524.57 32.8508 435.72 135.361C346.89 237.871 676.87 355.701 679.15 356.501Z" fill="#50DB8A"/>
<path d="M730.148 386.899C730.148 386.899 903.258 373.219 953.168 538.369C1003.08 703.519 1120.71 784.469 1120.71 784.469L987.388 865.429C987.388 865.429 879.078 729.419 856.118 612.849C833.158 496.279 730.148 386.899 730.148 386.899Z" fill="#50DB8A"/>
<path d="M730.16 386.83C730.16 386.83 527.7 414.48 478.4 556.59C436.08 678.58 275.66 768.8 275.66 768.8L393.13 855.73C393.13 855.73 544.73 696.42 567.45 611.54C603.45 477.01 730.16 386.84 730.16 386.84V386.83Z" fill="#50DB8A"/>
</svg>
